<svg width="831" height="799" viewBox="0 0 831 799" fill="none" xmlns="http://www.w3.org/2000/svg">
<g clip-path="url(#clip0_1035_11651)">
<g filter="url(#filter0_f_1035_11651)">
<path d="M296.02 732.84H188.638C188.179 732.84 187.74 732.656 187.415 732.329C187.091 732.003 186.909 731.559 186.909 731.097V589.662C186.909 589.2 187.091 588.757 187.415 588.43C187.74 588.103 188.179 587.92 188.638 587.92H296.02C296.479 587.92 296.918 588.103 297.243 588.43C297.567 588.757 297.749 589.2 297.749 589.662V731.097C297.749 731.559 297.567 732.003 297.243 732.329C296.918 732.656 296.479 732.84 296.02 732.84ZM190.366 729.355H294.292V591.405H190.366V729.355Z" fill="#C7E3F9" fill-opacity="0.6"/>
<path d="M750.114 732.84H642.73C642.272 732.84 641.832 732.656 641.508 732.329C641.184 732.003 641.002 731.559 641.002 731.097V589.662C641.002 589.2 641.184 588.757 641.508 588.43C641.832 588.103 642.272 587.92 642.73 587.92H750.114C750.572 587.92 751.012 588.103 751.336 588.43C751.66 588.757 751.842 589.2 751.842 589.662V731.097C751.842 731.559 751.66 732.003 751.336 732.329C751.012 732.656 750.572 732.84 750.114 732.84ZM644.459 729.355H748.385V591.405H644.459V729.355Z" fill="#C7E3F9" fill-opacity="0.6"/>
<path d="M823.036 707.901H750.113C749.654 707.901 749.215 707.717 748.891 707.391C748.566 707.064 748.384 706.621 748.384 706.159C748.384 705.697 748.566 705.253 748.891 704.927C749.215 704.6 749.654 704.416 750.113 704.416H821.307V289.744H713.851V578.804C713.851 579.266 713.669 579.709 713.345 580.036C713.021 580.363 712.581 580.546 712.123 580.546C711.665 580.546 711.225 580.363 710.901 580.036C710.577 579.709 710.395 579.266 710.395 578.804V288.002C710.395 287.54 710.577 287.097 710.901 286.77C711.225 286.443 711.665 286.26 712.123 286.26H823.036C823.494 286.26 823.934 286.443 824.258 286.77C824.582 287.097 824.764 287.54 824.764 288.002V706.159C824.764 706.387 824.719 706.614 824.633 706.825C824.546 707.037 824.418 707.229 824.258 707.391C824.097 707.552 823.907 707.681 823.697 707.768C823.488 707.856 823.263 707.901 823.036 707.901Z" fill="#C7E3F9" fill-opacity="0.6"/>
<path d="M829.731 289.744H712.159C711.701 289.744 711.261 289.561 710.937 289.234C710.613 288.907 710.431 288.464 710.431 288.002V275.971C710.431 275.509 710.613 275.066 710.937 274.739C711.261 274.412 711.701 274.229 712.159 274.229H829.731C830.189 274.229 830.629 274.412 830.953 274.739C831.277 275.066 831.46 275.509 831.46 275.971V288.002C831.46 288.464 831.277 288.907 830.953 289.234C830.629 289.561 830.189 289.744 829.731 289.744ZM713.888 286.26H828.003V277.713H713.888V286.26Z" fill="#C7E3F9" fill-opacity="0.6"/>
<path d="M823.035 277.713C822.627 277.713 822.232 277.568 821.921 277.302L764.473 228.414H710.974C710.515 228.414 710.076 228.231 709.751 227.904C709.427 227.577 709.245 227.134 709.245 226.672C709.245 226.21 709.427 225.767 709.751 225.44C710.076 225.113 710.515 224.93 710.974 224.93H765.105C765.514 224.93 765.908 225.075 766.22 225.341L824.151 274.639C824.422 274.87 824.616 275.178 824.707 275.524C824.798 275.869 824.782 276.234 824.66 276.57C824.538 276.905 824.317 277.195 824.026 277.399C823.736 277.604 823.39 277.714 823.035 277.713Z" fill="#C7E3F9" fill-opacity="0.6"/>
<path d="M764.303 325.414H740.05V425.772H764.303V325.414Z" fill="#C7E3F9" fill-opacity="0.6"/>
<path d="M764.303 427.518H740.047C739.588 427.518 739.149 427.334 738.825 427.008C738.5 426.681 738.318 426.238 738.318 425.776V325.418C738.318 324.956 738.5 324.513 738.825 324.186C739.149 323.859 739.588 323.676 740.047 323.676H764.303C764.761 323.676 765.201 323.859 765.525 324.186C765.849 324.513 766.031 324.956 766.031 325.418V425.776C766.031 426.238 765.849 426.681 765.525 427.008C765.201 427.334 764.761 427.518 764.303 427.518ZM741.775 424.033H762.574V327.16H741.775V424.033Z" fill="#C7E3F9" fill-opacity="0.6"/>
<path d="M798.802 325.414H774.549V425.772H798.802V325.414Z" fill="#C7E3F9" fill-opacity="0.6"/>
<path d="M798.802 427.518H774.546C774.087 427.518 773.648 427.334 773.324 427.008C772.999 426.681 772.817 426.238 772.817 425.776V325.418C772.817 324.956 772.999 324.513 773.324 324.186C773.648 323.859 774.087 323.676 774.546 323.676H798.802C799.26 323.676 799.7 323.859 800.024 324.186C800.348 324.513 800.53 324.956 800.53 325.418V425.776C800.53 426.238 800.348 426.681 800.024 427.008C799.7 427.334 799.26 427.518 798.802 427.518ZM776.274 424.033H797.073V327.16H776.274V424.033Z" fill="#C7E3F9" fill-opacity="0.6"/>
<path d="M764.303 454.822H740.05V555.18H764.303V454.822Z" fill="#C7E3F9" fill-opacity="0.6"/>
<path d="M764.303 556.922H740.047C739.588 556.922 739.149 556.739 738.825 556.412C738.5 556.085 738.318 555.642 738.318 555.18V454.822C738.318 454.36 738.5 453.917 738.825 453.59C739.149 453.264 739.588 453.08 740.047 453.08H764.303C764.761 453.08 765.201 453.264 765.525 453.59C765.849 453.917 766.031 454.36 766.031 454.822V555.18C766.031 555.642 765.849 556.085 765.525 556.412C765.201 556.739 764.761 556.922 764.303 556.922ZM741.775 553.438H762.574V456.565H741.775V553.438Z" fill="#C7E3F9" fill-opacity="0.6"/>
<path d="M798.802 454.822H774.549V555.18H798.802V454.822Z" fill="#C7E3F9" fill-opacity="0.6"/>
<path d="M798.802 556.922H774.546C774.087 556.922 773.648 556.739 773.324 556.412C772.999 556.085 772.817 555.642 772.817 555.18V454.822C772.817 454.36 772.999 453.917 773.324 453.59C773.648 453.264 774.087 453.08 774.546 453.08H798.802C799.26 453.08 799.7 453.264 800.024 453.59C800.348 453.917 800.53 454.36 800.53 454.822V555.18C800.53 555.642 800.348 556.085 800.024 556.412C799.7 556.739 799.26 556.922 798.802 556.922ZM776.274 553.438H797.073V456.565H776.274V553.438Z" fill="#C7E3F9" fill-opacity="0.6"/>
<path d="M188.638 707.901H115.424C114.965 707.901 114.526 707.717 114.202 707.391C113.877 707.064 113.695 706.621 113.695 706.159V288.002C113.695 287.54 113.877 287.097 114.202 286.77C114.526 286.443 114.965 286.26 115.424 286.26H226.337C226.795 286.26 227.235 286.443 227.559 286.77C227.883 287.097 228.065 287.54 228.065 288.002V578.804C228.065 579.266 227.883 579.709 227.559 580.036C227.235 580.363 226.795 580.546 226.337 580.546C225.878 580.546 225.438 580.363 225.114 580.036C224.79 579.709 224.608 579.266 224.608 578.804V289.744H117.152V704.416H188.638C189.096 704.416 189.536 704.6 189.86 704.927C190.184 705.253 190.366 705.697 190.366 706.159C190.366 706.621 190.184 707.064 189.86 707.391C189.536 707.717 189.096 707.901 188.638 707.901Z" fill="#C7E3F9" fill-opacity="0.6"/>
<path d="M226.337 289.744H108.728C108.27 289.744 107.83 289.561 107.506 289.234C107.182 288.907 107 288.464 107 288.002V275.971C107 275.509 107.182 275.066 107.506 274.739C107.83 274.412 108.27 274.229 108.728 274.229H226.337C226.795 274.229 227.235 274.412 227.559 274.739C227.883 275.066 228.065 275.509 228.065 275.971V288.002C228.065 288.464 227.883 288.907 227.559 289.234C227.235 289.561 226.795 289.744 226.337 289.744ZM110.457 286.26H224.608V277.713H110.457V286.26Z" fill="#C7E3F9" fill-opacity="0.6"/>
<path d="M229.138 277.713H115.424C115.069 277.713 114.723 277.604 114.433 277.399C114.142 277.195 113.921 276.905 113.8 276.569C113.678 276.234 113.661 275.869 113.752 275.524C113.843 275.178 114.037 274.87 114.308 274.639L172.241 225.341C172.553 225.075 172.948 224.93 173.356 224.93H227.747C228.206 224.93 228.646 225.113 228.97 225.44C229.294 225.767 229.476 226.21 229.476 226.672C229.476 227.134 229.294 227.577 228.97 227.904C228.646 228.231 228.206 228.414 227.747 228.414H173.986L120.15 274.229H229.138C229.596 274.229 230.036 274.412 230.36 274.739C230.684 275.066 230.866 275.509 230.866 275.971C230.866 276.433 230.684 276.876 230.36 277.203C230.036 277.53 229.596 277.713 229.138 277.713Z" fill="#C7E3F9" fill-opacity="0.6"/>
<path d="M176.992 425.771H201.245V325.414H176.992V425.771Z" fill="#C7E3F9" fill-opacity="0.6"/>
<path d="M201.245 427.518H176.992C176.534 427.518 176.094 427.334 175.77 427.008C175.446 426.681 175.264 426.238 175.264 425.776V325.418C175.264 324.956 175.446 324.513 175.77 324.186C176.094 323.859 176.534 323.676 176.992 323.676H201.248C201.707 323.676 202.146 323.859 202.47 324.186C202.795 324.513 202.977 324.956 202.977 325.418V425.776C202.977 426.005 202.932 426.232 202.845 426.443C202.758 426.655 202.63 426.847 202.469 427.009C202.309 427.171 202.118 427.299 201.908 427.386C201.698 427.474 201.472 427.518 201.245 427.518ZM178.721 424.033H199.52V327.16H178.721V424.033Z" fill="#C7E3F9" fill-opacity="0.6"/>
<path d="M142.497 425.771H166.75V325.414H142.497V425.771Z" fill="#C7E3F9" fill-opacity="0.6"/>
<path d="M166.75 427.518H142.497C142.039 427.518 141.599 427.334 141.275 427.008C140.951 426.681 140.769 426.238 140.769 425.776V325.418C140.769 324.956 140.951 324.513 141.275 324.186C141.599 323.859 142.039 323.676 142.497 323.676H166.753C167.211 323.676 167.651 323.859 167.975 324.186C168.299 324.513 168.481 324.956 168.481 325.418V425.776C168.481 426.005 168.437 426.232 168.35 426.443C168.263 426.655 168.135 426.847 167.974 427.009C167.813 427.171 167.623 427.299 167.412 427.386C167.202 427.474 166.977 427.518 166.75 427.518ZM144.225 424.033H165.025V327.16H144.225V424.033Z" fill="#C7E3F9" fill-opacity="0.6"/>
<path d="M176.992 555.18H201.245V454.822H176.992V555.18Z" fill="#C7E3F9" fill-opacity="0.6"/>
<path d="M201.245 556.922H176.992C176.534 556.922 176.094 556.739 175.77 556.412C175.446 556.085 175.264 555.642 175.264 555.18V454.822C175.264 454.36 175.446 453.917 175.77 453.59C176.094 453.264 176.534 453.08 176.992 453.08H201.248C201.707 453.08 202.146 453.264 202.47 453.59C202.795 453.917 202.977 454.36 202.977 454.822V555.18C202.977 555.409 202.932 555.636 202.845 555.847C202.758 556.059 202.63 556.251 202.469 556.413C202.309 556.575 202.118 556.703 201.908 556.79C201.698 556.878 201.472 556.923 201.245 556.922ZM178.721 553.438H199.52V456.565H178.721V553.438Z" fill="#C7E3F9" fill-opacity="0.6"/>
<path d="M142.497 555.18H166.75V454.822H142.497V555.18Z" fill="#C7E3F9" fill-opacity="0.6"/>
<path d="M166.75 556.922H142.497C142.039 556.922 141.599 556.739 141.275 556.412C140.951 556.085 140.769 555.642 140.769 555.18V454.822C140.769 454.36 140.951 453.917 141.275 453.59C141.599 453.264 142.039 453.08 142.497 453.08H166.753C167.211 453.08 167.651 453.264 167.975 453.59C168.299 453.917 168.481 454.36 168.481 454.822V555.18C168.481 555.409 168.437 555.636 168.35 555.847C168.263 556.059 168.135 556.251 167.974 556.413C167.813 556.575 167.623 556.703 167.412 556.79C167.202 556.878 166.977 556.923 166.75 556.922ZM144.225 553.438H165.025V456.565H144.225V553.438Z" fill="#C7E3F9" fill-opacity="0.6"/>
<path d="M642.731 732.84H296.021C295.744 732.84 295.471 732.772 295.224 732.643C294.978 732.514 294.766 732.328 294.607 732.099C294.448 731.87 294.345 731.606 294.308 731.328C294.271 731.051 294.301 730.769 294.396 730.506L345.012 589.071C345.132 588.734 345.353 588.442 345.644 588.236C345.935 588.03 346.282 587.92 346.638 587.92H592.115C592.47 587.92 592.817 588.03 593.108 588.236C593.399 588.442 593.62 588.734 593.741 589.071L644.357 730.507C644.452 730.77 644.481 731.052 644.445 731.329C644.408 731.606 644.305 731.871 644.146 732.099C643.986 732.328 643.774 732.515 643.528 732.644C643.282 732.773 643.008 732.84 642.731 732.84ZM298.48 729.355H640.27L590.9 591.405H347.853L298.48 729.355Z" fill="#C7E3F9" fill-opacity="0.6"/>
<path d="M753.098 591.404H640.438C639.98 591.404 639.54 591.22 639.216 590.894C638.892 590.567 638.71 590.124 638.71 589.662V578.729C638.71 578.267 638.892 577.823 639.216 577.497C639.54 577.17 639.98 576.986 640.438 576.986H753.098C753.556 576.986 753.996 577.17 754.32 577.497C754.644 577.823 754.826 578.267 754.826 578.729V589.662C754.826 590.124 754.644 590.567 754.32 590.894C753.996 591.22 753.556 591.404 753.098 591.404ZM642.167 587.919H751.369V580.471H642.167V587.919Z" fill="#C7E3F9" fill-opacity="0.6"/>
<path d="M640.437 578.73H592.113V589.664H640.437V578.73Z" fill="#C7E3F9" fill-opacity="0.6"/>
<path d="M640.437 591.406H592.113C591.655 591.406 591.215 591.222 590.891 590.896C590.567 590.569 590.385 590.126 590.385 589.664V578.731C590.385 578.269 590.567 577.825 590.891 577.499C591.215 577.172 591.655 576.988 592.113 576.988H640.437C640.896 576.988 641.335 577.172 641.66 577.499C641.984 577.825 642.166 578.269 642.166 578.731V589.664C642.166 590.126 641.984 590.569 641.66 590.896C641.335 591.222 640.896 591.406 640.437 591.406ZM593.842 587.921H638.709V580.473H593.842V587.921Z" fill="#C7E3F9" fill-opacity="0.6"/>
<path d="M346.418 591.479H185.435C184.976 591.479 184.536 591.295 184.212 590.969C183.888 590.642 183.706 590.199 183.706 589.736V578.803C183.706 578.341 183.888 577.898 184.212 577.571C184.536 577.244 184.976 577.061 185.435 577.061H346.418C346.876 577.061 347.316 577.244 347.64 577.571C347.964 577.898 348.146 578.341 348.146 578.803V589.736C348.146 590.199 347.964 590.642 347.64 590.969C347.316 591.295 346.876 591.479 346.418 591.479ZM187.163 587.994H344.689V580.545H187.163V587.994Z" fill="#C7E3F9" fill-opacity="0.6"/>
<path d="M297.512 591.479H185.435C184.976 591.479 184.536 591.295 184.212 590.969C183.888 590.642 183.706 590.199 183.706 589.736V578.803C183.706 578.341 183.888 577.898 184.212 577.571C184.536 577.244 184.976 577.061 185.435 577.061H297.512C297.97 577.061 298.41 577.244 298.734 577.571C299.058 577.898 299.24 578.341 299.24 578.803V589.736C299.24 590.199 299.058 590.642 298.734 590.969C298.41 591.295 297.97 591.479 297.512 591.479ZM187.163 587.994H295.783V580.545H187.163V587.994Z" fill="#C7E3F9" fill-opacity="0.6"/>
<path d="M592.114 578.801H346.418V589.734H592.114V578.801Z" fill="#C7E3F9" fill-opacity="0.6"/>
<path d="M592.113 591.477H346.418C345.959 591.477 345.52 591.293 345.196 590.967C344.872 590.64 344.689 590.197 344.689 589.735V578.801C344.689 578.339 344.872 577.896 345.196 577.569C345.52 577.242 345.959 577.059 346.418 577.059H592.113C592.572 577.059 593.012 577.242 593.336 577.569C593.66 577.896 593.842 578.339 593.842 578.801V589.735C593.842 590.197 593.66 590.64 593.336 590.967C593.012 591.293 592.572 591.477 592.113 591.477ZM348.146 587.992H590.385V580.543H348.146V587.992Z" fill="#C7E3F9" fill-opacity="0.6"/>
<path d="M592.114 589.737L642.73 731.099V589.664L592.114 589.737Z" fill="#C7E3F9" fill-opacity="0.6"/>
<path d="M643.019 732.759L591.704 589.448L643.019 589.373V732.759ZM592.525 590.028L642.442 729.439V589.955L592.525 590.028Z" fill="#C7E3F9" fill-opacity="0.6"/>
<path d="M637.818 707.901H305.299C304.84 707.901 304.401 707.717 304.077 707.39C303.752 707.064 303.57 706.62 303.57 706.158C303.57 705.696 303.752 705.253 304.077 704.926C304.401 704.6 304.84 704.416 305.299 704.416H637.818C638.277 704.416 638.716 704.6 639.04 704.926C639.365 705.253 639.547 705.696 639.547 706.158C639.547 706.62 639.365 707.064 639.04 707.39C638.716 707.717 638.277 707.901 637.818 707.901Z" fill="#C7E3F9" fill-opacity="0.6"/>
<path d="M637.818 686.477H312.612C312.154 686.477 311.714 686.293 311.39 685.967C311.066 685.64 310.884 685.197 310.884 684.735C310.884 684.272 311.066 683.829 311.39 683.502C311.714 683.176 312.154 682.992 312.612 682.992H637.818C638.276 682.992 638.716 683.176 639.04 683.502C639.364 683.829 639.546 684.272 639.546 684.735C639.546 685.197 639.364 685.64 639.04 685.967C638.716 686.293 638.276 686.477 637.818 686.477Z" fill="#C7E3F9" fill-opacity="0.6"/>
<path d="M637.819 665.053H320.279C319.821 665.053 319.381 664.869 319.057 664.543C318.733 664.216 318.551 663.773 318.551 663.311C318.551 662.849 318.733 662.405 319.057 662.079C319.381 661.752 319.821 661.568 320.279 661.568H637.819C638.277 661.568 638.717 661.752 639.041 662.079C639.365 662.405 639.547 662.849 639.547 663.311C639.547 663.773 639.365 664.216 639.041 664.543C638.717 664.869 638.277 665.053 637.819 665.053Z" fill="#C7E3F9" fill-opacity="0.6"/>
<path d="M637.818 646.377H326.963C326.504 646.377 326.065 646.194 325.741 645.867C325.416 645.54 325.234 645.097 325.234 644.635C325.234 644.173 325.416 643.73 325.741 643.403C326.065 643.076 326.504 642.893 326.963 642.893H637.818C638.276 642.893 638.716 643.076 639.04 643.403C639.364 643.73 639.546 644.173 639.546 644.635C639.546 645.097 639.364 645.54 639.04 645.867C638.716 646.194 638.276 646.377 637.818 646.377Z" fill="#C7E3F9" fill-opacity="0.6"/>
<path d="M637.819 630.444H332.666C332.208 630.444 331.768 630.26 331.444 629.933C331.12 629.607 330.938 629.163 330.938 628.701C330.938 628.239 331.12 627.796 331.444 627.469C331.768 627.143 332.208 626.959 332.666 626.959H637.819C638.277 626.959 638.717 627.143 639.041 627.469C639.365 627.796 639.547 628.239 639.547 628.701C639.547 629.163 639.365 629.607 639.041 629.933C638.717 630.26 638.277 630.444 637.819 630.444Z" fill="#C7E3F9" fill-opacity="0.6"/>
<path d="M637.818 617.256H337.386C336.927 617.256 336.488 617.073 336.163 616.746C335.839 616.419 335.657 615.976 335.657 615.514C335.657 615.052 335.839 614.609 336.163 614.282C336.488 613.955 336.927 613.771 337.386 613.771H637.818C638.276 613.771 638.716 613.955 639.04 614.282C639.364 614.609 639.547 615.052 639.547 615.514C639.547 615.976 639.364 616.419 639.04 616.746C638.716 617.073 638.276 617.256 637.818 617.256Z" fill="#C7E3F9" fill-opacity="0.6"/>
<path d="M637.818 606.809H341.618C341.16 606.809 340.72 606.625 340.396 606.299C340.072 605.972 339.89 605.529 339.89 605.067C339.89 604.604 340.072 604.161 340.396 603.835C340.72 603.508 341.16 603.324 341.618 603.324H637.818C638.276 603.324 638.716 603.508 639.04 603.835C639.364 604.161 639.546 604.604 639.546 605.067C639.546 605.529 639.364 605.972 639.04 606.299C638.716 606.625 638.276 606.809 637.818 606.809Z" fill="#C7E3F9" fill-opacity="0.6"/>
<path d="M637.818 599.106H344.165C343.707 599.106 343.267 598.922 342.943 598.595C342.619 598.269 342.437 597.826 342.437 597.363C342.437 596.901 342.619 596.458 342.943 596.131C343.267 595.805 343.707 595.621 344.165 595.621H637.818C638.277 595.621 638.716 595.805 639.041 596.131C639.365 596.458 639.547 596.901 639.547 597.363C639.547 597.826 639.365 598.269 639.041 598.595C638.716 598.922 638.277 599.106 637.818 599.106Z" fill="#C7E3F9" fill-opacity="0.6"/>
<path d="M637.818 591.405H346.637C346.178 591.405 345.739 591.221 345.414 590.894C345.09 590.568 344.908 590.124 344.908 589.662C344.908 589.2 345.09 588.757 345.414 588.43C345.739 588.103 346.178 587.92 346.637 587.92H637.818C638.277 587.92 638.716 588.103 639.041 588.43C639.365 588.757 639.547 589.2 639.547 589.662C639.547 590.124 639.365 590.568 639.041 590.894C638.716 591.221 638.277 591.405 637.818 591.405Z" fill="#C7E3F9" fill-opacity="0.6"/>
<path d="M637.819 591.405H302.862C302.404 591.405 301.964 591.221 301.64 590.894C301.316 590.568 301.134 590.124 301.134 589.662C301.134 589.2 301.316 588.757 301.64 588.43C301.964 588.103 302.404 587.92 302.862 587.92H637.819C638.278 587.92 638.717 588.103 639.042 588.43C639.366 588.757 639.548 589.2 639.548 589.662C639.548 590.124 639.366 590.568 639.042 590.894C638.717 591.221 638.278 591.405 637.819 591.405Z" fill="#C7E3F9" fill-opacity="0.6"/>
<path d="M712.159 580.546H226.59C226.131 580.546 225.692 580.362 225.368 580.035C225.043 579.709 224.861 579.265 224.861 578.803V265.993C224.861 265.531 225.043 265.088 225.368 264.761C225.692 264.435 226.131 264.251 226.59 264.251H712.159C712.617 264.251 713.057 264.435 713.381 264.761C713.705 265.088 713.887 265.531 713.887 265.993V578.803C713.887 579.265 713.705 579.709 713.381 580.035C713.057 580.362 712.617 580.546 712.159 580.546ZM228.318 577.061H710.43V267.736H228.318V577.061Z" fill="#C7E3F9" fill-opacity="0.6"/>
<path d="M271.112 578.802H246.659L247.969 275.969H269.802L271.112 578.802Z" fill="#C7E3F9" fill-opacity="0.6"/>
<path d="M271.112 580.544H246.659C246.432 580.544 246.206 580.499 245.996 580.411C245.786 580.323 245.595 580.194 245.434 580.031C245.274 579.869 245.147 579.676 245.06 579.464C244.974 579.252 244.93 579.024 244.931 578.795L246.24 275.961C246.242 275.501 246.425 275.059 246.749 274.734C247.073 274.409 247.512 274.227 247.969 274.227H269.802C270.259 274.227 270.698 274.409 271.022 274.734C271.346 275.059 271.528 275.501 271.53 275.961L272.84 578.795C272.841 579.024 272.797 579.252 272.71 579.464C272.624 579.676 272.497 579.869 272.336 580.031C272.176 580.194 271.985 580.323 271.775 580.411C271.565 580.499 271.339 580.544 271.112 580.544ZM248.395 577.06H269.376L268.081 277.711H249.69L248.395 577.06Z" fill="#C7E3F9" fill-opacity="0.6"/>
<path d="M315.088 578.802H290.635L291.944 275.969H313.778L315.088 578.802Z" fill="#C7E3F9" fill-opacity="0.6"/>
<path d="M315.087 580.544H290.634C290.406 580.544 290.181 580.499 289.971 580.411C289.761 580.323 289.57 580.194 289.409 580.031C289.248 579.869 289.121 579.676 289.035 579.464C288.948 579.252 288.904 579.024 288.905 578.795L290.216 275.961C290.218 275.501 290.401 275.059 290.725 274.734C291.049 274.409 291.487 274.227 291.944 274.227H313.777C314.234 274.227 314.673 274.409 314.997 274.734C315.321 275.059 315.504 275.501 315.506 275.961L316.816 578.795C316.817 579.024 316.773 579.252 316.686 579.464C316.6 579.676 316.473 579.869 316.312 580.031C316.151 580.194 315.961 580.323 315.75 580.411C315.54 580.499 315.315 580.544 315.087 580.544ZM292.37 577.06H313.351L312.056 277.711H293.665L292.37 577.06Z" fill="#C7E3F9" fill-opacity="0.6"/>
<path d="M341.179 578.802H334.609L334.961 275.969H340.827L341.179 578.802Z" fill="#C7E3F9" fill-opacity="0.6"/>
<path d="M341.179 580.544H334.611C334.153 580.544 333.713 580.361 333.389 580.034C333.065 579.707 332.883 579.264 332.883 578.802L333.235 275.969C333.235 275.507 333.417 275.064 333.741 274.737C334.065 274.41 334.505 274.227 334.963 274.227H340.829C341.287 274.227 341.727 274.41 342.051 274.737C342.375 275.064 342.557 275.507 342.557 275.969L342.91 578.802C342.91 579.264 342.727 579.707 342.403 580.034C342.079 580.361 341.64 580.544 341.181 580.544H341.179ZM336.34 577.06H339.448L339.102 277.711H336.689L336.34 577.06Z" fill="#C7E3F9" fill-opacity="0.6"/>
<path d="M667.638 578.802H692.091L690.781 275.969H668.947L667.638 578.802Z" fill="#C7E3F9" fill-opacity="0.6"/>
<path d="M692.09 580.544H667.638C667.41 580.544 667.185 580.499 666.975 580.411C666.764 580.323 666.574 580.194 666.413 580.031C666.252 579.869 666.125 579.676 666.039 579.464C665.952 579.252 665.908 579.024 665.909 578.795L667.219 275.961C667.221 275.501 667.404 275.059 667.728 274.734C668.052 274.409 668.49 274.227 668.947 274.227H690.781C691.238 274.227 691.676 274.409 692 274.734C692.324 275.059 692.507 275.501 692.509 275.961L693.819 578.795C693.819 579.024 693.775 579.252 693.689 579.464C693.603 579.676 693.475 579.869 693.315 580.031C693.154 580.194 692.963 580.323 692.753 580.411C692.543 580.499 692.318 580.544 692.09 580.544ZM669.374 577.06H690.355L689.06 277.711H670.67L669.374 577.06Z" fill="#C7E3F9" fill-opacity="0.6"/>
<path d="M623.664 578.802H648.117L646.807 275.969H624.974L623.664 578.802Z" fill="#C7E3F9" fill-opacity="0.6"/>
<path d="M648.117 580.544H623.664C623.436 580.544 623.211 580.499 623.001 580.411C622.791 580.323 622.6 580.194 622.439 580.031C622.279 579.869 622.152 579.676 622.065 579.464C621.979 579.252 621.935 579.024 621.936 578.795L623.245 275.961C623.247 275.501 623.43 275.059 623.754 274.734C624.078 274.409 624.516 274.227 624.974 274.227H646.81C647.267 274.227 647.705 274.409 648.029 274.734C648.353 275.059 648.536 275.501 648.538 275.961L649.848 578.795C649.849 579.024 649.805 579.252 649.718 579.464C649.632 579.676 649.505 579.869 649.344 580.031C649.183 580.194 648.993 580.323 648.782 580.411C648.572 580.499 648.347 580.544 648.119 580.544H648.117ZM625.399 577.06H646.381L645.086 277.711H626.695L625.399 577.06Z" fill="#C7E3F9" fill-opacity="0.6"/>
<path d="M597.572 578.802H604.142L603.79 275.969H597.924L597.572 578.802Z" fill="#C7E3F9" fill-opacity="0.6"/>
<path d="M604.141 580.544H597.573C597.115 580.544 596.675 580.361 596.351 580.034C596.027 579.707 595.845 579.264 595.845 578.802L596.197 275.969C596.197 275.507 596.379 275.064 596.703 274.737C597.027 274.41 597.467 274.227 597.925 274.227H603.79C604.249 274.227 604.688 274.41 605.013 274.737C605.337 275.064 605.519 275.507 605.519 275.969L605.871 578.802C605.871 579.264 605.689 579.707 605.365 580.034C605.041 580.361 604.601 580.544 604.142 580.544H604.141ZM599.302 577.06H602.409L602.064 277.711H599.651L599.302 577.06Z" fill="#C7E3F9" fill-opacity="0.6"/>
<path d="M715.074 249.732H223.657C223.258 249.732 222.872 249.593 222.563 249.339C222.254 249.085 222.042 248.731 221.963 248.338C221.883 247.944 221.941 247.535 222.126 247.179C222.312 246.823 222.613 246.543 222.98 246.386L468.594 141.119C468.808 141.028 469.038 140.98 469.27 140.98C469.502 140.98 469.732 141.028 469.946 141.119L715.751 246.387C716.117 246.544 716.419 246.824 716.604 247.179C716.79 247.535 716.848 247.944 716.768 248.338C716.689 248.731 716.477 249.085 716.168 249.339C715.86 249.594 715.473 249.732 715.075 249.733L715.074 249.732ZM232.139 246.247H706.585L469.268 144.616L232.139 246.247Z" fill="#C7E3F9" fill-opacity="0.6"/>
<path d="M749.858 267.733H188.892C188.433 267.733 187.993 267.55 187.669 267.223C187.345 266.896 187.163 266.453 187.163 265.991V243.322C187.163 242.98 187.263 242.646 187.45 242.361C187.637 242.076 187.903 241.853 188.215 241.719L468.589 121.554C468.803 121.462 469.033 121.415 469.266 121.415C469.498 121.415 469.728 121.462 469.942 121.554L750.534 241.719C750.846 241.852 751.113 242.076 751.3 242.361C751.487 242.646 751.587 242.98 751.587 243.322V265.991C751.587 266.453 751.405 266.896 751.081 267.223C750.756 267.55 750.317 267.733 749.858 267.733ZM190.62 264.249H748.13V244.475L469.266 125.05L190.62 244.475V264.249Z" fill="#C7E3F9" fill-opacity="0.6"/>
<path d="M469.316 169.059L592.113 224.908H346.614L469.316 169.059Z" fill="#C7E3F9" fill-opacity="0.6"/>
<path d="M592.113 226.651H346.615C346.219 226.651 345.836 226.514 345.529 226.264C345.222 226.013 345.009 225.664 344.925 225.275C344.842 224.886 344.894 224.479 345.072 224.124C345.25 223.768 345.544 223.484 345.904 223.321L468.606 167.47C468.829 167.369 469.071 167.316 469.316 167.316C469.561 167.316 469.804 167.369 470.027 167.47L592.824 223.321C593.184 223.484 593.478 223.768 593.656 224.123C593.834 224.479 593.885 224.885 593.802 225.275C593.719 225.664 593.506 226.013 593.199 226.263C592.892 226.514 592.508 226.65 592.113 226.651ZM354.642 223.166H584.079L469.317 170.97L354.642 223.166Z" fill="#C7E3F9" fill-opacity="0.6"/>
<path d="M712.16 288.002L740.052 275.97V265.993H712.16V288.002Z" fill="#C7E3F9" fill-opacity="0.6"/>
<path d="M712.16 289.744C711.702 289.744 711.262 289.56 710.938 289.234C710.614 288.907 710.432 288.464 710.432 288.002V265.993C710.432 265.531 710.614 265.088 710.938 264.761C711.262 264.435 711.702 264.251 712.16 264.251H740.052C740.51 264.251 740.95 264.435 741.274 264.761C741.598 265.088 741.78 265.531 741.78 265.993V275.97C741.78 276.311 741.681 276.645 741.495 276.93C741.308 277.215 741.043 277.438 740.732 277.572L712.841 289.603C712.625 289.696 712.394 289.744 712.16 289.744ZM713.889 267.736V285.361L738.323 274.82V267.735L713.889 267.736Z" fill="#C7E3F9" fill-opacity="0.6"/>
<path d="M226.59 288.002L184.853 290.202L198.699 275.97V265.993H226.59V288.002Z" fill="#C7E3F9" fill-opacity="0.6"/>
<path d="M184.853 291.945C184.512 291.944 184.18 291.843 183.896 291.653C183.613 291.463 183.391 291.193 183.26 290.877C183.128 290.56 183.092 290.212 183.156 289.875C183.22 289.538 183.381 289.228 183.619 288.983L196.97 275.258V265.993C196.97 265.531 197.152 265.088 197.477 264.761C197.801 264.435 198.24 264.251 198.699 264.251H226.59C227.049 264.251 227.488 264.435 227.812 264.761C228.137 265.088 228.319 265.531 228.319 265.993V288.002C228.319 288.448 228.15 288.878 227.845 289.203C227.54 289.527 227.123 289.721 226.68 289.744L184.943 291.945C184.916 291.944 184.883 291.945 184.853 291.945ZM200.427 267.736V275.97C200.427 276.427 200.249 276.864 199.932 277.19L189.194 288.229L224.862 286.348V267.736H200.427Z" fill="#C7E3F9" fill-opacity="0.6"/>
<path d="M713.74 310.223L792.033 288H713.434L713.74 310.223Z" fill="#C7E3F9" fill-opacity="0.6"/>
<path d="M713.739 311.965C713.285 311.965 712.849 311.785 712.525 311.463C712.202 311.142 712.017 310.705 712.011 310.247L711.705 288.024C711.702 287.793 711.744 287.564 711.83 287.35C711.915 287.136 712.042 286.941 712.203 286.777C712.364 286.612 712.555 286.482 712.767 286.393C712.978 286.304 713.205 286.258 713.434 286.258H792.033C792.45 286.258 792.853 286.41 793.168 286.687C793.482 286.963 793.687 287.345 793.744 287.761C793.801 288.178 793.707 288.602 793.479 288.954C793.25 289.306 792.903 289.562 792.502 289.677L714.208 311.9C714.055 311.943 713.898 311.965 713.739 311.965ZM715.186 289.742L715.436 307.931L779.517 289.742H715.186Z" fill="#C7E3F9" fill-opacity="0.6"/>
<path d="M341.179 275.969L341.759 318.111L490.235 275.969H341.179Z" fill="#C7E3F9" fill-opacity="0.6"/>
<path d="M341.759 319.853C341.305 319.853 340.869 319.673 340.545 319.352C340.222 319.03 340.037 318.593 340.031 318.135L339.45 275.993C339.447 275.762 339.49 275.533 339.575 275.319C339.661 275.104 339.787 274.91 339.948 274.745C340.109 274.581 340.301 274.45 340.512 274.361C340.723 274.272 340.95 274.227 341.179 274.227H490.234C490.651 274.227 491.054 274.379 491.369 274.656C491.683 274.932 491.888 275.314 491.945 275.731C492.002 276.147 491.908 276.57 491.679 276.922C491.451 277.274 491.104 277.531 490.702 277.646L342.228 319.789C342.075 319.832 341.918 319.853 341.759 319.853ZM342.931 277.711L343.456 315.819L477.717 277.711H342.931Z" fill="#C7E3F9" fill-opacity="0.6"/>
<path d="M365.632 275.969L401.16 265.885H198.699V275.969H365.632Z" fill="#C7E3F9" fill-opacity="0.6"/>
<path d="M365.631 277.712H198.699C198.241 277.712 197.801 277.528 197.477 277.201C197.153 276.875 196.971 276.432 196.971 275.969V265.885C196.971 265.423 197.153 264.98 197.477 264.653C197.801 264.326 198.241 264.143 198.699 264.143H401.159C401.577 264.142 401.98 264.294 402.295 264.571C402.61 264.847 402.815 265.229 402.872 265.646C402.93 266.063 402.835 266.487 402.606 266.839C402.378 267.191 402.03 267.448 401.628 267.562L366.1 277.646C365.947 277.69 365.79 277.712 365.631 277.712ZM200.428 274.227H365.393L388.644 267.627H200.428V274.227Z" fill="#C7E3F9" fill-opacity="0.6"/>
<path d="M115.424 288L115.857 371.719L226.591 340.288L226.336 288H115.424Z" fill="#C7E3F9" fill-opacity="0.6"/>
<path d="M115.856 373.461C115.4 373.461 114.961 373.279 114.638 372.954C114.314 372.63 114.13 372.189 114.128 371.728L113.695 288.009C113.694 287.779 113.738 287.552 113.824 287.339C113.911 287.127 114.038 286.934 114.199 286.771C114.359 286.609 114.55 286.479 114.76 286.391C114.971 286.303 115.196 286.258 115.424 286.258H226.337C226.794 286.258 227.232 286.44 227.556 286.765C227.88 287.09 228.063 287.531 228.065 287.991L228.319 340.28C228.321 340.661 228.198 341.032 227.971 341.336C227.743 341.641 227.423 341.861 227.059 341.964L116.323 373.395C116.171 373.439 116.014 373.461 115.856 373.461ZM117.161 289.742L117.573 369.424L224.856 338.974L224.616 289.745L117.161 289.742Z" fill="#C7E3F9" fill-opacity="0.6"/>
<path d="M185.435 589.735L140.75 706.157H188.637V589.662L185.435 589.735Z" fill="#C7E3F9" fill-opacity="0.6"/>
<path d="M188.638 707.9H140.75C140.469 707.9 140.193 707.832 139.944 707.7C139.695 707.568 139.482 707.377 139.324 707.143C139.165 706.91 139.065 706.641 139.032 706.36C139 706.079 139.036 705.794 139.137 705.53L183.821 589.108C183.945 588.787 184.16 588.509 184.44 588.311C184.72 588.113 185.052 588.003 185.394 587.995L188.597 587.921C188.828 587.912 189.058 587.951 189.273 588.036C189.487 588.122 189.682 588.251 189.845 588.417C190.009 588.579 190.14 588.773 190.229 588.987C190.318 589.201 190.363 589.431 190.363 589.663V706.158C190.363 706.62 190.181 707.062 189.858 707.389C189.534 707.716 189.095 707.899 188.638 707.9ZM143.272 704.416H186.909V591.445L186.63 591.452L143.272 704.416Z" fill="#C7E3F9" fill-opacity="0.6"/>
<path d="M188.639 578.802L201.247 425.772V325.414H226.592V578.802H188.639Z" fill="#C7E3F9" fill-opacity="0.6"/>
<path d="M226.591 580.545H188.638C188.399 580.545 188.163 580.495 187.944 580.398C187.725 580.301 187.529 580.16 187.367 579.982C187.205 579.805 187.081 579.596 187.004 579.368C186.926 579.14 186.896 578.899 186.916 578.658L199.518 425.7V325.414C199.518 324.952 199.7 324.509 200.025 324.182C200.349 323.855 200.788 323.672 201.247 323.672H226.591C227.049 323.672 227.489 323.855 227.813 324.182C228.137 324.509 228.32 324.952 228.32 325.414V578.805C228.319 579.267 228.136 579.709 227.812 580.036C227.488 580.362 227.049 580.545 226.591 580.545ZM190.516 577.06H224.863V327.154H202.975V425.775C202.975 425.823 202.975 425.871 202.969 425.919L190.516 577.06Z" fill="#C7E3F9" fill-opacity="0.6"/>
<path d="M542.299 580.473H396.453C395.995 580.473 395.555 580.289 395.231 579.962C394.907 579.636 394.725 579.192 394.725 578.73V371.721C394.725 371.259 394.907 370.816 395.231 370.489C395.555 370.162 395.995 369.979 396.453 369.979H542.299C542.757 369.979 543.197 370.162 543.521 370.489C543.845 370.816 544.027 371.259 544.027 371.721V578.73C544.027 578.959 543.982 579.186 543.895 579.397C543.809 579.609 543.681 579.801 543.521 579.962C543.36 580.124 543.17 580.253 542.96 580.34C542.75 580.428 542.526 580.473 542.299 580.473ZM398.182 576.988H540.57V373.463H398.182V576.988Z" fill="#C7E3F9" fill-opacity="0.6"/>
<path d="M465.518 386.156H410.243V578.728H465.518V386.156Z" fill="#C7E3F9" fill-opacity="0.6"/>
<path d="M465.517 580.471H410.243C409.785 580.471 409.345 580.287 409.021 579.96C408.697 579.634 408.515 579.191 408.515 578.728V386.156C408.515 385.694 408.697 385.251 409.021 384.924C409.345 384.598 409.785 384.414 410.243 384.414H465.517C465.976 384.414 466.416 384.598 466.74 384.924C467.064 385.251 467.246 385.694 467.246 386.156V578.728C467.246 579.191 467.064 579.634 466.74 579.96C466.416 580.287 465.976 580.471 465.517 580.471ZM411.972 576.986H463.789V387.899H411.972V576.986Z" fill="#C7E3F9" fill-opacity="0.6"/>
<path d="M528.507 386.156H473.232V578.728H528.507V386.156Z" fill="#C7E3F9" fill-opacity="0.6"/>
<path d="M528.507 580.471H473.233C472.775 580.471 472.335 580.287 472.011 579.96C471.687 579.634 471.505 579.191 471.505 578.728V386.156C471.505 385.694 471.687 385.251 472.011 384.924C472.335 384.598 472.775 384.414 473.233 384.414H528.507C528.965 384.414 529.405 384.598 529.729 384.924C530.053 385.251 530.236 385.694 530.236 386.156V578.728C530.236 579.191 530.053 579.634 529.729 579.96C529.405 580.287 528.965 580.471 528.507 580.471ZM474.962 576.986H526.779V387.899H474.962V576.986Z" fill="#C7E3F9" fill-opacity="0.6"/>
<path d="M469.363 87.4177C468.905 87.4177 468.465 87.2341 468.141 86.9074C467.817 86.5806 467.635 86.1375 467.635 85.6754V29.776C467.635 29.3412 467.796 28.9221 468.087 28.601C468.378 28.2799 468.777 28.0801 469.207 28.0406C469.342 28.0284 482.899 26.7101 487.182 20.8228C493.142 12.6339 505.677 11.7627 520.718 18.4997C535.784 25.2494 584.594 17.1355 585.085 17.053C585.365 17.006 585.652 17.0291 585.92 17.1203C586.189 17.2114 586.431 17.3677 586.626 17.5755C586.821 17.7832 586.961 18.0361 587.036 18.3117C587.111 18.5873 587.118 18.8773 587.055 19.156C586.675 20.8489 577.69 60.7312 573.112 70.6955C572.999 70.9426 572.83 71.1595 572.618 71.3285C566.511 76.207 527.628 80.1121 515.939 75.8713C514.504 75.3486 513.144 74.83 511.864 74.3398C507.406 72.633 503.197 71.0196 501.802 71.9895C501.138 72.4541 500.787 73.8357 500.787 75.9927C500.787 87.4177 480.346 87.4177 469.363 87.4177ZM471.092 31.3191V83.9331C480.149 83.9023 497.328 83.4289 497.328 75.9933C497.328 73.7928 497.588 70.6862 499.838 69.1222C502.725 67.115 507.072 68.7789 513.089 71.0829C514.352 71.5661 515.692 72.0795 517.108 72.5929C521.723 74.2678 533.004 74.6418 545.852 73.5477C558.784 72.4442 567.661 70.3796 570.159 68.8138C573.991 60.0006 581.058 29.8341 583.111 20.9C572.621 22.5262 533.429 28.0104 519.313 21.6864C505.869 15.6638 494.899 16.111 489.97 22.8851C485.709 28.7439 475.125 30.7546 471.092 31.3208V31.3191Z" fill="#C7E3F9" fill-opacity="0.6"/>
<path d="M469.363 63.5042C475.768 63.5042 492.19 62.4907 493.792 53.8343C495.394 45.1779 505.171 47.6583 517.689 52.6466C530.207 57.6349 572.366 52.3835 576.153 49.3606L580.762 35.8361C578.87 37.3479 532.971 44.1551 518.855 38.1395C504.739 32.1238 495.275 32.2737 492.072 39.9004C488.87 47.5271 472.567 48.4099 469.363 48.4099V63.5042Z" fill="#C7E3F9" fill-opacity="0.6"/>
<path d="M469.363 85.675C478.97 85.675 499.056 85.675 499.056 75.9912C499.056 66.3074 505.606 70.2695 516.523 74.2309C527.44 78.1924 565.866 74.4957 571.542 69.9617L576.151 53.6274C572.367 56.6503 530.205 61.9023 517.688 56.9134C505.17 51.9246 497.164 50.0179 495.563 58.6743C493.962 67.3307 475.768 67.771 469.363 67.771V85.675Z" fill="#C7E3F9" fill-opacity="0.6"/>
<path d="M469.363 124.901C468.905 124.901 468.465 124.718 468.141 124.391C467.817 124.064 467.635 123.621 467.635 123.159V29.7755C467.635 29.3134 467.817 28.8703 468.141 28.5435C468.465 28.2168 468.905 28.0332 469.363 28.0332C469.822 28.0332 470.261 28.2168 470.585 28.5435C470.91 28.8703 471.092 29.3134 471.092 29.7755V123.159C471.092 123.621 470.91 124.064 470.585 124.391C470.261 124.718 469.822 124.901 469.363 124.901Z" fill="#C7E3F9" fill-opacity="0.6"/>
<path d="M740.052 277.713H198.699C198.241 277.713 197.801 277.529 197.477 277.202C197.153 276.876 196.971 276.432 196.971 275.97V265.993C196.971 265.531 197.153 265.088 197.477 264.761C197.801 264.435 198.241 264.251 198.699 264.251H740.052C740.51 264.251 740.95 264.435 741.274 264.761C741.598 265.088 741.78 265.531 741.78 265.993V275.97C741.78 276.432 741.598 276.876 741.274 277.202C740.95 277.529 740.51 277.713 740.052 277.713ZM200.428 274.228H738.323V267.736H200.428V274.228Z" fill="#C7E3F9" fill-opacity="0.6"/>
<path d="M736.164 247.988H217.165V256.308H736.164V247.988Z" fill="#C7E3F9" fill-opacity="0.6"/>
<path d="M736.164 258.051H217.166C216.708 258.051 216.268 257.867 215.944 257.541C215.62 257.214 215.438 256.771 215.438 256.309V247.988C215.438 247.526 215.62 247.083 215.944 246.756C216.268 246.43 216.708 246.246 217.166 246.246H736.164C736.622 246.246 737.062 246.43 737.386 246.756C737.71 247.083 737.893 247.526 737.893 247.988V256.309C737.893 256.771 737.71 257.214 737.386 257.541C737.062 257.867 736.622 258.051 736.164 258.051ZM218.894 254.566H734.436V249.731H218.894V254.566Z" fill="#C7E3F9" fill-opacity="0.6"/>
<path d="M715.074 247.99L469.378 142.667L469.387 133.628L736.165 247.99H715.074Z" fill="#C7E3F9" fill-opacity="0.6"/>
<path d="M736.165 249.732H715.073C714.841 249.732 714.611 249.685 714.397 249.593L468.702 144.27C468.39 144.136 468.123 143.913 467.936 143.627C467.749 143.342 467.649 143.007 467.649 142.665L467.658 133.626C467.658 133.339 467.729 133.055 467.865 132.802C468 132.549 468.195 132.333 468.434 132.174C468.672 132.016 468.945 131.919 469.23 131.893C469.514 131.867 469.8 131.912 470.063 132.025L736.841 246.386C737.208 246.544 737.51 246.824 737.695 247.179C737.88 247.535 737.938 247.944 737.859 248.338C737.779 248.731 737.567 249.085 737.258 249.339C736.95 249.594 736.563 249.732 736.165 249.732ZM715.423 246.248H727.682L471.113 136.261L471.107 141.515L715.423 246.248Z" fill="#C7E3F9" fill-opacity="0.6"/>
<path d="M217.165 247.99L469.377 142.667L469.386 133.628L217.165 247.99Z" fill="#C7E3F9" fill-opacity="0.6"/>
<path d="M217.166 249.733C216.77 249.733 216.386 249.597 216.078 249.346C215.771 249.096 215.557 248.746 215.474 248.356C215.391 247.966 215.443 247.559 215.622 247.203C215.801 246.847 216.095 246.564 216.456 246.401L468.677 132.039C468.94 131.92 469.229 131.869 469.517 131.891C469.805 131.913 470.082 132.007 470.325 132.165C470.567 132.324 470.766 132.54 470.904 132.796C471.042 133.052 471.114 133.338 471.114 133.629L471.105 142.668C471.105 143.012 471.003 143.349 470.814 143.635C470.624 143.921 470.354 144.144 470.039 144.276L217.827 249.6C217.617 249.687 217.393 249.732 217.166 249.733ZM467.655 136.323L323.141 201.848L467.65 141.502L467.655 136.323Z" fill="#C7E3F9" fill-opacity="0.6"/>
</g>
<path d="M290.422 495.45C291.785 503.038 308.154 615.27 311.564 655.885C314.274 688.174 322.305 759.301 325.375 780.804C328.444 802.306 333.728 821.419 334.41 828.244C335.092 835.069 333.387 843.944 334.41 851.795C335.433 859.645 348.391 1086.95 349.414 1093.44C350.437 1099.92 356.916 1110.16 357.598 1113.57C358.28 1116.97 351.802 1135.07 353.165 1138.14C354.529 1141.22 360.319 1156.57 361.349 1159.65C362.379 1162.72 354.31 1177.84 350.779 1177.39C344.043 1176.54 283.943 1173.3 280.874 1173.98C277.804 1174.66 267.576 1140.88 266.211 1137.12C264.846 1133.36 270.985 1104.35 270.304 1098.89C269.622 1093.43 246.774 918.684 245.069 911.175C243.365 903.666 240.637 901.276 238.59 896.499C236.544 891.722 234.498 890.697 232.786 886.26C231.075 881.823 237.902 871.584 237.219 868.512C236.536 865.44 232.676 861.352 230.856 854.518C229.037 847.685 198.005 699.907 196.302 699.559C194.598 699.21 182.666 845.992 182.323 849.064C181.981 852.137 189.143 868.177 188.802 871.931C188.462 875.686 179.596 902.649 179.936 906.062C180.276 909.474 184.71 909.816 185.392 915.619C186.073 921.421 191.87 1105.04 193.575 1114.94C195.28 1124.84 197.668 1150.1 198.349 1155.21C199.031 1160.33 193.575 1175.69 194.258 1179.45C194.941 1183.2 143.79 1192.08 140.722 1191.74C137.654 1191.41 122.307 1184.57 120.602 1183.55C118.897 1182.53 113.783 1171.95 113.448 1168.53C113.113 1165.12 117.881 1153.86 117.541 1150.78C117.201 1147.71 114.813 1143.28 114.813 1140.55C114.813 1137.81 118.222 1130.99 117.881 1126.9C117.539 1122.81 95.0304 902.991 93.6658 889.338C92.3012 875.684 91.2794 830.299 91.6209 825.173C91.9624 820.048 87.8698 821.077 87.5283 813.568C87.1868 806.059 79.6861 651.108 80.3677 620.731C81.0494 590.354 92.3025 511.855 94.0073 501.958C95.7121 492.06 287.724 480.432 290.422 495.45Z" fill="#092B69"/>
<path d="M307.97 619.363C307.354 591.931 299.63 527.305 296.59 507.348C277.171 513.874 246.711 518.107 214.08 519.005C217.559 525.865 219.895 533.249 220.993 540.863C227.387 585.915 235.059 628.408 248.102 647.094C249.891 649.66 309.797 636.811 310.678 646.482C309.59 634.558 308.088 624.639 307.97 619.363Z" fill="#050F3A"/>
<path d="M99.428 496.129C98.2874 502.478 79.076 580.369 80.3664 631.396C82.4924 632.837 84.5306 634.403 86.4701 636.087C91.2267 639.568 96.0373 646.937 105.907 649.782C109.487 650.814 110.959 649.722 111.878 643.066C113.063 634.49 138.897 577.401 142.733 545.727C144.332 532.519 146.512 509.759 145.298 503.746C144.698 500.809 126.734 495.537 113.374 490.9C105.004 492.054 99.8518 493.759 99.428 496.129Z" fill="#050F3A"/>
<path d="M97.7489 504.258C151.941 525.334 253.388 522.091 296.533 506.969C295.64 499.885 294.386 492.85 292.773 485.894C235.316 502.676 131.481 496.134 101.133 483.447C98.8762 490.152 97.733 497.183 97.7489 504.258Z" fill="#050F3A"/>
<path d="M163.299 487.846L155.304 487.303L152.922 522.4L160.917 522.944L163.299 487.846Z" fill="#092B69"/>
<path d="M222.142 518.685C224.841 518.56 227.513 518.41 230.157 518.237V495.248C227.495 495.394 224.823 495.517 222.142 495.618V518.685Z" fill="#092B69"/>
<path d="M141.236 940.532C141.747 938.229 148.14 924.917 151.721 917.75C155.302 910.583 151.209 905.208 149.42 901.623C147.63 898.039 142.514 900.087 144.304 896.76C146.094 893.432 154.534 886.521 155.302 882.426C156.07 878.331 178.575 695.561 179.598 685.065C180.621 674.569 183.178 654.349 184.712 651.277C186.247 648.204 176.017 627.214 177.04 624.466C178.063 621.718 183.946 629.519 183.946 627.214C183.946 624.909 168.088 602.129 171.413 603.153C174.737 604.177 208.497 615.695 211.055 617.487C213.613 619.278 207.985 625.935 205.427 626.447C202.87 626.959 200.642 626.184 200.568 631.822C200.058 671.243 227.429 788.993 230.492 797.696C233.554 806.4 238.42 807.936 239.698 812.031C240.977 816.125 249.928 866.299 250.951 869.37C251.975 872.441 248.137 876.8 246.604 880.89C245.07 884.979 247.371 886.777 246.604 892.153C246.281 894.412 246.23 906.082 246.279 918.849C245.671 914.68 245.25 911.978 245.064 911.18C243.359 903.672 240.631 901.282 238.585 896.505C236.539 891.727 234.492 890.702 232.781 886.265C231.069 881.829 237.896 871.589 237.213 868.517C236.53 865.445 232.67 861.357 230.851 854.524C229.031 847.69 198 699.913 196.296 699.564C194.593 699.215 182.666 845.991 182.323 849.063C181.98 852.135 189.142 868.175 188.802 871.93C188.462 875.684 179.595 902.648 179.935 906.06C180.276 909.473 184.71 909.815 185.391 915.617C186.073 921.42 191.87 1105.04 193.575 1114.94C195.28 1124.84 197.668 1150.09 198.349 1155.21C199.031 1160.33 193.575 1175.69 194.258 1179.45C194.941 1183.2 143.79 1192.07 140.722 1191.74C140.661 1191.73 140.587 1191.72 140.518 1191.71C142.517 1176.78 147.526 1138.9 148.137 1129.71C148.905 1118.19 151.463 992.247 151.463 987.639C151.463 983.031 140.724 942.836 141.236 940.532Z" fill="#050F3A"/>
<path d="M193.069 178.326C181.481 178.326 157.595 181.397 146.01 187.541C134.425 193.686 118.056 206.654 103.734 213.139C89.4112 219.623 88.3895 391.257 89.0279 389.714C89.6664 388.171 92.864 399.314 92.864 400.466C92.864 401.617 87.7497 406.994 88.3895 411.217L89.6677 419.665C88.7799 419.747 87.9187 420.013 87.1387 420.445C86.3587 420.878 85.6768 421.467 85.1361 422.177C84.5953 422.886 84.2075 423.701 83.9971 424.568C83.7866 425.435 83.7582 426.337 83.9136 427.215C84.6803 434.127 95.0385 468.684 96.0616 471.883C97.0847 475.083 114.305 489.933 137.833 496.757C161.361 503.581 231.266 505.63 254.114 496.757C276.962 487.883 298.784 468.087 301.172 465.357C303.559 462.626 315.658 247.4 314.378 243.432C313.098 239.464 281.435 218.086 272.145 212.193C261.85 205.666 245.929 187.535 238.087 184.804C230.245 182.074 204.894 178.326 193.069 178.326Z" fill="#B0D0EF"/>
<path d="M304.909 427.118C302.095 424.558 292.476 383.957 291.965 384.726C291.453 385.494 293.499 413.907 291.965 415.186C290.43 416.466 254.626 443.856 241.838 452.559C229.05 461.262 214.984 473.038 209.613 472.526C204.243 472.014 205.522 464.846 203.731 461.774C201.94 458.702 154.372 464.59 154.116 463.054C153.859 461.518 170.911 440.869 169.376 439.078C167.842 437.286 156.418 441.553 144.142 446.16C131.866 450.766 103.734 463.566 104.502 460.495C105.27 457.424 128.03 442.32 148.745 434.641C169.46 426.962 272.79 387.284 272.271 386.005C271.753 384.726 238.002 376.021 236.979 374.486C236.375 373.58 199 310.076 199 310.076C199 310.076 193.053 268.117 193.096 267.487C193.201 265.951 248.648 241.258 249.34 239.585C250.788 236.086 243.031 214.592 240.716 214.817C237.814 215.11 231.634 193.242 224.805 181.777C214.203 179.913 200.77 178.321 193.069 178.321C181.481 178.321 157.595 181.392 146.01 187.536C134.425 193.681 118.056 206.649 103.734 213.134C89.4112 219.619 88.3895 391.252 89.0279 389.709C89.6664 388.167 92.864 399.31 92.864 400.461C92.864 401.612 87.7497 406.989 88.3895 411.212C89.0293 415.435 89.6677 419.66 89.6677 419.66C88.7799 419.742 87.9187 420.008 87.1387 420.44C86.3587 420.873 85.6768 421.462 85.1361 422.172C84.5953 422.881 84.2075 423.696 83.9971 424.563C83.7866 425.43 83.7582 426.332 83.9136 427.21C84.6803 434.122 95.0385 468.679 96.0616 471.878C97.0847 475.078 114.305 489.932 137.833 496.756C161.361 503.58 231.266 505.629 254.114 496.756C276.962 487.882 290.099 464.501 292.487 461.765C294.875 459.029 307.718 429.679 304.909 427.118Z" fill="#85B0DF"/>
<path d="M228.697 144.873V210.233C228.697 210.233 212.841 234.806 193.062 234.806C173.284 234.806 157.435 210.233 157.435 210.233V144.873H228.697Z" fill="#EEC6B5"/>
<path d="M157.442 210.233C157.442 210.233 172.327 233.302 191.236 234.737C191.138 228.877 193.763 217.423 195.322 211.598C197.058 205.113 194.782 201.018 191.542 195.898C188.303 190.778 187.28 187.537 191.542 183.952C195.805 180.368 215.412 167.228 219.503 164.498C223.594 161.768 220.07 161.641 216.69 161.931C215.037 162.066 213.929 152.955 213.271 144.879H157.442V210.233Z" fill="#DE8864"/>
<path d="M157.442 201.765C159.117 199.283 159.953 196.329 159.828 193.336C159.828 187.363 160.681 180.026 164.772 175.223C168.863 170.421 177.56 171.835 183.016 174.053C188.472 176.272 190.518 176.272 196.8 174.053C202.756 171.663 208.434 168.628 213.73 165.002C216.141 163.295 214.423 163.128 213.73 162.165C213.219 161.457 208.315 150.174 205.791 144.862H157.442V201.765Z" fill="#080F29"/>
<path d="M146.959 85.9984C145.112 84.3623 138.743 86.0605 139.955 93.1654C141.419 101.75 144.657 116.716 146.959 120.556C149.26 124.395 152.841 125.931 154.631 123.883C156.421 121.835 149.253 88.0357 146.959 85.9984Z" fill="#DE8864"/>
<path d="M197.943 168.082C210.219 168.082 234.059 152.797 235.683 145.913C238.2 135.241 243.685 80.2805 243.981 56.0571C244.216 36.8162 234.755 22.1309 194.998 22.1309C155.24 22.1309 145.779 36.8162 146.014 56.0598C146.31 80.2833 151.794 135.239 154.312 145.916C155.932 152.799 179.776 168.085 192.052 168.085L197.943 168.082Z" fill="#EEC6B5"/>
<path d="M201.344 133.097C195.945 132.184 192.671 135.017 192.392 134.206C192.143 133.475 192.506 130.475 192.094 128.105C191.78 126.295 186.56 124.568 186.425 122.858C186.206 119.978 188.813 102.55 188.99 92.482C189.167 82.4143 183.658 79.7596 175.357 77.294C166.655 74.7096 158.926 80.3905 157.455 78.9571C154.925 76.4956 157.283 69.7852 157.966 65.1769C158.649 60.5687 160.268 53.0612 161.123 45.1457C161.786 39.0135 165.297 39.5796 167.002 37.0194L167.659 25.5684C150.603 30.9994 145.847 42.3721 146.014 56.0591C146.31 80.2825 151.795 135.238 154.312 145.915C155.749 152.004 174.559 164.66 187.382 167.502C183.35 165.893 183.333 159.439 184.287 155.028C185.055 151.467 189.158 150.189 189.658 149.418C190.022 148.637 190.21 147.785 190.21 146.923C190.21 146.06 190.022 145.208 189.658 144.427C188.669 143.527 187.485 142.87 186.2 142.507C183.973 141.599 184.461 137.731 186.418 137.878C189.481 138.107 192.556 138.097 195.617 137.851C202.366 137.232 210.268 135.65 210.268 134.243C210.274 133.642 208.356 134.282 201.344 133.097Z" fill="#DE8864"/>
<path d="M157.442 78.9577C156.775 77.5634 163.962 73.9657 172.673 75.0681C178.805 75.845 183.97 78.878 184.011 80.6221C184.031 81.4327 178.841 80.7234 171.393 80.3654C161.891 79.9088 157.807 79.7264 157.442 78.9577Z" fill="#080F29"/>
<path d="M228.369 30.0234C227.684 28.4022 221.12 31.2501 214.388 35.1437C206.715 39.5804 197.337 47.7715 184.557 47.7715C171.06 47.7715 169.553 42.6526 163.074 44.3589C156.652 46.0503 151.651 55.9626 150.286 63.8133C148.922 71.6639 149.568 99.1257 150.123 105.623C150.678 112.12 148.412 111.936 147.388 105.623C146.365 99.3094 143.807 75.5872 143.126 72.5164C142.444 69.4456 136.443 64.4361 137.493 53.2322C138.005 47.7715 140.499 43.5861 141.073 41.2867C141.414 39.9208 133.275 36.546 139.027 25.4165C141.584 20.4665 157.262 12.4105 184.883 11.0446C217.238 9.44636 230.505 25.7705 232.125 26.9513C233.53 27.978 252.755 28.3171 255.824 48.1133C258.282 63.9727 252.059 88.4298 251.547 90.4779C250.24 87.3963 243.988 84.9672 242.976 89.1377C241.916 93.4906 241.634 94.127 240.774 94.1607C239.28 94.2188 238.774 89.9227 240.479 84.2985C241.806 79.9158 242.871 79.52 243.249 73.7309C243.533 69.3632 241.162 64.6792 232.807 58.5295C224.451 52.3797 217.284 50.1668 217.802 43.3416C218.649 31.9689 229.269 32.1472 228.369 30.0234Z" fill="#080F29"/>
<path d="M222.316 76.5244C218.51 76.3069 206.18 77.2418 204.594 79.9236C203.9 81.0935 201.759 86.9379 203.649 88.6415C205.354 90.1763 207.485 88.0012 211.954 84.0225C214.758 81.2742 218.414 79.5629 222.319 79.1697C225.044 79.0846 224.615 76.6568 222.316 76.5244Z" fill="#DE8864"/>
<path d="M219.563 95.8684C215.596 95.8684 210.494 95.5442 208.899 95.3686C208.633 95.3388 208.388 95.2042 208.221 94.9943C208.053 94.7844 207.976 94.5164 208.005 94.2493C208.035 93.9821 208.169 93.7378 208.379 93.5699C208.589 93.4021 208.857 93.3245 209.124 93.3542C213.748 93.798 218.398 93.9127 223.038 93.6974C224.523 93.5867 225.961 93.1291 227.238 92.3612C227.343 92.28 227.463 92.2203 227.591 92.1855C227.72 92.1508 227.854 92.1417 227.986 92.1588C228.117 92.1758 228.245 92.2187 228.36 92.285C228.475 92.3512 228.576 92.4396 228.658 92.545C228.739 92.6504 228.798 92.7707 228.833 92.8992C228.868 93.0276 228.877 93.1617 228.86 93.2937C228.843 93.4256 228.8 93.5529 228.734 93.6683C228.668 93.7837 228.579 93.885 228.474 93.9662C226.921 94.9776 225.136 95.5769 223.288 95.7077C222.05 95.8313 220.807 95.885 219.563 95.8684Z" fill="#DE8864"/>
<path d="M243.748 87.7195C246.021 85.7349 252.602 86.0605 251.389 93.1654C249.924 101.75 246.687 116.716 244.385 120.556C242.082 124.395 238.504 125.931 236.713 123.883C234.921 121.835 241.431 89.7406 243.748 87.7195Z" fill="#EEC6B5"/>
<path d="M230.951 79.8535C231.617 78.4593 222.909 74.8899 214.557 75.0764C208.379 75.2115 204.458 78.8781 204.413 80.6155C204.392 81.4261 209.576 80.5763 217.03 80.3588C225.81 80.1075 230.584 80.6222 230.951 79.8535Z" fill="#080F29"/>
<path d="M217.541 100.376C224.928 99.7886 230.702 96.6024 230.437 93.2591C230.171 89.9157 223.968 87.6812 216.58 88.2682C209.193 88.8552 203.419 92.0414 203.684 95.3848C203.95 98.7281 210.153 100.963 217.541 100.376Z" fill="#EEC6B5"/>
<path d="M206.938 92.9013C208.828 86.8934 223.488 84.2252 227.185 90.8113C226.326 95.5182 212.598 98.6147 206.938 92.9013Z" fill="#DFECF7"/>
<mask id="mask0_1035_11651" style="mask-type:luminance" maskUnits="userSpaceOnUse" x="206" y="86" width="22" height="10">
<path d="M206.938 92.8994C208.828 86.8915 223.488 84.2233 227.185 90.8094C226.326 95.5163 212.598 98.6128 206.938 92.8994Z" fill="white"/>
</mask>
<g mask="url(#mask0_1035_11651)">
<path d="M216.794 94.8234C219.089 94.8234 220.95 92.961 220.95 90.6636C220.95 88.3663 219.089 86.5039 216.794 86.5039C214.499 86.5039 212.638 88.3663 212.638 90.6636C212.638 92.961 214.499 94.8234 216.794 94.8234Z" fill="#102B68"/>
<path d="M216.794 92.4658C217.789 92.4658 218.595 91.6589 218.595 90.6636C218.595 89.6682 217.789 88.8613 216.794 88.8613C215.8 88.8613 214.994 89.6682 214.994 90.6636C214.994 91.6589 215.8 92.4658 216.794 92.4658Z" fill="#080F28"/>
</g>
<path d="M206.938 93.9143C206.818 93.9145 206.699 93.893 206.586 93.8508C206.335 93.7567 206.131 93.5666 206.019 93.3223C205.907 93.0779 205.896 92.7992 205.989 92.5471C207.153 89.4182 210.444 87.0918 214.803 86.323C220.031 85.4044 225.197 86.9053 227.957 90.1531C228.12 90.3592 228.197 90.6206 228.171 90.8822C228.146 91.1438 228.02 91.3852 227.82 91.5556C227.62 91.726 227.361 91.8121 227.099 91.7956C226.837 91.7792 226.592 91.6616 226.414 91.4676C224.141 88.7967 219.614 87.5308 215.156 88.3198C211.511 88.9615 208.797 90.807 207.887 93.255C207.815 93.4486 207.686 93.6156 207.516 93.7334C207.346 93.8512 207.145 93.9144 206.938 93.9143Z" fill="#DE8864"/>
<path d="M181.454 92.9013C179.565 86.8934 164.906 84.2252 161.208 90.8113C162.077 95.5182 175.795 98.6147 181.454 92.9013Z" fill="#B0D0EF"/>
<mask id="mask1_1035_11651" style="mask-type:luminance" maskUnits="userSpaceOnUse" x="161" y="86" width="21" height="10">
<path d="M181.454 92.8994C179.565 86.8915 164.906 84.2233 161.208 90.8094C162.077 95.5163 175.795 98.6128 181.454 92.8994Z" fill="white"/>
</mask>
<g mask="url(#mask1_1035_11651)">
<path d="M171.598 94.8234C173.894 94.8234 175.754 92.961 175.754 90.6636C175.754 88.3663 173.894 86.5039 171.598 86.5039C169.303 86.5039 167.442 88.3663 167.442 90.6636C167.442 92.961 169.303 94.8234 171.598 94.8234Z" fill="#102B68"/>
<path d="M171.598 92.4658C172.593 92.4658 173.399 91.6589 173.399 90.6636C173.399 89.6682 172.593 88.8613 171.598 88.8613C170.604 88.8613 169.798 89.6682 169.798 90.6636C169.798 91.6589 170.604 92.4658 171.598 92.4658Z" fill="#080F28"/>
</g>
<path d="M181.454 93.9154C181.248 93.9143 181.048 93.8506 180.879 93.7329C180.71 93.6152 180.581 93.4489 180.509 93.2562C179.599 90.8081 176.882 88.9627 173.24 88.321C168.786 87.532 164.255 88.7979 161.983 91.4688C161.806 91.6628 161.561 91.7804 161.298 91.7968C161.036 91.8132 160.778 91.7272 160.578 91.5568C160.378 91.3864 160.252 91.1449 160.226 90.8833C160.201 90.6217 160.277 90.3603 160.44 90.1543C163.205 86.9051 168.365 85.4028 173.593 86.3242C177.948 87.0929 181.243 89.4193 182.407 92.5482C182.464 92.7012 182.483 92.8657 182.463 93.0276C182.443 93.1896 182.384 93.3443 182.291 93.4786C182.198 93.6129 182.074 93.7227 181.93 93.7987C181.786 93.8748 181.625 93.9148 181.462 93.9154H181.454Z" fill="#BC694B"/>
<path d="M202.942 223.273H180.948L177.367 234.779L187.069 250.337H199.617L208.824 234.779L202.942 223.273Z" fill="#2171C5"/>
<path d="M157.442 223.273C157.442 223.273 167.626 231.508 177.367 234.779C187.108 238.049 201.044 237.139 208.817 234.779C216.59 232.418 233.653 223.273 233.653 223.273H157.442Z" fill="#2171C5"/>
<path d="M216.322 474.907C216.5 477.273 216.11 479.648 215.184 481.833C210.778 492.155 197.306 522.943 193.318 522.943C189.329 522.943 175.851 492.155 171.451 481.833C170.525 479.649 170.134 477.274 170.313 474.907L187.069 250.333H199.556L216.322 474.907Z" fill="#2171C5"/>
<path d="M204.769 503.51C204.539 503.511 204.318 503.421 204.154 503.26L169.962 469.764C169.879 469.683 169.814 469.587 169.769 469.481C169.723 469.375 169.699 469.261 169.698 469.145C169.697 469.03 169.719 468.916 169.762 468.809C169.805 468.701 169.868 468.604 169.949 468.522C170.03 468.439 170.126 468.373 170.232 468.328C170.338 468.283 170.452 468.259 170.567 468.258C170.682 468.257 170.796 468.278 170.903 468.321C171.01 468.364 171.108 468.428 171.19 468.509L205.383 502.005C205.507 502.127 205.592 502.284 205.628 502.455C205.663 502.625 205.646 502.803 205.58 502.964C205.515 503.126 205.402 503.264 205.258 503.361C205.113 503.458 204.943 503.51 204.769 503.51Z" fill="#050F3A"/>
<path d="M207.859 497.01C207.629 497.01 207.408 496.92 207.245 496.759L170.628 460.887C170.543 460.807 170.474 460.71 170.427 460.604C170.38 460.497 170.354 460.382 170.352 460.265C170.349 460.148 170.37 460.032 170.413 459.923C170.456 459.815 170.521 459.716 170.602 459.632C170.684 459.549 170.782 459.483 170.889 459.438C170.997 459.392 171.113 459.369 171.229 459.369C171.346 459.369 171.462 459.393 171.569 459.438C171.677 459.483 171.774 459.55 171.856 459.633L208.473 495.503C208.598 495.625 208.683 495.782 208.719 495.953C208.754 496.124 208.738 496.302 208.672 496.463C208.606 496.625 208.494 496.764 208.349 496.861C208.204 496.958 208.033 497.01 207.859 497.01Z" fill="#050F3A"/>
<path d="M215.423 461.663C215.193 461.663 214.972 461.573 214.808 461.412L173.61 421.055C173.528 420.974 173.462 420.878 173.417 420.772C173.372 420.666 173.348 420.552 173.347 420.436C173.346 420.321 173.367 420.207 173.41 420.1C173.453 419.993 173.517 419.895 173.598 419.813C173.678 419.73 173.774 419.664 173.88 419.619C173.986 419.574 174.1 419.55 174.216 419.549C174.331 419.548 174.445 419.569 174.552 419.612C174.659 419.655 174.756 419.719 174.839 419.8L216.037 460.158C216.161 460.28 216.246 460.437 216.282 460.607C216.317 460.778 216.3 460.956 216.235 461.117C216.169 461.278 216.056 461.417 215.912 461.514C215.767 461.611 215.597 461.663 215.423 461.663Z" fill="#050F3A"/>
<path d="M214.651 451.374C214.421 451.374 214.201 451.284 214.037 451.123L174.275 412.172C174.193 412.091 174.127 411.995 174.082 411.889C174.037 411.783 174.013 411.669 174.012 411.554C174.011 411.438 174.032 411.324 174.075 411.217C174.118 411.11 174.182 411.012 174.262 410.93C174.343 410.847 174.439 410.782 174.545 410.736C174.651 410.691 174.765 410.667 174.88 410.666C174.996 410.665 175.11 410.686 175.217 410.729C175.324 410.773 175.421 410.836 175.504 410.917L215.265 449.868C215.39 449.99 215.476 450.146 215.511 450.317C215.547 450.488 215.531 450.666 215.465 450.828C215.399 450.989 215.286 451.128 215.141 451.225C214.996 451.322 214.826 451.374 214.651 451.374Z" fill="#050F3A"/>
<path d="M211.196 405.231C210.966 405.232 210.745 405.142 210.58 404.981L177.26 372.338C177.175 372.258 177.107 372.162 177.059 372.055C177.012 371.948 176.986 371.833 176.984 371.716C176.981 371.599 177.002 371.483 177.046 371.375C177.089 371.266 177.153 371.167 177.235 371.084C177.316 371 177.414 370.934 177.521 370.889C177.629 370.844 177.745 370.82 177.861 370.82C177.978 370.82 178.094 370.844 178.201 370.889C178.309 370.934 178.406 371.001 178.488 371.084L211.81 403.726C211.934 403.848 212.02 404.004 212.055 404.175C212.09 404.346 212.074 404.523 212.008 404.685C211.942 404.846 211.83 404.984 211.685 405.082C211.54 405.179 211.37 405.231 211.196 405.231Z" fill="#050F3A"/>
<path d="M210.424 394.942C210.194 394.942 209.974 394.851 209.81 394.69L177.925 363.455C177.759 363.292 177.664 363.07 177.662 362.837C177.66 362.604 177.75 362.379 177.913 362.213C178.075 362.047 178.298 361.952 178.53 361.949C178.763 361.947 178.987 362.037 179.154 362.2L211.038 393.435C211.163 393.557 211.249 393.714 211.284 393.885C211.32 394.056 211.303 394.234 211.237 394.395C211.172 394.557 211.059 394.695 210.914 394.793C210.769 394.89 210.599 394.942 210.424 394.942Z" fill="#050F3A"/>
<path d="M206.968 348.801C206.739 348.802 206.518 348.712 206.354 348.551L180.908 323.625C180.826 323.544 180.76 323.448 180.715 323.342C180.67 323.236 180.646 323.122 180.645 323.007C180.643 322.891 180.665 322.777 180.708 322.67C180.751 322.563 180.815 322.465 180.895 322.383C180.976 322.3 181.072 322.235 181.178 322.19C181.284 322.144 181.398 322.12 181.513 322.119C181.628 322.118 181.743 322.14 181.85 322.183C181.957 322.226 182.054 322.289 182.136 322.37L207.582 347.296C207.707 347.418 207.792 347.575 207.827 347.745C207.862 347.916 207.846 348.093 207.78 348.255C207.714 348.416 207.602 348.554 207.457 348.652C207.313 348.749 207.142 348.801 206.968 348.801Z" fill="#050F3A"/>
<path d="M206.197 338.513C205.967 338.513 205.747 338.424 205.583 338.263L181.574 314.743C181.492 314.663 181.426 314.566 181.381 314.46C181.336 314.354 181.312 314.24 181.311 314.125C181.309 314.009 181.331 313.895 181.374 313.788C181.417 313.681 181.481 313.583 181.561 313.501C181.642 313.419 181.738 313.353 181.844 313.308C181.95 313.262 182.064 313.239 182.179 313.237C182.294 313.236 182.409 313.258 182.516 313.301C182.623 313.344 182.72 313.408 182.802 313.488L206.812 337.008C206.937 337.13 207.022 337.287 207.057 337.457C207.092 337.628 207.076 337.806 207.01 337.967C206.944 338.129 206.831 338.267 206.686 338.364C206.542 338.461 206.371 338.513 206.197 338.513Z" fill="#050F3A"/>
<path d="M177.109 234.732C176.909 234.732 176.716 234.664 176.56 234.539C176.405 234.414 176.296 234.24 176.253 234.045C176.209 233.851 176.233 233.647 176.321 233.468C176.408 233.288 176.554 233.144 176.735 233.059L196.227 223.893C196.438 223.794 196.679 223.783 196.898 223.862C197.117 223.941 197.295 224.104 197.394 224.315C197.493 224.526 197.504 224.767 197.425 224.986C197.346 225.205 197.183 225.384 196.972 225.483L177.481 234.648C177.365 234.703 177.238 234.732 177.109 234.732Z" fill="#050F3A"/>
<path d="M181.003 240.09C180.803 240.09 180.609 240.022 180.453 239.897C180.297 239.772 180.189 239.598 180.145 239.403C180.102 239.208 180.126 239.003 180.214 238.824C180.303 238.645 180.449 238.501 180.631 238.416L206.801 226.108C207.012 226.01 207.253 225.999 207.472 226.078C207.691 226.157 207.87 226.32 207.968 226.531C208.067 226.742 208.078 226.983 207.999 227.202C207.92 227.421 207.757 227.6 207.547 227.699L181.377 240.006C181.26 240.061 181.132 240.09 181.003 240.09Z" fill="#050F3A"/>
<path d="M187.069 251.215C186.869 251.215 186.676 251.146 186.52 251.021C186.365 250.896 186.257 250.721 186.214 250.526C186.17 250.331 186.195 250.127 186.283 249.948C186.372 249.769 186.518 249.626 186.699 249.541L203.129 241.908C203.234 241.856 203.348 241.827 203.464 241.82C203.581 241.813 203.698 241.83 203.808 241.869C203.918 241.908 204.019 241.968 204.105 242.047C204.192 242.126 204.261 242.221 204.31 242.327C204.36 242.433 204.387 242.548 204.391 242.665C204.396 242.781 204.377 242.898 204.335 243.007C204.294 243.116 204.231 243.216 204.151 243.301C204.07 243.386 203.974 243.454 203.867 243.501L187.437 251.133C187.322 251.187 187.196 251.215 187.069 251.215Z" fill="#050F3A"/>
<path d="M202.741 292.367C202.512 292.367 202.291 292.277 202.127 292.117L184.558 274.906C184.476 274.826 184.41 274.729 184.365 274.623C184.32 274.517 184.296 274.403 184.295 274.288C184.294 274.173 184.315 274.058 184.358 273.951C184.401 273.844 184.465 273.747 184.545 273.664C184.626 273.582 184.722 273.516 184.828 273.471C184.934 273.426 185.048 273.402 185.163 273.4C185.279 273.399 185.393 273.421 185.5 273.464C185.607 273.507 185.704 273.571 185.786 273.651L203.355 290.863C203.48 290.985 203.565 291.142 203.6 291.312C203.635 291.483 203.619 291.66 203.553 291.822C203.487 291.983 203.375 292.121 203.23 292.219C203.086 292.316 202.915 292.368 202.741 292.368V292.367Z" fill="#050F3A"/>
<path d="M201.97 282.083C201.741 282.084 201.52 281.994 201.356 281.833L185.224 266.027C185.063 265.862 184.973 265.642 184.973 265.412C184.974 265.182 185.064 264.962 185.224 264.797C185.385 264.633 185.604 264.539 185.833 264.534C186.063 264.53 186.285 264.615 186.452 264.773L202.585 280.579C202.709 280.702 202.794 280.858 202.829 281.029C202.865 281.2 202.848 281.377 202.782 281.538C202.717 281.7 202.604 281.838 202.46 281.935C202.315 282.032 202.145 282.083 201.97 282.083Z" fill="#050F3A"/>
<path d="M199 251.217H187.069C186.836 251.217 186.613 251.125 186.449 250.96C186.284 250.795 186.192 250.572 186.192 250.339C186.192 250.106 186.284 249.883 186.449 249.718C186.613 249.553 186.836 249.461 187.069 249.461H199C199.232 249.461 199.456 249.553 199.62 249.718C199.785 249.883 199.877 250.106 199.877 250.339C199.877 250.572 199.785 250.795 199.62 250.96C199.456 251.125 199.232 251.217 199 251.217Z" fill="#050F3A"/>
<path d="M233.654 180.958C227.793 180.651 241.453 254.679 239.407 277.206C237.361 299.732 229.235 367.958 227.185 386.637C225.134 405.316 226.074 520.791 230.372 555.194C235.486 596.151 248.614 635.06 250.149 637.62C251.683 640.18 297.717 636.084 304.368 631.988C311.018 627.891 327.384 613.557 326.361 609.966C325.338 606.375 314.472 491.449 300.787 448.188C312.157 447.982 337.74 446.297 347.867 436.164C355.795 428.229 364.152 399.958 363.978 397.768C363.212 388.028 356.419 367.505 355.396 360.083C354.373 352.66 350.409 330.869 348.377 322.991C346.331 315.057 339.659 251.603 337.613 242.701C336.79 239.118 301.454 225.321 290.812 221.654C275.213 216.289 238.558 181.213 233.654 180.958Z" fill="#092B69"/>
<path d="M152.918 183.864C146.015 193.421 137.96 262.357 139.666 312.536C141.372 362.715 146.582 466.342 146.204 478.201C144.78 522.95 110.339 633.244 106.588 638.423C102.837 643.601 97.3813 639.165 93.9717 636.094C90.5622 633.023 82.4149 623.5 73.5117 618.004C53.0518 605.376 47.4542 598.256 49.9823 587.286C52.0286 578.413 64.9865 521.763 66.6913 508.786C68.3961 495.81 75.2165 461.843 74.8764 450.502C74.5362 439.16 32.936 348.105 33.2748 342.223C36.6843 282.884 48.6191 246.097 46.9143 239.209C45.2095 232.322 83.4002 221.06 99.4275 212.189C115.455 203.319 148.395 182.482 152.918 183.864Z" fill="#092B69"/>
<path d="M246.573 364.492C248.598 352.769 271.891 258.517 275.728 250.332C277.931 245.632 266.521 236.687 267.8 234.796C269.078 232.904 277.518 225.146 279.053 224.676C280.587 224.205 282.377 226.734 280.331 230.08C278.285 233.425 275.728 235.816 275.728 236.795C275.728 237.775 282.647 247.837 281.252 251.342C262.247 299.047 249.637 361.932 246.573 364.492Z" fill="#050F3A"/>
<path d="M325.105 380.364C325.105 380.364 163.953 364.029 152.918 365.908C141.884 367.788 157.246 422.752 168.371 426.334C179.496 429.917 244.928 443.335 259.634 445.248C274.339 447.161 336.869 447.425 341.602 443.073C346.334 438.722 343.945 382.135 325.105 380.364Z" fill="#092B69"/>
<path d="M101.304 226.903C104.199 230.813 112.556 241.738 114.09 242.71C115.625 243.681 105.625 265.406 102.837 271.578C101.566 274.397 116.137 314.874 120.996 335.462C125.855 356.05 132.761 402.665 131.738 409.692C125.855 371.715 98.7462 274.65 96.6999 270.042C94.6536 265.433 106.93 248.29 105.652 244.189C104.373 240.087 99.5128 231.511 98.4897 229.275C97.4666 227.039 98.3453 222.909 101.304 226.903Z" fill="#050F3A"/>
<path d="M37.2961 300.487C34.5749 312.019 34.5209 333.046 33.2697 337.64C32.0184 342.233 25.3681 341.851 23.5783 347.928C21.7885 354.004 13.6047 392.916 13.6047 395.985C13.6047 399.055 29.2042 447.675 30.7429 450.497C32.2817 453.319 60.241 454.088 83.8541 448.712C107.467 443.337 214.08 415.698 248.125 399.309C250.312 398.256 256.054 389.447 257.332 387.211C258.61 384.975 288.682 383.685 290.323 384.206C291.965 384.728 282.14 379.09 280.093 378.448C278.047 377.806 314.838 369.615 314.472 367.567C314.106 365.519 274.211 364.495 274.211 364.495L275.746 321.491C275.746 321.491 253.751 365.519 250.171 370.127C246.592 374.736 104.367 403.148 97.7312 401.868C91.0957 400.587 92.737 377.009 88.0263 366.031C81.0897 349.888 61.6286 342.317 48.641 342.744C35.6534 343.171 43.0151 304.34 37.2961 300.487Z" fill="#050F3A"/>
<path d="M99.024 432.841L75.2395 417.738L72.046 440.05C73.7791 445.049 74.8292 448.733 74.8805 450.496C75.1977 461.057 69.3073 491.235 67.1179 505.811L99.024 432.841Z" fill="#050F3A"/>
<path d="M235.594 384.715C238.362 383.818 271.653 365.773 274.211 364.492C274.346 360.731 274.493 357.168 274.616 353.819C271.656 351.51 258.754 345.624 250.883 345.2C243.012 344.776 215.029 348.429 211.199 351.685C207.37 354.94 226.899 387.531 235.594 384.715Z" fill="#DE8864"/>
<path d="M256.479 346.151C254.646 345.662 252.772 345.345 250.88 345.206C243.01 344.781 215.025 348.435 211.197 351.69C208.613 353.888 216.662 369.42 224.842 378.44C232.639 368.87 246.738 352.542 256.479 346.151Z" fill="#EEC6B5"/>
<path d="M230.503 346.928C221.687 348.206 213.184 350.003 211.201 351.694C207.371 354.953 226.904 387.532 235.599 384.717C236.667 384.369 242.286 381.467 248.926 377.962C245.939 369.945 235.594 352.494 230.503 346.928Z" fill="#B0D0EF"/>
<path d="M134.062 354.511C134.062 354.511 106.951 328.912 103.883 327.206C100.815 325.5 70.6356 317.098 67.226 317.459C63.8165 317.819 48.514 322.998 46.0115 324.269C43.7169 325.436 44.4215 330.065 46.9793 330.065C44.4147 331.344 42.6317 332.487 39.9456 333.776C36.8344 335.27 38.5756 342.309 42.162 341.541C39.0089 342.821 39.5326 349.216 43.2782 349.583C48.3008 350.073 61.2587 349.903 63.3049 350.073C58.8587 351.385 50.347 352.975 46.4246 354.511C42.5021 356.047 45.064 361.277 50.0933 360.765C53.5028 360.418 61.7702 359.63 63.6451 359.8C65.5199 359.97 83.7703 364.546 96.469 365.758C109.168 366.97 134.062 354.511 134.062 354.511Z" fill="#DE8864"/>
<path d="M100.298 325.855C91.4411 322.927 70.0633 317.157 67.2287 317.459C63.8192 317.821 48.5167 322.998 46.0142 324.269C43.7196 325.436 44.4242 330.065 46.982 330.065C44.4174 331.344 42.6344 332.487 39.9483 333.776C36.8371 335.27 38.5783 342.309 42.1646 341.542C41.474 341.902 40.9083 342.463 40.5415 343.151C40.1747 343.838 40.0239 344.621 40.1089 345.396C45.4473 345.261 57.154 344.596 59.8967 344.256C64.5858 343.675 65.9559 335.331 67.5729 335.53C71.7505 336.042 86.9234 332.471 89.7566 331.724C93.5076 330.734 103.052 328.667 100.298 325.855Z" fill="#EEC6B5"/>
<path d="M91.6937 332.096C91.6227 332.096 91.552 332.087 91.4831 332.07C82.1831 329.773 67.9564 326.323 66.8739 326.203C65.7428 326.161 56.3119 328.347 47.9162 330.448C47.6923 330.499 47.4572 330.46 47.2615 330.34C47.0657 330.22 46.9248 330.027 46.8692 329.804C46.8135 329.581 46.8474 329.345 46.9637 329.147C47.08 328.949 47.2693 328.804 47.491 328.744C51.6862 327.694 65.5147 324.275 67.0629 324.457C68.6111 324.64 89.5192 329.777 91.8988 330.364C92.1059 330.416 92.2867 330.543 92.4075 330.719C92.5283 330.895 92.5808 331.11 92.5552 331.322C92.5295 331.534 92.4275 331.73 92.2682 331.872C92.1089 332.015 91.9032 332.094 91.6896 332.096H91.6937Z" fill="#090E22"/>
<path d="M82.2283 352.066C82.0847 352.067 81.9433 352.031 81.8166 351.964C78.3541 350.711 74.7785 349.796 71.1398 349.233C70.7929 349.322 69.7617 349.541 68.5672 349.795C66.7301 350.184 64.2168 350.717 63.5622 350.918C63.4513 350.955 63.3343 350.969 63.2179 350.96C63.1014 350.951 62.988 350.918 62.8842 350.865C62.7804 350.811 62.6883 350.738 62.6134 350.648C62.5384 350.558 62.4821 350.455 62.4476 350.343C62.4132 350.231 62.4015 350.114 62.413 349.998C62.4245 349.881 62.4591 349.769 62.5147 349.666C62.5704 349.563 62.646 349.472 62.7371 349.399C62.8282 349.326 62.9329 349.272 63.0452 349.24C63.7754 349.016 66.1281 348.517 68.2027 348.077C69.3703 347.828 70.3772 347.616 70.7592 347.52C72.2062 347.162 81.4063 349.755 82.6373 350.414C82.8107 350.506 82.9484 350.653 83.0283 350.832C83.1083 351.011 83.1259 351.212 83.0783 351.402C83.0307 351.593 82.9207 351.761 82.7659 351.882C82.611 352.002 82.4203 352.067 82.2242 352.066H82.2283Z" fill="#090E22"/>
<path d="M214.08 344.272C207.858 343.914 156.055 349.732 129.799 352.121C103.543 354.51 71.8288 357.93 57.5076 366.115C43.1864 374.299 33.5895 389.323 33.2723 391.713C32.9551 394.103 55.9081 386.246 70.8057 381.474C74.1963 380.393 61.2587 426.184 60.577 429.598C59.8954 433.012 126.768 420.041 146.018 414.58C165.269 409.12 227.8 395.164 233.657 394.064C239.816 392.908 241.971 394.049 241.7 391.569C241.22 387.209 217.481 344.466 214.08 344.272Z" fill="#092B69"/>
<path d="M350.398 432.987C345.991 441.878 343.605 451.883 338.831 452.683C334.056 453.483 267.562 448.022 256.479 446.316C246.869 444.83 172.706 430.956 164.039 424.131C187.673 430.155 235.679 440.598 258.091 443.243C271.46 444.825 342.922 443.418 350.398 432.987Z" fill="#050F3A"/>
<path d="M108.146 527.558C107.644 528.938 99.6205 533.361 97.4042 533.701C95.1879 534.042 74.7279 524.486 72.3401 522.95C69.9524 521.414 70.823 519.968 75.068 521.244C76.7742 521.756 94.6763 528.923 97.2328 529.606C99.7893 530.29 108.827 525.674 108.146 527.558Z" fill="#050F3A"/>
<path d="M304.389 531.477C304.389 532.843 287.678 537.259 276.257 538.815C266.88 540.092 261.596 540.072 259.548 539.327C257.673 538.644 254.816 525.566 254.092 520.726C253.613 517.52 256.117 516.936 256.99 520.726C258.07 525.896 259.553 530.974 261.424 535.913C261.964 537.391 270.642 536.354 277.962 535.573C290.75 534.207 304.383 530.27 304.389 531.477Z" fill="#050F3A"/>
<path d="M232.842 171.842C231.731 170.321 230.323 169.041 228.703 168.081C228.749 173.326 228.751 176.364 228.751 185.239C228.751 194.113 222.498 199.812 210.847 209.728C204.225 215.365 195.95 221.795 193.096 221.795C190.243 221.795 181.966 215.365 175.344 209.728C163.692 199.812 157.442 194.113 157.442 185.239C157.442 176.364 157.394 173.327 157.442 168.081C155.835 169.042 154.442 170.322 153.349 171.842C145.677 182.422 142.138 235.715 142.479 236.909C142.821 238.103 164.987 229.479 173.659 227.452C180.516 225.851 189.48 223.567 193.096 223.567C196.712 223.567 205.673 225.851 212.533 227.452C221.207 229.479 242.228 238.26 242.563 237.059C242.898 235.858 240.514 182.418 232.842 171.842Z" fill="#B0D0EF"/>
<path d="M242.27 238.042C241.027 238.042 238.126 237.086 229.504 233.978C223.372 231.77 216.423 229.265 212.33 228.304L209.078 227.536C202.975 226.085 196.058 224.442 193.095 224.442C190.132 224.442 183.221 226.085 177.121 227.533L173.859 228.304C169.945 229.218 163.074 231.547 157.01 233.611C145.254 237.605 143.03 238.225 142.135 237.755C141.901 237.619 141.723 237.404 141.634 237.148C141.573 236.925 141.601 236.686 141.714 236.484C141.827 236.281 142.015 236.132 142.238 236.067C142.35 236.034 142.467 236.024 142.583 236.038C142.699 236.051 142.811 236.089 142.913 236.147C144.311 236.077 151.021 233.797 156.45 231.959C162.849 229.785 169.468 227.537 173.457 226.605L176.714 225.836C183.209 224.292 189.925 222.696 193.091 222.696C196.256 222.696 203.282 224.365 209.48 225.837L212.719 226.605C216.912 227.583 223.912 230.105 230.088 232.332C235.138 234.15 240.834 236.204 242.127 236.298C242.279 236.214 242.452 236.177 242.625 236.192C242.797 236.206 242.962 236.272 243.098 236.38C243.233 236.488 243.334 236.634 243.387 236.799C243.439 236.965 243.442 237.142 243.394 237.309C243.304 237.568 243.124 237.785 242.885 237.921C242.693 238.009 242.482 238.051 242.27 238.042Z" fill="#050F3A"/>
<path d="M213.854 130.893C215.52 134.995 214.886 136.735 215.664 137.025C217.45 137.693 217.877 135.447 216.9 133.052C215.933 130.677 213.34 129.629 213.854 130.893Z" fill="#DE8864"/>
<path d="M159.813 193.884H159.821C158.256 191.273 157.433 188.283 157.441 185.238V168.08C155.835 169.041 154.442 170.321 153.349 171.841C149.928 176.558 146.909 189.674 145.52 203.117C148.847 197.097 151.979 190.809 154.294 189.619C156.752 188.355 158.038 190.778 159.813 193.884Z" fill="#85B0DF"/>
</g>
<defs>
<filter id="filter0_f_1035_11651" x="87" y="-12" width="765" height="771" filterUnits="userSpaceOnUse" color-interpolation-filters="sRGB">
<feFlood flood-opacity="0" result="BackgroundImageFix"/>
<feBlend mode="normal" in="SourceGraphic" in2="BackgroundImageFix" result="shape"/>
<feGaussianBlur stdDeviation="4" result="effect1_foregroundBlur_1035_11651"/>
</filter>
<clipPath id="clip0_1035_11651">
<rect width="831" height="799" fill="white"/>
</clipPath>
</defs>
</svg>
