<svg width="749" height="799" viewBox="0 0 749 799" fill="none" xmlns="http://www.w3.org/2000/svg">
<g filter="url(#filter0_f_1012_32836)">
<path d="M201.02 736.84H93.6376C93.1792 736.84 92.7396 736.656 92.4154 736.329C92.0913 736.003 91.9092 735.559 91.9092 735.097V593.662C91.9092 593.2 92.0913 592.757 92.4154 592.43C92.7396 592.103 93.1792 591.92 93.6376 591.92H201.02C201.479 591.92 201.918 592.103 202.243 592.43C202.567 592.757 202.749 593.2 202.749 593.662V735.097C202.749 735.559 202.567 736.003 202.243 736.329C201.918 736.656 201.479 736.84 201.02 736.84ZM95.3661 733.355H199.292V595.405H95.3661V733.355Z" fill="#C7E3F9" fill-opacity="0.6"/>
<path d="M655.114 736.84H547.73C547.272 736.84 546.832 736.656 546.508 736.329C546.184 736.003 546.002 735.559 546.002 735.097V593.662C546.002 593.2 546.184 592.757 546.508 592.43C546.832 592.103 547.272 591.92 547.73 591.92H655.114C655.572 591.92 656.012 592.103 656.336 592.43C656.66 592.757 656.842 593.2 656.842 593.662V735.097C656.842 735.559 656.66 736.003 656.336 736.329C656.012 736.656 655.572 736.84 655.114 736.84ZM549.459 733.355H653.385V595.405H549.459V733.355Z" fill="#C7E3F9" fill-opacity="0.6"/>
<path d="M728.036 711.901H655.113C654.654 711.901 654.215 711.717 653.891 711.391C653.566 711.064 653.384 710.621 653.384 710.159C653.384 709.696 653.566 709.253 653.891 708.927C654.215 708.6 654.654 708.416 655.113 708.416H726.307V293.744H618.851V582.804C618.851 583.266 618.669 583.709 618.345 584.036C618.021 584.363 617.581 584.546 617.123 584.546C616.665 584.546 616.225 584.363 615.901 584.036C615.577 583.709 615.395 583.266 615.395 582.804V292.002C615.395 291.54 615.577 291.097 615.901 290.77C616.225 290.443 616.665 290.26 617.123 290.26H728.036C728.494 290.26 728.934 290.443 729.258 290.77C729.582 291.097 729.764 291.54 729.764 292.002V710.159C729.764 710.387 729.719 710.614 729.633 710.825C729.546 711.037 729.418 711.229 729.258 711.391C729.097 711.552 728.907 711.681 728.697 711.768C728.488 711.856 728.263 711.901 728.036 711.901Z" fill="#C7E3F9" fill-opacity="0.6"/>
<path d="M734.731 293.744H617.159C616.701 293.744 616.261 293.561 615.937 293.234C615.613 292.907 615.431 292.464 615.431 292.002V279.971C615.431 279.509 615.613 279.066 615.937 278.739C616.261 278.412 616.701 278.229 617.159 278.229H734.731C735.189 278.229 735.629 278.412 735.953 278.739C736.277 279.066 736.46 279.509 736.46 279.971V292.002C736.46 292.464 736.277 292.907 735.953 293.234C735.629 293.561 735.189 293.744 734.731 293.744ZM618.888 290.26H733.003V281.713H618.888V290.26Z" fill="#C7E3F9" fill-opacity="0.6"/>
<path d="M728.035 281.713C727.627 281.713 727.232 281.568 726.921 281.302L669.473 232.414H615.974C615.515 232.414 615.076 232.231 614.751 231.904C614.427 231.577 614.245 231.134 614.245 230.672C614.245 230.21 614.427 229.767 614.751 229.44C615.076 229.113 615.515 228.93 615.974 228.93H670.105C670.514 228.93 670.908 229.075 671.22 229.341L729.151 278.639C729.422 278.87 729.616 279.178 729.707 279.524C729.798 279.869 729.782 280.234 729.66 280.57C729.538 280.905 729.317 281.195 729.026 281.399C728.736 281.604 728.39 281.714 728.035 281.713Z" fill="#C7E3F9" fill-opacity="0.6"/>
<path d="M669.303 329.414H645.05V429.772H669.303V329.414Z" fill="#C7E3F9" fill-opacity="0.6"/>
<path d="M669.303 431.518H645.047C644.588 431.518 644.149 431.334 643.825 431.008C643.5 430.681 643.318 430.238 643.318 429.776V329.418C643.318 328.956 643.5 328.513 643.825 328.186C644.149 327.859 644.588 327.676 645.047 327.676H669.303C669.761 327.676 670.201 327.859 670.525 328.186C670.849 328.513 671.031 328.956 671.031 329.418V429.776C671.031 430.238 670.849 430.681 670.525 431.008C670.201 431.334 669.761 431.518 669.303 431.518ZM646.775 428.033H667.574V331.16H646.775V428.033Z" fill="#C7E3F9" fill-opacity="0.6"/>
<path d="M703.802 329.414H679.549V429.772H703.802V329.414Z" fill="#C7E3F9" fill-opacity="0.6"/>
<path d="M703.802 431.518H679.546C679.087 431.518 678.648 431.334 678.324 431.008C677.999 430.681 677.817 430.238 677.817 429.776V329.418C677.817 328.956 677.999 328.513 678.324 328.186C678.648 327.859 679.087 327.676 679.546 327.676H703.802C704.26 327.676 704.7 327.859 705.024 328.186C705.348 328.513 705.53 328.956 705.53 329.418V429.776C705.53 430.238 705.348 430.681 705.024 431.008C704.7 431.334 704.26 431.518 703.802 431.518ZM681.274 428.033H702.073V331.16H681.274V428.033Z" fill="#C7E3F9" fill-opacity="0.6"/>
<path d="M669.303 458.822H645.05V559.18H669.303V458.822Z" fill="#C7E3F9" fill-opacity="0.6"/>
<path d="M669.303 560.922H645.047C644.588 560.922 644.149 560.739 643.825 560.412C643.5 560.085 643.318 559.642 643.318 559.18V458.822C643.318 458.36 643.5 457.917 643.825 457.59C644.149 457.264 644.588 457.08 645.047 457.08H669.303C669.761 457.08 670.201 457.264 670.525 457.59C670.849 457.917 671.031 458.36 671.031 458.822V559.18C671.031 559.642 670.849 560.085 670.525 560.412C670.201 560.739 669.761 560.922 669.303 560.922ZM646.775 557.438H667.574V460.565H646.775V557.438Z" fill="#C7E3F9" fill-opacity="0.6"/>
<path d="M703.802 458.822H679.549V559.18H703.802V458.822Z" fill="#C7E3F9" fill-opacity="0.6"/>
<path d="M703.802 560.922H679.546C679.087 560.922 678.648 560.739 678.324 560.412C677.999 560.085 677.817 559.642 677.817 559.18V458.822C677.817 458.36 677.999 457.917 678.324 457.59C678.648 457.264 679.087 457.08 679.546 457.08H703.802C704.26 457.08 704.7 457.264 705.024 457.59C705.348 457.917 705.53 458.36 705.53 458.822V559.18C705.53 559.642 705.348 560.085 705.024 560.412C704.7 560.739 704.26 560.922 703.802 560.922ZM681.274 557.438H702.073V460.565H681.274V557.438Z" fill="#C7E3F9" fill-opacity="0.6"/>
<path d="M93.6378 711.901H20.4238C19.9654 711.901 19.5257 711.717 19.2016 711.391C18.8774 711.064 18.6953 710.621 18.6953 710.159V292.002C18.6953 291.54 18.8774 291.097 19.2016 290.77C19.5257 290.443 19.9654 290.26 20.4238 290.26H131.337C131.795 290.26 132.235 290.443 132.559 290.77C132.883 291.097 133.065 291.54 133.065 292.002V582.804C133.065 583.266 132.883 583.709 132.559 584.036C132.235 584.363 131.795 584.546 131.337 584.546C130.878 584.546 130.439 584.363 130.114 584.036C129.79 583.709 129.608 583.266 129.608 582.804V293.744H22.1522V708.416H93.6378C94.0962 708.416 94.5358 708.6 94.86 708.927C95.1841 709.253 95.3662 709.696 95.3662 710.159C95.3662 710.621 95.1841 711.064 94.86 711.391C94.5358 711.717 94.0962 711.901 93.6378 711.901Z" fill="#C7E3F9" fill-opacity="0.6"/>
<path d="M131.337 293.744H13.7285C13.27 293.744 12.8304 293.561 12.5063 293.234C12.1821 292.907 12 292.464 12 292.002V279.971C12 279.509 12.1821 279.066 12.5063 278.739C12.8304 278.412 13.27 278.229 13.7285 278.229H131.337C131.795 278.229 132.235 278.412 132.559 278.739C132.883 279.066 133.065 279.509 133.065 279.971V292.002C133.065 292.464 132.883 292.907 132.559 293.234C132.235 293.561 131.795 293.744 131.337 293.744ZM15.4569 290.26H129.608V281.713H15.4569V290.26Z" fill="#C7E3F9" fill-opacity="0.6"/>
<path d="M134.138 281.713H20.4237C20.0693 281.713 19.7234 281.604 19.4329 281.399C19.1424 281.195 18.9213 280.905 18.7995 280.569C18.6778 280.234 18.6613 279.869 18.7523 279.524C18.8433 279.178 19.0374 278.87 19.3082 278.639L77.2409 229.341C77.5529 229.075 77.9481 228.93 78.3564 228.93H132.747C133.206 228.93 133.646 229.113 133.97 229.44C134.294 229.767 134.476 230.21 134.476 230.672C134.476 231.134 134.294 231.577 133.97 231.904C133.646 232.231 133.206 232.414 132.747 232.414H78.9861L25.1504 278.229H134.138C134.596 278.229 135.036 278.412 135.36 278.739C135.684 279.066 135.866 279.509 135.866 279.971C135.866 280.433 135.684 280.876 135.36 281.203C135.036 281.53 134.596 281.713 134.138 281.713Z" fill="#C7E3F9" fill-opacity="0.6"/>
<path d="M81.992 429.771H106.245L106.245 329.414H81.992L81.992 429.771Z" fill="#C7E3F9" fill-opacity="0.6"/>
<path d="M106.245 431.518H81.9921C81.5337 431.518 81.0941 431.334 80.7699 431.008C80.4458 430.681 80.2637 430.238 80.2637 429.776V329.418C80.2637 328.956 80.4458 328.513 80.7699 328.186C81.0941 327.859 81.5337 327.676 81.9921 327.676H106.248C106.707 327.676 107.146 327.859 107.47 328.186C107.795 328.513 107.977 328.956 107.977 329.418V429.776C107.977 430.005 107.932 430.232 107.845 430.443C107.758 430.655 107.63 430.847 107.469 431.009C107.309 431.171 107.118 431.299 106.908 431.386C106.698 431.474 106.472 431.518 106.245 431.518ZM83.7206 428.033H104.52V331.16H83.7206V428.033Z" fill="#C7E3F9" fill-opacity="0.6"/>
<path d="M47.4969 429.771H71.75L71.75 329.414H47.4969L47.4969 429.771Z" fill="#C7E3F9" fill-opacity="0.6"/>
<path d="M71.7501 431.518H47.497C47.0386 431.518 46.599 431.334 46.2748 431.008C45.9507 430.681 45.7686 430.238 45.7686 429.776V329.418C45.7686 328.956 45.9507 328.513 46.2748 328.186C46.599 327.859 47.0386 327.676 47.497 327.676H71.753C72.2114 327.676 72.6511 327.859 72.9752 328.186C73.2994 328.513 73.4815 328.956 73.4815 329.418V429.776C73.4815 430.005 73.4367 430.232 73.3496 430.443C73.2626 430.655 73.135 430.847 72.9742 431.009C72.8134 431.171 72.6225 431.299 72.4125 431.386C72.2024 431.474 71.9774 431.518 71.7501 431.518ZM49.2255 428.033H70.0246V331.16H49.2255V428.033Z" fill="#C7E3F9" fill-opacity="0.6"/>
<path d="M81.992 559.18H106.245L106.245 458.822H81.992L81.992 559.18Z" fill="#C7E3F9" fill-opacity="0.6"/>
<path d="M106.245 560.922H81.9921C81.5337 560.922 81.0941 560.739 80.7699 560.412C80.4458 560.085 80.2637 559.642 80.2637 559.18V458.822C80.2637 458.36 80.4458 457.917 80.7699 457.59C81.0941 457.264 81.5337 457.08 81.9921 457.08H106.248C106.707 457.08 107.146 457.264 107.47 457.59C107.795 457.917 107.977 458.36 107.977 458.822V559.18C107.977 559.409 107.932 559.636 107.845 559.847C107.758 560.059 107.63 560.251 107.469 560.413C107.309 560.575 107.118 560.703 106.908 560.79C106.698 560.878 106.472 560.923 106.245 560.922ZM83.7206 557.438H104.52V460.565H83.7206V557.438Z" fill="#C7E3F9" fill-opacity="0.6"/>
<path d="M47.4969 559.18H71.75L71.75 458.822H47.4969L47.4969 559.18Z" fill="#C7E3F9" fill-opacity="0.6"/>
<path d="M71.7501 560.922H47.497C47.0386 560.922 46.599 560.739 46.2748 560.412C45.9507 560.085 45.7686 559.642 45.7686 559.18V458.822C45.7686 458.36 45.9507 457.917 46.2748 457.59C46.599 457.264 47.0386 457.08 47.497 457.08H71.753C72.2114 457.08 72.6511 457.264 72.9752 457.59C73.2994 457.917 73.4815 458.36 73.4815 458.822V559.18C73.4815 559.409 73.4367 559.636 73.3496 559.847C73.2626 560.059 73.135 560.251 72.9742 560.413C72.8134 560.575 72.6225 560.703 72.4125 560.79C72.2024 560.878 71.9774 560.923 71.7501 560.922ZM49.2255 557.438H70.0246V460.565H49.2255V557.438Z" fill="#C7E3F9" fill-opacity="0.6"/>
<path d="M547.731 736.84H201.021C200.744 736.84 200.471 736.772 200.224 736.643C199.978 736.514 199.766 736.328 199.607 736.099C199.448 735.87 199.345 735.606 199.308 735.328C199.271 735.051 199.301 734.769 199.396 734.506L250.012 593.071C250.132 592.734 250.353 592.442 250.644 592.236C250.935 592.03 251.282 591.92 251.638 591.92H497.115C497.47 591.92 497.817 592.03 498.108 592.236C498.399 592.442 498.62 592.734 498.741 593.071L549.357 734.507C549.452 734.77 549.481 735.052 549.445 735.329C549.408 735.606 549.305 735.871 549.146 736.099C548.986 736.328 548.774 736.515 548.528 736.644C548.282 736.773 548.008 736.84 547.731 736.84ZM203.48 733.355H545.27L495.9 595.405H252.853L203.48 733.355Z" fill="#C7E3F9" fill-opacity="0.6"/>
<path d="M658.098 595.404H545.438C544.98 595.404 544.54 595.22 544.216 594.894C543.892 594.567 543.71 594.124 543.71 593.662V582.729C543.71 582.267 543.892 581.823 544.216 581.497C544.54 581.17 544.98 580.986 545.438 580.986H658.098C658.556 580.986 658.996 581.17 659.32 581.497C659.644 581.823 659.826 582.267 659.826 582.729V593.662C659.826 594.124 659.644 594.567 659.32 594.894C658.996 595.22 658.556 595.404 658.098 595.404ZM547.167 591.919H656.369V584.471H547.167V591.919Z" fill="#C7E3F9" fill-opacity="0.6"/>
<path d="M545.437 582.73H497.113V593.664H545.437V582.73Z" fill="#C7E3F9" fill-opacity="0.6"/>
<path d="M545.437 595.406H497.113C496.655 595.406 496.215 595.222 495.891 594.896C495.567 594.569 495.385 594.126 495.385 593.664V582.731C495.385 582.269 495.567 581.825 495.891 581.499C496.215 581.172 496.655 580.988 497.113 580.988H545.437C545.896 580.988 546.335 581.172 546.66 581.499C546.984 581.825 547.166 582.269 547.166 582.731V593.664C547.166 594.126 546.984 594.569 546.66 594.896C546.335 595.222 545.896 595.406 545.437 595.406ZM498.842 591.921H543.709V584.473H498.842V591.921Z" fill="#C7E3F9" fill-opacity="0.6"/>
<path d="M251.418 595.479H90.4345C89.9761 595.479 89.5365 595.295 89.2123 594.969C88.8882 594.642 88.7061 594.199 88.7061 593.736V582.803C88.7061 582.341 88.8882 581.898 89.2123 581.571C89.5365 581.244 89.9761 581.061 90.4345 581.061H251.418C251.876 581.061 252.316 581.244 252.64 581.571C252.964 581.898 253.146 582.341 253.146 582.803V593.736C253.146 594.199 252.964 594.642 252.64 594.969C252.316 595.295 251.876 595.479 251.418 595.479ZM92.163 591.994H249.689V584.545H92.163V591.994Z" fill="#C7E3F9" fill-opacity="0.6"/>
<path d="M202.512 595.479H90.4345C89.9761 595.479 89.5365 595.295 89.2123 594.969C88.8882 594.642 88.7061 594.199 88.7061 593.736V582.803C88.7061 582.341 88.8882 581.898 89.2123 581.571C89.5365 581.244 89.9761 581.061 90.4345 581.061H202.512C202.97 581.061 203.41 581.244 203.734 581.571C204.058 581.898 204.24 582.341 204.24 582.803V593.736C204.24 594.199 204.058 594.642 203.734 594.969C203.41 595.295 202.97 595.479 202.512 595.479ZM92.163 591.994H200.783V584.545H92.163V591.994Z" fill="#C7E3F9" fill-opacity="0.6"/>
<path d="M497.114 582.801H251.418V593.734H497.114V582.801Z" fill="#C7E3F9" fill-opacity="0.6"/>
<path d="M497.113 595.477H251.418C250.959 595.477 250.52 595.293 250.196 594.967C249.872 594.64 249.689 594.197 249.689 593.735V582.801C249.689 582.339 249.872 581.896 250.196 581.569C250.52 581.242 250.959 581.059 251.418 581.059H497.113C497.572 581.059 498.012 581.242 498.336 581.569C498.66 581.896 498.842 582.339 498.842 582.801V593.735C498.842 594.197 498.66 594.64 498.336 594.967C498.012 595.293 497.572 595.477 497.113 595.477ZM253.146 591.992H495.385V584.543H253.146V591.992Z" fill="#C7E3F9" fill-opacity="0.6"/>
<path d="M497.114 593.737L547.73 735.099V593.664L497.114 593.737Z" fill="#C7E3F9" fill-opacity="0.6"/>
<path d="M548.019 736.759L496.704 593.448L548.019 593.373V736.759ZM497.525 594.028L547.442 733.439V593.955L497.525 594.028Z" fill="#C7E3F9" fill-opacity="0.6"/>
<path d="M542.818 711.901H210.299C209.84 711.901 209.401 711.717 209.077 711.39C208.752 711.064 208.57 710.62 208.57 710.158C208.57 709.696 208.752 709.253 209.077 708.926C209.401 708.6 209.84 708.416 210.299 708.416H542.818C543.277 708.416 543.716 708.6 544.04 708.926C544.365 709.253 544.547 709.696 544.547 710.158C544.547 710.62 544.365 711.064 544.04 711.39C543.716 711.717 543.277 711.901 542.818 711.901Z" fill="#C7E3F9" fill-opacity="0.6"/>
<path d="M542.818 690.477H217.612C217.154 690.477 216.714 690.293 216.39 689.967C216.066 689.64 215.884 689.197 215.884 688.735C215.884 688.272 216.066 687.829 216.39 687.502C216.714 687.176 217.154 686.992 217.612 686.992H542.818C543.276 686.992 543.716 687.176 544.04 687.502C544.364 687.829 544.546 688.272 544.546 688.735C544.546 689.197 544.364 689.64 544.04 689.967C543.716 690.293 543.276 690.477 542.818 690.477Z" fill="#C7E3F9" fill-opacity="0.6"/>
<path d="M542.819 669.053H225.279C224.821 669.053 224.381 668.869 224.057 668.543C223.733 668.216 223.551 667.773 223.551 667.311C223.551 666.849 223.733 666.405 224.057 666.079C224.381 665.752 224.821 665.568 225.279 665.568H542.819C543.277 665.568 543.717 665.752 544.041 666.079C544.365 666.405 544.547 666.849 544.547 667.311C544.547 667.773 544.365 668.216 544.041 668.543C543.717 668.869 543.277 669.053 542.819 669.053Z" fill="#C7E3F9" fill-opacity="0.6"/>
<path d="M542.818 650.377H231.963C231.504 650.377 231.065 650.194 230.741 649.867C230.416 649.54 230.234 649.097 230.234 648.635C230.234 648.173 230.416 647.73 230.741 647.403C231.065 647.076 231.504 646.893 231.963 646.893H542.818C543.276 646.893 543.716 647.076 544.04 647.403C544.364 647.73 544.546 648.173 544.546 648.635C544.546 649.097 544.364 649.54 544.04 649.867C543.716 650.194 543.276 650.377 542.818 650.377Z" fill="#C7E3F9" fill-opacity="0.6"/>
<path d="M542.819 634.444H237.666C237.208 634.444 236.768 634.26 236.444 633.933C236.12 633.607 235.938 633.163 235.938 632.701C235.938 632.239 236.12 631.796 236.444 631.469C236.768 631.143 237.208 630.959 237.666 630.959H542.819C543.277 630.959 543.717 631.143 544.041 631.469C544.365 631.796 544.547 632.239 544.547 632.701C544.547 633.163 544.365 633.607 544.041 633.933C543.717 634.26 543.277 634.444 542.819 634.444Z" fill="#C7E3F9" fill-opacity="0.6"/>
<path d="M542.818 621.256H242.386C241.927 621.256 241.488 621.073 241.163 620.746C240.839 620.419 240.657 619.976 240.657 619.514C240.657 619.052 240.839 618.609 241.163 618.282C241.488 617.955 241.927 617.771 242.386 617.771H542.818C543.276 617.771 543.716 617.955 544.04 618.282C544.364 618.609 544.547 619.052 544.547 619.514C544.547 619.976 544.364 620.419 544.04 620.746C543.716 621.073 543.276 621.256 542.818 621.256Z" fill="#C7E3F9" fill-opacity="0.6"/>
<path d="M542.818 610.809H246.618C246.16 610.809 245.72 610.625 245.396 610.299C245.072 609.972 244.89 609.529 244.89 609.067C244.89 608.604 245.072 608.161 245.396 607.835C245.72 607.508 246.16 607.324 246.618 607.324H542.818C543.276 607.324 543.716 607.508 544.04 607.835C544.364 608.161 544.546 608.604 544.546 609.067C544.546 609.529 544.364 609.972 544.04 610.299C543.716 610.625 543.276 610.809 542.818 610.809Z" fill="#C7E3F9" fill-opacity="0.6"/>
<path d="M542.818 603.106H249.165C248.707 603.106 248.267 602.922 247.943 602.595C247.619 602.269 247.437 601.826 247.437 601.363C247.437 600.901 247.619 600.458 247.943 600.131C248.267 599.805 248.707 599.621 249.165 599.621H542.818C543.277 599.621 543.716 599.805 544.041 600.131C544.365 600.458 544.547 600.901 544.547 601.363C544.547 601.826 544.365 602.269 544.041 602.595C543.716 602.922 543.277 603.106 542.818 603.106Z" fill="#C7E3F9" fill-opacity="0.6"/>
<path d="M542.818 595.405H251.637C251.178 595.405 250.739 595.221 250.414 594.894C250.09 594.568 249.908 594.124 249.908 593.662C249.908 593.2 250.09 592.757 250.414 592.43C250.739 592.103 251.178 591.92 251.637 591.92H542.818C543.277 591.92 543.716 592.103 544.041 592.43C544.365 592.757 544.547 593.2 544.547 593.662C544.547 594.124 544.365 594.568 544.041 594.894C543.716 595.221 543.277 595.405 542.818 595.405Z" fill="#C7E3F9" fill-opacity="0.6"/>
<path d="M542.819 595.405H207.862C207.404 595.405 206.964 595.221 206.64 594.894C206.316 594.568 206.134 594.124 206.134 593.662C206.134 593.2 206.316 592.757 206.64 592.43C206.964 592.103 207.404 591.92 207.862 591.92H542.819C543.278 591.92 543.717 592.103 544.042 592.43C544.366 592.757 544.548 593.2 544.548 593.662C544.548 594.124 544.366 594.568 544.042 594.894C543.717 595.221 543.278 595.405 542.819 595.405Z" fill="#C7E3F9" fill-opacity="0.6"/>
<path d="M617.159 584.545H131.59C131.131 584.545 130.692 584.361 130.368 584.034C130.043 583.708 129.861 583.264 129.861 582.802V269.992C129.861 269.53 130.043 269.087 130.368 268.76C130.692 268.434 131.131 268.25 131.59 268.25H617.159C617.617 268.25 618.057 268.434 618.381 268.76C618.705 269.087 618.887 269.53 618.887 269.992V582.802C618.887 583.264 618.705 583.708 618.381 584.034C618.057 584.361 617.617 584.545 617.159 584.545ZM133.318 581.06H615.43V271.735H133.318V581.06Z" fill="#C7E3F9" fill-opacity="0.6"/>
<path d="M176.112 582.802H151.659L152.969 279.969H174.802L176.112 582.802Z" fill="#C7E3F9" fill-opacity="0.6"/>
<path d="M176.112 584.544H151.659C151.432 584.544 151.206 584.499 150.996 584.411C150.786 584.323 150.595 584.194 150.434 584.031C150.274 583.869 150.147 583.676 150.06 583.464C149.974 583.252 149.93 583.024 149.931 582.795L151.24 279.961C151.242 279.501 151.425 279.059 151.749 278.734C152.073 278.409 152.512 278.227 152.969 278.227H174.802C175.259 278.227 175.698 278.409 176.022 278.734C176.346 279.059 176.528 279.501 176.53 279.961L177.84 582.795C177.841 583.024 177.797 583.252 177.71 583.464C177.624 583.676 177.497 583.869 177.336 584.031C177.176 584.194 176.985 584.323 176.775 584.411C176.565 584.499 176.339 584.544 176.112 584.544ZM153.395 581.06H174.376L173.081 281.711H154.69L153.395 581.06Z" fill="#C7E3F9" fill-opacity="0.6"/>
<path d="M220.088 582.802H195.635L196.944 279.969H218.778L220.088 582.802Z" fill="#C7E3F9" fill-opacity="0.6"/>
<path d="M220.087 584.544H195.634C195.406 584.544 195.181 584.499 194.971 584.411C194.761 584.323 194.57 584.194 194.409 584.031C194.248 583.869 194.121 583.676 194.035 583.464C193.948 583.252 193.904 583.024 193.905 582.795L195.216 279.961C195.218 279.501 195.401 279.059 195.725 278.734C196.049 278.409 196.487 278.227 196.944 278.227H218.777C219.234 278.227 219.673 278.409 219.997 278.734C220.321 279.059 220.504 279.501 220.506 279.961L221.816 582.795C221.817 583.024 221.773 583.252 221.686 583.464C221.6 583.676 221.473 583.869 221.312 584.031C221.151 584.194 220.961 584.323 220.75 584.411C220.54 584.499 220.315 584.544 220.087 584.544ZM197.37 581.06H218.351L217.056 281.711H198.665L197.37 581.06Z" fill="#C7E3F9" fill-opacity="0.6"/>
<path d="M246.179 582.802H239.609L239.961 279.969H245.827L246.179 582.802Z" fill="#C7E3F9" fill-opacity="0.6"/>
<path d="M246.179 584.544H239.611C239.153 584.544 238.713 584.361 238.389 584.034C238.065 583.707 237.883 583.264 237.883 582.802L238.235 279.969C238.235 279.507 238.417 279.064 238.741 278.737C239.065 278.41 239.505 278.227 239.963 278.227H245.829C246.287 278.227 246.727 278.41 247.051 278.737C247.375 279.064 247.557 279.507 247.557 279.969L247.91 582.802C247.91 583.264 247.727 583.707 247.403 584.034C247.079 584.361 246.64 584.544 246.181 584.544H246.179ZM241.34 581.06H244.448L244.102 281.711H241.689L241.34 581.06Z" fill="#C7E3F9" fill-opacity="0.6"/>
<path d="M572.638 582.802H597.091L595.781 279.969H573.947L572.638 582.802Z" fill="#C7E3F9" fill-opacity="0.6"/>
<path d="M597.09 584.544H572.638C572.41 584.544 572.185 584.499 571.975 584.411C571.764 584.323 571.574 584.194 571.413 584.031C571.252 583.869 571.125 583.676 571.039 583.464C570.952 583.252 570.908 583.024 570.909 582.795L572.219 279.961C572.221 279.501 572.404 279.059 572.728 278.734C573.052 278.409 573.49 278.227 573.947 278.227H595.781C596.238 278.227 596.676 278.409 597 278.734C597.324 279.059 597.507 279.501 597.509 279.961L598.819 582.795C598.819 583.024 598.775 583.252 598.689 583.464C598.603 583.676 598.475 583.869 598.315 584.031C598.154 584.194 597.963 584.323 597.753 584.411C597.543 584.499 597.318 584.544 597.09 584.544ZM574.374 581.06H595.355L594.06 281.711H575.67L574.374 581.06Z" fill="#C7E3F9" fill-opacity="0.6"/>
<path d="M528.664 582.802H553.117L551.807 279.969H529.974L528.664 582.802Z" fill="#C7E3F9" fill-opacity="0.6"/>
<path d="M553.117 584.544H528.664C528.436 584.544 528.211 584.499 528.001 584.411C527.791 584.323 527.6 584.194 527.439 584.031C527.279 583.869 527.152 583.676 527.065 583.464C526.979 583.252 526.935 583.024 526.936 582.795L528.245 279.961C528.247 279.501 528.43 279.059 528.754 278.734C529.078 278.409 529.516 278.227 529.974 278.227H551.81C552.267 278.227 552.705 278.409 553.029 278.734C553.353 279.059 553.536 279.501 553.538 279.961L554.848 582.795C554.849 583.024 554.805 583.252 554.718 583.464C554.632 583.676 554.505 583.869 554.344 584.031C554.183 584.194 553.993 584.323 553.782 584.411C553.572 584.499 553.347 584.544 553.119 584.544H553.117ZM530.399 581.06H551.381L550.086 281.711H531.695L530.399 581.06Z" fill="#C7E3F9" fill-opacity="0.6"/>
<path d="M502.572 582.802H509.142L508.79 279.969H502.924L502.572 582.802Z" fill="#C7E3F9" fill-opacity="0.6"/>
<path d="M509.141 584.544H502.573C502.115 584.544 501.675 584.361 501.351 584.034C501.027 583.707 500.845 583.264 500.845 582.802L501.197 279.969C501.197 279.507 501.379 279.064 501.703 278.737C502.027 278.41 502.467 278.227 502.925 278.227H508.79C509.249 278.227 509.688 278.41 510.013 278.737C510.337 279.064 510.519 279.507 510.519 279.969L510.871 582.802C510.871 583.264 510.689 583.707 510.365 584.034C510.041 584.361 509.601 584.544 509.142 584.544H509.141ZM504.302 581.06H507.409L507.064 281.711H504.651L504.302 581.06Z" fill="#C7E3F9" fill-opacity="0.6"/>
<path d="M620.074 253.732H128.657C128.258 253.732 127.872 253.593 127.563 253.339C127.254 253.085 127.042 252.731 126.963 252.338C126.883 251.944 126.941 251.535 127.126 251.179C127.312 250.823 127.613 250.543 127.98 250.386L373.594 145.119C373.808 145.028 374.038 144.98 374.27 144.98C374.502 144.98 374.732 145.028 374.946 145.119L620.751 250.387C621.117 250.544 621.419 250.824 621.604 251.179C621.79 251.535 621.848 251.944 621.768 252.338C621.689 252.731 621.477 253.085 621.168 253.339C620.86 253.594 620.473 253.732 620.075 253.733L620.074 253.732ZM137.139 250.247H611.585L374.268 148.616L137.139 250.247Z" fill="#C7E3F9" fill-opacity="0.6"/>
<path d="M654.858 271.734H93.8915C93.4331 271.734 92.9935 271.551 92.6693 271.224C92.3452 270.897 92.1631 270.454 92.1631 269.992V247.323C92.1632 246.981 92.2629 246.647 92.45 246.362C92.6371 246.077 92.9032 245.854 93.2151 245.72L373.589 125.555C373.803 125.463 374.033 125.416 374.265 125.416C374.498 125.416 374.728 125.463 374.942 125.555L655.534 245.72C655.846 245.853 656.113 246.077 656.3 246.362C656.487 246.647 656.587 246.981 656.587 247.323V269.992C656.587 270.454 656.405 270.897 656.081 271.224C655.756 271.551 655.317 271.734 654.858 271.734ZM95.62 268.25H653.13V248.476L374.266 129.051L95.62 248.476V268.25Z" fill="#C7E3F9" fill-opacity="0.6"/>
<path d="M374.316 173.059L497.113 228.908H251.614L374.316 173.059Z" fill="#C7E3F9" fill-opacity="0.6"/>
<path d="M497.113 230.651H251.615C251.219 230.651 250.836 230.514 250.529 230.264C250.222 230.013 250.009 229.664 249.925 229.275C249.842 228.886 249.894 228.479 250.072 228.124C250.25 227.768 250.544 227.484 250.904 227.321L373.606 171.47C373.829 171.369 374.071 171.316 374.316 171.316C374.561 171.316 374.804 171.369 375.027 171.47L497.824 227.321C498.184 227.484 498.478 227.768 498.656 228.123C498.834 228.479 498.885 228.885 498.802 229.275C498.719 229.664 498.506 230.013 498.199 230.263C497.892 230.514 497.508 230.65 497.113 230.651ZM259.642 227.166H489.079L374.317 174.97L259.642 227.166Z" fill="#C7E3F9" fill-opacity="0.6"/>
<path d="M617.16 292.003L645.052 279.971V269.994H617.16V292.003Z" fill="#C7E3F9" fill-opacity="0.6"/>
<path d="M617.16 293.745C616.702 293.745 616.262 293.561 615.938 293.235C615.614 292.908 615.432 292.465 615.432 292.003V269.994C615.432 269.532 615.614 269.089 615.938 268.762C616.262 268.436 616.702 268.252 617.16 268.252H645.052C645.51 268.252 645.95 268.436 646.274 268.762C646.598 269.089 646.78 269.532 646.78 269.994V279.971C646.78 280.312 646.681 280.646 646.495 280.931C646.308 281.216 646.043 281.439 645.732 281.573L617.841 293.604C617.625 293.697 617.394 293.745 617.16 293.745ZM618.889 271.737V289.362L643.323 278.821V271.736L618.889 271.737Z" fill="#C7E3F9" fill-opacity="0.6"/>
<path d="M131.59 292.003L89.8525 294.203L103.699 279.971V269.994H131.59V292.003Z" fill="#C7E3F9" fill-opacity="0.6"/>
<path d="M89.8526 295.946C89.5123 295.945 89.1796 295.844 88.8963 295.654C88.6129 295.464 88.3915 295.194 88.2597 294.878C88.128 294.561 88.0918 294.213 88.1558 293.876C88.2197 293.539 88.3809 293.229 88.6191 292.984L101.97 279.259V269.994C101.97 269.532 102.152 269.089 102.477 268.762C102.801 268.436 103.24 268.252 103.699 268.252H131.59C132.049 268.252 132.488 268.436 132.812 268.762C133.137 269.089 133.319 269.532 133.319 269.994V292.003C133.319 292.449 133.15 292.879 132.845 293.204C132.54 293.528 132.123 293.722 131.68 293.745L89.9431 295.946C89.916 295.945 89.8826 295.946 89.8526 295.946ZM105.427 271.737V279.971C105.427 280.428 105.249 280.865 104.932 281.191L94.1939 292.23L129.862 290.349V271.737H105.427Z" fill="#C7E3F9" fill-opacity="0.6"/>
<path d="M618.74 314.223L697.033 292H618.434L618.74 314.223Z" fill="#C7E3F9" fill-opacity="0.6"/>
<path d="M618.739 315.965C618.285 315.965 617.849 315.785 617.525 315.463C617.202 315.142 617.017 314.705 617.011 314.247L616.705 292.024C616.702 291.793 616.744 291.564 616.83 291.35C616.915 291.136 617.042 290.941 617.203 290.777C617.364 290.612 617.555 290.482 617.767 290.393C617.978 290.304 618.205 290.258 618.434 290.258H697.033C697.45 290.258 697.853 290.41 698.168 290.687C698.482 290.963 698.687 291.345 698.744 291.761C698.801 292.178 698.707 292.602 698.479 292.954C698.25 293.306 697.903 293.562 697.502 293.677L619.208 315.9C619.055 315.943 618.898 315.965 618.739 315.965ZM620.186 293.742L620.436 311.931L684.517 293.742H620.186Z" fill="#C7E3F9" fill-opacity="0.6"/>
<path d="M246.179 279.969L246.759 322.111L395.235 279.969H246.179Z" fill="#C7E3F9" fill-opacity="0.6"/>
<path d="M246.759 323.853C246.305 323.853 245.869 323.673 245.545 323.352C245.222 323.03 245.037 322.593 245.031 322.135L244.45 279.993C244.447 279.762 244.49 279.533 244.575 279.319C244.661 279.104 244.787 278.91 244.948 278.745C245.109 278.581 245.301 278.45 245.512 278.361C245.723 278.272 245.95 278.227 246.179 278.227H395.234C395.651 278.227 396.054 278.379 396.369 278.656C396.683 278.932 396.888 279.314 396.945 279.731C397.002 280.147 396.907 280.57 396.679 280.922C396.451 281.274 396.104 281.531 395.702 281.646L247.228 323.789C247.075 323.832 246.918 323.853 246.759 323.853ZM247.931 281.711L248.456 319.819L382.717 281.711H247.931Z" fill="#C7E3F9" fill-opacity="0.6"/>
<path d="M270.632 279.969L306.16 269.885H103.699V279.969H270.632Z" fill="#C7E3F9" fill-opacity="0.6"/>
<path d="M270.631 281.712H103.699C103.241 281.712 102.801 281.528 102.477 281.201C102.153 280.875 101.971 280.432 101.971 279.969V269.885C101.971 269.423 102.153 268.98 102.477 268.653C102.801 268.326 103.241 268.143 103.699 268.143H306.159C306.577 268.142 306.98 268.294 307.295 268.571C307.61 268.847 307.815 269.229 307.872 269.646C307.93 270.063 307.835 270.487 307.606 270.839C307.378 271.191 307.03 271.448 306.628 271.562L271.1 281.646C270.947 281.69 270.79 281.712 270.631 281.712ZM105.428 278.227H270.393L293.644 271.627H105.428V278.227Z" fill="#C7E3F9" fill-opacity="0.6"/>
<path d="M20.4238 292L20.8565 375.719L131.591 344.288L131.336 292H20.4238Z" fill="#C7E3F9" fill-opacity="0.6"/>
<path d="M20.8565 377.461C20.3997 377.461 19.9614 377.279 19.6375 376.954C19.3136 376.63 19.1305 376.189 19.128 375.728L18.6953 292.009C18.6942 291.779 18.7381 291.552 18.8244 291.339C18.9108 291.127 19.0379 290.934 19.1985 290.771C19.3591 290.609 19.5501 290.479 19.7603 290.391C19.9706 290.303 20.1961 290.258 20.4238 290.258H131.337C131.794 290.258 132.232 290.44 132.556 290.765C132.88 291.09 133.063 291.531 133.065 291.991L133.319 344.28C133.321 344.661 133.198 345.032 132.971 345.336C132.743 345.641 132.423 345.861 132.059 345.964L21.3226 377.395C21.1709 377.439 21.0141 377.461 20.8565 377.461ZM22.1609 293.742L22.5728 373.424L129.856 342.974L129.616 293.745L22.1609 293.742Z" fill="#C7E3F9" fill-opacity="0.6"/>
<path d="M90.4352 593.735L45.75 710.157H93.6375V593.662L90.4352 593.735Z" fill="#C7E3F9" fill-opacity="0.6"/>
<path d="M93.6375 711.9H45.7501C45.4692 711.9 45.1925 711.832 44.944 711.7C44.6954 711.568 44.4825 711.377 44.3236 711.143C44.1647 710.91 44.0647 710.641 44.0321 710.36C43.9996 710.079 44.0355 709.794 44.1368 709.53L88.8215 593.108C88.9449 592.787 89.1603 592.509 89.4403 592.311C89.7203 592.113 90.0523 592.003 90.3944 591.995L93.5972 591.921C93.8279 591.912 94.0579 591.951 94.2727 592.036C94.4875 592.122 94.6822 592.251 94.8446 592.417C95.009 592.579 95.1396 592.773 95.2286 592.987C95.3177 593.201 95.3634 593.431 95.3631 593.663V710.158C95.3631 710.62 95.1814 711.062 94.8579 711.389C94.5344 711.716 94.0955 711.899 93.6375 711.9ZM48.2719 708.416H91.9091V595.445L91.6302 595.452L48.2719 708.416Z" fill="#C7E3F9" fill-opacity="0.6"/>
<path d="M93.6387 582.802L106.247 429.772V329.414H131.592V582.802H93.6387Z" fill="#C7E3F9" fill-opacity="0.6"/>
<path d="M131.591 584.545H93.6382C93.3992 584.545 93.1628 584.495 92.944 584.398C92.7251 584.301 92.5286 584.16 92.3668 583.982C92.2049 583.805 92.0813 583.596 92.0037 583.368C91.9262 583.14 91.8963 582.899 91.9161 582.658L104.518 429.7V329.414C104.518 328.952 104.7 328.509 105.025 328.182C105.349 327.855 105.788 327.672 106.247 327.672H131.591C132.049 327.672 132.489 327.855 132.813 328.182C133.137 328.509 133.32 328.952 133.32 329.414V582.805C133.319 583.267 133.136 583.709 132.812 584.036C132.488 584.362 132.049 584.545 131.591 584.545ZM95.5165 581.06H129.863V331.154H107.975V429.775C107.975 429.823 107.975 429.871 107.969 429.919L95.5165 581.06Z" fill="#C7E3F9" fill-opacity="0.6"/>
<path d="M447.299 584.473H301.453C300.995 584.473 300.555 584.289 300.231 583.962C299.907 583.636 299.725 583.192 299.725 582.73V375.721C299.725 375.259 299.907 374.816 300.231 374.489C300.555 374.162 300.995 373.979 301.453 373.979H447.299C447.757 373.979 448.197 374.162 448.521 374.489C448.845 374.816 449.027 375.259 449.027 375.721V582.73C449.027 582.959 448.982 583.186 448.895 583.397C448.809 583.609 448.681 583.801 448.521 583.962C448.36 584.124 448.17 584.252 447.96 584.34C447.75 584.428 447.526 584.473 447.299 584.473ZM303.182 580.988H445.57V377.463H303.182V580.988Z" fill="#C7E3F9" fill-opacity="0.6"/>
<path d="M370.518 390.156H315.243V582.728H370.518V390.156Z" fill="#C7E3F9" fill-opacity="0.6"/>
<path d="M370.517 584.471H315.243C314.785 584.471 314.345 584.287 314.021 583.96C313.697 583.634 313.515 583.191 313.515 582.728V390.156C313.515 389.694 313.697 389.251 314.021 388.924C314.345 388.598 314.785 388.414 315.243 388.414H370.517C370.976 388.414 371.416 388.598 371.74 388.924C372.064 389.251 372.246 389.694 372.246 390.156V582.728C372.246 583.191 372.064 583.634 371.74 583.96C371.416 584.287 370.976 584.471 370.517 584.471ZM316.972 580.986H368.789V391.899H316.972V580.986Z" fill="#C7E3F9" fill-opacity="0.6"/>
<path d="M433.507 390.156H378.232V582.728H433.507V390.156Z" fill="#C7E3F9" fill-opacity="0.6"/>
<path d="M433.507 584.471H378.233C377.775 584.471 377.335 584.287 377.011 583.96C376.687 583.634 376.505 583.191 376.505 582.728V390.156C376.505 389.694 376.687 389.251 377.011 388.924C377.335 388.598 377.775 388.414 378.233 388.414H433.507C433.966 388.414 434.405 388.598 434.729 388.924C435.053 389.251 435.236 389.694 435.236 390.156V582.728C435.236 583.191 435.053 583.634 434.729 583.96C434.405 584.287 433.966 584.471 433.507 584.471ZM379.962 580.986H431.779V391.899H379.962V580.986Z" fill="#C7E3F9" fill-opacity="0.6"/>
<path d="M374.363 91.4177C373.905 91.4177 373.465 91.2341 373.141 90.9074C372.817 90.5806 372.635 90.1375 372.635 89.6754V33.776C372.635 33.3412 372.796 32.9221 373.087 32.601C373.378 32.2799 373.777 32.0801 374.207 32.0406C374.342 32.0284 387.899 30.7101 392.182 24.8228C398.142 16.6339 410.677 15.7627 425.718 22.4997C440.784 29.2494 489.594 21.1355 490.085 21.053C490.365 21.006 490.652 21.0291 490.92 21.1203C491.189 21.2114 491.431 21.3677 491.626 21.5755C491.821 21.7832 491.961 22.0361 492.036 22.3117C492.111 22.5873 492.118 22.8773 492.055 23.156C491.675 24.8489 482.69 64.7312 478.112 74.6955C477.999 74.9426 477.83 75.1595 477.618 75.3285C471.511 80.207 432.628 84.1121 420.939 79.8713C419.504 79.3486 418.144 78.83 416.864 78.3398C412.406 76.633 408.197 75.0196 406.802 75.9895C406.138 76.4541 405.787 77.8357 405.787 79.9927C405.787 91.4177 385.346 91.4177 374.363 91.4177ZM376.092 35.3191V87.933C385.149 87.9023 402.328 87.4289 402.328 79.9933C402.328 77.7928 402.588 74.6862 404.838 73.1222C407.725 71.115 412.072 72.7789 418.089 75.0829C419.352 75.5661 420.692 76.0795 422.108 76.5929C426.723 78.2678 438.004 78.6419 450.852 77.5477C463.784 76.4442 472.661 74.3796 475.159 72.8138C478.991 64.0006 486.058 33.8341 488.111 24.9C477.621 26.5262 438.429 32.0104 424.313 25.6864C410.869 19.6638 399.899 20.111 394.97 26.8851C390.709 32.7439 380.125 34.7546 376.092 35.3208V35.3191Z" fill="#C7E3F9" fill-opacity="0.6"/>
<path d="M374.363 67.5042C380.768 67.5042 397.19 66.4907 398.792 57.8343C400.394 49.1779 410.171 51.6583 422.689 56.6466C435.207 61.6349 477.365 56.3835 481.153 53.3606L485.762 39.8361C483.87 41.3479 437.971 48.1551 423.855 42.1395C409.739 36.1238 400.275 36.2737 397.072 43.9004C393.87 51.5271 377.567 52.4099 374.363 52.4099V67.5042Z" fill="#C7E3F9" fill-opacity="0.6"/>
<path d="M374.363 89.676C383.97 89.676 404.056 89.676 404.056 79.9922C404.056 70.3084 410.606 74.2704 421.523 78.2319C432.44 82.1933 470.866 78.4967 476.542 73.9626L481.151 57.6284C477.367 60.6513 435.205 65.9032 422.687 60.9144C410.17 55.9256 402.164 54.0189 400.563 62.6753C398.962 71.3317 380.768 71.772 374.363 71.772V89.676Z" fill="#C7E3F9" fill-opacity="0.6"/>
<path d="M374.363 128.901C373.905 128.901 373.465 128.718 373.141 128.391C372.817 128.064 372.635 127.621 372.635 127.159V33.7755C372.635 33.3134 372.817 32.8703 373.141 32.5435C373.465 32.2168 373.905 32.0332 374.363 32.0332C374.822 32.0332 375.261 32.2168 375.585 32.5435C375.91 32.8703 376.092 33.3134 376.092 33.7755V127.159C376.092 127.621 375.91 128.064 375.585 128.391C375.261 128.718 374.822 128.901 374.363 128.901Z" fill="#C7E3F9" fill-opacity="0.6"/>
<path d="M645.052 281.712H103.699C103.241 281.712 102.801 281.528 102.477 281.201C102.153 280.875 101.971 280.432 101.971 279.969V269.992C101.971 269.53 102.153 269.087 102.477 268.76C102.801 268.434 103.241 268.25 103.699 268.25H645.052C645.51 268.25 645.95 268.434 646.274 268.76C646.598 269.087 646.78 269.53 646.78 269.992V279.969C646.78 280.432 646.598 280.875 646.274 281.201C645.95 281.528 645.51 281.712 645.052 281.712ZM105.428 278.227H643.324V271.735H105.428V278.227Z" fill="#C7E3F9" fill-opacity="0.6"/>
<path d="M641.164 251.988H122.165V260.308H641.164V251.988Z" fill="#C7E3F9" fill-opacity="0.6"/>
<path d="M641.164 262.051H122.166C121.708 262.051 121.268 261.867 120.944 261.541C120.62 261.214 120.438 260.771 120.438 260.309V251.988C120.438 251.526 120.62 251.083 120.944 250.756C121.268 250.43 121.708 250.246 122.166 250.246H641.164C641.623 250.246 642.062 250.43 642.386 250.756C642.71 251.083 642.893 251.526 642.893 251.988V260.309C642.893 260.771 642.71 261.214 642.386 261.541C642.062 261.867 641.623 262.051 641.164 262.051ZM123.894 258.566H639.436V253.731H123.894V258.566Z" fill="#C7E3F9" fill-opacity="0.6"/>
<path d="M620.074 251.989L374.378 146.666L374.387 137.627L641.165 251.989H620.074Z" fill="#C7E3F9" fill-opacity="0.6"/>
<path d="M641.165 253.731H620.073C619.841 253.731 619.611 253.684 619.397 253.592L373.702 148.269C373.39 148.136 373.123 147.912 372.936 147.626C372.749 147.341 372.649 147.006 372.649 146.664L372.658 137.625C372.658 137.338 372.729 137.054 372.865 136.801C373 136.548 373.195 136.332 373.434 136.173C373.672 136.015 373.945 135.918 374.23 135.892C374.514 135.866 374.8 135.911 375.063 136.024L641.841 250.385C642.208 250.543 642.51 250.823 642.695 251.178C642.88 251.534 642.938 251.943 642.859 252.337C642.779 252.731 642.567 253.084 642.258 253.338C641.95 253.593 641.563 253.731 641.165 253.731ZM620.423 250.247H632.682L376.113 140.26L376.107 145.514L620.423 250.247Z" fill="#C7E3F9" fill-opacity="0.6"/>
<path d="M122.165 251.989L374.377 146.666L374.386 137.627L122.165 251.989Z" fill="#C7E3F9" fill-opacity="0.6"/>
<path d="M122.166 253.732C121.77 253.732 121.386 253.596 121.078 253.345C120.771 253.095 120.557 252.745 120.474 252.355C120.391 251.965 120.443 251.558 120.622 251.202C120.801 250.846 121.095 250.563 121.456 250.4L373.677 136.038C373.94 135.919 374.229 135.868 374.517 135.89C374.805 135.912 375.082 136.006 375.325 136.164C375.567 136.323 375.766 136.539 375.904 136.795C376.042 137.051 376.114 137.337 376.114 137.628L376.105 146.667C376.105 147.011 376.003 147.348 375.814 147.634C375.624 147.92 375.354 148.143 375.039 148.275L122.827 253.599C122.617 253.686 122.393 253.731 122.166 253.732ZM372.655 140.322L228.141 205.847L372.65 145.501L372.655 140.322Z" fill="#C7E3F9" fill-opacity="0.6"/>
</g>
<path d="M429.425 730.609C432.306 733.627 437.571 741.383 438.362 745.647C439.058 749.395 438.224 757.204 437.666 758.736C436.641 761.554 431.215 765.002 414.226 765.002C406.288 765.002 393.896 760.519 392.128 759.432C391.224 758.876 390.04 753.584 389.9 749.964C389.76 746.344 391.571 738.405 397.838 732.694C404.104 726.983 426.501 727.545 429.425 730.609Z" fill="#080F29"/>
<path d="M412.32 749.399C412.32 747.877 423.601 746.206 425.968 748.433C428.336 750.661 422.617 750.465 419.414 750.383C416.211 750.301 412.32 750.226 412.32 749.399Z" fill="#B0D0EF"/>
<path d="M435.477 758.596C435.192 760.162 422.909 762.525 414.677 761.871C409.498 761.46 404.102 760.268 403.127 759.292C402.153 758.317 402.988 758.736 408.28 759.571C413.572 760.406 414.829 760.485 421.092 760.273C427.521 760.058 435.653 757.622 435.477 758.596Z" fill="#132B5D"/>
<path d="M459.622 730.608C458.74 732.849 456.372 738.87 456.28 742.305C456.187 745.739 455.537 754.372 455.723 755.764C455.909 757.156 464.91 758.366 471.041 758.366C473.483 758.366 474.105 757.069 476.704 758.366C479.303 759.663 481.629 762.173 492.766 762.912C503.903 763.651 525.399 764.63 534.08 762.912C539.53 761.833 540.695 760.136 540.695 757.627C540.695 755.118 541.97 750.939 534.08 746.668C526.19 742.397 517.74 741.944 514.026 738.643C510.312 735.343 503.907 728.844 501.678 725.038C499.45 721.233 461.451 725.958 459.622 730.608Z" fill="#080F29"/>
<path d="M514.954 754.093C514.925 755.299 527.394 756.32 531.572 754.093C533.625 752.997 532.748 750.898 529.622 752.329C523.747 755.021 514.968 753.505 514.954 754.093Z" fill="#B0D0EF"/>
<path d="M495.841 759.314C495.448 760.259 504.418 761.567 517.694 761.567C529.395 761.567 536.367 759.759 537.376 758.689C537.903 758.13 537.632 756.768 537.074 757.112C535.311 758.203 527.16 759.474 519.272 759.757C505.16 760.269 496.233 758.367 495.841 759.314Z" fill="#132B5D"/>
<path d="M501.03 741.67C500.932 741.67 500.837 741.64 500.757 741.585C500.677 741.529 500.616 741.451 500.582 741.359C500.548 741.268 500.542 741.169 500.567 741.074C500.591 740.98 500.643 740.895 500.716 740.831C502.159 739.582 507.203 737.437 508.622 737.656C508.747 737.676 508.859 737.744 508.934 737.846C509.009 737.948 509.041 738.076 509.022 738.201C509.001 738.325 508.932 738.437 508.83 738.512C508.728 738.586 508.601 738.618 508.476 738.601C507.549 738.439 502.748 740.335 501.342 741.553C501.255 741.629 501.144 741.67 501.03 741.67Z" fill="#092B69"/>
<path d="M495.827 738.047C495.736 738.047 495.646 738.021 495.57 737.972C495.493 737.924 495.431 737.854 495.393 737.771C495.354 737.689 495.34 737.597 495.352 737.507C495.363 737.416 495.401 737.331 495.459 737.261C497.052 735.368 502.797 733.377 503.626 733.377C503.751 733.377 503.872 733.427 503.961 733.516C504.05 733.605 504.1 733.726 504.1 733.852C504.1 733.978 504.05 734.099 503.962 734.19C503.873 734.28 503.753 734.331 503.626 734.333C502.977 734.343 497.569 736.238 496.191 737.876C496.146 737.929 496.091 737.972 496.028 738.002C495.965 738.031 495.896 738.047 495.827 738.047Z" fill="#092B69"/>
<path d="M499.041 752.89C499 753.324 500.317 753.803 501.25 753.891C502.184 753.98 502.975 753.7 503.014 753.267C503.054 752.833 502.286 752.796 501.352 752.708C500.419 752.62 499.082 752.457 499.041 752.89Z" fill="#B0D0EF"/>
<path d="M486.798 365.413C487.54 369.541 496.453 430.59 498.31 452.683C499.786 470.247 504.159 508.937 505.83 520.633C507.501 532.33 510.38 542.726 510.751 546.439C511.122 550.151 510.194 554.979 510.751 559.249C511.308 563.52 499.967 687.165 500.523 690.693C501.08 694.22 503.349 704.245 503.721 706.102C504.092 707.958 500.843 712.879 501.586 714.553C502.328 716.227 502.607 722.165 503.164 723.836C503.72 725.507 500.352 731.691 498.429 731.448C494.762 730.983 477.447 726.249 459.158 732.284C457.532 732.819 454.145 714.739 453.402 712.697C452.659 710.654 457.487 693.017 457.115 690.047C456.744 687.076 459.947 612.386 459.634 608.209C459.251 603.064 454.685 591.557 453.82 588.865C452.566 584.966 457.997 574.105 457.831 568.35C457.782 566.639 455.357 564.451 454.366 560.738C453.375 557.025 436.478 476.636 435.55 476.451C434.623 476.265 428.127 556.097 427.937 557.768C427.748 559.439 431.651 568.164 431.465 570.206C431.279 572.249 426.452 586.915 426.638 588.772C426.824 590.628 429.238 590.814 429.609 593.97C429.98 597.127 429.232 694.178 430.16 699.561C431.088 704.945 435.902 713.486 436.274 716.27C436.645 719.055 433.531 730.148 433.903 732.19C434.274 734.232 420.232 740.135 418.561 739.949C416.891 739.763 399.121 736.197 395.63 737.018C392.473 737.76 391.167 732.699 390.563 730.196C390.122 728.383 389.828 716.93 389.828 715.445C389.828 713.96 391.561 703.042 391.376 700.814C391.191 698.586 381.488 587.101 380.746 579.675C380.003 572.248 379.446 547.556 379.631 544.772C379.817 541.987 377.589 542.544 377.403 538.459C377.217 534.375 372.049 450.083 372.416 433.56C372.784 417.038 378.915 374.337 379.844 368.953C380.773 363.569 485.329 357.244 486.798 365.413Z" fill="#092B69"/>
<path d="M485.507 369.834C455.998 381.298 400.758 379.534 377.267 371.309C377.752 367.455 378.435 363.628 379.313 359.845C410.6 368.974 467.139 365.416 483.665 358.514C484.893 362.161 485.516 365.985 485.507 369.834Z" fill="#050F3A"/>
<path d="M455.071 380.001L459.425 379.705L458.127 360.613L453.774 360.909L455.071 380.001Z" fill="#092B69"/>
<path d="M423.614 380.001C422.144 379.909 420.689 379.799 419.25 379.671V362.758C420.699 362.864 422.153 362.955 423.614 363.03V380.001Z" fill="#092B69"/>
<path d="M510.717 558.868C509.444 558.906 508.186 559.124 507.64 559.76C506.805 560.735 500.979 575.773 499.981 577.583C498.983 579.393 500.538 588.722 500.538 590.672C500.538 592.621 498.142 593.618 497.994 591.792C497.785 589.22 492.462 582.178 489.816 580.089C488.865 579.338 489.098 577.861 491.486 576.048C493.45 574.559 506.387 554.326 506.944 552.83C507.501 551.335 509.625 547.176 510.282 543.578C510.513 544.754 510.679 545.72 510.751 546.435C511.111 550.044 510.258 554.693 510.717 558.868Z" fill="#050F3A"/>
<path d="M507.919 578.767C507.289 579.474 503.045 586.912 502.07 589.696C501.286 591.77 500.282 593.754 499.076 595.614C498.658 596.31 501.879 599.519 500.925 603.447C497.408 617.916 490.331 696.209 492.418 705.267C493.3 709.096 492.029 713.621 492.726 716.963C493.423 720.304 495.372 728.52 496.486 728.659C497.6 728.798 494.396 718.356 494.257 716.267C494.119 714.178 494.926 708.732 494.414 704.64C492.714 691.064 501.931 605.988 502.488 603.343C503.045 600.697 503.462 600.836 504.437 598.887C505.412 596.938 508.761 577.819 507.919 578.767Z" fill="#050F3A"/>
<path d="M405.563 607.518C405.842 606.269 409.324 599.024 411.273 595.126C413.223 591.227 410.995 588.303 410.02 586.353C409.044 584.404 406.259 585.518 407.235 583.708C408.21 581.898 412.805 578.138 413.223 575.911C413.64 573.683 425.895 474.265 426.452 468.555C427.009 462.846 432.237 435.648 433.21 434.859C437.252 431.587 462.733 412.859 464.126 413.834C465.519 414.808 444.808 437.542 444.072 438.758C441.621 442.81 445.698 454.211 445.743 457.277C445.79 460.387 442.465 467.933 444.119 479.509C447.44 502.752 453.183 527.039 454.166 529.822C455.836 534.556 458.482 535.391 459.178 537.619C459.874 539.846 464.749 567.138 465.306 568.809C465.863 570.479 463.774 572.851 462.938 575.075C462.103 577.3 460.783 584.404 464.822 594.569C465.214 595.555 461.612 634.149 458.275 651.728C459.015 631.48 459.797 610.369 459.635 608.204C459.252 603.06 454.686 591.552 453.821 588.86C452.567 584.961 457.998 574.1 457.832 568.345C457.783 566.634 455.358 564.447 454.367 560.733C453.376 557.02 436.479 476.632 435.551 476.446C434.624 476.26 428.128 556.092 427.938 557.763C427.749 559.434 431.652 568.159 431.466 570.201C431.28 572.244 426.453 586.911 426.639 588.767C426.825 590.623 429.239 590.809 429.61 593.965C429.981 597.122 429.233 694.173 430.161 699.556C431.089 704.94 435.903 713.481 436.275 716.266C436.646 719.05 433.532 730.143 433.904 732.185C434.275 734.228 420.233 740.13 418.562 739.944C413.453 722.743 411.135 635.645 411.135 633.138C411.135 630.632 405.284 608.771 405.563 607.518Z" fill="#050F3A"/>
<path d="M372.416 433.559C372.783 417.036 378.915 374.336 379.844 368.951C380.017 367.944 383.821 366.904 389.897 365.932L416.263 375.467C414.592 381.391 402.523 436.716 401.595 439.501C400.666 442.286 377.873 437.273 372.559 442.471C372.543 442.486 372.528 442.498 372.513 442.512C372.416 438.681 372.373 435.605 372.416 433.559Z" fill="#050F3A"/>
<path d="M471.928 437.565C472.07 432.473 468.442 389.746 467.438 380.403C466.433 371.061 467.438 368.952 467.438 368.952L471.717 361.877C480.567 362.405 486.458 363.519 486.798 365.413C487.376 368.63 492.915 406.401 496.212 433.378C487.809 437.267 471.809 441.792 471.928 437.565Z" fill="#050F3A"/>
<path d="M433.604 192.537C439.913 192.537 452.919 194.208 459.229 197.55C465.538 200.891 474.45 207.947 482.248 211.474C490.046 215.002 490.601 308.363 490.256 307.527C489.91 306.692 488.167 312.745 488.167 313.376C488.167 314.006 490.952 316.926 490.604 319.224L489.907 323.818C490.391 323.863 490.86 324.008 491.285 324.243C491.709 324.478 492.081 324.799 492.375 325.185C492.67 325.571 492.881 326.014 492.996 326.486C493.11 326.958 493.126 327.448 493.041 327.926C492.623 331.686 486.983 350.484 486.427 352.224C485.87 353.964 476.49 362.042 463.68 365.754C450.871 369.466 412.804 370.58 400.364 365.754C387.924 360.927 376.04 350.159 374.74 348.673C373.441 347.187 366.852 230.115 367.548 227.956C368.244 225.798 385.486 214.168 390.546 210.964C396.151 207.413 404.82 197.55 409.09 196.065C413.361 194.579 427.165 192.537 433.604 192.537Z" fill="#B0D0EF"/>
<path d="M409.695 299.242C410.023 298.75 430.374 264.207 430.374 264.207C430.374 264.207 433.613 241.382 433.59 241.039C433.533 240.204 413.045 227.873 407.508 223.309C393.243 211.551 393.932 200.527 395.192 200.655C396.773 200.814 412.605 200.655 416.323 194.418C422.096 193.404 429.412 192.537 433.605 192.537C439.914 192.537 452.92 194.208 459.229 197.55C465.538 200.891 474.451 207.947 482.249 211.474C490.047 215.002 490.602 308.363 490.256 307.527C489.911 306.692 488.167 312.745 488.167 313.376C488.167 314.006 490.952 316.926 490.605 319.224L489.908 323.818C490.391 323.863 490.86 324.008 491.285 324.243C491.71 324.478 492.081 324.799 492.376 325.185C492.67 325.571 492.881 326.014 492.996 326.486C493.111 326.958 493.126 327.448 493.042 327.926C492.624 331.686 486.983 350.484 486.427 352.224C485.871 353.964 476.49 362.042 463.681 365.754C450.872 369.466 412.805 370.58 400.364 365.754C387.924 360.927 376.04 350.159 374.741 348.673C373.441 347.187 409.138 300.078 409.695 299.242Z" fill="#85B0DF"/>
<path d="M399.578 195.231C400.628 202.742 399.15 229.584 401.767 239.905C404.384 250.226 410.059 320.124 410.006 338.504C409.953 356.885 406.797 415.551 400.205 435.592C398.511 440.743 374.303 434.302 368.733 433.188C363.162 432.074 358.706 431.239 357.035 431.517C355.363 431.796 358.427 392.809 361.213 379.998C363.998 367.188 367.27 354.378 366.748 351.871C366.226 349.365 354.807 354.706 351.743 355.656C348.679 356.605 331.689 348.018 329.183 346.185C326.677 344.353 321.663 319.011 323.334 314.275C325.005 309.54 334.197 281.296 335.589 278.014C336.98 274.732 347.286 224.753 348.122 222.31C348.958 219.866 371.287 210.957 378.481 208.729C378.342 206.78 380.789 205.619 383.076 204.413C390.736 200.377 399.342 193.539 399.578 195.231Z" fill="#092B69"/>
<path d="M450.956 210.402C453.947 227.559 455.631 247.718 457.859 268.326C460.086 288.933 462.315 306.12 461.758 315.489C461.202 324.858 475.406 429.846 475.681 434.023C475.957 438.2 507.154 423.998 508.547 420.934C509.939 417.87 494.531 356.236 491.885 347.23C496.961 348.529 515.512 353.82 519.412 352.427C523.312 351.035 526.327 349.608 527.767 347.693C529.788 345.005 538.072 330.424 537.794 325.972C537.515 321.52 532.223 297.845 530.831 295.339C529.439 292.832 532.081 290.187 530.413 287.959C528.745 285.731 527.21 285.313 526.371 283.085C525.531 280.857 504.961 219.371 503.846 215.752C503.133 213.433 490.239 209.324 473.87 203.022C464.691 199.489 455.156 194.264 447.411 190.63C442.936 188.529 450.23 206.233 450.956 210.402Z" fill="#092B69"/>
<path d="M348.579 305.853C345.746 308.118 345.151 314.739 350.535 321.608C355.92 328.477 370.269 346.194 374.151 344.458C378.033 342.723 375.429 331.471 371.518 322.351C367.606 313.23 354.335 301.252 348.579 305.853Z" fill="#050F3A"/>
<path d="M361.261 311.582C362.234 306.198 363.348 301.743 356.663 299.7C349.979 297.658 336.239 298.988 336.239 302.671C336.239 303.858 341.809 303.528 343.295 305.141C344.78 306.755 333.639 309.891 330.482 315.487C331.968 315.487 334.196 314.738 338.467 314.738C340.876 312.62 344.395 308.106 348.579 305.853C352.763 303.6 361.261 311.582 361.261 311.582Z" fill="#050F3A"/>
<path d="M482.926 328.664C484.226 324.239 497.038 327.365 497.038 327.365C497.038 327.365 525.446 335.533 526.003 338.638C526.339 340.509 527.958 343.036 529.759 344.585C528.908 346.015 528.196 347.123 527.767 347.694C526.328 349.609 523.311 351.036 519.412 352.428C515.513 353.82 496.961 348.529 491.886 347.23C492.929 350.782 495.96 362.528 499.162 375.636C494.418 363.894 481.87 332.259 482.926 328.664Z" fill="#050F3A"/>
<path d="M479.305 213.464C478.595 214.04 472.713 219.686 471.785 220.845C470.857 222.004 476.798 235 477.541 236.485C478.283 237.97 462.779 298.215 462.779 302.021C462.779 305.827 462.037 314.46 463.522 307.684C465.008 300.907 480.233 240.291 481.162 237.413C482.091 234.536 476.241 224.782 476.52 222.744C476.798 220.705 479.769 216.527 480.326 215.042C480.883 213.557 480.586 212.423 479.305 213.464Z" fill="#050F3A"/>
<path d="M381.637 212.629C383.215 213.65 387.382 216.677 388.322 217.758C388.786 218.291 384.426 225.621 383.587 226.739C382.748 227.856 404.197 291.439 404.476 293.388C404.755 295.337 380.3 227.939 379.873 225.658C379.788 225.201 382.352 220.846 383.587 218.963C384.068 218.231 381.637 212.629 381.637 212.629Z" fill="#050F3A"/>
<path d="M365.36 387.274C365.36 388.017 374.46 390.42 380.68 391.265C385.785 391.96 388.662 391.95 389.778 391.544C390.799 391.177 392.355 384.059 392.749 381.426C393.01 379.681 391.646 379.364 391.17 381.426C390.582 384.239 389.775 387.001 388.756 389.688C388.462 390.491 383.736 389.927 379.751 389.502C372.784 388.759 365.36 386.617 365.36 387.274Z" fill="#050F3A"/>
<path d="M499.495 376.518L500.218 379.999C500.218 379.999 489.634 385.826 488.632 383.897C487.631 381.969 499.495 376.518 499.495 376.518Z" fill="#050F3A"/>
<path d="M497.038 367.039C497.966 368.722 501.169 374.988 501.726 376.38C502.283 377.773 488.635 383.899 488.635 383.899L483.482 374.013L497.038 367.039Z" fill="#092B69"/>
<path d="M346.572 312.929C349.416 310.321 352.193 307.764 352.437 307.499C352.952 306.942 355.642 306.318 359.31 309.708C361.808 312.014 372.245 326.895 372.245 326.895L366.409 339.819C360.78 334.449 353.904 325.906 350.533 321.608C348.469 319.116 347.102 316.121 346.572 312.929Z" fill="#85B0DF"/>
<path d="M370.124 323.123C371.39 325.338 372.246 326.896 372.246 326.896L366.41 339.82C365.806 339.244 365.189 338.631 364.563 337.992C366.133 333.094 368.524 327.039 370.124 323.123Z" fill="#B0D0EF"/>
<path d="M370.868 320.226C371.24 322.538 373.762 326.857 371.333 327.828C365.762 330.055 353.032 318.731 352.486 311.768C352.014 305.729 355.088 308.02 359.311 309.71C363.534 311.4 370.868 320.226 370.868 320.226Z" fill="#050F3A"/>
<path d="M401.797 321.91H374.401C373.872 321.91 373.356 321.743 372.927 321.433C372.498 321.123 372.178 320.686 372.012 320.184L356.308 272.694C356.258 272.542 356.244 272.38 356.269 272.222C356.293 272.064 356.355 271.914 356.448 271.784C356.542 271.655 356.665 271.549 356.808 271.476C356.95 271.403 357.108 271.365 357.268 271.365H384.667C385.196 271.365 385.711 271.532 386.14 271.842C386.569 272.152 386.89 272.589 387.056 273.091L402.757 320.581C402.807 320.733 402.82 320.895 402.796 321.053C402.772 321.211 402.71 321.361 402.616 321.491C402.523 321.62 402.399 321.726 402.257 321.799C402.114 321.872 401.957 321.91 401.797 321.91Z" fill="#2171C5"/>
<path d="M401.797 322.645H374.401C373.717 322.646 373.051 322.43 372.496 322.03C371.942 321.629 371.528 321.064 371.314 320.415L355.61 272.925C355.523 272.663 355.5 272.384 355.542 272.111C355.584 271.837 355.69 271.578 355.852 271.354C356.014 271.13 356.227 270.948 356.473 270.822C356.719 270.696 356.992 270.631 357.268 270.631H384.667C385.351 270.63 386.017 270.845 386.572 271.246C387.126 271.647 387.54 272.212 387.753 272.862L403.455 320.351C403.542 320.613 403.565 320.892 403.523 321.166C403.481 321.439 403.374 321.698 403.212 321.922C403.05 322.146 402.838 322.328 402.592 322.454C402.346 322.58 402.073 322.645 401.797 322.645ZM357.268 272.101C357.224 272.1 357.18 272.111 357.141 272.131C357.101 272.151 357.067 272.18 357.042 272.216C357.016 272.252 356.999 272.294 356.993 272.338C356.987 272.382 356.991 272.426 357.006 272.468L372.706 319.957C372.823 320.313 373.05 320.622 373.354 320.842C373.657 321.061 374.022 321.179 374.397 321.179H401.795C401.839 321.179 401.882 321.169 401.921 321.149C401.96 321.129 401.994 321.1 402.02 321.064C402.045 321.029 402.062 320.988 402.069 320.944C402.075 320.901 402.072 320.857 402.058 320.815L386.356 273.326C386.239 272.971 386.013 272.661 385.709 272.441C385.406 272.222 385.04 272.104 384.666 272.104L357.268 272.101Z" fill="#2171C5"/>
<path d="M368.683 285.625H366.371C365.912 285.625 365.465 285.481 365.094 285.212C364.722 284.943 364.444 284.564 364.3 284.129L361.828 276.648C361.788 276.526 361.777 276.397 361.797 276.271C361.816 276.144 361.865 276.025 361.94 275.921C362.015 275.817 362.114 275.733 362.227 275.675C362.341 275.616 362.467 275.586 362.595 275.586H364.907C365.367 275.587 365.814 275.732 366.186 276.002C366.558 276.272 366.834 276.652 366.977 277.089L369.45 284.567C369.489 284.688 369.499 284.817 369.479 284.943C369.46 285.068 369.41 285.188 369.336 285.291C369.261 285.394 369.163 285.478 369.049 285.536C368.936 285.594 368.81 285.625 368.683 285.625Z" fill="#092B69"/>
<path d="M365.617 281.194C366.549 280.908 366.977 279.613 366.574 278.302C366.171 276.991 365.089 276.16 364.158 276.447C363.227 276.733 362.798 278.028 363.201 279.339C363.604 280.65 364.686 281.481 365.617 281.194Z" fill="#080F29"/>
<path d="M365.39 300.768C368.602 300.93 377.227 300.768 378.48 300.768C379.734 300.768 384.608 295.337 386.558 294.223C386.899 293.998 387.283 293.848 387.687 293.782C388.09 293.716 388.502 293.737 388.897 293.842C389.292 293.947 389.66 294.135 389.977 294.393C390.293 294.65 390.552 294.972 390.735 295.337C393.381 292.135 395.749 292.134 396.584 292.901C397.42 293.667 397.142 294.711 395.47 296.844C397.646 296.8 398.534 298.741 396.654 300.698C395.282 302.202 393.783 303.586 392.175 304.835C393.73 304.835 395.888 306.539 393.66 308.983C391.47 311.386 382.776 320.401 381.395 321.933C380.013 323.465 372.214 325.252 371.1 324.706C369.775 325.102 368.422 325.392 367.051 325.576C366.111 325.583 362.178 323.988 358.984 321.097C355.731 318.153 353.225 313.901 353.084 312.426C352.806 309.502 353.692 308.623 353.831 304.834C353.97 301.045 355.642 292.831 357.034 290.741C358.426 288.652 368.438 287.4 371.518 287.121C374.597 286.843 376.259 287.389 375.462 290.216C374.705 292.9 370.106 294.17 367.497 295.058C365.24 295.828 363.57 300.678 365.39 300.768Z" fill="#DE8864"/>
<path d="M383.982 311.778C383.982 311.778 377.367 318.674 376.67 319.398C375.973 320.121 373.069 320.822 372.631 319.398C372.194 317.973 373.885 317.089 375.626 316.447C377.366 315.805 383.494 311.511 383.982 311.778Z" fill="#EEC6B5"/>
<path d="M384.759 303.371C385.273 303.869 380.496 310.515 379.871 311.35C379.247 312.186 372.144 315.56 371.379 315.996C370.613 316.431 367.584 313.589 369.707 312.952C371.831 312.315 376.4 309.498 376.4 309.498L381.475 307.661L384.759 303.371Z" fill="#EEC6B5"/>
<path d="M390.736 295.337L380.918 306.608C380.918 306.608 371.587 306.225 369.638 306.314C367.689 306.404 366.435 307.936 366.922 309.05C367.11 309.391 367.38 309.678 367.709 309.886C368.038 310.093 368.414 310.213 368.802 310.234L367.497 311.48C366.62 310.983 365.911 310.236 365.46 309.334C365.218 308.949 365.064 308.514 365.011 308.062C364.958 307.61 365.007 307.152 365.153 306.721C365.3 306.29 365.542 305.897 365.86 305.571C366.178 305.246 366.565 304.995 366.992 304.838C369.286 303.757 376.826 301.752 378.481 300.771C379.735 300.771 384.608 295.34 386.558 294.226C386.899 294.001 387.283 293.85 387.686 293.784C388.089 293.718 388.502 293.738 388.896 293.843C389.291 293.948 389.659 294.135 389.976 294.393C390.293 294.65 390.552 294.972 390.736 295.337Z" fill="#EEC6B5"/>
<path d="M361.261 298.692C361.154 298.693 361.049 298.657 360.965 298.59C360.88 298.524 360.82 298.431 360.795 298.326C360.77 298.221 360.781 298.111 360.826 298.014C360.872 297.916 360.948 297.837 361.044 297.788L367.281 294.628C367.394 294.571 367.525 294.56 367.645 294.6C367.766 294.639 367.866 294.725 367.923 294.838C367.98 294.951 367.99 295.082 367.951 295.203C367.912 295.323 367.826 295.423 367.713 295.48L361.476 298.641C361.41 298.674 361.336 298.692 361.261 298.692Z" fill="#090E22"/>
<path d="M390.735 295.336C390.735 295.336 382.032 307.102 381.475 307.659C380.918 308.216 369.638 311.628 368.454 311.766C367.27 311.905 366.713 310.722 368.802 310.235C370.891 309.748 380.43 306.81 380.918 306.608C381.405 306.406 390.735 295.336 390.735 295.336Z" fill="#080F29"/>
<path d="M380.266 320.774C380.866 320.774 381.443 321.001 381.883 321.408C381.678 321.628 381.51 321.808 381.397 321.935C380.888 322.499 379.505 323.098 377.909 323.602C377.842 323.256 377.854 322.899 377.942 322.558C378.03 322.217 378.193 321.899 378.418 321.629C378.644 321.358 378.927 321.141 379.247 320.993C379.567 320.845 379.916 320.77 380.268 320.774H380.266Z" fill="#EEC6B5"/>
<path d="M365.344 300.027L360.993 286.868L376.53 286.486C377.616 286.486 382.003 288.055 382.344 289.086L365.344 300.027Z" fill="#2171C5"/>
<path d="M365.344 300.763C365.26 300.763 365.177 300.748 365.099 300.72C364.993 300.683 364.898 300.622 364.819 300.542C364.741 300.462 364.681 300.365 364.646 300.259L360.296 287.099C360.26 286.99 360.25 286.874 360.267 286.761C360.284 286.647 360.327 286.539 360.393 286.446C360.459 286.352 360.546 286.275 360.647 286.221C360.749 286.167 360.861 286.137 360.976 286.134L376.512 285.752C377.511 285.752 382.515 287.261 383.042 288.855C383.093 289.009 383.092 289.177 383.037 289.33C382.983 289.484 382.879 289.615 382.742 289.703L365.741 300.645C365.623 300.722 365.485 300.763 365.344 300.763ZM362.002 287.579L365.743 298.896L381.208 288.944C379.758 288.108 378.176 287.526 376.53 287.222L362.002 287.579Z" fill="#2171C5"/>
<path d="M500.222 264.213L528.054 287.059H494.397L500.222 264.213Z" fill="#050F3A"/>
<path d="M538.67 379.055L483.482 352.083L496.459 268.143L551.646 295.114L538.67 379.055Z" fill="#2171C5"/>
<path d="M538.669 379.79C538.557 379.79 538.447 379.765 538.346 379.716L483.159 352.746C483.018 352.677 482.903 352.565 482.831 352.426C482.758 352.287 482.732 352.128 482.756 351.974L495.733 268.033C495.75 267.919 495.794 267.811 495.861 267.717C495.928 267.624 496.016 267.547 496.118 267.494C496.22 267.44 496.334 267.412 496.449 267.41C496.564 267.409 496.678 267.434 496.781 267.485L551.968 294.455C552.109 294.524 552.224 294.636 552.297 294.775C552.369 294.914 552.396 295.072 552.372 295.227L539.396 379.166C539.37 379.34 539.282 379.498 539.149 379.612C539.015 379.727 538.845 379.79 538.669 379.79ZM484.291 351.66L538.092 377.956L550.833 295.537L497.033 269.24L484.291 351.66Z" fill="#2171C5"/>
<path d="M534.594 380.162L479.406 353.19L492.382 269.25L548.866 297.629L534.594 380.162Z" fill="#D8E8F6"/>
<path d="M535.464 368.328L478.37 341.356L488.604 275.152L545.193 301.168L535.464 368.328Z" fill="white"/>
<path d="M528.435 380.401L473.248 353.429L485.968 271.141L541.156 298.112L528.435 380.401Z" fill="#2171C5"/>
<path d="M528.435 381.136C528.323 381.136 528.213 381.111 528.112 381.063L472.924 354.092C472.783 354.023 472.668 353.911 472.596 353.772C472.524 353.633 472.497 353.475 472.521 353.32L485.242 271.031C485.259 270.917 485.304 270.809 485.371 270.715C485.438 270.621 485.526 270.545 485.628 270.492C485.73 270.438 485.843 270.41 485.959 270.408C486.074 270.407 486.188 270.432 486.291 270.483L541.479 297.453C541.62 297.522 541.735 297.634 541.807 297.773C541.88 297.912 541.906 298.071 541.882 298.226L529.161 380.514C529.134 380.687 529.046 380.845 528.913 380.959C528.78 381.073 528.611 381.136 528.435 381.136ZM474.056 353.007L527.857 379.303L540.343 298.535L486.543 272.239L474.056 353.007Z" fill="#2171C5"/>
<path d="M441.595 171.807L441.873 207.359C441.873 207.359 433.342 215.663 422.576 215.748C411.81 215.832 403.074 207.659 403.074 207.659L402.799 172.106L441.595 171.807Z" fill="#EEC6B5"/>
<path d="M403.071 207.658C403.071 207.658 411.273 215.015 421.575 215.716C421.497 212.529 422.879 211.417 423.707 208.242C424.625 204.707 423.367 202.489 421.582 199.717C419.797 196.946 419.226 195.187 421.531 193.219C423.837 191.252 434.335 182.203 436.551 180.7C438.767 179.197 436.845 179.144 435.007 179.313C434.108 179.396 433.589 176.261 433.198 171.871L402.799 172.106L403.071 207.658Z" fill="#DE8864"/>
<path d="M403.036 203.054C403.937 201.697 404.38 200.086 404.3 198.459C404.275 195.21 404.708 191.215 406.915 188.586C409.123 185.958 413.864 186.689 416.844 187.872C419.825 189.055 420.939 189.048 424.35 187.814C427.761 186.58 432.435 182.712 433.743 181.774C435.051 180.836 434.111 180.752 433.731 180.231C433.45 179.848 430.519 174.781 429.123 171.902L402.796 172.105L403.036 203.054Z" fill="#080F29"/>
<path d="M421.698 185.383C428.381 185.254 442.711 176.137 443.523 172.375C444.781 166.543 447.661 137.151 447.565 123.973C447.491 113.507 442.186 105.619 420.541 106.037C398.897 106.456 393.9 114.541 394.229 125.003C394.644 138.175 398.208 168.005 399.69 173.785C400.646 177.511 411.804 185.573 418.487 185.445L421.698 185.383Z" fill="#EEC6B5"/>
<path d="M423.13 166.319C420.147 166.306 418.426 167.454 418.268 167.016C418.121 166.621 418.291 164.985 418.042 163.701C417.851 162.719 414.989 161.835 414.9 160.908C414.753 159.344 415.987 149.839 415.973 144.361C415.96 138.883 412.937 137.499 408.388 136.244C403.624 134.931 401.507 138.101 400.691 137.338C399.288 136.025 400.501 132.351 400.825 129.837C401.148 127.324 401.95 123.223 402.333 118.91C402.627 115.568 404.547 115.839 405.448 114.427L405.686 108.191C396.46 111.325 394.019 117.56 394.229 125C394.776 144.401 398.208 168.002 399.691 173.782C400.537 177.079 408.882 183.764 415.893 185.173C413.682 184.339 413.607 180.83 414.078 178.421C414.458 176.476 416.678 175.738 416.944 175.314C417.134 174.885 417.228 174.42 417.219 173.951C417.21 173.482 417.098 173.021 416.892 172.6C416.344 172.121 415.693 171.775 414.989 171.591C413.767 171.121 413.993 169.012 415.062 169.071C416.732 169.164 418.406 169.127 420.069 168.96C423.736 168.553 427.315 168.835 427.633 168.504C427.951 168.173 425.15 166.327 423.13 166.319Z" fill="#DE8864"/>
<path d="M398.467 137.339C398.09 136.587 401.965 134.555 406.719 135.06C410.065 135.418 412.909 137.014 412.952 137.962C412.972 138.403 410.139 138.072 406.08 137.955C400.899 137.809 398.675 137.756 398.467 137.339Z" fill="#080F29"/>
<path d="M435.073 109.021C434.684 108.148 429.909 109.803 426.284 111.991C422.153 114.485 420.322 119.957 413.361 120.092C406.012 120.234 405.139 117.465 401.63 118.461C398.151 119.449 395.529 124.893 394.872 129.177C394.215 133.46 395.85 148.115 396.312 151.993C396.574 154.188 395.733 153.706 394.967 151.687C393.733 148.433 391.468 135.648 391.065 133.985C390.661 132.322 387.346 129.659 387.799 123.556C388.02 120.581 389.335 118.279 389.623 117.022C389.794 116.276 385.328 114.524 388.343 108.412C389.683 105.693 398.133 101.147 413.156 100.115C430.754 98.9045 438.151 107.647 439.04 108.272C439.816 108.815 450.285 108.797 452.165 119.531C453.669 128.129 450.538 141.498 450.281 142.616C451.353 137.282 445.702 139.488 445.193 141.767C444.662 144.145 444.515 144.494 444.047 144.522C443.238 144.569 441.344 142.24 442.209 139.157C442.886 136.76 443.459 136.533 443.606 133.381C443.715 131.003 443.398 129.633 438.785 126.38C434.172 123.128 429.241 121.685 429.451 117.967C429.796 111.775 435.586 110.167 435.073 109.021Z" fill="#080F29"/>
<path d="M433.761 135.331C431.686 135.252 424.984 135.891 424.148 137.365C423.781 138.01 422.679 141.211 423.724 142.117C424.669 142.935 425.806 141.729 428.197 139.518C429.695 137.995 431.667 137.027 433.788 136.773C435.273 136.697 435.014 135.381 433.761 135.331Z" fill="#DE8864"/>
<path d="M447.248 139.987C448.465 138.885 452.051 138.992 451.466 142.869C450.758 147.553 449.153 155.73 447.938 157.839C446.723 159.948 444.792 160.824 443.796 159.729C442.8 158.634 446.009 141.112 447.248 139.987Z" fill="#EEC6B5"/>
<path d="M438.497 137.052C438.845 136.287 434.067 134.437 429.522 134.627C426.16 134.767 424.063 136.802 424.058 137.751C424.058 138.192 426.868 137.677 430.924 137.479C435.698 137.246 438.306 137.474 438.497 137.052Z" fill="#080F29"/>
<path d="M411.627 145.334C410.629 142.065 403.013 140.749 401.072 144.33C401.531 146.891 408.484 147.444 411.627 145.334Z" fill="#DFECF7"/>
<mask id="mask0_1012_32836" style="mask-type:luminance" maskUnits="userSpaceOnUse" x="401" y="142" width="11" height="5">
<path d="M411.627 145.336C410.629 142.067 403.013 140.751 401.072 144.331C401.531 146.893 408.577 147.562 411.627 145.336Z" fill="white"/>
</mask>
<g mask="url(#mask0_1012_32836)">
<path d="M405.725 147.189C406.932 147.147 407.874 146.1 407.831 144.851C407.787 143.602 406.774 142.624 405.567 142.666C404.361 142.708 403.418 143.755 403.462 145.004C403.505 146.253 404.519 147.231 405.725 147.189Z" fill="#102B68"/>
<path d="M405.662 146.204C406.185 146.186 406.593 145.732 406.574 145.191C406.555 144.65 406.116 144.226 405.593 144.244C405.07 144.263 404.662 144.716 404.681 145.257C404.7 145.798 405.139 146.222 405.662 146.204Z" fill="#080F28"/>
</g>
<path d="M411.628 145.885C411.537 145.885 411.446 145.863 411.366 145.819C411.285 145.776 411.217 145.713 411.167 145.637C410.665 144.984 410.036 144.441 409.317 144.04C408.599 143.638 407.806 143.387 406.987 143.302C404.863 142.941 402.566 143.302 401.407 144.184C401.349 144.23 401.283 144.264 401.213 144.284C401.142 144.304 401.068 144.309 400.996 144.301C400.923 144.292 400.852 144.268 400.789 144.232C400.725 144.195 400.669 144.146 400.625 144.088C400.58 144.03 400.548 143.963 400.529 143.892C400.511 143.821 400.507 143.747 400.517 143.674C400.528 143.602 400.553 143.532 400.591 143.469C400.629 143.406 400.679 143.351 400.738 143.308C402.143 142.236 404.735 141.796 407.173 142.212C408.141 142.321 409.076 142.627 409.922 143.111C410.767 143.595 411.505 144.247 412.088 145.027C412.143 145.11 412.174 145.207 412.178 145.306C412.183 145.405 412.16 145.504 412.113 145.592C412.066 145.679 411.996 145.752 411.91 145.803C411.825 145.854 411.728 145.881 411.628 145.881V145.885Z" fill="#BC694B"/>
<path d="M436.279 144.555C434.843 141.444 426.86 141.146 425.316 144.955C426.108 147.436 433.316 147.065 436.279 144.555Z" fill="#DFECF7"/>
<mask id="mask1_1012_32836" style="mask-type:luminance" maskUnits="userSpaceOnUse" x="425" y="142" width="12" height="5">
<path d="M436.28 144.555C434.843 141.444 426.861 141.146 425.317 144.955C426.109 147.436 433.424 147.168 436.28 144.555Z" fill="white"/>
</mask>
<g mask="url(#mask1_1012_32836)">
<path d="M430.374 147.187C431.614 147.029 432.49 145.896 432.332 144.656C432.174 143.416 431.04 142.539 429.8 142.698C428.561 142.856 427.684 143.989 427.842 145.229C428.001 146.469 429.134 147.346 430.374 147.187Z" fill="#102B68"/>
<path d="M430.106 146.217C430.648 146.217 431.087 145.778 431.087 145.236C431.087 144.695 430.648 144.256 430.106 144.256C429.565 144.256 429.126 144.695 429.126 145.236C429.126 145.778 429.565 146.217 430.106 146.217Z" fill="#080F28"/>
</g>
<path d="M436.279 145.107C436.201 145.107 436.123 145.09 436.052 145.058C435.981 145.026 435.917 144.979 435.866 144.921C434.934 143.867 433.326 143.24 431.34 143.157C429.076 143.062 426.725 143.729 425.624 144.78C425.572 144.833 425.51 144.874 425.442 144.902C425.374 144.93 425.301 144.944 425.227 144.943C425.154 144.942 425.081 144.927 425.013 144.897C424.946 144.868 424.885 144.825 424.834 144.772C424.783 144.719 424.744 144.656 424.717 144.587C424.691 144.518 424.679 144.445 424.682 144.371C424.685 144.298 424.702 144.226 424.733 144.159C424.764 144.092 424.808 144.032 424.863 143.983C426.186 142.721 428.802 141.946 431.387 142.055C433.675 142.152 435.559 142.91 436.691 144.192C436.761 144.271 436.807 144.369 436.823 144.474C436.839 144.579 436.825 144.686 436.781 144.783C436.738 144.88 436.667 144.962 436.578 145.019C436.489 145.077 436.385 145.107 436.279 145.107Z" fill="#DE8864"/>
<path d="M402.67 141.623C402.555 141.624 402.442 141.587 402.347 141.52C402.253 141.452 402.183 141.356 402.146 141.246C402.11 141.136 402.109 141.018 402.143 140.907C402.178 140.797 402.247 140.7 402.34 140.63C403.341 139.882 406.609 139.602 407.907 139.987C408.047 140.028 408.165 140.124 408.235 140.253C408.304 140.382 408.32 140.533 408.278 140.673C408.236 140.813 408.14 140.931 408.012 141C407.883 141.07 407.732 141.085 407.592 141.044C406.533 140.727 403.658 141.022 403 141.513C402.905 141.585 402.79 141.624 402.67 141.623Z" fill="#BC694B"/>
<path d="M434.536 141.844C434.461 141.844 434.388 141.829 434.32 141.799C432.908 141.303 431.393 141.175 429.918 141.427C429.776 141.451 429.63 141.419 429.511 141.337C429.392 141.255 429.31 141.129 429.283 140.987C429.256 140.845 429.286 140.699 429.366 140.578C429.446 140.458 429.57 140.374 429.711 140.344C431.401 140.049 433.139 140.201 434.752 140.785C434.869 140.835 434.965 140.924 435.024 141.036C435.083 141.149 435.101 141.278 435.076 141.403C435.05 141.527 434.983 141.639 434.884 141.719C434.786 141.8 434.663 141.844 434.536 141.844Z" fill="#DE8864"/>
<path d="M497.336 368.231C496.822 364.414 492.927 338.554 492.754 327.93C492.545 315.236 492.516 302.487 492.516 301.168C492.516 298.743 500.364 277.578 500.221 276.465C500.079 275.353 500.221 264.212 500.221 264.212C500.221 264.212 490.134 245.228 488.573 247.642C487.013 250.056 480.461 267.958 478.368 268.145C476.276 268.332 470.554 361.117 470.554 361.117C470.554 361.117 498.466 376.609 497.336 368.231Z" fill="#092B69"/>
<path d="M426.585 212.74L438.547 212.168L440.794 218.326L435.922 227.031L429.097 227.357L423.685 219.144L426.585 212.74Z" fill="#2171C5"/>
<path d="M451.332 211.555C451.332 211.555 446.007 216.294 440.794 218.324C435.581 220.355 427.978 220.223 423.685 219.143C419.392 218.064 409.881 213.538 409.881 213.538L451.332 211.555Z" fill="#2171C5"/>
<path d="M425.85 349.81C425.814 351.1 426.088 352.38 426.649 353.543C429.313 359.038 437.441 375.415 439.613 375.311C441.785 375.207 448.312 358.129 450.439 352.405C450.887 351.194 451.039 349.894 450.88 348.613L435.919 227.031L429.127 227.356L425.85 349.81Z" fill="#2171C5"/>
<path d="M432.855 365.052C432.762 365.052 432.671 365.025 432.593 364.974C432.515 364.924 432.453 364.851 432.416 364.766C432.379 364.68 432.367 364.586 432.383 364.494C432.399 364.402 432.441 364.317 432.504 364.249L450.231 345.159C450.319 345.071 450.437 345.02 450.561 345.018C450.685 345.015 450.806 345.061 450.897 345.145C450.988 345.23 451.042 345.346 451.049 345.47C451.056 345.594 451.014 345.716 450.933 345.81L433.205 364.9C433.16 364.948 433.106 364.986 433.046 365.012C432.986 365.038 432.921 365.052 432.855 365.052Z" fill="#050F3A"/>
<path d="M431.006 361.596C430.913 361.596 430.821 361.569 430.744 361.519C430.666 361.468 430.604 361.395 430.567 361.31C430.53 361.225 430.518 361.13 430.534 361.039C430.55 360.947 430.592 360.862 430.656 360.794L449.639 340.35C449.725 340.257 449.845 340.202 449.971 340.198C450.098 340.193 450.221 340.239 450.314 340.325C450.407 340.411 450.462 340.531 450.467 340.657C450.471 340.784 450.426 340.907 450.339 341L431.356 361.443C431.311 361.492 431.257 361.53 431.197 361.556C431.137 361.583 431.071 361.596 431.006 361.596Z" fill="#050F3A"/>
<path d="M425.972 342.589C425.879 342.589 425.788 342.563 425.71 342.512C425.632 342.461 425.57 342.388 425.533 342.303C425.496 342.218 425.484 342.123 425.5 342.032C425.516 341.94 425.558 341.855 425.622 341.787L446.98 318.785C447.023 318.738 447.074 318.7 447.131 318.673C447.188 318.646 447.25 318.63 447.314 318.627C447.377 318.625 447.44 318.634 447.499 318.656C447.559 318.678 447.613 318.711 447.66 318.754C447.706 318.797 447.744 318.849 447.77 318.907C447.796 318.965 447.811 319.027 447.812 319.09C447.814 319.153 447.804 319.216 447.781 319.275C447.758 319.335 447.724 319.389 447.681 319.434L426.322 342.436C426.277 342.484 426.223 342.523 426.163 342.549C426.103 342.575 426.038 342.589 425.972 342.589Z" fill="#050F3A"/>
<path d="M426.125 336.978C426.031 336.979 425.94 336.952 425.862 336.901C425.784 336.85 425.723 336.778 425.685 336.692C425.648 336.607 425.637 336.513 425.652 336.421C425.668 336.329 425.71 336.244 425.774 336.176L446.387 313.978C446.43 313.931 446.481 313.893 446.538 313.866C446.595 313.839 446.657 313.824 446.721 313.821C446.784 313.818 446.847 313.828 446.907 313.85C446.966 313.871 447.02 313.905 447.067 313.948C447.113 313.991 447.151 314.043 447.177 314.1C447.203 314.158 447.218 314.22 447.22 314.283C447.221 314.347 447.211 314.41 447.188 314.469C447.166 314.528 447.131 314.582 447.088 314.628L426.474 336.826C426.43 336.874 426.376 336.913 426.315 336.939C426.255 336.965 426.19 336.979 426.125 336.978Z" fill="#050F3A"/>
<path d="M426.805 311.82C426.712 311.82 426.621 311.793 426.543 311.742C426.465 311.691 426.404 311.619 426.367 311.533C426.33 311.448 426.318 311.354 426.334 311.262C426.35 311.17 426.392 311.085 426.456 311.017L443.728 292.414C443.77 292.368 443.822 292.331 443.879 292.305C443.936 292.279 443.997 292.264 444.06 292.262C444.123 292.26 444.185 292.27 444.244 292.292C444.303 292.313 444.357 292.347 444.403 292.389C444.449 292.432 444.486 292.483 444.512 292.541C444.538 292.598 444.553 292.659 444.555 292.722C444.558 292.785 444.548 292.847 444.526 292.906C444.504 292.965 444.471 293.019 444.428 293.065L427.156 311.668C427.111 311.716 427.057 311.754 426.997 311.78C426.936 311.806 426.871 311.82 426.805 311.82Z" fill="#050F3A"/>
<path d="M426.953 306.207C426.86 306.208 426.769 306.181 426.691 306.13C426.613 306.079 426.552 306.006 426.514 305.921C426.477 305.836 426.466 305.741 426.481 305.65C426.497 305.558 426.539 305.473 426.603 305.405L443.133 287.604C443.219 287.511 443.339 287.456 443.465 287.451C443.592 287.447 443.715 287.493 443.808 287.579C443.901 287.665 443.956 287.785 443.961 287.911C443.965 288.038 443.919 288.161 443.833 288.254L427.303 306.055C427.259 306.103 427.204 306.142 427.144 306.168C427.084 306.194 427.019 306.208 426.953 306.207Z" fill="#050F3A"/>
<path d="M427.636 281.046C427.543 281.046 427.452 281.018 427.375 280.967C427.297 280.916 427.236 280.844 427.199 280.759C427.162 280.673 427.15 280.579 427.166 280.488C427.181 280.396 427.223 280.311 427.286 280.243L440.476 266.037C440.519 265.991 440.57 265.954 440.627 265.928C440.685 265.902 440.746 265.887 440.809 265.885C440.872 265.883 440.934 265.893 440.993 265.915C441.052 265.937 441.106 265.97 441.152 266.012C441.198 266.055 441.235 266.107 441.261 266.164C441.287 266.221 441.302 266.282 441.304 266.345C441.307 266.408 441.296 266.47 441.275 266.529C441.253 266.588 441.219 266.642 441.177 266.688L427.986 280.893C427.941 280.941 427.887 280.98 427.827 281.006C427.767 281.032 427.702 281.046 427.636 281.046Z" fill="#050F3A"/>
<path d="M427.788 275.438C427.695 275.437 427.604 275.41 427.526 275.359C427.449 275.308 427.387 275.235 427.35 275.15C427.313 275.065 427.302 274.971 427.317 274.879C427.333 274.788 427.375 274.703 427.438 274.634L439.884 261.231C439.927 261.185 439.978 261.148 440.035 261.122C440.092 261.095 440.154 261.081 440.216 261.078C440.279 261.076 440.342 261.086 440.401 261.108C440.459 261.13 440.513 261.163 440.559 261.206C440.605 261.249 440.642 261.3 440.669 261.357C440.695 261.414 440.709 261.476 440.712 261.538C440.714 261.601 440.704 261.664 440.682 261.722C440.66 261.781 440.627 261.835 440.584 261.881L428.138 275.285C428.093 275.333 428.039 275.371 427.979 275.398C427.919 275.424 427.853 275.438 427.788 275.438Z" fill="#050F3A"/>
<path d="M440.911 218.293C440.848 218.293 440.786 218.281 440.728 218.257L429.893 213.784C429.835 213.76 429.782 213.725 429.738 213.68C429.694 213.636 429.658 213.583 429.635 213.525C429.611 213.467 429.599 213.405 429.599 213.342C429.599 213.279 429.611 213.217 429.635 213.159C429.66 213.101 429.695 213.049 429.739 213.004C429.784 212.96 429.836 212.925 429.894 212.901C429.952 212.877 430.015 212.865 430.077 212.865C430.14 212.865 430.202 212.878 430.26 212.902L441.1 217.375C441.202 217.417 441.286 217.494 441.339 217.591C441.391 217.689 441.408 217.801 441.386 217.91C441.365 218.018 441.306 218.116 441.221 218.186C441.135 218.256 441.028 218.295 440.917 218.295L440.911 218.293Z" fill="#050F3A"/>
<path d="M438.933 221.306C438.871 221.306 438.809 221.293 438.751 221.269L424.198 215.262C424.14 215.238 424.088 215.203 424.044 215.159C423.999 215.114 423.964 215.061 423.94 215.003C423.916 214.945 423.904 214.883 423.904 214.82C423.904 214.758 423.917 214.696 423.941 214.638C423.965 214.58 424 214.527 424.045 214.483C424.089 214.439 424.142 214.404 424.2 214.38C424.258 214.356 424.32 214.344 424.383 214.344C424.446 214.344 424.508 214.356 424.566 214.381L439.118 220.388C439.22 220.43 439.305 220.506 439.357 220.604C439.409 220.701 439.425 220.814 439.404 220.922C439.382 221.031 439.324 221.128 439.239 221.198C439.154 221.269 439.047 221.307 438.936 221.308L438.933 221.306Z" fill="#050F3A"/>
<path d="M435.92 227.508C435.858 227.508 435.797 227.496 435.74 227.472L426.606 223.753C426.498 223.699 426.415 223.606 426.372 223.493C426.33 223.381 426.332 223.256 426.377 223.145C426.423 223.033 426.509 222.943 426.618 222.892C426.727 222.842 426.851 222.834 426.966 222.871L436.1 226.59C436.202 226.632 436.287 226.709 436.339 226.806C436.392 226.903 436.409 227.016 436.388 227.125C436.366 227.233 436.308 227.331 436.223 227.402C436.138 227.472 436.031 227.511 435.92 227.511V227.508Z" fill="#050F3A"/>
<path d="M428.468 250.275C428.375 250.275 428.284 250.248 428.206 250.197C428.129 250.146 428.067 250.073 428.03 249.988C427.993 249.903 427.981 249.809 427.997 249.717C428.013 249.625 428.054 249.54 428.118 249.472L437.226 239.664C437.312 239.572 437.431 239.517 437.558 239.512C437.685 239.507 437.808 239.553 437.901 239.639C437.994 239.726 438.049 239.845 438.053 239.972C438.058 240.099 438.012 240.222 437.926 240.315L428.819 250.12C428.774 250.169 428.72 250.208 428.66 250.234C428.599 250.261 428.534 250.275 428.468 250.275Z" fill="#050F3A"/>
<path d="M428.62 244.667C428.527 244.666 428.436 244.639 428.358 244.588C428.281 244.537 428.219 244.464 428.182 244.379C428.145 244.294 428.134 244.2 428.149 244.108C428.165 244.017 428.207 243.932 428.27 243.863L436.632 234.858C436.675 234.812 436.726 234.775 436.783 234.749C436.84 234.723 436.902 234.708 436.965 234.705C437.028 234.703 437.09 234.713 437.149 234.735C437.208 234.757 437.262 234.79 437.308 234.832C437.354 234.875 437.391 234.926 437.417 234.983C437.443 235.04 437.458 235.102 437.461 235.165C437.463 235.227 437.453 235.29 437.431 235.349C437.409 235.408 437.376 235.462 437.334 235.508L428.97 244.514C428.925 244.562 428.871 244.601 428.811 244.627C428.751 244.653 428.685 244.667 428.62 244.667Z" fill="#050F3A"/>
<path d="M429.433 227.819C429.306 227.822 429.183 227.775 429.091 227.687C429 227.6 428.947 227.479 428.943 227.353C428.94 227.226 428.988 227.103 429.075 227.011C429.163 226.92 429.283 226.866 429.41 226.863L435.899 226.553C436.026 226.547 436.15 226.592 436.244 226.677C436.338 226.762 436.394 226.881 436.4 227.008C436.406 227.135 436.362 227.259 436.276 227.352C436.191 227.446 436.072 227.503 435.945 227.509L429.456 227.819H429.433Z" fill="#050F3A"/>
<path d="M400.162 188.587C400.719 187.009 401.641 185.752 402.966 185.47C402.819 188.361 402.966 190.457 402.966 194.249C402.966 204.047 430.184 210.891 431.739 210.891C433.293 210.891 436.81 206.595 439.327 202.513C440.62 200.415 441.674 195.808 441.674 190.98C441.674 186.153 441.715 186.243 441.689 183.391C442.896 184.125 443.989 185.031 444.932 186.083C449.11 191.838 454.077 200.286 455.748 217.273C455.815 217.946 447.798 214.443 443.075 213.342C439.341 212.552 435.55 212.056 431.739 211.857C429.845 211.812 417.822 217.455 410.402 222.378C407.067 218.214 404.069 213.791 401.435 209.151C398.355 203.87 398.451 193.431 400.162 188.587Z" fill="#B0D0EF"/>
<path d="M410.403 222.856C410.302 222.856 410.203 222.824 410.122 222.764C410.04 222.705 409.979 222.621 409.948 222.524C409.917 222.428 409.917 222.324 409.949 222.228C409.981 222.132 410.042 222.048 410.125 221.989C417.947 216.399 429.568 211.379 431.739 211.379C435.589 211.555 439.417 212.056 443.183 212.877C445.821 213.581 448.42 214.424 450.969 215.403C452.439 215.995 453.947 216.486 455.484 216.873C455.541 216.834 455.606 216.809 455.674 216.798C455.742 216.787 455.812 216.792 455.878 216.811C456 216.846 456.102 216.927 456.164 217.037C456.226 217.147 456.241 217.278 456.207 217.399C456.154 217.545 456.051 217.669 455.917 217.747C455.44 217.99 454.428 217.67 450.643 216.297C448.13 215.332 445.567 214.499 442.967 213.802C439.272 212.997 435.516 212.505 431.739 212.332C429.929 212.332 418.338 217.293 410.681 222.767C410.6 222.825 410.503 222.856 410.403 222.856Z" fill="#050F3A"/>
<path d="M441.674 190.979C441.674 186.152 441.715 186.241 441.689 183.389C442.896 184.123 443.989 185.03 444.932 186.081C447.248 189.271 450.031 192.392 452.047 198.59C450.234 195.317 445.976 191.104 444.715 190.457C443.581 189.875 442.592 191.569 441.628 193.135C441.656 192.431 441.674 191.707 441.674 190.979Z" fill="#85B0DF"/>
<path d="M492.903 331.416C492.903 331.416 492.516 303.592 492.516 301.169C492.516 298.745 500.286 278.369 500.144 277.255L505.435 271.141L500.223 264.213C500.223 264.213 495.96 277.209 494.398 279.622C492.836 282.035 494.608 268.854 492.516 269.04C491.357 269.142 491.058 288.135 488.777 304.837C487.889 311.338 482.711 296.826 481.262 296.826C479.813 296.826 485.642 319.008 488.575 332.579C492.645 351.415 495.27 367.668 497.336 368.231C496.075 359.302 492.903 331.416 492.903 331.416Z" fill="#050F3A"/>
<path d="M548.043 336.318C551.167 336.5 551.454 341.888 548.46 344.328C549.283 345.628 550.054 346.372 549.868 348.507C549.71 350.329 549.016 350.762 548.355 351.915C547.694 353.068 549.268 355.34 548.955 357.232C548.633 359.18 547.219 359.326 546.809 360.604C546.398 361.883 547.488 363.06 546.95 364.457C546.208 366.389 542.873 368.76 541.561 369.56C539.907 370.571 535.81 371.708 534.104 371.897C532.821 372.04 529.432 371.229 527.907 369.414C526.382 367.599 526.78 362.69 528.413 361.286C527.164 359.551 526.754 359.501 525.002 356.971C524.648 356.459 524.436 355.863 524.386 355.242C524.337 354.622 524.452 354 524.72 353.438C524.988 352.876 525.399 352.396 525.913 352.044C526.426 351.692 527.023 351.482 527.644 351.435C527.003 350.828 527.079 348.876 528.116 347.205C528.993 345.791 529.758 345.52 531.281 345.256C529.558 343.238 532.588 339.457 536.171 340.777C535.857 338.549 536.632 336.476 538.503 336.197C540.913 335.835 545.84 336.19 548.043 336.318Z" fill="#DE8864"/>
<path d="M548.043 336.318C551.167 336.5 551.454 341.888 548.46 344.328C549.283 345.628 550.054 346.372 549.868 348.507C549.71 350.329 549.016 350.762 548.355 351.915C547.694 353.068 549.268 355.34 548.955 357.232C548.633 359.18 547.219 359.326 546.809 360.604C546.398 361.883 547.488 363.06 546.95 364.457C546.208 366.389 542.873 368.76 541.561 369.56C539.907 370.571 535.81 371.708 534.104 371.897C532.821 372.04 529.432 371.229 527.907 369.414C526.382 367.599 526.78 362.69 528.413 361.286C527.164 359.551 526.754 359.501 525.002 356.971C524.648 356.459 524.436 355.863 524.386 355.242C524.337 354.622 524.452 354 524.72 353.438C524.988 352.876 525.399 352.396 525.913 352.044C526.426 351.692 527.023 351.482 527.644 351.435C527.003 350.828 527.079 348.876 528.116 347.205C528.993 345.791 529.758 345.52 531.281 345.256C529.558 343.238 532.588 339.457 536.171 340.777C535.857 338.549 536.632 336.476 538.503 336.197C540.913 335.835 545.84 336.19 548.043 336.318Z" fill="#DE8864"/>
<path d="M548.354 351.911C549.016 350.758 549.71 350.324 549.868 348.502C550.054 346.371 549.28 345.623 548.46 344.323C551.454 341.887 551.166 336.499 548.042 336.317C545.837 336.189 540.913 335.834 538.503 336.193C536.631 336.472 535.857 338.545 536.171 340.773C532.588 339.45 529.556 343.233 531.28 345.252C529.758 345.516 528.993 345.786 528.115 347.201C527.079 348.872 527.002 350.824 527.643 351.43C527.625 351.43 527.607 351.436 527.588 351.437L528.741 352.501C527.933 353.603 526.073 355.648 531.457 359.176C536.842 362.703 539.901 365.653 542.969 365.766C544.099 365.84 545.234 365.752 546.338 365.504C546.589 365.183 546.795 364.829 546.95 364.453C547.487 363.057 546.396 361.881 546.808 360.6C547.22 359.319 548.633 359.176 548.955 357.228C549.268 355.335 547.694 353.064 548.354 351.911Z" fill="#EEC6B5"/>
<path d="M540.043 359.781C539.972 359.781 539.902 359.765 539.839 359.735C536.164 358.003 530.787 355.008 527.736 352.267C527.689 352.225 527.651 352.174 527.624 352.117C527.597 352.061 527.581 351.999 527.578 351.937C527.574 351.874 527.584 351.811 527.604 351.752C527.625 351.693 527.658 351.639 527.7 351.592C527.741 351.545 527.792 351.507 527.849 351.48C527.905 351.453 527.967 351.438 528.029 351.434C528.092 351.431 528.155 351.44 528.214 351.461C528.273 351.482 528.328 351.514 528.374 351.556C531.349 354.228 536.629 357.166 540.246 358.871C540.345 358.917 540.424 358.996 540.472 359.093C540.52 359.191 540.533 359.301 540.509 359.407C540.485 359.513 540.426 359.608 540.341 359.676C540.257 359.744 540.151 359.781 540.043 359.781Z" fill="#090E22"/>
<path d="M535.01 367.039C536.105 367.834 535.021 368.753 533.841 368.342C532.383 367.833 529.017 366.402 527.031 364.641C527.304 362.814 527.176 360.95 526.654 359.178C529.211 362.031 532.006 364.661 535.01 367.039Z" fill="#080F29"/>
<path d="M545.191 345.442C545.097 345.442 545.006 345.414 544.927 345.361C544.879 345.329 540.034 342.133 537.053 341.734C536.93 341.714 536.82 341.647 536.746 341.547C536.672 341.448 536.64 341.323 536.657 341.2C536.673 341.076 536.737 340.965 536.834 340.888C536.932 340.811 537.056 340.775 537.179 340.788C540.379 341.215 545.25 344.429 545.456 344.565C545.542 344.622 545.607 344.705 545.642 344.802C545.676 344.898 545.679 345.004 545.65 345.102C545.62 345.2 545.559 345.286 545.477 345.348C545.394 345.409 545.294 345.442 545.191 345.442Z" fill="#090E22"/>
<defs>
<filter id="filter0_f_1012_32836" x="-8" y="-8" width="765" height="771" filterUnits="userSpaceOnUse" color-interpolation-filters="sRGB">
<feFlood flood-opacity="0" result="BackgroundImageFix"/>
<feBlend mode="normal" in="SourceGraphic" in2="BackgroundImageFix" result="shape"/>
<feGaussianBlur stdDeviation="4" result="effect1_foregroundBlur_1012_32836"/>
</filter>
</defs>
</svg>
