<svg width="401" height="215" viewBox="0 0 401 215" fill="none" xmlns="http://www.w3.org/2000/svg">
<path d="M352.596 146.1H67.7458L39.5059 196.07L383.556 201.05L352.596 146.1Z" fill="#050F3A" stroke="#050F3A" stroke-width="3" stroke-miterlimit="10" stroke-linecap="round" stroke-linejoin="round"/>
<path d="M375.775 213.189C375.775 213.189 47.6154 213.189 43.0654 213.189C46.0954 210.349 48.2754 202.479 43.0654 196.069C47.0454 196.069 375.775 196.069 375.775 196.069C380.505 196.069 384.335 199.899 384.335 204.629C384.335 209.359 380.505 213.189 375.775 213.189Z" fill="#C7E3F9"/>
<path d="M39.5059 196.069H375.776C380.506 196.069 384.336 199.899 384.336 204.629C384.336 209.359 380.506 213.189 375.776 213.189H39.5059" stroke="#050F3A" stroke-width="3" stroke-miterlimit="10" stroke-linecap="round" stroke-linejoin="round"/>
<path d="M51.1855 204.63H183.566" stroke="#85B0DF" stroke-width="1.3" stroke-miterlimit="10" stroke-linecap="round" stroke-linejoin="round"/>
<path d="M97.416 207.819H331.466" stroke="#85B0DF" stroke-width="1.3" stroke-miterlimit="10" stroke-linecap="round" stroke-linejoin="round"/>
<path d="M356.866 203.02H380.206" stroke="#85B0DF" stroke-width="1.3" stroke-miterlimit="10" stroke-linecap="round" stroke-linejoin="round"/>
<path d="M349.656 207.819H379.256" stroke="#85B0DF" stroke-width="1.3" stroke-miterlimit="10" stroke-linecap="round" stroke-linejoin="round"/>
<path d="M27.5762 186.019L282.636 196.259L353.696 134.829L106.186 125.029L27.5762 186.019Z" stroke="#B0D0EF" stroke-width="1.3" stroke-miterlimit="10" stroke-linecap="round" stroke-linejoin="round"/>
<path d="M16.8262 164.879L27.5762 186.019L282.636 196.259L278.796 159.319L16.8262 164.879Z" fill="white" stroke="#B0D0EF" stroke-width="1.3" stroke-miterlimit="10" stroke-linecap="round" stroke-linejoin="round"/>
<path d="M353.696 134.83C349.286 130.27 325.136 127.84 325.136 120.85L263.156 166.22C263.156 172.28 262.386 178.26 267.696 181.8C274.426 186.29 282.176 192.03 282.636 196.26L353.696 134.83Z" fill="#C7E3F9" stroke="#C7E3F9" stroke-width="1.3" stroke-miterlimit="10" stroke-linecap="round" stroke-linejoin="round"/>
<path d="M15.056 155.279L1.41602 166.219H205.286L15.056 155.279Z" fill="white" stroke="#B0D0EF" stroke-width="1.3" stroke-miterlimit="10" stroke-linecap="round" stroke-linejoin="round"/>
<path d="M115.776 189.56L254.556 188.88L25.4355 181.8L27.5755 186.02L115.776 189.56Z" fill="#C7E3F9" stroke="#C7E3F9" stroke-width="1.3" stroke-miterlimit="10" stroke-linecap="round" stroke-linejoin="round"/>
<path d="M11.2158 151.06L14.0458 160.65L263.116 170.94L263.156 166.22L11.2158 151.06Z" fill="white" stroke="#B0D0EF" stroke-width="1.3" stroke-miterlimit="10" stroke-linecap="round" stroke-linejoin="round"/>
<path d="M21.0256 173.13L7.47559 181.24L254.556 188.88L21.0256 173.13Z" fill="white" stroke="#B0D0EF" stroke-width="1.3" stroke-miterlimit="10" stroke-linecap="round" stroke-linejoin="round"/>
<path d="M263.146 172.21L294.456 149.29" stroke="#B0D0EF" stroke-width="1.3" stroke-miterlimit="10" stroke-linecap="round" stroke-linejoin="round"/>
<path d="M284.606 159.96L263.146 175.67L140.616 169.52" stroke="#B0D0EF" stroke-width="1.3" stroke-miterlimit="10" stroke-linecap="round" stroke-linejoin="round"/>
<path d="M299.526 155.279L266.976 180.909L224.306 178.589" stroke="#B0D0EF" stroke-width="1.3" stroke-miterlimit="10" stroke-linecap="round" stroke-linejoin="round"/>
<path d="M263.116 170.94L229.706 169.52L11.2158 151.06L263.156 166.22L263.116 170.94Z" fill="#C7E3F9"/>
<path d="M310.386 166.22L279.836 191.41L268.956 191.02" stroke="#B0D0EF" stroke-width="1.3" stroke-miterlimit="10" stroke-linecap="round" stroke-linejoin="round"/>
<path d="M276.176 187.99L319.986 151.06" stroke="#B0D0EF" stroke-width="1.3" stroke-miterlimit="10" stroke-linecap="round" stroke-linejoin="round"/>
<path d="M11.2158 151.06L263.156 166.22L325.136 120.85L80.7558 106.14L11.2158 151.06Z" fill="white" stroke="#B0D0EF" stroke-width="1.3" stroke-miterlimit="10" stroke-linecap="round" stroke-linejoin="round"/>
<path d="M191.646 178.589L172.556 194.979L107.776 181.799L115.586 174.359L191.646 178.589Z" fill="#2171C5"/>
<path d="M12.4658 155.279L56.2358 157.869" stroke="#B0D0EF" stroke-width="1.3" stroke-miterlimit="10" stroke-linecap="round" stroke-linejoin="round"/>
<path d="M263.156 166.22C263.156 172.28 262.386 178.26 267.696 181.8C274.426 186.29 282.176 192.03 282.636 196.26" stroke="#B0D0EF" stroke-width="1.3" stroke-miterlimit="10" stroke-linecap="round" stroke-linejoin="round"/>
<path d="M202.726 168.439L263.116 170.939" stroke="#B0D0EF" stroke-width="1.3" stroke-miterlimit="10" stroke-linecap="round" stroke-linejoin="round"/>
<path d="M54.0264 170.939L191.646 178.589" stroke="#B0D0EF" stroke-width="1.3" stroke-miterlimit="10" stroke-linecap="round" stroke-linejoin="round"/>
<path d="M292.416 100.049L9.50598 80.7295C9.50598 80.7295 3.37598 88.1395 3.37598 105.01C3.37598 121.88 9.50598 133.43 9.50598 133.43L292.416 152.75" fill="#C7E3F9"/>
<path d="M15.4664 129.039L292.416 147.889V100.039L15.4664 81.1992C15.4664 81.1992 10.0264 88.0692 10.0264 103.049C10.0164 118.029 15.4664 129.039 15.4664 129.039Z" fill="white"/>
<path d="M10.0156 103.049C10.0156 118.039 15.4556 129.049 15.4556 129.049L23.6356 129.609C23.0156 126.859 22.6356 123.669 23.6356 118.269C24.3256 114.539 34.0656 98.5592 55.6656 97.2392C77.2656 95.9092 292.416 104.819 292.416 104.819V100.059L15.4656 81.1992C15.4656 81.1992 10.0156 88.0592 10.0156 103.049Z" fill="#C7E3F9"/>
<path d="M376.336 111.339L292.416 152.749C292.416 152.749 287.366 143.469 287.366 129.829C287.366 116.189 292.416 100.049 292.416 100.049L379.256 62.8291C379.256 62.8291 373.546 73.0791 372.026 88.8291C370.776 101.849 376.336 111.339 376.336 111.339Z" fill="#C7E3F9"/>
<path d="M300.686 117.779L337.886 101.829" stroke="#85B0DF" stroke-width="1.3" stroke-miterlimit="10" stroke-linecap="round" stroke-linejoin="round"/>
<path d="M300.566 127.9L331.166 113.8" stroke="#85B0DF" stroke-width="1.3" stroke-miterlimit="10" stroke-linecap="round" stroke-linejoin="round"/>
<path d="M292.416 100.049L9.50586 80.7194L110.426 46.1094L381.746 61.7594L292.416 100.049Z" fill="#092B69" stroke="#092B69" stroke-width="6" stroke-miterlimit="10" stroke-linecap="round" stroke-linejoin="round"/>
<path d="M292.416 100.049L9.50598 80.7295C9.50598 80.7295 3.37598 88.1395 3.37598 105.01C3.37598 121.88 9.50598 133.43 9.50598 133.43L292.416 152.75L378.056 110.5" stroke="#092B69" stroke-width="6" stroke-miterlimit="10" stroke-linecap="round" stroke-linejoin="round"/>
<path d="M101.966 119.909C85.5455 125.029 77.1455 145.849 77.1455 145.849L106.766 148.959C106.766 148.959 114.346 126.729 132.796 122.009C122.836 121.329 101.966 119.909 101.966 119.909Z" fill="#2171C5"/>
<path d="M84.5361 118.72L269.966 131.34" stroke="#85B0DF" stroke-width="1.3" stroke-miterlimit="10" stroke-linecap="round" stroke-linejoin="round"/>
<path d="M172.006 115.689L157.846 131.619H221.456L233.316 119.859L172.006 115.689Z" fill="#050F3A" stroke="#050F3A" stroke-width="1.3" stroke-miterlimit="10" stroke-linecap="round" stroke-linejoin="round"/>
<path d="M132.786 113.02L280.106 123.05" stroke="#85B0DF" stroke-width="1.3" stroke-miterlimit="10" stroke-linecap="round" stroke-linejoin="round"/>
<path d="M395.126 26.79H40.3862C40.3862 26.79 30.0762 34.12 30.0762 51.42C30.0762 68.73 40.3862 76.05 40.3862 76.05H395.126C395.126 76.05 391.586 67.71 391.586 51.42C391.586 35.13 395.126 26.79 395.126 26.79Z" fill="#C7E3F9"/>
<path d="M396.896 73.5496H41.3062C39.2562 71.7796 32.5762 64.9796 32.5762 51.4196C32.5762 37.8396 39.2662 31.0396 41.3062 29.2896H396.896C398.276 29.2896 399.396 28.1696 399.396 26.7896C399.396 25.9296 398.956 25.1696 398.296 24.7196L355.266 0.639648H82.0862C82.0862 0.639648 39.0062 24.7396 38.9962 24.7496C38.5262 25.0796 27.5762 33.0296 27.5762 51.4196C27.5762 69.8096 38.5262 77.7596 38.9962 78.0896C39.4162 78.3896 39.9262 78.5496 40.4362 78.5496H396.896C398.276 78.5496 399.396 77.4296 399.396 76.0496C399.396 74.6696 398.276 73.5496 396.896 73.5496Z" fill="#2171C5"/>
<path d="M137.446 45.9893H349.656" stroke="#85B0DF" stroke-width="1.3" stroke-miterlimit="10" stroke-linecap="round" stroke-linejoin="round"/>
<path d="M257.826 51.4199H391.646" stroke="#85B0DF" stroke-width="1.3" stroke-miterlimit="10" stroke-linecap="round" stroke-linejoin="round"/>
<path d="M336.646 60.8896H194.536" stroke="#85B0DF" stroke-width="1.3" stroke-miterlimit="10" stroke-linecap="round" stroke-linejoin="round"/>
<path d="M254.606 33.2295C246.586 33.2295 46.056 33.2295 46.056 33.2295C46.056 33.2295 38.916 38.6395 38.916 51.4195C38.916 64.1995 46.056 69.6095 46.056 69.6095C46.056 69.6095 61.586 36.4495 111.806 36.4495C119.076 36.4495 246.016 34.8695 254.606 34.8695C263.196 34.8695 262.626 33.2295 254.606 33.2295Z" fill="#050F3A" stroke="#050F3A" stroke-width="1.3" stroke-miterlimit="10" stroke-linecap="round" stroke-linejoin="round"/>
<path d="M322.366 33.2295H399.396" stroke="#050F3A" stroke-width="3" stroke-miterlimit="10" stroke-linecap="round" stroke-linejoin="round"/>
<path d="M399.267 69.6094H46.0566" stroke="#050F3A" stroke-width="1.3" stroke-miterlimit="10" stroke-linecap="round" stroke-linejoin="round"/>
<path d="M41.3062 73.55C39.2562 71.78 32.5762 64.98 32.5762 51.42C32.5762 37.84 39.2662 31.04 41.3062 29.29" stroke="#050F3A" stroke-width="3" stroke-miterlimit="10" stroke-linecap="round" stroke-linejoin="round"/>
<path d="M331.466 51.4199C342.836 58.4899 342.076 100.05 344.606 100.05C347.136 100.05 348.396 84.39 351.426 84.39C354.456 84.39 354.206 97.2699 356.606 97.2699C359.006 97.2699 360.496 84.4799 358.496 73.0199C356.976 64.2999 354.956 51.4199 346.876 51.4199C338.796 51.4199 331.466 51.4199 331.466 51.4199Z" fill="#050F3A"/>
</svg>
