<svg width="749" height="799" viewBox="0 0 749 799" fill="none" xmlns="http://www.w3.org/2000/svg">
<g filter="url(#filter0_f_1012_32838)">
<path d="M201.02 736.84H93.6376C93.1792 736.84 92.7396 736.656 92.4154 736.329C92.0913 736.003 91.9092 735.559 91.9092 735.097V593.662C91.9092 593.2 92.0913 592.757 92.4154 592.43C92.7396 592.103 93.1792 591.92 93.6376 591.92H201.02C201.479 591.92 201.918 592.103 202.243 592.43C202.567 592.757 202.749 593.2 202.749 593.662V735.097C202.749 735.559 202.567 736.003 202.243 736.329C201.918 736.656 201.479 736.84 201.02 736.84ZM95.3661 733.355H199.292V595.405H95.3661V733.355Z" fill="#C7E3F9" fill-opacity="0.6"/>
<path d="M655.114 736.84H547.73C547.272 736.84 546.832 736.656 546.508 736.329C546.184 736.003 546.002 735.559 546.002 735.097V593.662C546.002 593.2 546.184 592.757 546.508 592.43C546.832 592.103 547.272 591.92 547.73 591.92H655.114C655.572 591.92 656.012 592.103 656.336 592.43C656.66 592.757 656.842 593.2 656.842 593.662V735.097C656.842 735.559 656.66 736.003 656.336 736.329C656.012 736.656 655.572 736.84 655.114 736.84ZM549.459 733.355H653.385V595.405H549.459V733.355Z" fill="#C7E3F9" fill-opacity="0.6"/>
<path d="M728.036 711.901H655.113C654.654 711.901 654.215 711.717 653.891 711.391C653.566 711.064 653.384 710.621 653.384 710.159C653.384 709.697 653.566 709.253 653.891 708.927C654.215 708.6 654.654 708.416 655.113 708.416H726.307V293.744H618.851V582.804C618.851 583.266 618.669 583.709 618.345 584.036C618.021 584.363 617.581 584.546 617.123 584.546C616.665 584.546 616.225 584.363 615.901 584.036C615.577 583.709 615.395 583.266 615.395 582.804V292.002C615.395 291.54 615.577 291.097 615.901 290.77C616.225 290.443 616.665 290.26 617.123 290.26H728.036C728.494 290.26 728.934 290.443 729.258 290.77C729.582 291.097 729.764 291.54 729.764 292.002V710.159C729.764 710.387 729.719 710.614 729.633 710.825C729.546 711.037 729.418 711.229 729.258 711.391C729.097 711.552 728.907 711.681 728.697 711.768C728.488 711.856 728.263 711.901 728.036 711.901Z" fill="#C7E3F9" fill-opacity="0.6"/>
<path d="M734.731 293.744H617.159C616.701 293.744 616.261 293.561 615.937 293.234C615.613 292.907 615.431 292.464 615.431 292.002V279.971C615.431 279.509 615.613 279.066 615.937 278.739C616.261 278.412 616.701 278.229 617.159 278.229H734.731C735.189 278.229 735.629 278.412 735.953 278.739C736.277 279.066 736.46 279.509 736.46 279.971V292.002C736.46 292.464 736.277 292.907 735.953 293.234C735.629 293.561 735.189 293.744 734.731 293.744ZM618.888 290.26H733.003V281.713H618.888V290.26Z" fill="#C7E3F9" fill-opacity="0.6"/>
<path d="M728.035 281.713C727.627 281.713 727.232 281.568 726.921 281.302L669.473 232.414H615.974C615.515 232.414 615.076 232.231 614.751 231.904C614.427 231.577 614.245 231.134 614.245 230.672C614.245 230.21 614.427 229.767 614.751 229.44C615.076 229.113 615.515 228.93 615.974 228.93H670.105C670.514 228.93 670.908 229.075 671.22 229.341L729.151 278.639C729.422 278.87 729.616 279.178 729.707 279.524C729.798 279.869 729.782 280.234 729.66 280.57C729.538 280.905 729.317 281.195 729.026 281.399C728.736 281.604 728.39 281.714 728.035 281.713Z" fill="#C7E3F9" fill-opacity="0.6"/>
<path d="M669.303 329.414H645.05V429.772H669.303V329.414Z" fill="#C7E3F9" fill-opacity="0.6"/>
<path d="M669.303 431.518H645.047C644.588 431.518 644.149 431.334 643.825 431.008C643.5 430.681 643.318 430.238 643.318 429.776V329.418C643.318 328.956 643.5 328.513 643.825 328.186C644.149 327.859 644.588 327.676 645.047 327.676H669.303C669.761 327.676 670.201 327.859 670.525 328.186C670.849 328.513 671.031 328.956 671.031 329.418V429.776C671.031 430.238 670.849 430.681 670.525 431.008C670.201 431.334 669.761 431.518 669.303 431.518ZM646.775 428.033H667.574V331.16H646.775V428.033Z" fill="#C7E3F9" fill-opacity="0.6"/>
<path d="M703.802 329.414H679.549V429.772H703.802V329.414Z" fill="#C7E3F9" fill-opacity="0.6"/>
<path d="M703.802 431.518H679.546C679.087 431.518 678.648 431.334 678.324 431.008C677.999 430.681 677.817 430.238 677.817 429.776V329.418C677.817 328.956 677.999 328.513 678.324 328.186C678.648 327.859 679.087 327.676 679.546 327.676H703.802C704.26 327.676 704.7 327.859 705.024 328.186C705.348 328.513 705.53 328.956 705.53 329.418V429.776C705.53 430.238 705.348 430.681 705.024 431.008C704.7 431.334 704.26 431.518 703.802 431.518ZM681.274 428.033H702.073V331.16H681.274V428.033Z" fill="#C7E3F9" fill-opacity="0.6"/>
<path d="M669.303 458.822H645.05V559.18H669.303V458.822Z" fill="#C7E3F9" fill-opacity="0.6"/>
<path d="M669.303 560.922H645.047C644.588 560.922 644.149 560.739 643.825 560.412C643.5 560.085 643.318 559.642 643.318 559.18V458.822C643.318 458.36 643.5 457.917 643.825 457.59C644.149 457.264 644.588 457.08 645.047 457.08H669.303C669.761 457.08 670.201 457.264 670.525 457.59C670.849 457.917 671.031 458.36 671.031 458.822V559.18C671.031 559.642 670.849 560.085 670.525 560.412C670.201 560.739 669.761 560.922 669.303 560.922ZM646.775 557.438H667.574V460.565H646.775V557.438Z" fill="#C7E3F9" fill-opacity="0.6"/>
<path d="M703.802 458.822H679.549V559.18H703.802V458.822Z" fill="#C7E3F9" fill-opacity="0.6"/>
<path d="M703.802 560.922H679.546C679.087 560.922 678.648 560.739 678.324 560.412C677.999 560.085 677.817 559.642 677.817 559.18V458.822C677.817 458.36 677.999 457.917 678.324 457.59C678.648 457.264 679.087 457.08 679.546 457.08H703.802C704.26 457.08 704.7 457.264 705.024 457.59C705.348 457.917 705.53 458.36 705.53 458.822V559.18C705.53 559.642 705.348 560.085 705.024 560.412C704.7 560.739 704.26 560.922 703.802 560.922ZM681.274 557.438H702.073V460.565H681.274V557.438Z" fill="#C7E3F9" fill-opacity="0.6"/>
<path d="M93.6377 711.901H20.4238C19.9654 711.901 19.5257 711.717 19.2016 711.391C18.8774 711.064 18.6953 710.621 18.6953 710.159V292.002C18.6953 291.54 18.8774 291.097 19.2016 290.77C19.5257 290.443 19.9654 290.26 20.4238 290.26H131.337C131.795 290.26 132.235 290.443 132.559 290.77C132.883 291.097 133.065 291.54 133.065 292.002V582.804C133.065 583.266 132.883 583.709 132.559 584.036C132.235 584.363 131.795 584.546 131.337 584.546C130.878 584.546 130.438 584.363 130.114 584.036C129.79 583.709 129.608 583.266 129.608 582.804V293.744H22.1522V708.416H93.6377C94.0962 708.416 94.5358 708.6 94.86 708.927C95.1841 709.253 95.3662 709.697 95.3662 710.159C95.3662 710.621 95.1841 711.064 94.86 711.391C94.5358 711.717 94.0962 711.901 93.6377 711.901Z" fill="#C7E3F9" fill-opacity="0.6"/>
<path d="M131.337 293.744H13.7285C13.27 293.744 12.8304 293.561 12.5063 293.234C12.1821 292.907 12 292.464 12 292.002V279.971C12 279.509 12.1821 279.066 12.5063 278.739C12.8304 278.412 13.27 278.229 13.7285 278.229H131.337C131.795 278.229 132.235 278.412 132.559 278.739C132.883 279.066 133.065 279.509 133.065 279.971V292.002C133.065 292.464 132.883 292.907 132.559 293.234C132.235 293.561 131.795 293.744 131.337 293.744ZM15.4569 290.26H129.608V281.713H15.4569V290.26Z" fill="#C7E3F9" fill-opacity="0.6"/>
<path d="M134.138 281.713H20.4237C20.0693 281.713 19.7234 281.604 19.4329 281.399C19.1424 281.195 18.9213 280.905 18.7995 280.569C18.6778 280.234 18.6613 279.869 18.7523 279.524C18.8433 279.178 19.0374 278.87 19.3082 278.639L77.2409 229.341C77.5529 229.075 77.9481 228.93 78.3564 228.93H132.747C133.206 228.93 133.646 229.113 133.97 229.44C134.294 229.767 134.476 230.21 134.476 230.672C134.476 231.134 134.294 231.577 133.97 231.904C133.646 232.231 133.206 232.414 132.747 232.414H78.9861L25.1504 278.229H134.138C134.596 278.229 135.036 278.412 135.36 278.739C135.684 279.066 135.866 279.509 135.866 279.971C135.866 280.433 135.684 280.876 135.36 281.203C135.036 281.53 134.596 281.713 134.138 281.713Z" fill="#C7E3F9" fill-opacity="0.6"/>
<path d="M81.992 429.771H106.245L106.245 329.414H81.992L81.992 429.771Z" fill="#C7E3F9" fill-opacity="0.6"/>
<path d="M106.245 431.518H81.9921C81.5337 431.518 81.0941 431.334 80.7699 431.008C80.4458 430.681 80.2637 430.238 80.2637 429.776V329.418C80.2637 328.956 80.4458 328.513 80.7699 328.186C81.0941 327.859 81.5337 327.676 81.9921 327.676H106.248C106.707 327.676 107.146 327.859 107.47 328.186C107.795 328.513 107.977 328.956 107.977 329.418V429.776C107.977 430.005 107.932 430.232 107.845 430.443C107.758 430.655 107.63 430.847 107.469 431.009C107.309 431.171 107.118 431.299 106.908 431.386C106.698 431.474 106.472 431.518 106.245 431.518ZM83.7206 428.033H104.52V331.16H83.7206V428.033Z" fill="#C7E3F9" fill-opacity="0.6"/>
<path d="M47.4969 429.771H71.75L71.75 329.414H47.4969L47.4969 429.771Z" fill="#C7E3F9" fill-opacity="0.6"/>
<path d="M71.7502 431.518H47.497C47.0386 431.518 46.599 431.334 46.2748 431.008C45.9507 430.681 45.7686 430.238 45.7686 429.776V329.418C45.7686 328.956 45.9507 328.513 46.2748 328.186C46.599 327.859 47.0386 327.676 47.497 327.676H71.753C72.2114 327.676 72.6511 327.859 72.9752 328.186C73.2994 328.513 73.4815 328.956 73.4815 329.418V429.776C73.4815 430.005 73.4367 430.232 73.3496 430.443C73.2626 430.655 73.135 430.847 72.9742 431.009C72.8134 431.171 72.6225 431.299 72.4125 431.386C72.2024 431.474 71.9774 431.518 71.7502 431.518ZM49.2255 428.033H70.0246V331.16H49.2255V428.033Z" fill="#C7E3F9" fill-opacity="0.6"/>
<path d="M81.992 559.18H106.245L106.245 458.822H81.992L81.992 559.18Z" fill="#C7E3F9" fill-opacity="0.6"/>
<path d="M106.245 560.922H81.9921C81.5337 560.922 81.0941 560.739 80.7699 560.412C80.4458 560.085 80.2637 559.642 80.2637 559.18V458.822C80.2637 458.36 80.4458 457.917 80.7699 457.59C81.0941 457.264 81.5337 457.08 81.9921 457.08H106.248C106.707 457.08 107.146 457.264 107.47 457.59C107.795 457.917 107.977 458.36 107.977 458.822V559.18C107.977 559.409 107.932 559.636 107.845 559.847C107.758 560.059 107.63 560.251 107.469 560.413C107.309 560.575 107.118 560.703 106.908 560.79C106.698 560.878 106.472 560.923 106.245 560.922ZM83.7206 557.438H104.52V460.565H83.7206V557.438Z" fill="#C7E3F9" fill-opacity="0.6"/>
<path d="M47.4969 559.18H71.75L71.75 458.822H47.4969L47.4969 559.18Z" fill="#C7E3F9" fill-opacity="0.6"/>
<path d="M71.7502 560.922H47.497C47.0386 560.922 46.599 560.739 46.2748 560.412C45.9507 560.085 45.7686 559.642 45.7686 559.18V458.822C45.7686 458.36 45.9507 457.917 46.2748 457.59C46.599 457.264 47.0386 457.08 47.497 457.08H71.753C72.2114 457.08 72.6511 457.264 72.9752 457.59C73.2994 457.917 73.4815 458.36 73.4815 458.822V559.18C73.4815 559.409 73.4367 559.636 73.3496 559.847C73.2626 560.059 73.135 560.251 72.9742 560.413C72.8134 560.575 72.6225 560.703 72.4125 560.79C72.2024 560.878 71.9774 560.923 71.7502 560.922ZM49.2255 557.438H70.0246V460.565H49.2255V557.438Z" fill="#C7E3F9" fill-opacity="0.6"/>
<path d="M547.731 736.84H201.021C200.744 736.84 200.471 736.772 200.224 736.643C199.978 736.514 199.766 736.328 199.607 736.099C199.448 735.87 199.345 735.606 199.308 735.328C199.271 735.051 199.301 734.769 199.396 734.506L250.012 593.071C250.132 592.734 250.353 592.442 250.644 592.236C250.935 592.03 251.282 591.92 251.638 591.92H497.115C497.47 591.92 497.817 592.03 498.108 592.236C498.399 592.442 498.62 592.734 498.741 593.071L549.357 734.507C549.452 734.77 549.481 735.052 549.445 735.329C549.408 735.606 549.305 735.871 549.146 736.099C548.986 736.328 548.774 736.515 548.528 736.644C548.282 736.773 548.008 736.84 547.731 736.84ZM203.48 733.355H545.27L495.9 595.405H252.853L203.48 733.355Z" fill="#C7E3F9" fill-opacity="0.6"/>
<path d="M658.098 595.404H545.438C544.98 595.404 544.54 595.22 544.216 594.894C543.892 594.567 543.71 594.124 543.71 593.662V582.729C543.71 582.267 543.892 581.823 544.216 581.497C544.54 581.17 544.98 580.986 545.438 580.986H658.098C658.556 580.986 658.996 581.17 659.32 581.497C659.644 581.823 659.826 582.267 659.826 582.729V593.662C659.826 594.124 659.644 594.567 659.32 594.894C658.996 595.22 658.556 595.404 658.098 595.404ZM547.167 591.919H656.369V584.471H547.167V591.919Z" fill="#C7E3F9" fill-opacity="0.6"/>
<path d="M545.437 582.73H497.113V593.664H545.437V582.73Z" fill="#C7E3F9" fill-opacity="0.6"/>
<path d="M545.437 595.406H497.113C496.655 595.406 496.215 595.222 495.891 594.896C495.567 594.569 495.385 594.126 495.385 593.664V582.731C495.385 582.269 495.567 581.825 495.891 581.499C496.215 581.172 496.655 580.988 497.113 580.988H545.437C545.896 580.988 546.335 581.172 546.66 581.499C546.984 581.825 547.166 582.269 547.166 582.731V593.664C547.166 594.126 546.984 594.569 546.66 594.896C546.335 595.222 545.896 595.406 545.437 595.406ZM498.842 591.921H543.709V584.473H498.842V591.921Z" fill="#C7E3F9" fill-opacity="0.6"/>
<path d="M251.418 595.479H90.4345C89.9761 595.479 89.5365 595.295 89.2123 594.969C88.8882 594.642 88.7061 594.199 88.7061 593.736V582.803C88.7061 582.341 88.8882 581.898 89.2123 581.571C89.5365 581.244 89.9761 581.061 90.4345 581.061H251.418C251.876 581.061 252.316 581.244 252.64 581.571C252.964 581.898 253.146 582.341 253.146 582.803V593.736C253.146 594.199 252.964 594.642 252.64 594.969C252.316 595.295 251.876 595.479 251.418 595.479ZM92.163 591.994H249.689V584.545H92.163V591.994Z" fill="#C7E3F9" fill-opacity="0.6"/>
<path d="M202.512 595.479H90.4345C89.9761 595.479 89.5365 595.295 89.2123 594.969C88.8882 594.642 88.7061 594.199 88.7061 593.736V582.803C88.7061 582.341 88.8882 581.898 89.2123 581.571C89.5365 581.244 89.9761 581.061 90.4345 581.061H202.512C202.97 581.061 203.41 581.244 203.734 581.571C204.058 581.898 204.24 582.341 204.24 582.803V593.736C204.24 594.199 204.058 594.642 203.734 594.969C203.41 595.295 202.97 595.479 202.512 595.479ZM92.163 591.994H200.783V584.545H92.163V591.994Z" fill="#C7E3F9" fill-opacity="0.6"/>
<path d="M497.114 582.801H251.418V593.734H497.114V582.801Z" fill="#C7E3F9" fill-opacity="0.6"/>
<path d="M497.113 595.477H251.418C250.959 595.477 250.52 595.293 250.196 594.967C249.872 594.64 249.689 594.197 249.689 593.735V582.801C249.689 582.339 249.872 581.896 250.196 581.569C250.52 581.242 250.959 581.059 251.418 581.059H497.113C497.572 581.059 498.012 581.242 498.336 581.569C498.66 581.896 498.842 582.339 498.842 582.801V593.735C498.842 594.197 498.66 594.64 498.336 594.967C498.012 595.293 497.572 595.477 497.113 595.477ZM253.146 591.992H495.385V584.543H253.146V591.992Z" fill="#C7E3F9" fill-opacity="0.6"/>
<path d="M497.114 593.737L547.73 735.099V593.664L497.114 593.737Z" fill="#C7E3F9" fill-opacity="0.6"/>
<path d="M548.019 736.759L496.704 593.448L548.019 593.373V736.759ZM497.525 594.028L547.442 733.439V593.955L497.525 594.028Z" fill="#C7E3F9" fill-opacity="0.6"/>
<path d="M542.818 711.901H210.299C209.84 711.901 209.401 711.717 209.077 711.39C208.752 711.064 208.57 710.62 208.57 710.158C208.57 709.696 208.752 709.253 209.077 708.926C209.401 708.6 209.84 708.416 210.299 708.416H542.818C543.277 708.416 543.716 708.6 544.04 708.926C544.365 709.253 544.547 709.696 544.547 710.158C544.547 710.62 544.365 711.064 544.04 711.39C543.716 711.717 543.277 711.901 542.818 711.901Z" fill="#C7E3F9" fill-opacity="0.6"/>
<path d="M542.818 690.477H217.612C217.154 690.477 216.714 690.293 216.39 689.967C216.066 689.64 215.884 689.197 215.884 688.735C215.884 688.272 216.066 687.829 216.39 687.502C216.714 687.176 217.154 686.992 217.612 686.992H542.818C543.276 686.992 543.716 687.176 544.04 687.502C544.364 687.829 544.546 688.272 544.546 688.735C544.546 689.197 544.364 689.64 544.04 689.967C543.716 690.293 543.276 690.477 542.818 690.477Z" fill="#C7E3F9" fill-opacity="0.6"/>
<path d="M542.819 669.053H225.279C224.821 669.053 224.381 668.869 224.057 668.543C223.733 668.216 223.551 667.773 223.551 667.311C223.551 666.849 223.733 666.405 224.057 666.079C224.381 665.752 224.821 665.568 225.279 665.568H542.819C543.277 665.568 543.717 665.752 544.041 666.079C544.365 666.405 544.547 666.849 544.547 667.311C544.547 667.773 544.365 668.216 544.041 668.543C543.717 668.869 543.277 669.053 542.819 669.053Z" fill="#C7E3F9" fill-opacity="0.6"/>
<path d="M542.818 650.377H231.963C231.504 650.377 231.065 650.194 230.741 649.867C230.416 649.54 230.234 649.097 230.234 648.635C230.234 648.173 230.416 647.73 230.741 647.403C231.065 647.076 231.504 646.893 231.963 646.893H542.818C543.276 646.893 543.716 647.076 544.04 647.403C544.364 647.73 544.546 648.173 544.546 648.635C544.546 649.097 544.364 649.54 544.04 649.867C543.716 650.194 543.276 650.377 542.818 650.377Z" fill="#C7E3F9" fill-opacity="0.6"/>
<path d="M542.819 634.444H237.666C237.208 634.444 236.768 634.26 236.444 633.933C236.12 633.607 235.938 633.163 235.938 632.701C235.938 632.239 236.12 631.796 236.444 631.469C236.768 631.143 237.208 630.959 237.666 630.959H542.819C543.277 630.959 543.717 631.143 544.041 631.469C544.365 631.796 544.547 632.239 544.547 632.701C544.547 633.163 544.365 633.607 544.041 633.933C543.717 634.26 543.277 634.444 542.819 634.444Z" fill="#C7E3F9" fill-opacity="0.6"/>
<path d="M542.818 621.256H242.386C241.927 621.256 241.488 621.073 241.163 620.746C240.839 620.419 240.657 619.976 240.657 619.514C240.657 619.052 240.839 618.609 241.163 618.282C241.488 617.955 241.927 617.771 242.386 617.771H542.818C543.276 617.771 543.716 617.955 544.04 618.282C544.364 618.609 544.547 619.052 544.547 619.514C544.547 619.976 544.364 620.419 544.04 620.746C543.716 621.073 543.276 621.256 542.818 621.256Z" fill="#C7E3F9" fill-opacity="0.6"/>
<path d="M542.818 610.809H246.618C246.16 610.809 245.72 610.625 245.396 610.299C245.072 609.972 244.89 609.529 244.89 609.067C244.89 608.604 245.072 608.161 245.396 607.835C245.72 607.508 246.16 607.324 246.618 607.324H542.818C543.276 607.324 543.716 607.508 544.04 607.835C544.364 608.161 544.546 608.604 544.546 609.067C544.546 609.529 544.364 609.972 544.04 610.299C543.716 610.625 543.276 610.809 542.818 610.809Z" fill="#C7E3F9" fill-opacity="0.6"/>
<path d="M542.818 603.106H249.165C248.707 603.106 248.267 602.922 247.943 602.595C247.619 602.269 247.437 601.826 247.437 601.363C247.437 600.901 247.619 600.458 247.943 600.131C248.267 599.805 248.707 599.621 249.165 599.621H542.818C543.277 599.621 543.716 599.805 544.041 600.131C544.365 600.458 544.547 600.901 544.547 601.363C544.547 601.826 544.365 602.269 544.041 602.595C543.716 602.922 543.277 603.106 542.818 603.106Z" fill="#C7E3F9" fill-opacity="0.6"/>
<path d="M542.818 595.405H251.637C251.178 595.405 250.739 595.221 250.414 594.894C250.09 594.568 249.908 594.124 249.908 593.662C249.908 593.2 250.09 592.757 250.414 592.43C250.739 592.103 251.178 591.92 251.637 591.92H542.818C543.277 591.92 543.716 592.103 544.041 592.43C544.365 592.757 544.547 593.2 544.547 593.662C544.547 594.124 544.365 594.568 544.041 594.894C543.716 595.221 543.277 595.405 542.818 595.405Z" fill="#C7E3F9" fill-opacity="0.6"/>
<path d="M542.819 595.405H207.862C207.404 595.405 206.964 595.221 206.64 594.894C206.316 594.568 206.134 594.124 206.134 593.662C206.134 593.2 206.316 592.757 206.64 592.43C206.964 592.103 207.404 591.92 207.862 591.92H542.819C543.278 591.92 543.717 592.103 544.042 592.43C544.366 592.757 544.548 593.2 544.548 593.662C544.548 594.124 544.366 594.568 544.042 594.894C543.717 595.221 543.278 595.405 542.819 595.405Z" fill="#C7E3F9" fill-opacity="0.6"/>
<path d="M617.159 584.546H131.59C131.131 584.546 130.692 584.362 130.368 584.035C130.043 583.709 129.861 583.265 129.861 582.803V269.993C129.861 269.531 130.043 269.088 130.368 268.761C130.692 268.435 131.131 268.251 131.59 268.251H617.159C617.617 268.251 618.057 268.435 618.381 268.761C618.705 269.088 618.887 269.531 618.887 269.993V582.803C618.887 583.265 618.705 583.709 618.381 584.035C618.057 584.362 617.617 584.546 617.159 584.546ZM133.318 581.061H615.43V271.736H133.318V581.061Z" fill="#C7E3F9" fill-opacity="0.6"/>
<path d="M176.112 582.802H151.659L152.969 279.969H174.802L176.112 582.802Z" fill="#C7E3F9" fill-opacity="0.6"/>
<path d="M176.112 584.544H151.659C151.432 584.544 151.206 584.499 150.996 584.411C150.786 584.323 150.595 584.194 150.434 584.031C150.274 583.869 150.147 583.676 150.06 583.464C149.974 583.252 149.93 583.024 149.931 582.795L151.24 279.961C151.242 279.501 151.425 279.059 151.749 278.734C152.073 278.409 152.512 278.227 152.969 278.227H174.802C175.259 278.227 175.698 278.409 176.022 278.734C176.346 279.059 176.528 279.501 176.53 279.961L177.84 582.795C177.841 583.024 177.797 583.252 177.71 583.464C177.624 583.676 177.497 583.869 177.336 584.031C177.176 584.194 176.985 584.323 176.775 584.411C176.565 584.499 176.339 584.544 176.112 584.544ZM153.395 581.06H174.376L173.081 281.711H154.69L153.395 581.06Z" fill="#C7E3F9" fill-opacity="0.6"/>
<path d="M220.088 582.802H195.635L196.944 279.969H218.778L220.088 582.802Z" fill="#C7E3F9" fill-opacity="0.6"/>
<path d="M220.087 584.544H195.634C195.406 584.544 195.181 584.499 194.971 584.411C194.761 584.323 194.57 584.194 194.409 584.031C194.248 583.869 194.121 583.676 194.035 583.464C193.948 583.252 193.904 583.024 193.905 582.795L195.216 279.961C195.218 279.501 195.401 279.059 195.725 278.734C196.049 278.409 196.487 278.227 196.944 278.227H218.777C219.234 278.227 219.673 278.409 219.997 278.734C220.321 279.059 220.504 279.501 220.506 279.961L221.816 582.795C221.817 583.024 221.773 583.252 221.686 583.464C221.6 583.676 221.473 583.869 221.312 584.031C221.151 584.194 220.961 584.323 220.75 584.411C220.54 584.499 220.315 584.544 220.087 584.544ZM197.37 581.06H218.351L217.056 281.711H198.665L197.37 581.06Z" fill="#C7E3F9" fill-opacity="0.6"/>
<path d="M246.179 582.802H239.609L239.961 279.969H245.827L246.179 582.802Z" fill="#C7E3F9" fill-opacity="0.6"/>
<path d="M246.179 584.544H239.611C239.153 584.544 238.713 584.361 238.389 584.034C238.065 583.707 237.883 583.264 237.883 582.802L238.235 279.969C238.235 279.507 238.417 279.064 238.741 278.737C239.065 278.41 239.505 278.227 239.963 278.227H245.829C246.287 278.227 246.727 278.41 247.051 278.737C247.375 279.064 247.557 279.507 247.557 279.969L247.91 582.802C247.91 583.264 247.727 583.707 247.403 584.034C247.079 584.361 246.64 584.544 246.181 584.544H246.179ZM241.34 581.06H244.448L244.102 281.711H241.689L241.34 581.06Z" fill="#C7E3F9" fill-opacity="0.6"/>
<path d="M572.638 582.802H597.091L595.781 279.969H573.947L572.638 582.802Z" fill="#C7E3F9" fill-opacity="0.6"/>
<path d="M597.09 584.544H572.638C572.41 584.544 572.185 584.499 571.975 584.411C571.764 584.323 571.574 584.194 571.413 584.031C571.252 583.869 571.125 583.676 571.039 583.464C570.952 583.252 570.908 583.024 570.909 582.795L572.219 279.961C572.221 279.501 572.404 279.059 572.728 278.734C573.052 278.409 573.49 278.227 573.947 278.227H595.781C596.238 278.227 596.676 278.409 597 278.734C597.324 279.059 597.507 279.501 597.509 279.961L598.819 582.795C598.819 583.024 598.775 583.252 598.689 583.464C598.603 583.676 598.475 583.869 598.315 584.031C598.154 584.194 597.963 584.323 597.753 584.411C597.543 584.499 597.318 584.544 597.09 584.544ZM574.374 581.06H595.355L594.06 281.711H575.67L574.374 581.06Z" fill="#C7E3F9" fill-opacity="0.6"/>
<path d="M528.664 582.802H553.117L551.807 279.969H529.974L528.664 582.802Z" fill="#C7E3F9" fill-opacity="0.6"/>
<path d="M553.117 584.544H528.664C528.436 584.544 528.211 584.499 528.001 584.411C527.791 584.323 527.6 584.194 527.439 584.031C527.279 583.869 527.152 583.676 527.065 583.464C526.979 583.252 526.935 583.024 526.936 582.795L528.245 279.961C528.247 279.501 528.43 279.059 528.754 278.734C529.078 278.409 529.516 278.227 529.974 278.227H551.81C552.267 278.227 552.705 278.409 553.029 278.734C553.353 279.059 553.536 279.501 553.538 279.961L554.848 582.795C554.849 583.024 554.805 583.252 554.718 583.464C554.632 583.676 554.505 583.869 554.344 584.031C554.183 584.194 553.993 584.323 553.782 584.411C553.572 584.499 553.347 584.544 553.119 584.544H553.117ZM530.399 581.06H551.381L550.086 281.711H531.695L530.399 581.06Z" fill="#C7E3F9" fill-opacity="0.6"/>
<path d="M502.572 582.802H509.142L508.79 279.969H502.924L502.572 582.802Z" fill="#C7E3F9" fill-opacity="0.6"/>
<path d="M509.141 584.544H502.573C502.115 584.544 501.675 584.361 501.351 584.034C501.027 583.707 500.845 583.264 500.845 582.802L501.197 279.969C501.197 279.507 501.379 279.064 501.703 278.737C502.027 278.41 502.467 278.227 502.925 278.227H508.79C509.249 278.227 509.688 278.41 510.013 278.737C510.337 279.064 510.519 279.507 510.519 279.969L510.871 582.802C510.871 583.264 510.689 583.707 510.365 584.034C510.041 584.361 509.601 584.544 509.142 584.544H509.141ZM504.302 581.06H507.409L507.064 281.711H504.651L504.302 581.06Z" fill="#C7E3F9" fill-opacity="0.6"/>
<path d="M620.074 253.732H128.657C128.258 253.732 127.872 253.593 127.563 253.339C127.254 253.085 127.042 252.731 126.963 252.338C126.883 251.944 126.941 251.535 127.126 251.179C127.312 250.823 127.613 250.543 127.98 250.386L373.594 145.119C373.808 145.028 374.038 144.98 374.27 144.98C374.502 144.98 374.732 145.028 374.946 145.119L620.751 250.387C621.117 250.544 621.419 250.824 621.604 251.179C621.79 251.535 621.848 251.944 621.768 252.338C621.689 252.731 621.477 253.085 621.168 253.339C620.86 253.594 620.473 253.732 620.075 253.733L620.074 253.732ZM137.139 250.247H611.585L374.268 148.616L137.139 250.247Z" fill="#C7E3F9" fill-opacity="0.6"/>
<path d="M654.858 271.733H93.8915C93.4331 271.733 92.9935 271.55 92.6693 271.223C92.3452 270.896 92.1631 270.453 92.1631 269.991V247.322C92.1632 246.98 92.2629 246.646 92.45 246.361C92.6371 246.076 92.9032 245.853 93.2151 245.719L373.589 125.554C373.803 125.462 374.033 125.415 374.266 125.415C374.498 125.415 374.728 125.462 374.942 125.554L655.534 245.719C655.846 245.852 656.113 246.076 656.3 246.361C656.487 246.646 656.587 246.98 656.587 247.322V269.991C656.587 270.453 656.405 270.896 656.081 271.223C655.756 271.55 655.317 271.733 654.858 271.733ZM95.62 268.249H653.13V248.475L374.266 129.05L95.62 248.475V268.249Z" fill="#C7E3F9" fill-opacity="0.6"/>
<path d="M374.316 173.059L497.113 228.908H251.614L374.316 173.059Z" fill="#C7E3F9" fill-opacity="0.6"/>
<path d="M497.113 230.651H251.615C251.219 230.651 250.836 230.514 250.529 230.264C250.222 230.013 250.009 229.664 249.925 229.275C249.842 228.886 249.894 228.479 250.072 228.124C250.25 227.768 250.544 227.484 250.904 227.321L373.606 171.47C373.829 171.369 374.071 171.316 374.316 171.316C374.561 171.316 374.804 171.369 375.027 171.47L497.824 227.321C498.184 227.484 498.478 227.768 498.656 228.123C498.834 228.479 498.885 228.885 498.802 229.275C498.719 229.664 498.506 230.013 498.199 230.263C497.892 230.514 497.508 230.65 497.113 230.651ZM259.642 227.166H489.079L374.317 174.97L259.642 227.166Z" fill="#C7E3F9" fill-opacity="0.6"/>
<path d="M617.16 292.002L645.052 279.97V269.993H617.16V292.002Z" fill="#C7E3F9" fill-opacity="0.6"/>
<path d="M617.16 293.744C616.702 293.744 616.262 293.56 615.938 293.234C615.614 292.907 615.432 292.464 615.432 292.002V269.993C615.432 269.531 615.614 269.088 615.938 268.761C616.262 268.435 616.702 268.251 617.16 268.251H645.052C645.51 268.251 645.95 268.435 646.274 268.761C646.598 269.088 646.78 269.531 646.78 269.993V279.97C646.78 280.311 646.681 280.645 646.495 280.93C646.308 281.215 646.043 281.438 645.732 281.572L617.841 293.603C617.625 293.696 617.394 293.744 617.16 293.744ZM618.889 271.736V289.361L643.323 278.82V271.735L618.889 271.736Z" fill="#C7E3F9" fill-opacity="0.6"/>
<path d="M131.59 292.002L89.8525 294.202L103.699 279.97V269.993H131.59V292.002Z" fill="#C7E3F9" fill-opacity="0.6"/>
<path d="M89.8526 295.945C89.5123 295.944 89.1796 295.843 88.8963 295.653C88.6129 295.463 88.3915 295.193 88.2597 294.877C88.128 294.56 88.0918 294.212 88.1558 293.875C88.2197 293.538 88.3809 293.228 88.6191 292.983L101.97 279.258V269.993C101.97 269.531 102.152 269.088 102.477 268.761C102.801 268.435 103.24 268.251 103.699 268.251H131.59C132.049 268.251 132.488 268.435 132.812 268.761C133.137 269.088 133.319 269.531 133.319 269.993V292.002C133.319 292.448 133.15 292.878 132.845 293.203C132.54 293.527 132.123 293.721 131.68 293.744L89.9431 295.945C89.916 295.944 89.8826 295.945 89.8526 295.945ZM105.427 271.736V279.97C105.427 280.427 105.249 280.864 104.932 281.19L94.1939 292.229L129.862 290.348V271.736H105.427Z" fill="#C7E3F9" fill-opacity="0.6"/>
<path d="M618.74 314.223L697.033 292H618.434L618.74 314.223Z" fill="#C7E3F9" fill-opacity="0.6"/>
<path d="M618.739 315.965C618.285 315.965 617.849 315.785 617.525 315.463C617.202 315.142 617.017 314.705 617.011 314.247L616.705 292.024C616.702 291.793 616.744 291.564 616.83 291.35C616.915 291.136 617.042 290.941 617.203 290.777C617.364 290.612 617.555 290.482 617.767 290.393C617.978 290.304 618.205 290.258 618.434 290.258H697.033C697.45 290.258 697.853 290.41 698.168 290.687C698.482 290.963 698.687 291.345 698.744 291.761C698.801 292.178 698.707 292.602 698.479 292.954C698.25 293.306 697.903 293.562 697.502 293.677L619.208 315.9C619.055 315.943 618.898 315.965 618.739 315.965ZM620.186 293.742L620.436 311.931L684.517 293.742H620.186Z" fill="#C7E3F9" fill-opacity="0.6"/>
<path d="M246.179 279.969L246.759 322.111L395.235 279.969H246.179Z" fill="#C7E3F9" fill-opacity="0.6"/>
<path d="M246.759 323.853C246.305 323.853 245.869 323.673 245.545 323.352C245.222 323.03 245.037 322.593 245.031 322.135L244.45 279.993C244.447 279.762 244.49 279.533 244.575 279.319C244.661 279.104 244.787 278.91 244.948 278.745C245.109 278.581 245.301 278.45 245.512 278.361C245.723 278.272 245.95 278.227 246.179 278.227H395.234C395.651 278.227 396.054 278.379 396.369 278.656C396.683 278.932 396.888 279.314 396.945 279.731C397.002 280.147 396.908 280.57 396.679 280.922C396.451 281.274 396.104 281.531 395.702 281.646L247.228 323.789C247.075 323.832 246.918 323.853 246.759 323.853ZM247.931 281.711L248.456 319.819L382.717 281.711H247.931Z" fill="#C7E3F9" fill-opacity="0.6"/>
<path d="M270.632 279.969L306.16 269.885H103.699V279.969H270.632Z" fill="#C7E3F9" fill-opacity="0.6"/>
<path d="M270.631 281.712H103.699C103.241 281.712 102.801 281.528 102.477 281.201C102.153 280.875 101.971 280.432 101.971 279.969V269.885C101.971 269.423 102.153 268.98 102.477 268.653C102.801 268.326 103.241 268.143 103.699 268.143H306.159C306.577 268.142 306.98 268.294 307.295 268.571C307.61 268.847 307.815 269.229 307.872 269.646C307.93 270.063 307.835 270.487 307.606 270.839C307.378 271.191 307.03 271.448 306.628 271.562L271.1 281.646C270.947 281.69 270.79 281.712 270.631 281.712ZM105.428 278.227H270.393L293.644 271.627H105.428V278.227Z" fill="#C7E3F9" fill-opacity="0.6"/>
<path d="M20.4238 292L20.8565 375.719L131.591 344.288L131.336 292H20.4238Z" fill="#C7E3F9" fill-opacity="0.6"/>
<path d="M20.8565 377.461C20.3997 377.461 19.9614 377.279 19.6375 376.954C19.3136 376.63 19.1305 376.189 19.128 375.728L18.6953 292.009C18.6942 291.779 18.7381 291.552 18.8244 291.339C18.9108 291.127 19.0379 290.934 19.1985 290.771C19.3591 290.609 19.5501 290.479 19.7603 290.391C19.9706 290.303 20.1961 290.258 20.4238 290.258H131.337C131.794 290.258 132.232 290.44 132.556 290.765C132.88 291.09 133.063 291.531 133.065 291.991L133.319 344.28C133.321 344.661 133.198 345.032 132.971 345.336C132.743 345.641 132.423 345.861 132.059 345.964L21.3226 377.395C21.1709 377.439 21.0141 377.461 20.8565 377.461ZM22.1609 293.742L22.5728 373.424L129.856 342.974L129.616 293.745L22.1609 293.742Z" fill="#C7E3F9" fill-opacity="0.6"/>
<path d="M90.4352 593.735L45.75 710.157H93.6375V593.662L90.4352 593.735Z" fill="#C7E3F9" fill-opacity="0.6"/>
<path d="M93.6375 711.9H45.7501C45.4692 711.9 45.1925 711.832 44.944 711.7C44.6954 711.568 44.4825 711.377 44.3236 711.143C44.1647 710.91 44.0647 710.641 44.0321 710.36C43.9996 710.079 44.0355 709.794 44.1368 709.53L88.8215 593.108C88.9449 592.787 89.1603 592.509 89.4403 592.311C89.7203 592.113 90.0523 592.003 90.3944 591.995L93.5972 591.921C93.8279 591.912 94.0579 591.951 94.2727 592.036C94.4875 592.122 94.6822 592.251 94.8446 592.417C95.009 592.579 95.1396 592.773 95.2286 592.987C95.3177 593.201 95.3634 593.431 95.3631 593.663V710.158C95.3631 710.62 95.1814 711.062 94.8579 711.389C94.5344 711.716 94.0955 711.899 93.6375 711.9ZM48.2719 708.416H91.9091V595.445L91.6302 595.452L48.2719 708.416Z" fill="#C7E3F9" fill-opacity="0.6"/>
<path d="M93.6387 582.802L106.247 429.772V329.414H131.592V582.802H93.6387Z" fill="#C7E3F9" fill-opacity="0.6"/>
<path d="M131.591 584.545H93.6382C93.3992 584.545 93.1628 584.495 92.944 584.398C92.7251 584.301 92.5286 584.16 92.3668 583.982C92.2049 583.805 92.0813 583.596 92.0037 583.368C91.9262 583.14 91.8963 582.899 91.9161 582.658L104.518 429.7V329.414C104.518 328.952 104.7 328.509 105.025 328.182C105.349 327.855 105.788 327.672 106.247 327.672H131.591C132.049 327.672 132.489 327.855 132.813 328.182C133.137 328.509 133.32 328.952 133.32 329.414V582.805C133.319 583.267 133.136 583.709 132.812 584.036C132.488 584.362 132.049 584.545 131.591 584.545ZM95.5165 581.06H129.863V331.154H107.975V429.775C107.975 429.823 107.975 429.871 107.969 429.919L95.5165 581.06Z" fill="#C7E3F9" fill-opacity="0.6"/>
<path d="M447.299 584.473H301.453C300.995 584.473 300.555 584.289 300.231 583.962C299.907 583.636 299.725 583.192 299.725 582.73V375.721C299.725 375.259 299.907 374.816 300.231 374.489C300.555 374.162 300.995 373.979 301.453 373.979H447.299C447.757 373.979 448.197 374.162 448.521 374.489C448.845 374.816 449.027 375.259 449.027 375.721V582.73C449.027 582.959 448.982 583.186 448.895 583.397C448.809 583.609 448.681 583.801 448.521 583.962C448.36 584.124 448.17 584.253 447.96 584.34C447.75 584.428 447.526 584.473 447.299 584.473ZM303.182 580.988H445.57V377.463H303.182V580.988Z" fill="#C7E3F9" fill-opacity="0.6"/>
<path d="M370.518 390.156H315.243V582.728H370.518V390.156Z" fill="#C7E3F9" fill-opacity="0.6"/>
<path d="M370.517 584.471H315.243C314.785 584.471 314.345 584.287 314.021 583.96C313.697 583.634 313.515 583.191 313.515 582.728V390.156C313.515 389.694 313.697 389.251 314.021 388.924C314.345 388.598 314.785 388.414 315.243 388.414H370.517C370.976 388.414 371.416 388.598 371.74 388.924C372.064 389.251 372.246 389.694 372.246 390.156V582.728C372.246 583.191 372.064 583.634 371.74 583.96C371.416 584.287 370.976 584.471 370.517 584.471ZM316.972 580.986H368.789V391.899H316.972V580.986Z" fill="#C7E3F9" fill-opacity="0.6"/>
<path d="M433.507 390.156H378.232V582.728H433.507V390.156Z" fill="#C7E3F9" fill-opacity="0.6"/>
<path d="M433.507 584.471H378.233C377.775 584.471 377.335 584.287 377.011 583.96C376.687 583.634 376.505 583.191 376.505 582.728V390.156C376.505 389.694 376.687 389.251 377.011 388.924C377.335 388.598 377.775 388.414 378.233 388.414H433.507C433.965 388.414 434.405 388.598 434.729 388.924C435.053 389.251 435.236 389.694 435.236 390.156V582.728C435.236 583.191 435.053 583.634 434.729 583.96C434.405 584.287 433.965 584.471 433.507 584.471ZM379.962 580.986H431.779V391.899H379.962V580.986Z" fill="#C7E3F9" fill-opacity="0.6"/>
<path d="M374.363 91.4177C373.905 91.4177 373.465 91.2341 373.141 90.9074C372.817 90.5806 372.635 90.1375 372.635 89.6754V33.776C372.635 33.3412 372.796 32.9221 373.087 32.601C373.378 32.2799 373.777 32.0801 374.207 32.0406C374.342 32.0284 387.899 30.7101 392.182 24.8228C398.142 16.6339 410.677 15.7627 425.718 22.4997C440.784 29.2494 489.594 21.1355 490.085 21.053C490.365 21.006 490.652 21.0291 490.92 21.1203C491.189 21.2114 491.431 21.3677 491.626 21.5755C491.821 21.7832 491.961 22.0361 492.036 22.3117C492.111 22.5873 492.118 22.8773 492.055 23.156C491.675 24.8489 482.69 64.7312 478.112 74.6955C477.999 74.9426 477.83 75.1595 477.618 75.3285C471.511 80.207 432.628 84.1121 420.939 79.8713C419.504 79.3486 418.144 78.83 416.864 78.3398C412.406 76.633 408.197 75.0196 406.802 75.9895C406.138 76.4541 405.787 77.8357 405.787 79.9927C405.787 91.4177 385.346 91.4177 374.363 91.4177ZM376.092 35.3191V87.9331C385.149 87.9023 402.328 87.4289 402.328 79.9933C402.328 77.7928 402.588 74.6862 404.838 73.1222C407.725 71.115 412.072 72.7789 418.089 75.0829C419.352 75.5661 420.692 76.0795 422.108 76.5929C426.723 78.2678 438.004 78.6418 450.852 77.5477C463.784 76.4442 472.661 74.3796 475.159 72.8138C478.991 64.0006 486.058 33.8341 488.111 24.9C477.621 26.5262 438.429 32.0104 424.313 25.6864C410.869 19.6638 399.899 20.111 394.97 26.8851C390.709 32.7439 380.125 34.7546 376.092 35.3208V35.3191Z" fill="#C7E3F9" fill-opacity="0.6"/>
<path d="M374.363 67.5042C380.768 67.5042 397.19 66.4907 398.792 57.8343C400.394 49.1779 410.171 51.6583 422.689 56.6466C435.207 61.6349 477.366 56.3835 481.153 53.3606L485.762 39.8361C483.87 41.3479 437.971 48.1551 423.855 42.1395C409.739 36.1238 400.275 36.2737 397.072 43.9004C393.87 51.5271 377.567 52.4099 374.363 52.4099V67.5042Z" fill="#C7E3F9" fill-opacity="0.6"/>
<path d="M374.363 89.675C383.97 89.675 404.056 89.675 404.056 79.9912C404.056 70.3074 410.606 74.2695 421.523 78.2309C432.44 82.1924 470.866 78.4957 476.542 73.9617L481.151 57.6274C477.367 60.6503 435.205 65.9023 422.688 60.9134C410.17 55.9246 402.164 54.0179 400.563 62.6743C398.962 71.3307 380.768 71.771 374.363 71.771V89.675Z" fill="#C7E3F9" fill-opacity="0.6"/>
<path d="M374.363 128.901C373.905 128.901 373.465 128.718 373.141 128.391C372.817 128.064 372.635 127.621 372.635 127.159V33.7755C372.635 33.3134 372.817 32.8703 373.141 32.5435C373.465 32.2168 373.905 32.0332 374.363 32.0332C374.822 32.0332 375.261 32.2168 375.585 32.5435C375.91 32.8703 376.092 33.3134 376.092 33.7755V127.159C376.092 127.621 375.91 128.064 375.585 128.391C375.261 128.718 374.822 128.901 374.363 128.901Z" fill="#C7E3F9" fill-opacity="0.6"/>
<path d="M645.052 281.713H103.699C103.241 281.713 102.801 281.529 102.477 281.202C102.153 280.876 101.971 280.432 101.971 279.97V269.993C101.971 269.531 102.153 269.088 102.477 268.761C102.801 268.435 103.241 268.251 103.699 268.251H645.052C645.51 268.251 645.95 268.435 646.274 268.761C646.598 269.088 646.78 269.531 646.78 269.993V279.97C646.78 280.432 646.598 280.876 646.274 281.202C645.95 281.529 645.51 281.713 645.052 281.713ZM105.428 278.228H643.323V271.736H105.428V278.228Z" fill="#C7E3F9" fill-opacity="0.6"/>
<path d="M641.164 251.988H122.165V260.308H641.164V251.988Z" fill="#C7E3F9" fill-opacity="0.6"/>
<path d="M641.164 262.051H122.166C121.708 262.051 121.268 261.867 120.944 261.541C120.62 261.214 120.438 260.771 120.438 260.309V251.988C120.438 251.526 120.62 251.083 120.944 250.756C121.268 250.43 121.708 250.246 122.166 250.246H641.164C641.622 250.246 642.062 250.43 642.386 250.756C642.71 251.083 642.893 251.526 642.893 251.988V260.309C642.893 260.771 642.71 261.214 642.386 261.541C642.062 261.867 641.622 262.051 641.164 262.051ZM123.894 258.566H639.436V253.731H123.894V258.566Z" fill="#C7E3F9" fill-opacity="0.6"/>
<path d="M620.074 251.99L374.378 146.667L374.387 137.628L641.165 251.99H620.074Z" fill="#C7E3F9" fill-opacity="0.6"/>
<path d="M641.165 253.732H620.073C619.841 253.732 619.611 253.685 619.397 253.593L373.702 148.27C373.39 148.136 373.123 147.913 372.936 147.627C372.749 147.342 372.649 147.007 372.649 146.665L372.658 137.626C372.658 137.339 372.729 137.055 372.865 136.802C373 136.549 373.195 136.333 373.434 136.174C373.672 136.016 373.945 135.919 374.23 135.893C374.514 135.867 374.8 135.912 375.063 136.025L641.841 250.386C642.208 250.544 642.51 250.824 642.695 251.179C642.88 251.535 642.938 251.944 642.859 252.338C642.779 252.731 642.567 253.085 642.258 253.339C641.95 253.594 641.563 253.732 641.165 253.732ZM620.423 250.248H632.682L376.113 140.261L376.107 145.515L620.423 250.248Z" fill="#C7E3F9" fill-opacity="0.6"/>
<path d="M122.165 251.99L374.377 146.667L374.386 137.628L122.165 251.99Z" fill="#C7E3F9" fill-opacity="0.6"/>
<path d="M122.166 253.733C121.77 253.733 121.386 253.597 121.078 253.346C120.771 253.096 120.557 252.746 120.474 252.356C120.391 251.966 120.443 251.559 120.622 251.203C120.801 250.847 121.095 250.564 121.456 250.401L373.677 136.039C373.94 135.92 374.229 135.869 374.517 135.891C374.805 135.913 375.082 136.007 375.325 136.165C375.567 136.324 375.766 136.54 375.904 136.796C376.042 137.052 376.114 137.338 376.114 137.629L376.105 146.668C376.105 147.012 376.003 147.349 375.814 147.635C375.624 147.921 375.354 148.144 375.039 148.276L122.827 253.6C122.617 253.687 122.393 253.732 122.166 253.733ZM372.655 140.323L228.141 205.848L372.65 145.502L372.655 140.323Z" fill="#C7E3F9" fill-opacity="0.6"/>
</g>
<path d="M437.056 730.733C434.182 733.74 428.931 741.468 428.142 745.716C427.447 749.45 428.281 757.23 428.837 758.756C429.859 761.564 435.27 764.999 452.217 764.999C460.134 764.999 472.494 760.533 474.257 759.45C475.159 758.896 476.342 753.623 476.48 750.017C476.619 746.41 474.813 738.5 468.563 732.811C462.312 727.121 439.973 727.681 437.056 730.733Z" fill="#080F29"/>
<path d="M454.118 749.454C454.118 747.937 442.866 746.272 440.505 748.492C438.144 750.711 443.847 750.516 447.042 750.434C450.237 750.352 454.118 750.277 454.118 749.454Z" fill="#B0D0EF"/>
<path d="M431.02 758.619C431.305 760.178 443.556 762.532 451.767 761.881C456.933 761.471 462.315 760.284 463.287 759.312C464.259 758.341 463.426 758.758 458.148 759.59C452.87 760.422 451.615 760.501 445.369 760.289C438.955 760.074 430.844 757.648 431.02 758.619Z" fill="#132B5D"/>
<path d="M406.937 730.731C407.816 732.963 410.178 738.962 410.27 742.384C410.363 745.806 411.011 754.407 410.826 755.794C410.64 757.18 401.662 758.386 395.547 758.386C393.111 758.386 392.491 757.094 389.902 758.386C387.312 759.679 384.99 762.179 373.881 762.916C362.773 763.652 341.332 764.627 332.674 762.916C327.237 761.841 326.076 760.149 326.076 757.65C326.076 755.15 324.804 750.987 332.674 746.732C340.544 742.476 348.971 742.025 352.676 738.736C356.38 735.448 362.769 728.974 364.992 725.182C367.215 721.39 405.112 726.098 406.937 730.731Z" fill="#080F29"/>
<path d="M351.746 754.129C351.774 755.331 339.337 756.348 335.17 754.129C333.122 753.038 333.997 750.946 337.115 752.372C342.974 755.054 351.732 753.544 351.746 754.129Z" fill="#B0D0EF"/>
<path d="M370.811 759.329C371.202 760.271 362.256 761.573 349.014 761.573C337.343 761.573 330.388 759.772 329.382 758.706C328.856 758.149 329.127 756.792 329.683 757.135C331.442 758.222 339.572 759.488 347.44 759.771C361.515 760.28 370.42 758.385 370.811 759.329Z" fill="#132B5D"/>
<path d="M365.634 741.75C365.519 741.751 365.408 741.709 365.321 741.634C363.921 740.42 359.135 738.538 358.205 738.693C358.08 738.712 357.953 738.681 357.851 738.607C357.749 738.532 357.68 738.42 357.661 738.296C357.642 738.171 357.672 738.044 357.747 737.942C357.822 737.84 357.934 737.771 358.059 737.752C359.476 737.532 364.504 739.669 365.943 740.915C366.016 740.979 366.069 741.063 366.093 741.157C366.117 741.251 366.111 741.35 366.077 741.441C366.044 741.531 365.983 741.61 365.903 741.665C365.823 741.721 365.729 741.75 365.632 741.75H365.634Z" fill="#092B69"/>
<path d="M370.824 738.144C370.754 738.145 370.685 738.13 370.621 738.1C370.558 738.071 370.502 738.028 370.457 737.974C369.083 736.342 363.689 734.455 363.041 734.445C362.915 734.443 362.795 734.391 362.706 734.302C362.618 734.212 362.568 734.091 362.568 733.965C362.568 733.84 362.618 733.719 362.707 733.631C362.796 733.542 362.916 733.492 363.042 733.492C363.868 733.492 369.598 735.476 371.186 737.362C371.244 737.431 371.282 737.516 371.293 737.606C371.305 737.696 371.291 737.787 371.252 737.87C371.214 737.952 371.153 738.021 371.076 738.07C370.999 738.119 370.91 738.145 370.819 738.144H370.824Z" fill="#092B69"/>
<path d="M367.618 752.93C367.659 753.362 366.345 753.84 365.414 753.928C364.483 754.015 363.695 753.737 363.655 753.305C363.615 752.873 364.381 752.837 365.312 752.749C366.243 752.661 367.577 752.498 367.618 752.93Z" fill="#B0D0EF"/>
<path d="M379.831 366.887C379.09 371 370.2 431.823 368.348 453.834C366.876 471.333 362.514 509.88 360.847 521.533C359.18 533.187 356.31 543.544 355.936 547.243C355.561 550.942 356.491 555.752 355.936 560.007C355.38 564.261 366.692 687.45 366.136 690.964C365.58 694.479 363.317 704.467 362.947 706.316C362.577 708.166 365.818 713.068 365.077 714.736C364.335 716.404 364.058 722.32 363.503 723.985C362.947 725.65 366.307 731.811 368.225 731.569C371.883 731.106 389.153 726.389 407.395 732.401C409.017 732.935 412.397 714.922 413.137 712.887C413.877 710.852 409.062 693.28 409.433 690.321C409.803 687.361 406.613 612.943 406.924 608.781C407.307 603.656 411.861 592.191 412.724 589.509C413.971 585.624 408.557 574.804 408.722 569.07C408.772 567.366 411.191 565.186 412.179 561.486C413.167 557.787 430.021 477.696 430.946 477.51C431.871 477.325 438.351 556.862 438.54 558.527C438.729 560.192 434.835 568.885 435.021 570.92C435.206 572.954 440.021 587.567 439.836 589.416C439.65 591.266 437.244 591.451 436.873 594.596C436.502 597.74 437.249 694.433 436.323 699.796C435.396 705.16 430.596 713.67 430.225 716.444C429.854 719.218 432.96 730.27 432.59 732.305C432.22 734.339 446.226 740.22 447.892 740.035C449.558 739.85 467.282 736.296 470.765 737.114C473.917 737.854 475.216 732.812 475.823 730.318C476.263 728.511 476.556 717.101 476.556 715.622C476.556 714.142 474.827 703.265 475.017 701.045C475.206 698.825 484.878 587.752 485.619 580.353C486.361 572.953 486.915 548.353 486.73 545.579C486.545 542.805 488.767 543.359 488.953 539.29C489.138 535.22 494.296 451.245 493.926 434.782C493.556 418.32 487.444 375.778 486.518 370.414C485.592 365.05 381.296 358.748 379.831 366.887Z" fill="#092B69"/>
<path d="M381.118 371.291C410.552 382.713 465.651 380.955 489.083 372.759C488.598 368.92 487.917 365.108 487.042 361.338C455.835 370.433 399.44 366.888 382.957 360.012C381.731 363.646 381.11 367.456 381.118 371.291Z" fill="#050F3A"/>
<path d="M412.772 362.398L408.43 362.104L407.136 381.125L411.478 381.419L412.772 362.398Z" fill="#092B69"/>
<path d="M442.854 381.418C444.32 381.326 445.771 381.216 447.206 381.089V364.238C445.761 364.344 444.31 364.434 442.854 364.509V381.418Z" fill="#092B69"/>
<path d="M355.973 559.626C357.242 559.664 358.497 559.881 359.041 560.515C359.875 561.486 365.685 576.468 366.681 578.271C367.676 580.075 366.125 589.37 366.125 591.312C366.125 593.255 368.515 594.247 368.663 592.429C368.871 589.866 374.182 582.85 376.821 580.769C377.769 580.021 377.536 578.549 375.154 576.742C373.195 575.259 360.291 555.101 359.735 553.611C359.18 552.121 357.062 547.977 356.406 544.393C356.176 545.564 356.011 546.527 355.939 547.239C355.58 550.834 356.43 555.467 355.973 559.626Z" fill="#050F3A"/>
<path d="M358.764 579.452C359.392 580.157 363.626 587.567 364.598 590.342C365.38 592.408 366.381 594.384 367.585 596.238C368.001 596.931 364.788 600.128 365.74 604.041C369.247 618.457 376.307 696.46 374.225 705.485C373.345 709.3 374.613 713.808 373.918 717.138C373.223 720.467 371.279 728.652 370.168 728.791C369.058 728.929 372.252 718.525 372.39 716.444C372.529 714.363 371.723 708.937 372.234 704.861C373.93 691.335 364.737 606.573 364.181 603.937C363.625 601.301 363.209 601.44 362.237 599.498C361.265 597.556 357.924 578.507 358.764 579.452Z" fill="#050F3A"/>
<path d="M460.858 608.099C460.58 606.854 457.108 599.637 455.163 595.752C453.219 591.868 455.441 588.955 456.413 587.013C457.386 585.07 460.164 586.18 459.192 584.377C458.22 582.573 453.636 578.828 453.219 576.608C452.801 574.389 440.578 475.338 440.023 469.65C439.467 463.961 434.254 436.864 433.283 436.078C429.254 432.818 403.835 414.159 402.446 415.13C401.058 416.101 421.716 438.752 422.449 439.963C424.894 444 420.827 455.359 420.782 458.413C420.736 461.512 424.052 469.03 422.403 480.563C419.091 503.72 413.361 527.917 412.382 530.69C410.715 535.406 408.076 536.239 407.382 538.458C406.687 540.677 401.825 567.869 401.27 569.533C400.714 571.197 402.797 573.56 403.631 575.776C404.465 577.992 405.78 585.07 401.752 595.197C401.361 596.18 404.953 634.631 408.283 652.145C407.544 631.973 406.764 610.939 406.926 608.782C407.308 603.657 411.862 592.192 412.726 589.51C413.972 585.625 408.558 574.804 408.724 569.071C408.774 567.366 411.192 565.187 412.18 561.487C413.169 557.787 430.023 477.696 430.948 477.511C431.873 477.326 438.352 556.863 438.541 558.528C438.73 560.193 434.837 568.886 435.022 570.92C435.208 572.955 440.023 587.568 439.838 589.417C439.653 591.266 437.245 591.452 436.874 594.596C436.503 597.741 437.25 694.433 436.324 699.797C435.398 705.161 430.597 713.67 430.226 716.444C429.855 719.219 432.962 730.271 432.591 732.305C432.221 734.34 446.227 740.221 447.893 740.036C452.99 722.898 455.302 636.122 455.302 633.625C455.302 631.127 461.136 609.347 460.858 608.099Z" fill="#050F3A"/>
<path d="M493.917 434.782C493.55 418.32 487.435 375.777 486.509 370.413C486.335 369.41 482.541 368.373 476.481 367.404L450.182 376.904C451.849 382.806 463.887 437.927 464.813 440.702C465.739 443.477 488.474 438.482 493.775 443.661C493.79 443.676 493.805 443.687 493.82 443.702C493.926 439.884 493.962 436.82 493.917 434.782Z" fill="#050F3A"/>
<path d="M394.664 438.771C394.522 433.698 398.14 391.129 399.143 381.821C400.146 372.513 399.143 370.413 399.143 370.413L394.874 363.363C386.047 363.89 380.171 364.999 379.832 366.886C379.255 370.091 373.73 407.722 370.442 434.6C378.823 438.475 394.782 442.983 394.664 438.771Z" fill="#050F3A"/>
<path d="M432.889 194.653C426.596 194.653 413.623 196.318 407.33 199.647C401.037 202.977 392.147 210.006 384.369 213.521C376.591 217.035 376.035 310.051 376.382 309.219C376.73 308.386 378.466 314.417 378.466 315.045C378.466 315.673 375.688 318.582 376.035 320.872L376.73 325.449C376.247 325.494 375.78 325.638 375.356 325.873C374.932 326.107 374.562 326.427 374.268 326.811C373.975 327.196 373.764 327.637 373.65 328.107C373.535 328.577 373.52 329.066 373.604 329.542C374.021 333.288 379.647 352.016 380.202 353.75C380.758 355.483 390.11 363.53 402.889 367.23C415.669 370.929 453.635 372.039 466.044 367.23C478.452 362.421 490.306 351.692 491.603 350.212C492.899 348.731 499.47 232.092 498.775 229.942C498.08 227.791 480.883 216.205 475.837 213.012C470.246 209.474 461.599 199.647 457.34 198.168C453.08 196.688 439.31 194.653 432.889 194.653Z" fill="#B0D0EF"/>
<path d="M456.738 300.964C456.409 300.474 436.111 266.058 436.111 266.058C436.111 266.058 432.88 243.318 432.903 242.976C432.96 242.144 453.396 229.858 458.919 225.311C473.148 213.597 472.46 202.614 471.203 202.741C469.626 202.9 453.834 202.741 450.126 196.527C444.368 195.517 437.072 194.653 432.889 194.653C426.596 194.653 413.623 196.318 407.33 199.647C401.037 202.977 392.147 210.006 384.369 213.521C376.591 217.035 376.035 310.051 376.382 309.219C376.73 308.386 378.466 314.417 378.466 315.045C378.466 315.673 375.688 318.582 376.035 320.872L376.73 325.449C376.247 325.494 375.78 325.638 375.356 325.873C374.932 326.107 374.562 326.427 374.268 326.811C373.975 327.196 373.764 327.637 373.65 328.107C373.535 328.577 373.52 329.066 373.604 329.542C374.021 333.288 379.647 352.016 380.202 353.75C380.758 355.483 390.11 363.53 402.889 367.23C415.669 370.929 453.635 372.039 466.044 367.23C478.452 362.421 490.306 351.692 491.603 350.212C492.899 348.731 457.294 301.797 456.738 300.964Z" fill="#85B0DF"/>
<path d="M440.216 214.168L428.284 213.598L425.717 220.342L430.577 229.016L437.384 229.341L442.783 221.158L440.216 214.168Z" fill="#2171C5"/>
<path d="M415.206 213.598C415.206 213.598 420.518 218.319 425.717 220.342C430.916 222.365 438.501 222.234 442.783 221.158C447.065 220.082 456.551 215.574 456.551 215.574L415.206 213.598Z" fill="#2171C5"/>
<path d="M440.623 351.34C440.659 352.626 440.386 353.901 439.826 355.06C437.169 360.534 429.062 376.851 426.895 376.747C424.728 376.644 418.218 359.629 416.096 353.926C415.649 352.72 415.499 351.424 415.657 350.148L430.575 229.016L437.35 229.339L440.623 351.34Z" fill="#2171C5"/>
<path d="M433.637 366.53C433.572 366.53 433.507 366.516 433.447 366.49C433.387 366.464 433.333 366.426 433.288 366.378L415.607 347.359C415.564 347.313 415.531 347.259 415.509 347.201C415.488 347.142 415.478 347.08 415.48 347.017C415.482 346.955 415.497 346.893 415.523 346.836C415.549 346.78 415.586 346.728 415.632 346.686C415.678 346.643 415.731 346.61 415.79 346.588C415.849 346.567 415.911 346.557 415.974 346.559C416.036 346.561 416.098 346.576 416.155 346.602C416.212 346.628 416.263 346.665 416.306 346.711L433.986 365.73C434.05 365.797 434.092 365.882 434.108 365.973C434.123 366.065 434.112 366.159 434.075 366.244C434.038 366.329 433.977 366.401 433.899 366.452C433.821 366.502 433.73 366.529 433.637 366.529V366.53Z" fill="#050F3A"/>
<path d="M435.482 363.088C435.416 363.088 435.352 363.075 435.292 363.049C435.231 363.022 435.177 362.984 435.133 362.936L416.198 342.568C416.117 342.475 416.075 342.354 416.082 342.23C416.088 342.107 416.143 341.991 416.234 341.906C416.325 341.822 416.444 341.777 416.568 341.779C416.692 341.782 416.81 341.833 416.897 341.92L435.832 362.289C435.895 362.356 435.937 362.441 435.952 362.533C435.968 362.624 435.956 362.718 435.919 362.803C435.882 362.888 435.821 362.96 435.743 363.01C435.666 363.061 435.575 363.088 435.482 363.088Z" fill="#050F3A"/>
<path d="M440.503 344.148C440.438 344.148 440.373 344.135 440.313 344.109C440.253 344.083 440.198 344.044 440.154 343.997L418.85 321.08C418.807 321.034 418.773 320.98 418.75 320.921C418.728 320.863 418.717 320.8 418.719 320.737C418.721 320.674 418.735 320.612 418.761 320.554C418.788 320.497 418.825 320.445 418.871 320.402C418.917 320.359 418.972 320.326 419.031 320.305C419.09 320.283 419.153 320.273 419.217 320.276C419.28 320.279 419.341 320.294 419.399 320.321C419.456 320.348 419.507 320.386 419.549 320.433L440.852 343.349C440.916 343.417 440.958 343.502 440.974 343.593C440.989 343.685 440.978 343.779 440.941 343.864C440.904 343.949 440.842 344.021 440.765 344.072C440.687 344.122 440.596 344.149 440.503 344.149V344.148Z" fill="#050F3A"/>
<path d="M440.351 338.559C440.286 338.559 440.221 338.546 440.161 338.52C440.1 338.494 440.046 338.455 440.002 338.407L419.443 316.291C419.4 316.245 419.366 316.191 419.343 316.132C419.32 316.074 419.31 316.011 419.312 315.948C419.314 315.885 419.328 315.823 419.354 315.765C419.38 315.708 419.418 315.656 419.464 315.613C419.51 315.57 419.565 315.537 419.624 315.515C419.683 315.494 419.746 315.484 419.809 315.487C419.872 315.49 419.934 315.505 419.991 315.532C420.048 315.559 420.1 315.597 420.142 315.644L440.703 337.759C440.767 337.827 440.809 337.912 440.824 338.003C440.84 338.095 440.829 338.189 440.792 338.274C440.755 338.359 440.693 338.431 440.616 338.482C440.538 338.532 440.447 338.559 440.354 338.559H440.351Z" fill="#050F3A"/>
<path d="M439.672 313.49C439.606 313.49 439.541 313.477 439.481 313.451C439.421 313.425 439.367 313.387 439.322 313.339L422.094 294.805C422.013 294.711 421.972 294.59 421.978 294.466C421.985 294.343 422.039 294.227 422.13 294.143C422.221 294.059 422.341 294.013 422.465 294.016C422.589 294.018 422.707 294.069 422.794 294.157L440.022 312.691C440.085 312.759 440.127 312.843 440.143 312.935C440.158 313.026 440.147 313.12 440.11 313.205C440.073 313.29 440.012 313.362 439.934 313.413C439.856 313.464 439.765 313.491 439.673 313.49H439.672Z" fill="#050F3A"/>
<path d="M439.521 307.902C439.456 307.902 439.391 307.889 439.33 307.863C439.27 307.836 439.216 307.798 439.171 307.75L422.684 290.015C422.641 289.969 422.608 289.915 422.586 289.857C422.565 289.798 422.555 289.736 422.557 289.673C422.559 289.611 422.574 289.549 422.6 289.493C422.626 289.436 422.663 289.385 422.709 289.342C422.755 289.3 422.809 289.266 422.867 289.245C422.926 289.223 422.988 289.213 423.051 289.215C423.114 289.217 423.175 289.232 423.232 289.258C423.289 289.284 423.34 289.321 423.383 289.367L439.87 307.102C439.933 307.17 439.976 307.255 439.991 307.346C440.007 307.438 439.996 307.532 439.959 307.616C439.921 307.701 439.86 307.774 439.783 307.824C439.705 307.875 439.614 307.902 439.521 307.902Z" fill="#050F3A"/>
<path d="M438.842 282.834C438.776 282.834 438.712 282.82 438.652 282.794C438.591 282.768 438.537 282.73 438.493 282.681L425.335 268.529C425.249 268.436 425.204 268.313 425.208 268.187C425.213 268.061 425.268 267.942 425.36 267.856C425.453 267.77 425.576 267.724 425.702 267.729C425.829 267.734 425.948 267.788 426.034 267.881L439.192 282.033C439.255 282.101 439.296 282.186 439.312 282.278C439.327 282.369 439.316 282.463 439.279 282.548C439.242 282.633 439.181 282.705 439.103 282.756C439.025 282.806 438.935 282.834 438.842 282.834Z" fill="#050F3A"/>
<path d="M438.691 277.245C438.626 277.246 438.561 277.232 438.5 277.206C438.44 277.18 438.386 277.141 438.342 277.093L425.927 263.738C425.841 263.645 425.795 263.522 425.8 263.396C425.805 263.27 425.859 263.151 425.952 263.065C426.045 262.979 426.168 262.933 426.294 262.938C426.42 262.942 426.54 262.997 426.626 263.09L439.041 276.444C439.104 276.512 439.146 276.597 439.161 276.688C439.177 276.779 439.165 276.873 439.128 276.958C439.091 277.043 439.03 277.115 438.952 277.166C438.875 277.217 438.784 277.244 438.691 277.244V277.245Z" fill="#050F3A"/>
<path d="M425.601 220.312C425.49 220.312 425.384 220.274 425.298 220.204C425.213 220.134 425.155 220.037 425.133 219.928C425.112 219.82 425.128 219.708 425.181 219.611C425.233 219.514 425.317 219.438 425.419 219.396L436.23 214.94C436.347 214.891 436.478 214.891 436.595 214.939C436.712 214.987 436.805 215.08 436.853 215.196C436.902 215.313 436.902 215.444 436.854 215.56C436.806 215.677 436.713 215.77 436.597 215.819L425.784 220.276C425.726 220.3 425.664 220.312 425.601 220.312Z" fill="#050F3A"/>
<path d="M427.576 223.313C427.466 223.313 427.359 223.274 427.274 223.204C427.189 223.134 427.131 223.037 427.11 222.929C427.088 222.821 427.105 222.709 427.157 222.612C427.209 222.515 427.293 222.439 427.394 222.397L441.91 216.413C442.026 216.364 442.158 216.364 442.275 216.412C442.391 216.46 442.484 216.552 442.533 216.669C442.582 216.785 442.582 216.916 442.534 217.033C442.486 217.15 442.393 217.243 442.276 217.291L427.761 223.275C427.702 223.3 427.64 223.313 427.576 223.313Z" fill="#050F3A"/>
<path d="M430.578 229.494C430.467 229.494 430.361 229.455 430.276 229.385C430.191 229.315 430.133 229.217 430.111 229.109C430.09 229.001 430.107 228.889 430.16 228.792C430.212 228.695 430.296 228.619 430.398 228.577L439.508 224.871C439.623 224.834 439.747 224.841 439.856 224.892C439.966 224.942 440.052 225.032 440.097 225.143C440.143 225.255 440.145 225.379 440.102 225.492C440.06 225.604 439.976 225.696 439.868 225.75L430.757 229.455C430.701 229.48 430.64 229.493 430.578 229.494Z" fill="#050F3A"/>
<path d="M438.013 252.176C437.948 252.176 437.883 252.163 437.823 252.137C437.763 252.111 437.709 252.073 437.664 252.025L428.58 242.253C428.537 242.207 428.504 242.154 428.482 242.095C428.46 242.036 428.45 241.974 428.452 241.912C428.455 241.849 428.469 241.788 428.495 241.731C428.522 241.674 428.559 241.623 428.604 241.58C428.65 241.538 428.704 241.505 428.763 241.483C428.822 241.461 428.884 241.451 428.946 241.453C429.009 241.456 429.071 241.47 429.127 241.496C429.184 241.522 429.236 241.559 429.278 241.605L438.363 251.377C438.426 251.445 438.468 251.529 438.484 251.621C438.5 251.712 438.488 251.806 438.451 251.891C438.414 251.976 438.353 252.049 438.275 252.099C438.197 252.15 438.106 252.177 438.013 252.176Z" fill="#050F3A"/>
<path d="M437.862 246.589C437.796 246.589 437.731 246.575 437.671 246.549C437.611 246.523 437.557 246.484 437.513 246.436L429.171 237.464C429.127 237.418 429.093 237.364 429.071 237.305C429.048 237.246 429.037 237.184 429.039 237.121C429.041 237.058 429.056 236.996 429.082 236.938C429.108 236.881 429.145 236.829 429.192 236.786C429.238 236.743 429.292 236.71 429.351 236.688C429.411 236.667 429.474 236.657 429.537 236.66C429.6 236.662 429.662 236.678 429.719 236.705C429.776 236.732 429.827 236.77 429.869 236.816L438.211 245.788C438.274 245.856 438.315 245.941 438.331 246.033C438.346 246.124 438.335 246.218 438.298 246.303C438.261 246.388 438.2 246.46 438.122 246.511C438.044 246.561 437.954 246.588 437.862 246.589Z" fill="#050F3A"/>
<path d="M437.052 229.802H437.028L430.555 229.493C430.429 229.487 430.31 229.431 430.226 229.337C430.141 229.244 430.096 229.121 430.102 228.995C430.11 228.869 430.167 228.752 430.26 228.668C430.353 228.583 430.476 228.538 430.601 228.542L437.074 228.851C437.2 228.854 437.32 228.907 437.408 228.998C437.495 229.09 437.542 229.212 437.539 229.338C437.536 229.464 437.483 229.584 437.392 229.671C437.301 229.759 437.178 229.805 437.052 229.802Z" fill="#050F3A"/>
<path d="M467.87 197.607C466.823 205.09 467.255 231.562 464.644 241.844C462.033 252.127 456.372 321.767 456.425 340.079C456.478 358.392 459.627 416.841 466.201 436.808C467.891 441.94 492.037 435.523 497.593 434.413C503.149 433.303 507.594 432.471 509.261 432.748C510.928 433.026 507.872 394.183 505.094 381.42C502.316 368.657 499.052 355.894 499.572 353.397C500.093 350.899 511.483 356.221 514.539 357.167C517.596 358.113 534.54 349.558 537.043 347.732C539.547 345.906 544.544 320.658 542.877 315.941C541.21 311.225 532.043 283.082 530.654 279.812C529.264 276.543 518.986 226.749 518.152 224.314C517.319 221.88 495.048 213.004 487.871 210.784C488.01 208.842 485.569 207.685 483.287 206.484C475.648 202.463 468.105 195.921 467.87 197.607Z" fill="#092B69"/>
<path d="M415.582 212.45C412.599 229.544 410.918 249.629 408.696 270.16C406.474 290.692 404.251 307.814 404.807 317.149C405.363 326.483 391.194 431.083 390.916 435.247C390.639 439.411 359.524 425.259 358.135 422.207C356.746 419.154 372.118 357.745 374.757 348.775C369.694 350.069 351.19 355.341 347.301 353.953C343.412 352.566 340.403 351.145 338.967 349.237C336.951 346.558 328.688 332.031 328.966 327.595C329.244 323.16 334.522 299.573 335.911 297.075C337.3 294.578 334.661 291.943 336.328 289.723C337.995 287.503 339.522 287.087 340.36 284.867C341.197 282.647 361.715 221.388 362.826 217.783C363.538 215.472 376.399 211.378 392.726 205.1C401.881 201.58 411.392 196.374 419.117 192.753C423.58 190.658 416.306 208.297 415.582 212.45Z" fill="#092B69"/>
<path d="M517.696 307.552C520.522 309.808 521.115 316.404 515.744 323.248C510.374 330.092 496.061 347.743 492.189 346.014C488.317 344.285 490.914 333.075 494.817 323.988C498.719 314.901 511.954 302.967 517.696 307.552Z" fill="#050F3A"/>
<path d="M505.047 313.261C504.076 307.897 502.965 303.458 509.632 301.423C516.3 299.388 530.005 300.709 530.005 304.383C530.005 305.565 524.449 305.236 522.967 306.844C521.486 308.452 532.597 311.576 535.746 317.152C534.264 317.152 532.042 316.406 527.782 316.406C525.379 314.295 521.869 309.798 517.695 307.553C513.522 305.308 505.047 313.261 505.047 313.261Z" fill="#050F3A"/>
<path d="M365.358 298.091C362.449 301.114 359.062 304.597 360.543 314.291C362.025 323.985 365.358 335.269 370.729 339.338C376.1 343.407 386.286 332.494 387.769 322.321C389.251 312.147 387.414 299.2 381.109 297.35C374.804 295.501 367.814 295.538 365.358 298.091Z" fill="#050F3A"/>
<path d="M378.508 299.46L366.47 265.537L372.489 299.46C372.489 299.46 370.729 301.567 369.989 299.46C369.248 297.353 370.174 292.913 363.321 291.618C356.468 290.322 351.839 288.843 349.798 288.843C347.758 288.843 350.165 290.693 352.206 291.803C354.247 292.913 360.181 296.058 360.181 296.058C360.181 296.058 352.364 295.629 347.919 297.662C342.766 300.021 342.946 304.011 344.428 305.491C345.909 306.97 347.947 302.84 354.984 300.466C362.022 298.091 364.985 298.4 366.837 300.466C368.689 302.531 373.567 305.803 373.567 305.803L378.508 299.46Z" fill="#050F3A"/>
<path d="M383.694 330.277C382.397 325.869 369.618 328.983 369.618 328.983C369.618 328.983 341.282 337.121 340.726 340.214C340.391 342.078 338.777 344.596 336.98 346.14C337.829 347.564 338.539 348.668 338.966 349.237C340.403 351.145 343.411 352.566 347.3 353.953C351.189 355.34 369.694 350.069 374.757 348.775C373.715 352.314 370.693 364.016 367.499 377.076C372.231 365.377 384.746 333.859 383.694 330.277Z" fill="#050F3A"/>
<path d="M367.951 298.094C364.789 299.803 362.209 304.937 362.95 310.672C363.692 316.406 365.791 333.422 373.569 333.608C381.348 333.793 389.25 319.999 386.657 308.306C384.064 296.613 379.01 298.648 376.351 298.094C373.692 297.54 369.653 297.173 367.951 298.094Z" fill="#85B0DF"/>
<path d="M365.544 303.112C364.745 305.274 364.431 307.585 364.623 309.882C364.815 312.178 365.509 314.405 366.655 316.405C369.647 321.351 377.251 323.661 379.341 324.611C379.928 324.879 380.588 324.391 379.943 323.665C379.202 322.833 377.776 321.374 378.508 321.049C380.805 320.029 387.721 314.926 386.657 308.309C385.735 302.579 378.508 289.033 378.508 289.033L371.241 292.436C371.241 292.436 366.997 299.461 365.544 303.112Z" fill="#050F3A"/>
<path d="M387.305 215.504C388.012 216.078 393.879 221.703 394.806 222.858C395.733 224.012 389.805 236.96 389.064 238.44C388.324 239.919 403.788 299.942 403.788 303.734C403.788 307.525 404.529 316.126 403.048 309.375C401.566 302.624 386.379 242.232 385.453 239.364C384.527 236.497 390.361 226.78 390.083 224.749C389.805 222.718 386.842 218.555 386.286 217.076C385.73 215.596 386.027 214.466 387.305 215.504Z" fill="#050F3A"/>
<path d="M484.722 214.673C483.148 215.69 478.992 218.706 478.055 219.783C477.592 220.314 481.944 227.617 482.778 228.73C483.612 229.844 462.22 293.192 461.942 295.134C461.664 297.075 486.056 229.926 486.482 227.653C486.567 227.199 484.01 222.859 482.778 220.983C482.299 220.254 484.722 214.673 484.722 214.673Z" fill="#050F3A"/>
<path d="M477.072 278.9C476.261 276.125 482.158 264.542 485.267 261.213C487.693 258.614 490.131 257.854 495.98 256.429C501.829 255.003 489.455 291.247 489.455 291.247C489.455 291.247 478.641 284.275 477.072 278.9Z" fill="#D8E8F6"/>
<path d="M393.763 246.017C396.855 246.301 404.633 243.712 405.189 241.492C414.634 246.117 481.678 276.821 483.53 278.116C482.158 271.457 482.312 264.832 489.908 259.12C497.504 253.408 522.238 254.255 539.026 243.12C532.055 258.879 483.163 298.463 483.163 298.463L393.763 246.017Z" fill="white"/>
<path d="M470.683 348.752L386.522 308.879L392.201 245.274L478.71 286.26L470.683 348.752Z" fill="#2171C5"/>
<path d="M470.687 349.484C470.578 349.483 470.47 349.458 470.372 349.411L386.213 309.538C386.077 309.474 385.965 309.369 385.89 309.239C385.816 309.109 385.783 308.96 385.797 308.811L391.475 245.207C391.486 245.089 391.525 244.976 391.588 244.876C391.652 244.777 391.739 244.694 391.842 244.636C391.944 244.577 392.06 244.544 392.178 244.54C392.296 244.535 392.413 244.559 392.52 244.61L479.026 285.596C479.166 285.662 479.281 285.771 479.355 285.906C479.429 286.042 479.458 286.197 479.439 286.351L471.412 348.843C471.389 349.019 471.303 349.181 471.169 349.299C471.035 349.416 470.863 349.481 470.685 349.481L470.687 349.484ZM387.298 308.436L470.084 347.658L477.915 286.694L392.838 246.387L387.298 308.436Z" fill="#2171C5"/>
<path d="M521.463 311.127L482.157 335.819L489.115 282.805L549.267 234.971L521.463 311.127Z" fill="#2171C5"/>
<path d="M482.158 336.552C482.053 336.552 481.95 336.53 481.855 336.487C481.76 336.444 481.676 336.381 481.607 336.302C481.538 336.224 481.487 336.132 481.456 336.032C481.426 335.933 481.417 335.828 481.431 335.725L488.388 282.711C488.413 282.523 488.509 282.352 488.658 282.234L548.81 234.398C548.935 234.299 549.089 234.243 549.249 234.239C549.409 234.236 549.565 234.284 549.695 234.377C549.825 234.471 549.92 234.604 549.967 234.756C550.014 234.909 550.01 235.072 549.955 235.222L522.15 311.378C522.093 311.53 521.988 311.659 521.85 311.745L482.548 336.439C482.431 336.513 482.296 336.552 482.158 336.552ZM489.804 283.195L483.087 334.374L520.861 310.644L547.686 237.165L489.804 283.195Z" fill="#2171C5"/>
<path d="M478.71 286.26C485.015 294.205 486.865 283.847 489.117 282.806C494.799 280.179 485.17 333.928 482.159 335.819C480.08 337.125 478.854 340.174 478.106 341.909C476.845 344.829 473.906 350.278 470.684 348.751C467.461 347.224 475.928 282.752 478.71 286.26Z" fill="#2171C5"/>
<path d="M471.819 349.75C471.317 349.748 470.821 349.632 470.369 349.413C469.732 349.111 468.665 348.608 469.586 335.856C470.218 327.103 471.681 314.738 473.313 304.357C476.192 286.049 477.593 285.614 478.191 285.434C478.389 285.374 478.601 285.378 478.797 285.444C478.994 285.511 479.164 285.637 479.285 285.806C480.76 287.667 482.051 288.572 483.102 288.501C484.517 288.403 485.619 286.53 486.59 284.879C487.332 283.618 487.973 282.528 488.808 282.142C488.993 282.051 489.195 281.998 489.402 281.987C489.608 281.977 489.815 282.009 490.009 282.081C490.203 282.153 490.38 282.265 490.529 282.408C490.678 282.551 490.796 282.723 490.876 282.914C492.95 286.727 490.025 305.441 489.079 311.085C488.917 312.055 485.072 334.854 482.548 336.439C480.77 337.557 479.598 340.289 478.897 341.922L478.778 342.199C477.785 344.501 475.722 348.514 473.065 349.514C472.668 349.667 472.246 349.748 471.819 349.75ZM471.077 348.126C471.309 348.227 471.558 348.281 471.811 348.284C472.064 348.287 472.314 348.239 472.548 348.144C474.094 347.558 475.92 345.122 477.432 341.619L477.55 341.345C478.318 339.555 479.603 336.56 481.768 335.2C483.905 333.358 490.961 297.467 490.071 285.979C489.917 283.988 489.557 283.529 489.472 283.449C489.464 283.454 489.446 283.46 489.423 283.471C489.005 283.665 488.393 284.704 487.854 285.621C486.755 287.487 485.39 289.81 483.204 289.961C481.729 290.064 480.165 289.14 478.479 287.135C475.417 292.626 468.995 344.76 471.077 348.126Z" fill="#2171C5"/>
<path d="M471.074 280.812C471.021 280.812 470.968 280.8 470.92 280.778L442.929 267.81C442.844 267.767 442.779 267.693 442.747 267.603C442.716 267.513 442.72 267.415 442.76 267.328C442.801 267.242 442.873 267.175 442.962 267.141C443.05 267.106 443.149 267.108 443.237 267.146L471.228 280.114C471.304 280.149 471.366 280.208 471.403 280.283C471.44 280.358 471.45 280.443 471.432 280.525C471.414 280.606 471.369 280.679 471.304 280.732C471.239 280.784 471.158 280.812 471.074 280.812Z" fill="#C7E3F9"/>
<path d="M475.042 279.14C474.989 279.14 474.937 279.128 474.889 279.105L456.928 270.784C456.839 270.743 456.771 270.669 456.737 270.578C456.704 270.486 456.708 270.386 456.749 270.297C456.79 270.209 456.864 270.141 456.955 270.107C457.046 270.074 457.147 270.078 457.236 270.119L475.196 278.441C475.272 278.476 475.334 278.536 475.371 278.611C475.408 278.686 475.419 278.771 475.401 278.852C475.383 278.934 475.338 279.007 475.272 279.059C475.207 279.111 475.126 279.14 475.042 279.14Z" fill="#C7E3F9"/>
<path d="M488.949 272.886H488.922C488.874 272.883 488.827 272.87 488.784 272.848C488.741 272.827 488.702 272.797 488.671 272.761C488.639 272.724 488.615 272.682 488.6 272.636C488.585 272.591 488.579 272.542 488.582 272.494C489.315 262.21 495.539 260.846 503.416 259.12C506.236 258.559 509.017 257.823 511.744 256.915C511.836 256.883 511.937 256.889 512.025 256.931C512.112 256.973 512.18 257.048 512.212 257.139C512.244 257.231 512.239 257.332 512.197 257.419C512.155 257.507 512.079 257.574 511.988 257.606C509.232 258.524 506.422 259.268 503.573 259.835C495.699 261.561 490.011 262.808 489.314 272.547C489.307 272.639 489.265 272.725 489.198 272.788C489.13 272.851 489.041 272.886 488.949 272.886Z" fill="#C7E3F9"/>
<path d="M494.226 271.357C494.185 271.357 494.143 271.35 494.104 271.336C494.058 271.32 494.017 271.295 493.981 271.263C493.945 271.231 493.916 271.192 493.895 271.149C493.874 271.105 493.862 271.058 493.86 271.01C493.857 270.962 493.864 270.914 493.88 270.869C495.443 266.47 498.447 264.558 506.24 263.002C506.288 262.991 506.337 262.989 506.386 262.997C506.435 263.005 506.481 263.023 506.523 263.05C506.564 263.076 506.6 263.111 506.628 263.152C506.656 263.193 506.675 263.238 506.685 263.287C506.694 263.335 506.694 263.385 506.684 263.433C506.674 263.481 506.654 263.527 506.626 263.568C506.598 263.608 506.562 263.642 506.52 263.669C506.478 263.695 506.431 263.712 506.383 263.72C498.807 265.233 496.046 266.96 494.572 271.115C494.547 271.186 494.5 271.247 494.438 271.291C494.376 271.334 494.302 271.357 494.226 271.357Z" fill="#C7E3F9"/>
<path d="M435.193 258.317C435.14 258.317 435.088 258.306 435.039 258.284L407.675 245.605C407.59 245.563 407.525 245.489 407.493 245.399C407.462 245.309 407.467 245.211 407.507 245.124C407.547 245.038 407.619 244.971 407.708 244.937C407.797 244.902 407.895 244.904 407.983 244.941L435.347 257.619C435.423 257.654 435.485 257.714 435.522 257.788C435.559 257.863 435.57 257.948 435.552 258.03C435.534 258.112 435.488 258.184 435.423 258.237C435.358 258.289 435.277 258.317 435.193 258.317Z" fill="#C7E3F9"/>
<path d="M435.086 261.578C435.033 261.578 434.981 261.567 434.932 261.544L400.535 245.607C400.45 245.565 400.385 245.491 400.354 245.401C400.322 245.311 400.327 245.213 400.367 245.126C400.407 245.04 400.479 244.973 400.568 244.938C400.657 244.904 400.756 244.906 400.843 244.943L435.24 260.88C435.316 260.915 435.378 260.975 435.415 261.049C435.452 261.124 435.463 261.209 435.445 261.291C435.427 261.372 435.381 261.445 435.316 261.498C435.251 261.55 435.17 261.578 435.086 261.578Z" fill="#C7E3F9"/>
<path d="M500.959 388.673C500.959 389.413 491.882 391.807 485.679 392.65C480.586 393.341 477.717 393.331 476.604 392.927C475.585 392.561 474.033 385.47 473.641 382.847C473.381 381.108 474.737 380.792 475.215 382.847C475.802 385.649 476.607 388.401 477.623 391.078C477.916 391.878 482.63 391.316 486.605 390.892C493.55 390.153 500.955 388.019 500.959 388.673Z" fill="#050F3A"/>
<path d="M367.165 377.955L366.443 381.423C366.443 381.423 377 387.229 377.999 385.308C378.998 383.386 367.165 377.955 367.165 377.955Z" fill="#050F3A"/>
<path d="M369.617 368.51C368.691 370.186 365.497 376.429 364.941 377.816C364.386 379.204 377.998 385.307 377.998 385.307L383.138 375.458L369.617 368.51Z" fill="#092B69"/>
<path d="M381.379 278.393C378.508 277.168 375.016 281.141 375.985 284.659C374.653 285.138 372.711 285.794 371.971 287.459C371.231 289.124 371.54 289.884 371.262 291.179C370.984 292.473 369.036 292.825 368.082 294.481C367.227 295.966 367.976 297.19 367.429 298.41C366.883 299.63 365.289 299.78 364.757 301.173C364.024 303.1 364.918 307.077 365.358 308.543C365.914 310.393 368.246 313.764 369.39 315.04C370.248 315.999 372.419 318.034 374.761 317.702C377.103 317.37 382.771 312.797 382.494 310.673C384.579 310.219 387.163 309.54 390.15 308.83C390.7 308.733 391.219 308.503 391.66 308.161C392.101 307.818 392.451 307.372 392.68 306.863C392.909 306.354 393.01 305.796 392.974 305.239C392.937 304.682 392.765 304.142 392.471 303.667C393.351 303.645 394.346 303.717 395.226 303.691C395.758 303.604 396.255 303.372 396.664 303.021C397.072 302.67 397.376 302.214 397.541 301.702C397.838 300.487 397.474 298.79 396.476 298.326C395.67 297.95 393.976 297.759 393.953 297.355C393.93 296.952 397.307 297.742 398.525 297.955C400.906 298.373 401.894 294.188 400.138 293.309C398.221 292.352 388.771 289.309 387.167 288.828C389.396 288.615 390.739 285.627 389.535 284.176C387.977 282.304 383.324 279.224 381.379 278.393Z" fill="#DE8864"/>
<path d="M384.018 287.78C384.99 288.057 385.611 288.341 387.159 288.825C389.389 288.612 390.732 285.624 389.528 284.173C387.977 282.304 383.324 279.224 381.379 278.393C378.508 277.168 375.016 281.141 375.985 284.659C374.653 285.138 372.711 285.794 371.971 287.459C371.23 289.124 371.54 289.884 371.262 291.179C370.984 292.473 369.035 292.825 368.082 294.481C367.227 295.966 367.976 297.19 367.429 298.41C366.882 299.63 365.289 299.78 364.757 301.173C364.322 302.311 364.459 304.163 364.733 305.791C367.085 306.402 369.475 306.858 371.887 307.156C375.216 307.414 378.561 307.399 381.887 307.109C384.732 306.886 386.579 304.681 386.768 303.557C384.202 303.358 380.453 303.174 378.508 302.883C377.026 299.553 380.099 297.026 382.692 295.364C384.438 294.243 382.258 288.752 384.018 287.78Z" fill="#EEC6B5"/>
<path d="M391.822 304.224C387.565 304.224 376.519 303.404 373.181 302.406C373.121 302.388 373.065 302.358 373.016 302.319C372.968 302.279 372.928 302.231 372.898 302.176C372.868 302.121 372.85 302.06 372.843 301.998C372.837 301.936 372.843 301.873 372.861 301.813C372.879 301.753 372.908 301.698 372.948 301.649C372.987 301.601 373.036 301.56 373.091 301.531C373.146 301.501 373.207 301.482 373.269 301.476C373.331 301.47 373.394 301.476 373.454 301.494C376.472 302.396 387.248 303.273 391.82 303.273H391.843C391.97 303.273 392.091 303.323 392.18 303.412C392.269 303.501 392.32 303.622 392.32 303.748C392.315 303.876 392.26 303.998 392.168 304.087C392.075 304.176 391.951 304.225 391.822 304.224Z" fill="#090E22"/>
<path d="M395.443 298.315C395.393 298.315 395.343 298.307 395.296 298.292L389.833 296.511C389.771 296.494 389.714 296.464 389.664 296.424C389.614 296.384 389.573 296.334 389.543 296.277C389.512 296.221 389.494 296.159 389.488 296.095C389.483 296.032 389.49 295.967 389.509 295.907C389.529 295.846 389.561 295.789 389.603 295.741C389.645 295.693 389.696 295.653 389.754 295.625C389.811 295.597 389.874 295.581 389.938 295.578C390.002 295.574 390.066 295.584 390.126 295.606L395.589 297.387C395.697 297.422 395.789 297.494 395.848 297.59C395.907 297.687 395.93 297.801 395.912 297.913C395.895 298.025 395.838 298.127 395.752 298.201C395.666 298.274 395.556 298.315 395.443 298.315Z" fill="#090E22"/>
<path d="M387.159 289.301C387.103 289.301 387.048 289.291 386.996 289.271L378.345 286.116C378.286 286.095 378.232 286.062 378.186 286.02C378.14 285.978 378.103 285.927 378.077 285.87C378.05 285.814 378.035 285.753 378.033 285.69C378.03 285.628 378.04 285.565 378.061 285.507C378.082 285.448 378.115 285.394 378.158 285.348C378.2 285.302 378.251 285.265 378.307 285.239C378.364 285.212 378.425 285.197 378.488 285.195C378.55 285.192 378.613 285.202 378.671 285.223L387.322 288.378C387.427 288.416 387.516 288.49 387.572 288.587C387.628 288.684 387.648 288.798 387.629 288.908C387.609 289.019 387.551 289.118 387.465 289.19C387.379 289.262 387.271 289.302 387.159 289.301Z" fill="#090E22"/>
<path d="M372.672 311.27C371.329 311.131 371.521 312.535 372.672 313.013C375.064 313.865 377.576 314.331 380.114 314.396C381.541 313.062 382.612 311.621 382.487 310.669C379.238 311.145 375.955 311.346 372.672 311.27Z" fill="#080F29"/>
<path d="M372.909 333.546C375.906 331.025 379.712 326.379 380.075 324.536C379.974 324.619 379.85 324.67 379.72 324.683C379.59 324.696 379.458 324.67 379.342 324.61C377.251 323.658 369.648 321.35 366.656 316.404C366.479 316.111 366.315 315.801 366.156 315.479C365.928 315.68 365.723 315.905 365.545 316.151C364.063 318.21 367.119 322.139 369.526 326.395C370.601 328.299 370.399 330.483 370.103 332.204C370.894 332.905 371.866 333.37 372.909 333.546Z" fill="#B0D0EF"/>
<path d="M374.096 326.874C374.531 325.963 374.382 324.986 373.764 324.692C373.146 324.398 372.293 324.897 371.858 325.808C371.424 326.719 371.572 327.696 372.19 327.99C372.808 328.284 373.662 327.784 374.096 326.874Z" fill="#85B0DF"/>
<path d="M519.697 314.6C516.861 312.003 514.09 309.455 513.848 309.19C513.334 308.636 510.651 308.014 506.992 311.391C504.5 313.689 494.09 328.515 494.09 328.515L499.912 341.391C505.525 336.041 512.384 327.53 515.747 323.248C517.806 320.765 519.169 317.781 519.697 314.6Z" fill="#85B0DF"/>
<path d="M496.205 324.755C494.943 326.962 494.089 328.514 494.089 328.514L499.911 341.39C500.512 340.816 501.128 340.206 501.753 339.569C500.186 334.689 497.801 328.656 496.205 324.755Z" fill="#B0D0EF"/>
<path d="M495.464 321.872C495.098 324.176 492.578 328.479 495.001 329.447C500.557 331.666 513.255 320.383 513.799 313.446C514.271 307.429 511.205 309.712 506.992 311.396C502.78 313.08 495.464 321.872 495.464 321.872Z" fill="#050F3A"/>
<path d="M500.651 301.593C497.617 303.901 489.121 302.484 487.871 302.484C486.621 302.484 481.759 297.073 479.814 295.963C479.474 295.739 479.091 295.589 478.689 295.523C478.286 295.458 477.875 295.478 477.481 295.583C477.088 295.688 476.721 295.875 476.404 296.132C476.088 296.389 475.83 296.709 475.647 297.073C473.008 293.882 470.647 293.881 469.813 294.645C468.98 295.409 469.258 296.448 470.925 298.574C468.755 298.53 467.869 300.464 469.745 302.414C471.113 303.913 472.608 305.291 474.212 306.535C472.662 306.535 470.508 308.233 472.73 310.669C474.915 313.062 483.586 322.044 484.965 323.57C486.344 325.097 494.122 326.877 495.233 326.333C496.554 326.727 497.904 327.017 499.271 327.199C500.208 327.207 504.132 325.617 507.317 322.738C510.562 319.805 512.178 316.196 512.319 314.726C512.67 312.01 512.716 309.262 512.457 306.535C512.113 302.417 511.633 299.57 511.485 297.073C511.231 292.79 512.967 286.363 510.873 286.373C507.789 286.388 505.428 291.544 504.54 294.142C503.15 298.206 502.595 300.114 500.651 301.593Z" fill="#DE8864"/>
<path d="M482.385 313.454C482.385 313.454 488.983 320.326 489.677 321.046C490.371 321.767 493.269 322.465 493.709 321.046C494.149 319.627 492.463 318.746 490.722 318.106C488.982 317.467 482.871 313.188 482.385 313.454Z" fill="#EEC6B5"/>
<path d="M481.61 305.078C481.097 305.574 485.862 312.196 486.485 313.028C487.108 313.86 494.192 317.222 494.956 317.656C495.72 318.09 498.741 315.258 496.623 314.623C494.505 313.989 489.947 311.182 489.947 311.182L484.885 309.352L481.61 305.078Z" fill="#EEC6B5"/>
<path d="M475.647 297.073L485.44 308.303C485.44 308.303 494.751 307.921 496.691 308.01C498.632 308.099 499.886 309.626 499.4 310.736C499.213 311.075 498.943 311.361 498.615 311.568C498.287 311.774 497.912 311.894 497.525 311.915L498.827 313.156C499.701 312.661 500.409 311.917 500.859 311.018C501.101 310.634 501.254 310.201 501.307 309.751C501.359 309.3 501.311 308.844 501.164 308.414C501.018 307.985 500.777 307.594 500.46 307.269C500.142 306.945 499.757 306.695 499.33 306.539C497.042 305.462 489.522 303.464 487.871 302.487C486.625 302.487 481.759 297.076 479.814 295.966C479.475 295.742 479.091 295.592 478.689 295.526C478.287 295.46 477.876 295.48 477.482 295.585C477.088 295.689 476.721 295.876 476.405 296.133C476.089 296.389 475.831 296.709 475.647 297.073Z" fill="#EEC6B5"/>
<path d="M475.647 297.072C475.647 297.072 484.329 308.795 484.885 309.35C485.44 309.905 496.691 313.304 497.872 313.442C499.053 313.58 499.608 312.402 497.525 311.916C495.441 311.431 485.926 308.504 485.44 308.302C484.954 308.101 475.647 297.072 475.647 297.072Z" fill="#080F29"/>
<path d="M486.09 322.413C485.492 322.414 484.917 322.64 484.478 323.045C484.682 323.265 484.849 323.444 484.963 323.57C485.47 324.132 486.849 324.728 488.441 325.231C488.508 324.886 488.498 324.53 488.41 324.19C488.323 323.85 488.16 323.533 487.935 323.264C487.71 322.994 487.427 322.778 487.108 322.63C486.788 322.483 486.44 322.409 486.088 322.413H486.09Z" fill="#EEC6B5"/>
<path d="M463.96 174.097V209.518C463.96 209.518 455.348 215.479 444.61 215.479C433.871 215.479 425.256 209.518 425.256 209.518V174.097H463.96Z" fill="#EEC6B5"/>
<path d="M425.26 209.517C430.605 213.363 437.026 215.435 443.614 215.44C443.561 212.264 444.987 213.414 445.834 210.257C446.777 206.742 445.541 204.522 443.782 201.748C442.022 198.974 441.466 197.217 443.782 195.274C446.097 193.332 456.746 186.211 458.968 184.731C461.191 183.251 459.276 183.183 457.44 183.34C456.543 183.413 455.94 178.476 455.583 174.099H425.26V209.517Z" fill="#DE8864"/>
<path d="M425.26 204.929C426.17 203.584 426.624 201.983 426.556 200.361C426.556 197.124 427.019 193.148 429.242 190.545C431.465 187.942 436.187 188.708 439.15 189.911C442.113 191.114 443.224 191.113 446.637 189.911C449.872 188.617 452.955 186.973 455.831 185.009C457.141 184.084 456.208 183.994 455.831 183.472C455.554 183.088 452.89 176.973 451.519 174.095H425.26V204.929Z" fill="#080F29"/>
<path d="M450.368 185.541C457.036 185.541 466.525 177.017 467.407 173.286C468.426 170.142 470.555 157.056 471.111 152.154C471.738 146.62 470.926 135.153 472.262 125.966C472.39 115.539 467.251 107.58 445.658 107.58C424.064 107.58 417.089 116.108 417.214 126.536C417.374 139.664 422.862 169.075 425.282 175.183C426.695 178.746 440.498 185.541 447.166 185.541H450.368Z" fill="#EEC6B5"/>
<path d="M453.467 166.798C450.492 166.728 448.756 167.838 448.605 167.399C448.469 167.003 448.368 165.039 448.145 163.755C447.974 162.773 450.716 162.67 450.645 161.744C450.526 160.183 449.395 154.796 448.562 148.218C447.731 141.665 447.148 139.494 442.635 138.157C437.909 136.757 430.165 138.272 429.366 137.498C427.992 136.164 427.481 133.559 427.851 131.062C428.221 128.566 426.787 124.34 427.252 120.05C427.612 116.727 429.519 117.034 430.445 115.647L431.032 109.371C420.776 112.405 417.124 118.968 417.217 126.533C417.377 139.661 422.865 169.072 425.285 175.18C426.698 178.743 440.501 185.538 447.169 185.538H450.368C451.862 185.492 453.333 185.168 454.707 184.582C453.551 183.422 448.093 182.559 447.937 180.752C447.729 178.324 448.927 174.497 448.979 173.816C449.013 173.417 448.906 173.018 448.677 172.689C448.449 172.36 448.112 172.121 447.726 172.012C446.965 171.688 446.779 169.503 447.845 169.503C448.61 169.503 449.581 169.449 450.667 169.35C454.333 169.015 457.588 169.391 457.912 169.067C458.236 168.743 455.478 166.848 453.467 166.798Z" fill="#DE8864"/>
<path d="M428.202 137.259C427.84 136.503 431.744 134.554 436.475 135.151C439.805 135.572 442.611 137.216 442.633 138.161C442.644 138.6 439.825 138.216 435.78 138.022C430.618 137.774 428.401 137.675 428.202 137.259Z" fill="#080F29"/>
<path d="M459.882 110.21C459.111 109.65 461.422 114.846 457.451 117.702C452.411 121.443 446.22 123.307 439.949 122.973C432.632 122.557 432.102 121.401 428.884 122.511C425.474 123.687 425.696 126.172 425.411 130.788C425.149 135.039 423.696 140.498 423.906 147.456C423.976 149.747 422.392 149.791 421.983 147.316C417.121 145.778 424.243 164.923 422.622 165.458C421.787 165.733 421.022 165.483 420.129 162.658C417.865 155.501 412.528 142.481 412.031 137.609C411.729 134.652 414.025 133.435 413.49 132.264C412.726 130.6 409.384 123.6 414.114 114.299C416.868 108.889 426.12 100.967 441.113 100.079C457.522 99.1084 459.397 107.363 460.931 108.06C461.792 108.449 473.287 106.071 474.954 116.8C476.289 125.395 474.491 134.719 471.417 140.903C471.528 138.561 471.484 137.625 471.69 134.487C471.844 132.12 470.594 129.216 466.057 125.887C461.52 122.558 460.706 122.237 460.931 118.534C461.167 114.615 462.556 112.153 459.882 110.21Z" fill="#080F29"/>
<path d="M463.334 135.833C461.264 135.785 454.588 136.519 453.777 138.001C453.422 138.648 452.365 141.852 453.423 142.74C454.376 143.54 455.493 142.322 457.846 140.086C459.317 138.545 461.27 137.551 463.382 137.265C464.862 137.17 464.584 135.862 463.334 135.833Z" fill="#DE8864"/>
<path d="M469.118 141.713C470.353 140.638 473.927 140.814 473.269 144.665C472.473 149.317 470.715 157.428 469.465 159.508C468.215 161.589 466.27 162.422 465.297 161.312C464.324 160.202 467.861 142.809 469.118 141.713Z" fill="#EEC6B5"/>
<path d="M467.455 137.499C467.79 136.732 463.664 134.817 459.133 135.072C455.782 135.26 453.684 137.435 453.691 138.38C453.695 138.819 456.531 138.147 460.573 137.892C465.335 137.591 467.269 137.922 467.455 137.499Z" fill="#080F29"/>
<path d="M455.16 145.38C456.186 142.124 464.048 140.822 466.057 144.391C465.586 146.943 458.409 147.485 455.16 145.38Z" fill="#DFECF7"/>
<mask id="mask0_1012_32838" style="mask-type:luminance" maskUnits="userSpaceOnUse" x="455" y="142" width="12" height="5">
<path d="M455.161 145.38C456.187 142.124 464.049 140.822 466.058 144.391C465.587 146.943 458.316 147.601 455.161 145.38Z" fill="white"/>
</mask>
<g mask="url(#mask0_1012_32838)">
<path d="M461.335 147.234C462.582 147.234 463.593 146.225 463.593 144.98C463.593 143.735 462.582 142.726 461.335 142.726C460.089 142.726 459.078 143.735 459.078 144.98C459.078 146.225 460.089 147.234 461.335 147.234Z" fill="#102B68"/>
<path d="M461.354 146.251C461.894 146.251 462.332 145.814 462.332 145.275C462.332 144.735 461.894 144.298 461.354 144.298C460.814 144.298 460.376 144.735 460.376 145.275C460.376 145.814 460.814 146.251 461.354 146.251Z" fill="#080F28"/>
</g>
<path d="M455.159 145.93C455.06 145.929 454.962 145.902 454.876 145.85C454.791 145.799 454.721 145.725 454.674 145.637C454.627 145.549 454.606 145.449 454.611 145.35C454.617 145.25 454.649 145.154 454.706 145.071C455.664 143.663 457.432 142.676 459.683 142.289C462.225 141.856 464.917 142.289 466.383 143.371C466.443 143.413 466.494 143.467 466.533 143.529C466.571 143.591 466.598 143.66 466.609 143.732C466.621 143.804 466.618 143.878 466.601 143.949C466.584 144.02 466.552 144.087 466.509 144.146C466.466 144.205 466.411 144.255 466.348 144.292C466.285 144.329 466.215 144.354 466.143 144.364C466.07 144.374 465.997 144.37 465.926 144.351C465.855 144.332 465.789 144.3 465.731 144.255C464.509 143.354 462.098 142.993 459.866 143.372C457.911 143.705 456.401 144.527 455.614 145.686C455.564 145.761 455.496 145.822 455.417 145.865C455.338 145.907 455.249 145.929 455.159 145.93Z" fill="#DE8864"/>
<path d="M430.21 144.069C431.788 141.042 439.756 141.124 441.113 144.987C440.206 147.418 433.042 146.707 430.21 144.069Z" fill="#DFECF7"/>
<mask id="mask1_1012_32838" style="mask-type:luminance" maskUnits="userSpaceOnUse" x="430" y="141" width="12" height="6">
<path d="M430.21 144.068C431.788 141.041 439.756 141.123 441.113 144.986C440.206 147.417 432.932 146.804 430.21 144.068Z" fill="white"/>
</mask>
<g mask="url(#mask1_1012_32838)">
<path d="M438.581 145.138C438.798 143.912 437.978 142.742 436.751 142.526C435.523 142.31 434.352 143.128 434.135 144.354C433.919 145.58 434.738 146.75 435.966 146.966C437.194 147.182 438.365 146.364 438.581 145.138Z" fill="#102B68"/>
<path d="M436.327 146.017C436.867 146.017 437.305 145.58 437.305 145.04C437.305 144.501 436.867 144.063 436.327 144.063C435.786 144.063 435.349 144.501 435.349 145.04C435.349 145.58 435.786 146.017 436.327 146.017Z" fill="#080F28"/>
</g>
<path d="M441.216 144.968C441.142 144.969 441.068 144.954 441 144.924C440.931 144.895 440.87 144.852 440.819 144.798C439.772 143.7 437.461 142.924 435.2 142.911H435.142C434.321 142.858 433.499 142.966 432.721 143.231C431.943 143.495 431.224 143.911 430.607 144.453C430.558 144.507 430.498 144.551 430.431 144.582C430.364 144.613 430.291 144.63 430.217 144.632C430.144 144.634 430.07 144.621 430.002 144.595C429.933 144.568 429.87 144.528 429.818 144.476C429.765 144.425 429.723 144.364 429.694 144.296C429.666 144.228 429.651 144.155 429.651 144.081C429.652 144.008 429.667 143.935 429.696 143.867C429.725 143.799 429.767 143.738 429.82 143.687C431.009 142.466 432.907 141.804 435.206 141.814C437.783 141.827 440.359 142.723 441.614 144.042C441.688 144.119 441.738 144.217 441.757 144.323C441.776 144.429 441.764 144.538 441.721 144.636C441.679 144.735 441.608 144.819 441.519 144.878C441.429 144.938 441.324 144.969 441.216 144.969V144.968Z" fill="#BC694B"/>
<path d="M464.462 141.697C464.343 141.697 464.228 141.659 464.133 141.589C463.473 141.098 460.608 140.804 459.554 141.119C459.484 141.14 459.411 141.148 459.339 141.141C459.267 141.134 459.197 141.113 459.133 141.079C459.069 141.044 459.012 140.998 458.966 140.942C458.92 140.886 458.886 140.821 458.865 140.752C458.844 140.682 458.837 140.609 458.845 140.537C458.853 140.465 458.874 140.395 458.909 140.332C458.944 140.268 458.991 140.212 459.047 140.167C459.104 140.121 459.169 140.087 459.238 140.067C460.534 139.681 463.792 139.963 464.792 140.708C464.885 140.777 464.953 140.873 464.988 140.984C465.023 141.094 465.021 141.212 464.985 141.322C464.948 141.431 464.878 141.526 464.784 141.594C464.69 141.661 464.577 141.697 464.462 141.697Z" fill="#DE8864"/>
<path d="M432.102 141.455C431.973 141.455 431.848 141.409 431.749 141.327C431.65 141.244 431.583 141.129 431.561 141.003C431.538 140.876 431.56 140.745 431.624 140.633C431.688 140.521 431.789 140.436 431.91 140.391C433.545 139.885 435.284 139.816 436.953 140.191C437.023 140.208 437.09 140.238 437.148 140.281C437.207 140.323 437.256 140.377 437.294 140.438C437.331 140.5 437.357 140.568 437.368 140.639C437.379 140.711 437.376 140.783 437.359 140.853C437.342 140.924 437.312 140.99 437.269 141.048C437.227 141.106 437.173 141.156 437.112 141.193C437.05 141.231 436.982 141.256 436.91 141.268C436.839 141.279 436.766 141.276 436.696 141.259C435.238 140.94 433.723 140.995 432.293 141.42C432.232 141.443 432.167 141.455 432.102 141.455Z" fill="#BC694B"/>
<path d="M420.851 143.088C418.27 139.35 415.572 141.471 415.572 145.378C415.572 150.996 417.332 157.825 418.578 159.908C419.824 161.991 422.25 163.832 423.222 162.722C424.194 161.612 422.082 144.868 420.851 143.088Z" fill="#DE8864"/>
<path d="M466.758 190.719C466.203 189.147 465.283 187.894 463.96 187.614C464.107 190.494 463.96 192.582 463.96 196.361C463.96 206.122 436.695 212.94 435.145 212.94C433.594 212.94 430.086 208.661 427.576 204.594C426.286 202.503 425.235 197.913 425.235 193.104C425.235 188.294 425.235 188.384 425.26 185.542C424.044 186.272 422.94 187.176 421.985 188.224C417.818 193.958 412.864 202.375 411.197 219.299C411.131 219.969 419.127 216.48 423.838 215.383C427.562 214.596 431.343 214.101 435.145 213.903C437.034 213.859 449.026 219.481 456.427 224.386C459.753 220.237 462.744 215.83 465.371 211.207C468.443 205.945 468.464 195.546 466.758 190.719Z" fill="#B0D0EF"/>
<path d="M456.425 224.861C456.326 224.861 456.229 224.83 456.149 224.773C448.511 219.321 436.949 214.376 435.144 214.376C431.376 214.549 427.63 215.038 423.945 215.84C421.351 216.536 418.796 217.367 416.29 218.33C412.519 219.697 411.508 220.02 411.03 219.776C410.895 219.698 410.791 219.575 410.737 219.429C410.704 219.308 410.719 219.178 410.78 219.069C410.841 218.959 410.943 218.878 411.064 218.843C411.13 218.824 411.2 218.819 411.268 218.83C411.337 218.84 411.402 218.866 411.459 218.904C412.992 218.519 414.496 218.029 415.963 217.44C418.505 216.465 421.097 215.625 423.728 214.923C427.484 214.105 431.303 213.606 435.143 213.431C437.308 213.431 448.899 218.432 456.702 224.002C456.784 224.06 456.845 224.144 456.877 224.239C456.909 224.335 456.909 224.439 456.878 224.535C456.848 224.631 456.787 224.715 456.705 224.774C456.623 224.833 456.525 224.865 456.424 224.865L456.425 224.861Z" fill="#050F3A"/>
<path d="M425.234 193.102C425.234 188.293 425.234 188.382 425.259 185.54C424.043 186.271 422.94 187.174 421.984 188.222C419.674 191.401 417.219 194.511 415.206 200.685C417.015 197.424 420.943 193.227 422.201 192.582C423.332 192.003 424.318 193.69 425.28 195.251C425.252 194.549 425.234 193.827 425.234 193.102Z" fill="#85B0DF"/>
<path d="M500.651 302.072C500.542 302.073 500.436 302.035 500.351 301.967C500.266 301.899 500.207 301.803 500.184 301.697C500.161 301.59 500.175 301.479 500.224 301.382C500.273 301.284 500.355 301.207 500.454 301.162L506.115 298.608C506.172 298.582 506.234 298.568 506.296 298.566C506.359 298.564 506.421 298.574 506.48 298.596C506.538 298.618 506.592 298.652 506.638 298.694C506.683 298.737 506.72 298.789 506.746 298.846C506.771 298.903 506.786 298.964 506.788 299.026C506.79 299.089 506.779 299.151 506.757 299.21C506.735 299.268 506.702 299.322 506.659 299.367C506.616 299.413 506.564 299.45 506.507 299.475L500.846 302.03C500.785 302.058 500.718 302.072 500.651 302.072Z" fill="#090E22"/>
<defs>
<filter id="filter0_f_1012_32838" x="-8" y="-8" width="765" height="771" filterUnits="userSpaceOnUse" color-interpolation-filters="sRGB">
<feFlood flood-opacity="0" result="BackgroundImageFix"/>
<feBlend mode="normal" in="SourceGraphic" in2="BackgroundImageFix" result="shape"/>
<feGaussianBlur stdDeviation="4" result="effect1_foregroundBlur_1012_32838"/>
</filter>
</defs>
</svg>
