<svg width="53" height="12" viewBox="0 0 53 12" fill="none" xmlns="http://www.w3.org/2000/svg">
<path d="M42.4284 10.5981C47.8966 10.1636 52.1704 7.8052 51.9741 5.33041C51.7778 2.85561 47.1858 1.20163 41.7175 1.63612C36.2493 2.07062 31.9755 4.42907 32.1718 6.90386C32.3681 9.37866 36.9601 11.0326 42.4284 10.5981Z" fill="#EEC6B5"/>
<path d="M34.5806 5.07101C35.9793 0.6249 46.8298 -1.35115 49.5674 3.52398C48.929 7.00607 38.7699 9.29612 34.5806 5.07101Z" fill="#DFECF7"/>
<mask id="mask0_1197_10392" style="mask-type:luminance" maskUnits="userSpaceOnUse" x="34" y="0" width="16" height="8">
<path d="M34.582 5.07004C35.9808 0.623924 46.8313 -1.35212 49.5689 3.523C48.9304 7.00509 38.7713 9.29514 34.582 5.07004Z" fill="white"/>
</mask>
<g mask="url(#mask0_1197_10392)">
<path d="M41.8776 6.49117C43.5766 6.49117 44.9539 5.11262 44.9539 3.4121C44.9539 1.71157 43.5766 0.333008 41.8776 0.333008C40.1786 0.333008 38.8013 1.71157 38.8013 3.4121C38.8013 5.11262 40.1786 6.49117 41.8776 6.49117Z" fill="#102B68"/>
<path d="M41.8782 4.74815C42.6143 4.74815 43.2111 4.15088 43.2111 3.41411C43.2111 2.67735 42.6143 2.08008 41.8782 2.08008C41.1421 2.08008 40.5454 2.67735 40.5454 3.41411C40.5454 4.15088 41.1421 4.74815 41.8782 4.74815Z" fill="#080F28"/>
</g>
<path d="M34.5811 5.81657C34.4603 5.81612 34.3415 5.7865 34.2347 5.7302C34.1279 5.6739 34.0362 5.5926 33.9675 5.49323C33.8989 5.39385 33.8552 5.27932 33.8402 5.15942C33.8253 5.03951 33.8395 4.91777 33.8817 4.80455C34.7419 2.48949 37.1788 0.767442 40.404 0.198427C44.2736 -0.48459 48.0972 0.628438 50.1414 3.0325C50.2703 3.18394 50.3338 3.38044 50.318 3.57876C50.3022 3.77709 50.2083 3.96099 50.057 4.09002C49.9057 4.21905 49.7094 4.28265 49.5112 4.2668C49.3131 4.25095 49.1293 4.15697 49.0004 4.00553C47.3179 2.02848 43.9738 1.09246 40.6637 1.67547C37.9661 2.15048 35.9599 3.51652 35.2864 5.32856C35.2329 5.47237 35.1365 5.59627 35.0104 5.68354C34.8843 5.7708 34.7344 5.81723 34.5811 5.81657Z" fill="#DE8864"/>
<path d="M15.7173 5.06643C14.3185 0.619315 3.46706 -1.35573 0.730469 3.51939C1.37091 7.00148 11.528 9.29154 15.7173 5.06643Z" fill="#B0D0EF"/>
<mask id="mask1_1197_10392" style="mask-type:luminance" maskUnits="userSpaceOnUse" x="0" y="0" width="16" height="8">
<path d="M15.7183 5.07033C14.3195 0.623221 3.46804 -1.35183 0.731445 3.5233C1.37188 7.00539 11.529 9.29544 15.7183 5.07033Z" fill="white"/>
</mask>
<g mask="url(#mask1_1197_10392)">
<path d="M8.42296 6.49117C10.1219 6.49117 11.4993 5.11262 11.4993 3.4121C11.4993 1.71157 10.1219 0.333008 8.42296 0.333008C6.72396 0.333008 5.34668 1.71157 5.34668 3.4121C5.34668 5.11262 6.72396 6.49117 8.42296 6.49117Z" fill="#102B68"/>
<path d="M8.42363 4.74815C9.15973 4.74815 9.75648 4.15088 9.75648 3.41411C9.75648 2.67735 9.15973 2.08008 8.42363 2.08008C7.68753 2.08008 7.09082 2.67735 7.09082 3.41411C7.09082 4.15088 7.68753 4.74815 8.42363 4.74815Z" fill="#080F28"/>
</g>
<path d="M15.7165 5.81582C15.5642 5.81498 15.4158 5.76786 15.2909 5.68071C15.166 5.59356 15.0705 5.4705 15.0171 5.32781C14.3437 3.51577 12.3334 2.14973 9.6388 1.67472C6.33571 1.09271 2.98564 2.02773 1.30412 4.00478C1.17294 4.14839 0.991202 4.23542 0.797177 4.24757C0.603152 4.25972 0.411986 4.19602 0.263954 4.06989C0.115922 3.94376 0.022589 3.76506 0.00359333 3.57141C-0.0154023 3.37776 0.0414184 3.18429 0.162115 3.03175C2.20932 0.63169 6.03595 -0.484338 9.89855 0.19768C13.1227 0.766694 15.5616 2.48874 16.4218 4.8038C16.464 4.91702 16.4782 5.03876 16.4633 5.15867C16.4483 5.27857 16.4047 5.3931 16.336 5.49248C16.2673 5.59186 16.1756 5.67315 16.0688 5.72945C15.962 5.78575 15.8432 5.81538 15.7224 5.81582H15.7165Z" fill="#BC694B"/>
</svg>
