<svg width="18" height="25" viewBox="0 0 18 25" fill="none" xmlns="http://www.w3.org/2000/svg">
<path d="M9 0.5C4.03711 0.5 0 4.53758 0 9.5C0 16.1397 8.30372 24.0312 8.65725 24.3643C8.75391 24.4546 8.87695 24.5 9 24.5C9.12305 24.5 9.24609 24.4546 9.3428 24.3643C9.69628 24.0312 18 16.1397 18 9.5C18 4.53758 13.9629 0.5 9 0.5ZM9 14.5C6.24314 14.5 3.99998 12.2569 3.99998 9.5C3.99998 6.74314 6.24319 4.49998 9 4.49998C11.7568 4.49998 14 6.74319 14 9.5C14 12.2568 11.7569 14.5 9 14.5Z" fill="#1562A1"/>
</svg>
