<svg width="22" height="22" viewBox="0 0 22 22" fill="none" xmlns="http://www.w3.org/2000/svg">
<path d="M10.2929 15.4928C10.6834 15.8833 11.3166 15.8833 11.7071 15.4928L18.0711 9.12886C18.4616 8.73834 18.4616 8.10517 18.0711 7.71465C17.6805 7.32412 17.0474 7.32412 16.6569 7.71465L11 13.3715L5.34315 7.71465C4.95262 7.32412 4.31946 7.32412 3.92893 7.71465C3.53841 8.10517 3.53841 8.73834 3.92893 9.12886L10.2929 15.4928ZM10 0.5L10 14.7857L12 14.7857L12 0.5L10 0.5Z" fill="#1562A1"/>
<path d="M21 16.6309L21 20.4999L1 20.4999L1 16.6309" stroke="#1562A1" stroke-width="2"/>
</svg>
