<svg width="65" height="82" viewBox="0 0 65 82" fill="none" xmlns="http://www.w3.org/2000/svg">
<rect x="1" width="63" height="74" rx="6" fill="#202020"/>
<path fill-rule="evenodd" clip-rule="evenodd" d="M32.6019 0H1.02606V16.3972L1.29008 16.3769H1.69625H2.10243H2.5086L2.91477 16.4053L3.32094 16.45L3.72711 16.5109L4.13329 16.5881L4.53946 16.6815L4.94563 16.7912L5.3518 16.913L5.75798 17.0552L6.16415 17.2136L6.55002 17.3882L6.92776 17.5751L7.30143 17.7822L7.66699 18.0097L8.02849 18.2493L8.38186 18.5093L8.73116 18.7855L9.06829 19.0779L9.40133 19.3866L9.8075 19.7928L9.68566 19.4922L9.38509 18.6799L9.0886 17.8432L8.80427 16.9861L8.52401 16.1169L8.25595 15.2274L7.99193 14.3216L7.73603 13.4037L7.50451 12.5385L7.42327 12.4329L7.30956 12.2623L7.20395 12.1121L7.10241 11.9862L7.01306 11.8927L6.93993 11.844L6.89119 11.8237H6.57032V11.8521L6.46471 11.9252H6.44441H6.42004H6.39567V11.9455L6.36724 11.9699L6.34287 11.9943L6.24945 12.0796L6.01387 12.1446L5.85952 12.1811L5.70111 12.2136L5.54269 12.238L5.38431 12.2583H5.22589H5.06748H4.90907L4.74661 12.2298L4.5882 12.1892L4.43385 12.1283L4.28357 12.0471L4.14142 11.9496L4.00738 11.8277L3.92207 11.7343L3.87333 11.8156L3.69868 11.4338L3.64588 11.3606V11.3403L3.61337 11.2754L3.5687 11.2429L3.44686 11.1372L3.33718 11.0235L3.24377 10.9017L3.16253 10.7676L3.10162 10.6295L3.05288 10.4833L3.02444 10.329V10.1746V10.0162V9.8578L3.05692 9.69533L3.10566 9.53287L3.17066 9.36634L3.24377 9.1998L3.32907 9.03327L3.45499 8.818L3.5809 8.61085L3.71088 8.40371L3.84896 8.19656L3.99518 7.99347L4.14548 7.79445L4.29981 7.59948L4.45822 7.40452L4.6207 7.21363L4.79128 7.02678L4.96187 6.84401L5.14059 6.66123L5.3193 6.48251L5.50615 6.31192L5.693 6.14133L5.88796 5.97479L6.08291 5.81233L6.28193 5.65391L6.48502 5.49958L6.6881 5.34928L6.89526 5.20713L7.10647 5.06497L7.32173 4.93093L7.53295 4.80096L7.75227 4.67505L7.97162 4.55319L8.19095 4.43946L8.41434 4.3298L8.63775 4.22419L8.86114 4.12671L9.0886 4.03329L9.32012 3.94393L9.49883 3.88707L9.67349 3.83832L9.84814 3.80177L10.0147 3.7774H10.1812H10.3396H10.498L10.6483 3.81395L10.7945 3.86676L10.9326 3.93175L11.0626 4.01704L11.1804 4.11453L11.29 4.22826L11.3835 4.35417L11.4688 4.49227L11.4972 4.54101L11.5541 4.58162H11.5744L11.6434 4.64661L11.9846 4.87407L11.9034 4.91062L11.9846 5.0081L12.078 5.15838L12.1552 5.3168L12.2121 5.4752L12.2486 5.63768V5.80421V5.96261V6.12508L12.2567 6.34441L12.2202 6.49876L12.1796 6.65311L12.1308 6.80339L12.074 6.95367L12.013 7.09989L11.9155 7.32329L11.814 7.40452H11.7856L11.7612 7.4289L11.7368 7.4492L11.7125 7.4695L11.6231 7.56293H11.5906L11.5662 7.71321V7.76602L11.6069 7.84725L11.684 7.9488L11.7937 8.06658L11.9277 8.19656L12.074 8.33465L12.1674 8.42808L12.9797 8.78957L13.8489 9.19574L14.7019 9.60191L15.5386 10.0081L16.351 10.4143L17.1633 10.8204L17.9432 11.2266L18.7068 11.6328L19.446 12.0633L20.1609 12.502L20.8554 12.9447L21.5215 13.3996L22.1633 13.8586L22.7807 14.3298L23.3696 14.805L23.9261 15.2924L24.4541 15.7879L24.9537 16.2916L25.3761 16.9049L25.8066 17.4329L26.2128 17.9691L26.5743 18.5174L26.8952 19.0779L27.1795 19.6506L27.4232 20.2355L27.6263 20.8366L27.7888 21.4459L27.9025 22.0673L27.9756 22.701L28 23.3509L27.9756 24.0088L27.8944 24.7725L27.9675 24.9309L28.0528 25.1055L28.1421 25.2761L28.2356 25.4426L28.3371 25.6051L28.4427 25.7676L28.5524 25.926L28.6661 26.0803L28.788 26.2306L28.9139 26.3768L29.0439 26.5231L29.1819 26.6652L29.3241 26.8033L29.4703 26.9374L29.6247 27.0673L29.7831 27.1973L29.9455 27.3232L30.1161 27.4451L30.2908 27.5629L30.4736 27.6807L30.6563 27.7944L30.8513 27.9041L31.0463 28.0097L31.2494 28.1112L31.4565 28.2127L31.6718 28.3102L31.8911 28.4036L32.1186 28.493L32.3501 28.5824L32.5857 28.6636L32.8253 28.7448L33.0203 28.8057L34.7587 28.8504L34.9252 28.891L35.0917 28.9479L35.2502 29.0251L35.4004 29.1185L35.5467 29.2322L35.6807 29.3622L35.8025 29.5084L35.9163 29.675L36.0138 29.8537L36.0788 29.9958H36.1234L36.1559 30.1867L36.2534 30.4101H36.1965L36.225 30.5807L36.2453 30.8082V31.0316V31.2509L36.2209 31.4702L36.1803 31.6855L36.1275 31.9008L36.0544 32.1079L35.9691 32.3151L35.8675 32.51L35.7498 32.705L35.6198 32.8878L35.4735 33.0665L35.3111 33.233L35.1364 33.3955L34.8115 33.6514L35.0836 33.8179L35.9894 34.3866L36.887 34.9552L37.7725 35.536L38.6457 36.1209L39.5028 36.7139L40.3476 37.3151L41.16 37.9243L41.9723 38.5417L42.7603 39.1713L43.532 39.813L44.2794 40.467L45.0064 41.1331L45.705 41.8114L46.3793 42.506L47.0251 43.2168L47.6425 43.9438L48.2274 44.683L48.7838 45.4426L49.3078 46.2224L49.7952 47.0348L50.2461 47.8471L50.6522 48.6595L51.0259 49.5165L51.359 50.3979L51.6514 51.2955L51.8992 52.2216L52.1022 53.168L52.2607 54.1387L52.3581 55.0445L52.4962 55.2557L52.679 55.54L52.8618 55.8243L53.0446 56.1087L53.2273 56.393L53.4101 56.6814L53.5929 56.9657L53.7757 57.2541L53.9544 57.5465L54.1372 57.8349L54.3159 58.1273L54.4946 58.4198L54.6733 58.7163L54.852 59.0128L55.0267 59.3093L55.2054 59.6099L55.3801 59.9104L55.5547 60.2151L55.7294 60.5197L55.9 60.8284L56.0706 61.1371L56.2411 61.4458L56.4118 61.7626L56.5823 62.0753L56.7489 62.3962L56.9154 62.7171L57.0779 63.038L57.2444 63.367L57.4069 63.6919L57.5653 64.025L57.7277 64.358L57.8862 64.7033L58.0364 65.0485L58.1827 65.3897L58.3329 65.7309L58.4832 66.0721L58.6376 66.4133L58.7919 66.7504L58.9503 67.0875L59.1128 67.4246L59.2753 67.7618L59.4459 68.0948L59.6164 68.4279L59.7911 68.7569L59.9698 69.0859L60.1526 69.4149L60.3394 69.7439L60.5303 70.0688L60.7293 70.3937L60.9324 70.7146L61.1396 71.0355L61.3549 71.3523L61.5742 71.6691L61.8016 71.9859L62.0373 72.2987L62.2769 72.6033C63.7675 71.1695 64.3321 69.0006 64.1493 66.2386V51.2305L64.1522 51.1777V50.9746L64.1493 50.7716L64.1522 50.5685V50.3654V49.9592L64.1493 49.7236V35.6701V34.0657V32.6319V32.3476V31.9901V0H32.6019ZM44.5596 74.5814H45.8391L45.9081 74.3417L45.9853 74.0777L46.0544 73.8096L46.1234 73.5456L46.1843 73.2776L46.2412 73.0136L46.294 72.7455L46.3427 72.4815L46.3874 72.2134L46.424 71.9494L46.4605 71.6813L46.489 71.4173L46.5174 71.1533V70.8852V70.6212V70.3572V70.0891V69.5611V69.293V69.029V68.7609V68.4969L46.493 68.2329L46.4646 67.9648L46.4321 67.7008L46.3955 67.4328L46.3549 67.1687L46.3102 66.9047L46.2615 66.6488L46.0706 65.938L45.8634 65.2191L45.6482 64.5042L45.4167 63.7934L45.177 63.0826L44.9252 62.3759L44.6612 61.6732L44.389 60.9746L44.1007 60.276L43.8001 59.5814L43.4873 58.8909L43.1624 58.2045L42.8212 57.5181L42.4719 56.8357L42.1063 56.1574L41.7286 55.4831L41.3224 54.813L40.9163 54.1469L40.5101 53.4807L40.0795 52.8187L39.6287 52.1607L39.1697 51.5108L38.6945 50.8569L38.2193 50.211L37.7156 49.5693L37.1957 48.9275L36.6596 48.2939L36.1072 47.6603L35.5426 47.0348L34.9618 46.4093L34.3647 45.7878L33.7554 45.1786L33.4914 44.943L33.2234 44.6993L32.9593 44.4515L32.7035 44.1997L32.4516 43.9438L32.2039 43.6879L31.9642 43.428L31.7286 43.168L31.5012 42.8999L31.2737 42.6359L31.0544 42.3678L30.8351 42.0957L30.6238 41.8236L30.4167 41.5474L30.2136 41.2712L30.0105 40.995L29.8156 40.7147L29.6206 40.4345L29.4297 40.1501L29.2429 39.8699L29.0601 39.5815L28.8773 39.2972L28.6986 39.0088L28.6295 38.8991L28.4387 39.0738L28.264 39.2159L28.0812 39.3459L27.8944 39.4597L27.7035 39.5571L27.5085 39.6424L27.3095 39.7155L27.1064 39.7724L26.9074 39.813H26.9846L27.3298 39.8861L27.6751 39.9674L28.0162 40.0527L28.3574 40.1501L28.7352 40.2639L29.0235 40.4467L29.2632 40.6132L29.4988 40.7878L29.7181 40.9706L29.9334 41.1615L30.1324 41.3605L30.3273 41.5636L30.5061 41.7789L30.6766 41.9982L30.8391 42.2257L30.9894 42.4572L31.1316 42.7009L31.2615 42.9487L31.3793 43.2005L31.485 43.4645L31.5865 43.7326L31.6718 44.0088L31.7489 44.289L31.8139 44.5774L31.8708 44.8699L31.9155 45.1704L31.952 45.4791L31.9764 45.7919V46.1127V46.7708V47.1119L31.948 47.4572L31.9114 47.8065L31.8668 48.1639L31.8099 48.5295L31.753 48.8463L31.9642 48.9682L32.3054 49.1753L32.6588 49.4028L33.0162 49.6465L33.3818 49.9064L33.7514 50.1867L34.121 50.4791L34.4947 50.7837L34.8684 51.1046L35.242 51.4377L35.6076 51.7829L35.9691 52.1444L36.3225 52.51L36.6677 52.8918L37.0008 53.2979L37.3216 53.7041L37.6303 54.1103L37.9187 54.5165L38.1908 54.9226L38.4467 55.3491L38.6742 55.7837L38.8854 56.2224L39.0641 56.7098L39.2185 57.1566L39.3444 57.6074L39.4378 58.0624L39.4987 58.5213L39.5231 58.9803V59.4393L39.4662 59.8942L39.3728 60.3491L39.3403 60.4466L39.5393 60.5278L40.8553 60.9705H40.567L40.7335 61.064L40.965 61.198L41.1965 61.3483L41.4199 61.5108L41.6433 61.6854L41.8586 61.8763L42.0657 62.0794L42.2688 62.3028L42.4678 62.5384L42.6547 62.7943L42.8375 63.0704L43.0081 63.3629L43.1705 63.6716L43.2721 63.8706L43.3777 64.0778L43.4833 64.2971L43.5889 64.5286L43.6945 64.7723L43.8001 65.0241L43.9016 65.2841L44.0032 65.5562L44.1047 65.8405L44.2022 66.1371L44.2916 66.4417L44.3809 66.7544L44.4662 67.0834L44.5434 67.4165L44.6165 67.7658L44.6856 68.1232L44.7424 68.4929L44.7952 68.8747L44.8399 69.2808L44.8764 69.687L44.9008 70.0932V70.5197V71.397V71.8519L44.8724 72.319L44.8318 72.7983L44.779 73.2857L44.714 73.7853L44.6328 74.2971L44.5759 74.6058L44.5596 74.5814ZM16.8059 39.4921L16.6962 39.2769L16.5906 39.0535L16.4809 38.8341L16.3753 38.6108L16.2738 38.3914L16.1722 38.168L16.0748 37.9446L15.9773 37.7253L15.8839 37.5019L15.7904 37.2785L15.7011 37.0551L15.6117 36.8317L15.5224 36.6083L15.4371 36.3809L15.3518 36.1575L15.2705 35.9341L15.0999 35.4426L14.9375 34.943L14.7872 34.4312L14.645 33.9113L14.5069 33.3874L14.3769 32.8512L14.2551 32.311L14.1333 31.7668L14.0155 31.2184L13.8977 30.662L13.7799 30.1096L13.6621 29.549L13.5443 28.9926L13.4184 28.4321L13.2925 27.8756L13.1584 27.3192L13.0163 26.7668L12.8701 26.2184L12.7523 25.8123L13.1584 26.3809L13.5971 26.917L14.052 27.4248L14.5232 27.9L15.0106 28.3387L15.5183 28.7448L16.0382 29.1104L16.5784 29.4434L17.1389 29.7359L17.7198 29.9877L18.3168 30.1948L18.9342 30.3614L19.5678 30.4873L20.2218 30.5645L20.9894 30.601L21.1357 30.6945L21.2941 30.8041L21.4484 30.9219L21.5987 31.0397L21.749 31.1656L21.8911 31.2915L22.0292 31.4256L22.1633 31.5637L22.2933 31.7058L22.4232 31.852L22.5451 32.0023L22.6629 32.1607L22.7766 32.3232L22.8903 32.4897L22.9959 32.6603L23.0975 32.835L23.199 33.0177L23.2924 33.2046L23.3818 33.3955L23.4712 33.5905L23.5524 33.7936L23.6336 33.9966L23.7067 34.2078L23.7798 34.4272L23.8489 34.6465L23.9098 34.874L23.9708 35.1055L24.0235 35.3411L24.0763 35.5807L24.121 35.8285L24.1657 36.0803L24.1942 36.2793L23.9748 38.0096V38.0624L23.9951 38.233L24.0317 38.4077L24.0885 38.5783L24.1616 38.7407L24.2551 38.8991L24.3688 39.0535L24.5028 39.1956L24.6572 39.3297L24.8318 39.4556L24.9456 39.5246H24.8359L24.4744 39.4881L24.1129 39.4597L23.7473 39.4312L23.3818 39.4109H23.0122H22.6426H22.2729H20.4046H20.0268H19.6531H19.2754H18.8976H18.5199H18.1422H17.7604H17.3826H16.9765L16.7937 39.4515L16.8059 39.4921Z" fill="#D6D6D6"/>
<path fill-rule="evenodd" clip-rule="evenodd" d="M25.5467 39.399C26.0364 39.5515 26.5589 39.565 27.0559 39.4381C27.5529 39.3112 28.0049 39.0487 28.3615 38.68C27.9898 37.8972 27.5593 37.1436 27.0739 36.4258C26.8789 36.5354 25.3395 39.5696 25.5467 39.399Z" fill="#EDEDED"/>
<path fill-rule="evenodd" clip-rule="evenodd" d="M35.7904 30.1644C35.0227 28.2148 32.7075 29.5105 31.5459 30.2172C29.4336 31.5543 27.5194 33.1813 25.8595 35.0506C24.974 36.1026 23.3168 38.2269 25.2137 39.2708L25.3152 39.3114C26.3794 36.0173 28.9301 33.4381 32.0861 31.7159C32.7435 31.3577 33.4216 31.039 34.117 30.7615C34.6693 30.5381 35.2298 30.3553 35.8026 30.1644H35.7904Z" fill="white"/>
<path fill-rule="evenodd" clip-rule="evenodd" d="M32.736 31.655C33.3716 32.2388 34.0505 32.7738 34.7668 33.2553C35.209 32.9413 35.5496 32.5048 35.7466 31.9996C35.9436 31.4944 35.9885 30.9425 35.8757 30.4121C35.3152 30.5827 34.7587 30.7777 34.2185 30.997C33.6783 31.2163 33.2315 31.4032 32.7563 31.655H32.736Z" fill="#EDEDED"/>
<path fill-rule="evenodd" clip-rule="evenodd" d="M31.4119 30.0015C31.9643 29.6634 32.5429 29.3701 33.1422 29.1242H32.9675C30.2272 28.2956 28.4251 26.874 27.5613 24.8594C27.0481 24.9442 26.5446 25.0803 26.0585 25.2655C24.2863 25.9728 22.7923 27.2374 21.8018 28.8683C21.5505 29.3271 21.3464 29.8102 21.1926 30.3102C23.0528 31.4719 24.182 33.4702 24.5801 36.3053L24.5435 36.4759C24.8791 35.9215 25.258 35.3946 25.6767 34.9C27.3584 33.0147 29.2957 31.3741 31.4322 30.0259L31.4119 30.0015Z" fill="white"/>
<path fill-rule="evenodd" clip-rule="evenodd" d="M25.9691 25.0277C26.4838 24.8401 27.0157 24.704 27.5572 24.6215C28.5402 17.6516 21.3794 12.9075 11.9237 8.78079C11.5825 8.40711 11.0423 8.06999 11.1844 7.61914C10.9078 7.69785 10.6364 7.79417 10.3721 7.90752C8.96143 8.44178 7.77801 9.4459 7.02117 10.7507C6.86772 10.9896 6.73196 11.2394 6.61499 11.4981C7.08209 11.425 7.33394 12.0099 7.64669 12.4039C10.2706 22.3794 13.8652 30.1779 20.9041 30.2754C21.0741 29.7536 21.2959 29.2501 21.5662 28.7726C22.5843 27.0759 24.1311 25.7603 25.9691 25.0277Z" fill="white"/>
<path fill-rule="evenodd" clip-rule="evenodd" d="M10.2827 7.67692C10.6385 7.52165 11.0067 7.39664 11.3834 7.30324C11.454 7.23109 11.53 7.16455 11.6109 7.10422C11.948 6.3528 12.1511 5.62575 11.4972 5.04492C10.7945 5.34143 10.1 5.66638 9.41759 6.03193C7.4639 7.07579 6.65967 7.71348 5.32743 9.49252C4.85898 10.1126 4.42708 10.7476 4.03174 11.3975C4.50696 12.1326 5.25026 12.0433 6.0626 11.828C6.13323 11.7556 6.21078 11.6903 6.29412 11.633C6.44197 11.274 6.62139 10.9287 6.83027 10.6014C7.61682 9.25909 8.83963 8.22693 10.2949 7.67692H10.2827Z" fill="white"/>
<path fill-rule="evenodd" clip-rule="evenodd" d="M9.43384 4.31295C10.3274 3.99207 10.9245 4.16267 11.2291 4.83692L11.2616 4.85722C10.6009 5.128 9.94563 5.44211 9.29575 5.79954C7.30551 6.86372 6.47691 7.52578 5.12029 9.32918C4.68162 9.91678 4.27545 10.5179 3.90177 11.1326V11.092C3.28981 10.6912 3.20994 10.0738 3.66214 9.23982C4.9683 6.98772 7.00464 5.24944 9.43384 4.31295Z" fill="white"/>
<path fill-rule="evenodd" clip-rule="evenodd" d="M25.0958 35.5871C25.0065 32.5164 23.5646 30.3475 22.3867 27.9998C22.1702 28.273 21.9746 28.5622 21.8018 28.865C21.5505 29.3238 21.3464 29.8069 21.1925 30.3069C23.0528 31.4685 24.182 33.4669 24.58 36.302L24.5434 36.4726C24.7167 36.1801 24.9076 35.8917 25.1161 35.6074L25.0958 35.5871ZM22.082 27.9754C20.9365 28.0343 19.7908 27.8625 18.7129 27.4704C17.635 27.0783 16.6467 26.4738 15.8067 25.6928C12.0943 22.4434 11.2657 18.8975 9.56788 14.6083C8.97423 13.075 8.24283 11.5986 7.38267 10.1973C7.26081 10.3638 7.13896 10.5425 7.02117 10.7334C6.86772 10.9723 6.73196 11.2221 6.61499 11.4808C7.08209 11.4077 7.33394 11.9926 7.64669 12.3865C10.2706 22.3621 13.8652 30.1606 20.9041 30.2581C21.0741 29.7363 21.2959 29.2329 21.5662 28.7553C21.7184 28.4907 21.8866 28.2357 22.0698 27.9917L22.082 27.9754Z" fill="#DADADA"/>
<path fill-rule="evenodd" clip-rule="evenodd" d="M62.0453 72.8324C60.051 70.3101 58.7716 67.5928 57.5775 64.8349C55.9765 61.4788 54.133 58.2439 52.0616 55.1558C51.1762 44.5953 42.0657 38.3281 32.1592 32.4102C30.2593 33.1914 28.6328 34.517 27.4841 36.2201C29.2347 39.3313 31.0909 42.3898 34.0073 44.9203C40.6807 51.5165 44.5962 58.8073 46.627 66.5652C47.1561 69.2276 47.0165 71.9797 46.2209 74.5749H54.4174C50.7619 72.3694 48.5807 69.2134 47.1957 65.5619C49.1331 69.1769 51.493 72.3694 54.8358 74.5749H55.2988C56.9235 74.6709 58.5517 74.4559 60.0957 73.9413C56.8098 70.8909 54.2428 66.2849 51.8992 61.1956C49.2347 55.5092 44.2631 50.4645 38.463 45.6636C44.4337 49.5263 49.5677 54.1688 52.4028 60.9438C54.6896 65.5498 57.1103 70.042 60.376 73.8357C60.9881 73.5862 61.5581 73.2437 62.0657 72.8202L62.0453 72.8324ZM30.6198 34.1648C38.991 38.6896 47.0576 43.2956 49.8724 49.2825C46.0503 43.1615 38.0528 38.7789 30.6198 34.1648ZM34.2103 38.2956C41.8626 42.7635 48.9219 47.2801 50.7416 52.3288C47.3622 47.4548 40.5873 42.8894 34.2103 38.2956ZM29.2063 35.0462C35.5345 43.5149 45.173 46.9877 51.6149 54.8431C44.4703 47.9016 33.8164 43.787 29.2063 35.0462ZM34.9171 43.2509C41.2534 49.6684 46.1031 56.679 46.8383 65.3345C45.0227 57.5685 40.3395 50.3467 34.9171 43.2509Z" fill="white"/>
<path fill-rule="evenodd" clip-rule="evenodd" d="M31.3996 48.8589C32.147 44.9542 31.2101 42.2031 28.5889 40.6055C25.0918 39.5088 21.0707 39.6388 17.0333 39.7931C12.0699 40.8898 8.33311 42.1571 5.94481 43.6112C3.55652 45.0653 2.53701 46.7143 3.01223 48.5543C5.80419 48.1548 8.62515 47.9945 11.4444 48.075C15.9813 48.27 19.6369 49.4113 21.9155 52.0311C24.9547 50.6386 28.1342 49.5751 31.3996 48.8589Z" fill="#CCCCCC"/>
<path fill-rule="evenodd" clip-rule="evenodd" d="M39.0357 60.7158L38.8854 60.663C40.5101 56.1951 34.8237 50.9718 31.4646 49.1074C24.8603 50.6549 20.1812 52.7386 17.2486 55.3056C14.316 57.8848 13.1625 60.9555 13.6174 64.477C20.1162 62.3974 28.9464 61.2885 39.0276 60.7158H39.0357Z" fill="#CCCCCC"/>
<path fill-rule="evenodd" clip-rule="evenodd" d="M1.02606 37.9661C1.99289 37.9609 2.9586 38.0329 3.91397 38.1814C6.3658 38.5363 8.65121 39.6301 10.4655 41.3171C12.4468 40.6563 14.4615 40.1005 16.5012 39.6518C15.9093 38.4839 15.3898 37.2807 14.9456 36.049C13.0244 30.7688 13.1869 23.7298 8.99923 19.6275C7.95832 18.5979 6.70636 17.8065 5.32979 17.3079C3.95323 16.8093 2.48486 16.6154 1.02606 16.7396V31.9954V32.39V32.6372V34.0842V34.3411V34.5224V34.7254V34.9285V35.1316V35.3347L1.02607 35.5378L1.02606 35.6753V37.9743V37.9661Z" fill="#CCCCCC"/>
<path fill-rule="evenodd" clip-rule="evenodd" d="M1.02606 48.8483C1.61095 48.7549 2.18365 48.6737 2.75636 48.5965C2.26489 46.6428 3.32501 44.9166 5.81485 43.4016C7.20133 42.5901 8.6688 41.9258 10.1934 41.4194C8.43188 39.8158 6.23076 38.7761 3.87333 38.4341C2.93262 38.289 1.98194 38.2184 1.03012 38.2229V48.8443L1.02606 48.8483Z" fill="#CCCCCC"/>
<path fill-rule="evenodd" clip-rule="evenodd" d="M2.57359 72.2599C4.05612 68.9374 7.6467 66.5126 12.7929 64.7498L13.3778 64.5548C12.8944 60.9236 14.0724 57.7596 17.0902 55.1113C18.482 53.9229 20.0254 52.9245 21.68 52.1422C19.4501 49.6199 15.8717 48.5151 11.4363 48.3282C8.41426 48.2485 5.39116 48.4388 2.403 48.8969L2.13087 50.0788L1.97246 50.4241L1.76124 50.7165L1.50538 50.9602L1.21292 51.1471L1.02607 51.2283V66.2323C0.85548 68.7831 1.32664 70.8302 2.57359 72.2599ZM2.30146 48.9131C1.89529 48.97 1.45662 49.035 1.02607 49.1V49.7214L1.11544 49.693L1.28603 49.6117L1.46881 49.5061L2.28116 48.9131H2.30146Z" fill="#CCCCCC"/>
<path fill-rule="evenodd" clip-rule="evenodd" d="M44.2103 74.5813C45.2054 69.3011 43.8651 65.7674 42.8456 63.8218C42.5274 63.1511 42.0798 62.5499 41.5284 62.0529C40.977 61.5559 40.3328 61.1728 39.6327 60.9258C28.8895 61.5107 19.5556 62.6926 12.8741 64.9875C7.74821 66.7462 4.19013 69.1589 2.76447 72.4611C4.19013 73.9274 6.5175 74.6828 9.92122 74.5813H26.5215C29.4107 74.9306 31.4416 76.7367 32.6141 79.9996C33.7784 76.734 35.8093 74.9279 38.7067 74.5813H44.2103Z" fill="#CCCCCC"/>
<path fill-rule="evenodd" clip-rule="evenodd" d="M12.7076 26.9433C9.27407 20.6666 5.38023 17.7123 1.02606 18.0806V16.7402C2.48618 16.6148 3.95612 16.8082 5.33418 17.3068C6.71224 17.8054 7.96553 18.5974 9.00736 19.6281C10.9935 21.5737 12.0009 24.1772 12.7157 26.9392L12.7076 26.9433Z" fill="#B5B5B5"/>
<path fill-rule="evenodd" clip-rule="evenodd" d="M8.17064 42.2013C6.34287 40.4466 3.84896 39.7642 1.02606 39.6586V38.2248C1.97787 38.2203 2.92856 38.291 3.86927 38.436C6.22623 38.7769 8.4273 39.8152 10.1893 41.4173C9.46226 41.6691 8.79207 41.9332 8.15844 42.2013H8.17064Z" fill="#B5B5B5"/>
<path fill-rule="evenodd" clip-rule="evenodd" d="M29.7709 41.5099C14.6775 39.674 4.47447 44.2475 4.7791 48.3458C4.19421 48.4067 3.60525 48.4798 3.01223 48.557C2.53701 46.717 3.55652 45.0761 5.94481 43.6139C8.33311 42.1517 12.0699 40.8925 17.0333 39.7959C21.0707 39.6375 25.0918 39.5075 28.5889 40.6082C29.0163 40.8638 29.4129 41.1678 29.7709 41.514V41.5099Z" fill="#B5B5B5"/>
<path fill-rule="evenodd" clip-rule="evenodd" d="M20.6117 52.6976C15.1162 49.042 8.61336 48.8958 1.4566 50.9916L1.02606 51.2571L1.04639 49.7244L1.13574 49.6959L1.4891 49.5091L2.30145 48.9162C5.28961 48.4581 8.41425 48.2514 11.4363 48.3312C15.8717 48.518 19.4501 49.6228 21.6799 52.1452C21.3103 52.3279 20.9529 52.5107 20.6117 52.6976ZM1.02606 49.1029C1.4566 49.038 1.87903 48.9731 2.30145 48.9162L1.4891 49.5091L1.30632 49.6147L1.13574 49.6959L1.04639 49.7244V49.1029H1.02606Z" fill="#B5B5B5"/>
<path fill-rule="evenodd" clip-rule="evenodd" d="M41.7652 62.2858C32.4516 61.8025 23.5646 63.4434 14.8319 65.8723C7.56952 68.3784 5.08372 71.1201 5.21369 73.9958C4.29548 73.6833 3.46159 73.1635 2.77666 72.4767C4.20232 69.1705 7.7604 66.7619 12.8863 65.0031C19.5678 62.7123 28.9017 61.5304 39.6449 60.9414C40.4431 61.237 41.1698 61.6979 41.7773 62.294L41.7652 62.2858Z" fill="#B5B5B5"/>
<path fill-rule="evenodd" clip-rule="evenodd" d="M32.3501 49.6435C17.7279 52.5517 13.1381 60.7077 15.3315 63.9693C14.7466 64.1317 14.1779 64.3023 13.6255 64.477C13.1706 60.9555 14.3242 57.8848 17.2567 55.3056C20.1812 52.7386 24.8603 50.6549 31.4728 49.1074C31.753 49.2618 32.0495 49.4445 32.3582 49.6435H32.3501Z" fill="#B5B5B5"/>
</svg>
