<svg width="55" height="80" viewBox="0 0 55 80" fill="none" xmlns="http://www.w3.org/2000/svg">
<g clip-path="url(#clip0_730_7210)">
<path d="M11.3964 13.2484H7.43243C5.94594 13.2484 4.45945 12.2293 4.45945 10.7006H13.3784C12.8829 11.2102 11.8919 12.7389 11.3964 13.2484ZM23.2883 45.8599C23.7838 46.3694 24.2793 46.879 25.2703 47.3885V50.4459C15.8559 59.1083 37.1622 62.6752 36.1712 71.3376C36.1712 73.8854 33.1982 76.4331 30.7207 77.4522C32.7027 76.4331 33.6937 74.3949 33.6937 72.3567C34.1892 67.7707 23.7838 63.1847 24.2793 63.1847C16.8468 58.0892 16.3513 51.9745 23.2883 45.8599ZM25.7658 47.3885C26.7568 48.4076 28.2432 49.4268 29.2342 50.4459V61.6561L25.7658 59.1083V47.3885ZM52.5225 5.6051C52.5225 5.6051 43.6036 7.13376 42.6126 7.13376C40.6306 7.64331 39.6396 10.7006 41.6216 12.2293C44.0991 14.7771 43.6036 17.3248 41.6216 19.3631C41.6216 19.8726 38.1531 15.2866 37.1622 14.7771C37.1622 14.7771 37.6576 14.2675 37.1622 13.758C35.1802 10.7006 36.1712 8.15287 38.1531 6.6242C40.6306 4.07643 47.5676 2.03822 51.036 1.01911C52.5225 0.509554 53.5135 0 54.5045 0C55.4955 2.54777 55 4.58599 52.5225 5.6051ZM14.3694 10.1911C14.3694 8.66242 13.3784 7.64331 12.3874 7.13376C8.91891 6.6242 -2.47748 6.6242 0.49549 0C0.49549 0 3.46846 1.01911 7.43243 2.03822C9.9099 3.05732 12.3874 3.56688 14.8649 4.58599C17.8378 5.6051 18.8288 8.15287 18.8288 10.7006C18.8288 12.7389 17.3423 13.758 17.8378 14.7771C16.3513 16.3057 14.8649 17.8344 13.3784 19.8726V19.3631C8.91891 14.7771 14.3694 12.2293 14.3694 10.1911ZM49.054 10.1911H41.6216V9.17197C42.1171 8.66242 43.1081 8.66242 45.0901 8.15287C47.5676 7.64331 51.036 7.13376 52.5225 6.6242C52.027 8.66242 51.036 9.68153 49.054 10.1911ZM41.1261 27.5159C46.0811 31.0828 44.5946 36.6879 41.1261 40.2548C38.6486 41.7834 35.1802 43.8217 32.2072 45.3503C31.2162 44.8408 30.7207 44.3312 30.2252 43.8217V40.7643C31.7117 40.2548 33.1982 39.2357 34.6847 38.2166C43.1081 32.6115 34.1892 29.5541 34.6847 33.6306C27.7477 32.1019 34.6847 22.4204 41.1261 27.5159ZM24.7748 23.4395H30.2252L29.7297 43.3121C28.2432 42.293 26.7568 41.7834 25.2703 40.7643C25.2703 34.6497 25.2703 29.0446 24.7748 23.4395ZM14.3694 40.2548C4.95495 31.5924 17.3423 21.9108 22.2973 28.0255C24.7748 30.5732 21.8018 33.121 20.8108 33.121C21.3063 29.0446 11.3964 32.1019 20.3153 38.2166C24.2793 40.2548 28.2432 42.8025 31.7117 45.8599C33.6937 47.3885 35.6757 49.4268 36.1712 51.9745C37.1622 57.0701 34.1892 60.1274 30.7207 62.6752C30.2252 62.1656 29.7297 62.1656 29.7297 62.1656V58.5987C38.6486 49.9363 18.8288 44.3312 14.3694 40.2548ZM29.2342 66.7516C28.7387 70.828 28.7387 74.3949 28.7387 78.4713C28.7387 79.4904 28.2432 80 27.2522 80C26.7568 80 26.2613 79.4904 26.2613 78.9809C26.2613 74.3949 25.7658 69.8089 25.7658 65.7325C23.7838 67.2611 21.3063 69.2994 21.3063 71.8471C21.8018 75.414 24.2793 76.9427 24.2793 76.9427C22.2973 75.9236 18.8288 74.3949 18.8288 70.828C18.8288 68.2803 20.3153 65.7325 23.7838 63.1847C25.2703 64.2038 27.2522 65.2229 29.2342 66.7516ZM44.0991 21.9108C44.0991 22.4204 44.0991 22.9299 43.6036 22.9299H11.3964C10.4054 22.4204 10.4054 21.9108 10.4054 21.9108C14.8649 21.9108 19.3243 10.1911 27.2522 9.68153C33.1982 9.68153 37.1622 15.2866 40.6306 19.3631C41.6216 20.8917 42.6126 21.9108 44.0991 21.9108ZM50.5405 10.7006C50.5405 12.2293 48.5586 13.2484 47.5676 13.2484H43.6036C43.1081 12.2293 42.1171 11.7197 41.6216 10.7006H50.5405ZM48.0631 13.758C47.5676 16.8153 46.0811 17.3248 43.6036 17.8344C44.0991 16.8153 44.0991 15.2866 43.6036 13.758H48.0631ZM11.3964 17.8344C9.41441 17.8344 7.43243 16.3057 6.93693 14.2675C6.93693 13.758 10.9009 13.758 11.3964 13.758C10.9009 15.2866 10.9009 16.8153 11.3964 17.8344ZM13.3784 10.1911H5.94594C3.96396 9.68153 2.97297 8.66242 2.97297 6.6242C3.46846 6.6242 5.45045 7.13376 7.43243 7.64331C9.9099 8.15287 12.8829 8.15287 13.3784 8.66242V10.1911Z" fill="#CACACA"/>
</g>
<defs>
<clipPath id="clip0_730_7210">
<rect width="55" height="80" fill="white"/>
</clipPath>
</defs>
</svg>
