<svg width="162" height="23" viewBox="0 0 162 23" fill="none" xmlns="http://www.w3.org/2000/svg">
<path d="M16.84 22V9.31L12.25 18.55H9.55L4.96 9.31V22H0.0400001V0.699999H5.38L10.9 11.83L16.45 0.699999H21.76V22H16.84ZM35.1805 22.15C33.7805 22.15 32.4605 21.89 31.2205 21.37C29.9805 20.83 28.8905 20.08 27.9505 19.12C27.0105 18.14 26.2705 16.99 25.7305 15.67C25.2105 14.33 24.9505 12.84 24.9505 11.2C24.9505 9.72 25.2205 8.34 25.7605 7.06C26.3005 5.78 27.0505 4.65 28.0105 3.67C28.9705 2.69 30.0905 1.93 31.3705 1.39C32.6705 0.829999 34.0705 0.549999 35.5705 0.549999C37.5305 0.549999 39.2605 0.969999 40.7605 1.81C42.2605 2.65 43.3705 3.78 44.0905 5.2L40.4305 7.96C39.9505 7.02 39.2505 6.28 38.3305 5.74C37.4305 5.2 36.4505 4.93 35.3905 4.93C34.5905 4.93 33.8505 5.1 33.1705 5.44C32.5105 5.76 31.9305 6.22 31.4305 6.82C30.9505 7.4 30.5805 8.08 30.3205 8.86C30.0605 9.64 29.9305 10.48 29.9305 11.38C29.9305 12.3 30.0705 13.15 30.3505 13.93C30.6305 14.71 31.0205 15.39 31.5205 15.97C32.0205 16.53 32.6105 16.97 33.2905 17.29C33.9905 17.61 34.7605 17.77 35.6005 17.77C36.6205 17.77 37.5905 17.52 38.5105 17.02C39.4505 16.5 40.3105 15.74 41.0905 14.74V19.6C39.3905 21.3 37.4205 22.15 35.1805 22.15ZM40.7905 14.44H36.6505V10.87H44.8705V22H40.7905V14.44ZM48.4232 22V0.699999H57.5132C58.5332 0.699999 59.4632 0.909999 60.3032 1.33C61.1632 1.73 61.9032 2.28 62.5232 2.98C63.1432 3.66 63.6232 4.43 63.9632 5.29C64.3032 6.15 64.4732 7.03 64.4732 7.93C64.4732 9.15 64.1832 10.31 63.6032 11.41C63.0432 12.51 62.2532 13.41 61.2332 14.11C60.2332 14.79 59.0432 15.13 57.6632 15.13H53.3432V22H48.4232ZM53.3432 10.84H57.3632C57.7432 10.84 58.0932 10.73 58.4132 10.51C58.7332 10.29 58.9932 9.96 59.1932 9.52C59.3932 9.08 59.4932 8.54 59.4932 7.9C59.4932 7.24 59.3732 6.7 59.1332 6.28C58.9132 5.84 58.6232 5.52 58.2632 5.32C57.9232 5.12 57.5632 5.02 57.1832 5.02H53.3432V10.84Z" fill="#333333"/>
<path d="M67.4146 22V0.699999H72.3346V17.68H82.6546V22H67.4146ZM100.233 17.68V22H85.2634V0.699999H99.9634V5.02H90.1834V9.16H98.5834V13.15H90.1834V17.68H100.233ZM112.201 22.15C110.801 22.15 109.481 21.89 108.241 21.37C107.001 20.83 105.911 20.08 104.971 19.12C104.031 18.14 103.291 16.99 102.751 15.67C102.231 14.33 101.971 12.84 101.971 11.2C101.971 9.72 102.241 8.34 102.781 7.06C103.321 5.78 104.071 4.65 105.031 3.67C105.991 2.69 107.111 1.93 108.391 1.39C109.691 0.829999 111.091 0.549999 112.591 0.549999C114.551 0.549999 116.281 0.969999 117.781 1.81C119.281 2.65 120.391 3.78 121.111 5.2L117.451 7.96C116.971 7.02 116.271 6.28 115.351 5.74C114.451 5.2 113.471 4.93 112.411 4.93C111.611 4.93 110.871 5.1 110.191 5.44C109.531 5.76 108.951 6.22 108.451 6.82C107.971 7.4 107.601 8.08 107.341 8.86C107.081 9.64 106.951 10.48 106.951 11.38C106.951 12.3 107.091 13.15 107.371 13.93C107.651 14.71 108.041 15.39 108.541 15.97C109.041 16.53 109.631 16.97 110.311 17.29C111.011 17.61 111.781 17.77 112.621 17.77C113.641 17.77 114.611 17.52 115.531 17.02C116.471 16.5 117.331 15.74 118.111 14.74V19.6C116.411 21.3 114.441 22.15 112.201 22.15ZM117.811 14.44H113.671V10.87H121.891V22H117.811V14.44ZM130.814 0.699999H136.124L143.444 22H138.404L136.754 17.23H130.124L128.504 22H123.464L130.814 0.699999ZM135.944 13.84L133.454 5.65L130.904 13.84H135.944ZM145.841 22V0.699999H150.761V17.68H161.081V22H145.841Z" fill="#1562A1"/>
</svg>
