<svg width="749" height="799" viewBox="0 0 749 799" fill="none" xmlns="http://www.w3.org/2000/svg">
<g filter="url(#filter0_f_1012_32835)">
<path d="M201.02 736.84H93.6376C93.1792 736.84 92.7396 736.656 92.4154 736.329C92.0913 736.003 91.9092 735.559 91.9092 735.097V593.662C91.9092 593.2 92.0913 592.757 92.4154 592.43C92.7396 592.103 93.1792 591.92 93.6376 591.92H201.02C201.479 591.92 201.918 592.103 202.243 592.43C202.567 592.757 202.749 593.2 202.749 593.662V735.097C202.749 735.559 202.567 736.003 202.243 736.329C201.918 736.656 201.479 736.84 201.02 736.84ZM95.3661 733.355H199.292V595.405H95.3661V733.355Z" fill="#C7E3F9" fill-opacity="0.6"/>
<path d="M655.114 736.84H547.73C547.272 736.84 546.832 736.656 546.508 736.329C546.184 736.003 546.002 735.559 546.002 735.097V593.662C546.002 593.2 546.184 592.757 546.508 592.43C546.832 592.103 547.272 591.92 547.73 591.92H655.114C655.572 591.92 656.012 592.103 656.336 592.43C656.66 592.757 656.842 593.2 656.842 593.662V735.097C656.842 735.559 656.66 736.003 656.336 736.329C656.012 736.656 655.572 736.84 655.114 736.84ZM549.459 733.355H653.385V595.405H549.459V733.355Z" fill="#C7E3F9" fill-opacity="0.6"/>
<path d="M728.036 711.901H655.113C654.654 711.901 654.215 711.717 653.891 711.391C653.566 711.064 653.384 710.621 653.384 710.159C653.384 709.697 653.566 709.253 653.891 708.927C654.215 708.6 654.654 708.416 655.113 708.416H726.307V293.744H618.851V582.804C618.851 583.266 618.669 583.709 618.345 584.036C618.021 584.363 617.581 584.546 617.123 584.546C616.665 584.546 616.225 584.363 615.901 584.036C615.577 583.709 615.395 583.266 615.395 582.804V292.002C615.395 291.54 615.577 291.097 615.901 290.77C616.225 290.443 616.665 290.26 617.123 290.26H728.036C728.494 290.26 728.934 290.443 729.258 290.77C729.582 291.097 729.764 291.54 729.764 292.002V710.159C729.764 710.387 729.719 710.614 729.633 710.825C729.546 711.037 729.418 711.229 729.258 711.391C729.097 711.552 728.907 711.681 728.697 711.768C728.488 711.856 728.263 711.901 728.036 711.901Z" fill="#C7E3F9" fill-opacity="0.6"/>
<path d="M734.731 293.744H617.159C616.701 293.744 616.261 293.561 615.937 293.234C615.613 292.907 615.431 292.464 615.431 292.002V279.971C615.431 279.509 615.613 279.066 615.937 278.739C616.261 278.412 616.701 278.229 617.159 278.229H734.731C735.189 278.229 735.629 278.412 735.953 278.739C736.277 279.066 736.46 279.509 736.46 279.971V292.002C736.46 292.464 736.277 292.907 735.953 293.234C735.629 293.561 735.189 293.744 734.731 293.744ZM618.888 290.26H733.003V281.713H618.888V290.26Z" fill="#C7E3F9" fill-opacity="0.6"/>
<path d="M728.035 281.713C727.627 281.713 727.232 281.568 726.921 281.302L669.473 232.414H615.974C615.515 232.414 615.076 232.231 614.751 231.904C614.427 231.577 614.245 231.134 614.245 230.672C614.245 230.21 614.427 229.767 614.751 229.44C615.076 229.113 615.515 228.93 615.974 228.93H670.105C670.514 228.93 670.908 229.075 671.22 229.341L729.151 278.639C729.422 278.87 729.616 279.178 729.707 279.524C729.798 279.869 729.782 280.234 729.66 280.57C729.538 280.905 729.317 281.195 729.026 281.399C728.736 281.604 728.39 281.714 728.035 281.713Z" fill="#C7E3F9" fill-opacity="0.6"/>
<path d="M669.303 329.414H645.05V429.772H669.303V329.414Z" fill="#C7E3F9" fill-opacity="0.6"/>
<path d="M669.303 431.518H645.047C644.588 431.518 644.149 431.334 643.825 431.008C643.5 430.681 643.318 430.238 643.318 429.776V329.418C643.318 328.956 643.5 328.513 643.825 328.186C644.149 327.859 644.588 327.676 645.047 327.676H669.303C669.761 327.676 670.201 327.859 670.525 328.186C670.849 328.513 671.031 328.956 671.031 329.418V429.776C671.031 430.238 670.849 430.681 670.525 431.008C670.201 431.334 669.761 431.518 669.303 431.518ZM646.775 428.033H667.574V331.16H646.775V428.033Z" fill="#C7E3F9" fill-opacity="0.6"/>
<path d="M703.802 329.414H679.549V429.772H703.802V329.414Z" fill="#C7E3F9" fill-opacity="0.6"/>
<path d="M703.802 431.518H679.546C679.087 431.518 678.648 431.334 678.324 431.008C677.999 430.681 677.817 430.238 677.817 429.776V329.418C677.817 328.956 677.999 328.513 678.324 328.186C678.648 327.859 679.087 327.676 679.546 327.676H703.802C704.26 327.676 704.7 327.859 705.024 328.186C705.348 328.513 705.53 328.956 705.53 329.418V429.776C705.53 430.238 705.348 430.681 705.024 431.008C704.7 431.334 704.26 431.518 703.802 431.518ZM681.274 428.033H702.073V331.16H681.274V428.033Z" fill="#C7E3F9" fill-opacity="0.6"/>
<path d="M669.303 458.822H645.05V559.18H669.303V458.822Z" fill="#C7E3F9" fill-opacity="0.6"/>
<path d="M669.303 560.922H645.047C644.588 560.922 644.149 560.739 643.825 560.412C643.5 560.085 643.318 559.642 643.318 559.18V458.822C643.318 458.36 643.5 457.917 643.825 457.59C644.149 457.264 644.588 457.08 645.047 457.08H669.303C669.761 457.08 670.201 457.264 670.525 457.59C670.849 457.917 671.031 458.36 671.031 458.822V559.18C671.031 559.642 670.849 560.085 670.525 560.412C670.201 560.739 669.761 560.922 669.303 560.922ZM646.775 557.438H667.574V460.565H646.775V557.438Z" fill="#C7E3F9" fill-opacity="0.6"/>
<path d="M703.802 458.822H679.549V559.18H703.802V458.822Z" fill="#C7E3F9" fill-opacity="0.6"/>
<path d="M703.802 560.922H679.546C679.087 560.922 678.648 560.739 678.324 560.412C677.999 560.085 677.817 559.642 677.817 559.18V458.822C677.817 458.36 677.999 457.917 678.324 457.59C678.648 457.264 679.087 457.08 679.546 457.08H703.802C704.26 457.08 704.7 457.264 705.024 457.59C705.348 457.917 705.53 458.36 705.53 458.822V559.18C705.53 559.642 705.348 560.085 705.024 560.412C704.7 560.739 704.26 560.922 703.802 560.922ZM681.274 557.438H702.073V460.565H681.274V557.438Z" fill="#C7E3F9" fill-opacity="0.6"/>
<path d="M93.6377 711.901H20.4238C19.9654 711.901 19.5257 711.717 19.2016 711.391C18.8774 711.064 18.6953 710.621 18.6953 710.159V292.002C18.6953 291.54 18.8774 291.097 19.2016 290.77C19.5257 290.443 19.9654 290.26 20.4238 290.26H131.337C131.795 290.26 132.235 290.443 132.559 290.77C132.883 291.097 133.065 291.54 133.065 292.002V582.804C133.065 583.266 132.883 583.709 132.559 584.036C132.235 584.363 131.795 584.546 131.337 584.546C130.878 584.546 130.438 584.363 130.114 584.036C129.79 583.709 129.608 583.266 129.608 582.804V293.744H22.1522V708.416H93.6377C94.0962 708.416 94.5358 708.6 94.86 708.927C95.1841 709.253 95.3662 709.697 95.3662 710.159C95.3662 710.621 95.1841 711.064 94.86 711.391C94.5358 711.717 94.0962 711.901 93.6377 711.901Z" fill="#C7E3F9" fill-opacity="0.6"/>
<path d="M131.337 293.744H13.7285C13.27 293.744 12.8304 293.561 12.5063 293.234C12.1821 292.907 12 292.464 12 292.002V279.971C12 279.509 12.1821 279.066 12.5063 278.739C12.8304 278.412 13.27 278.229 13.7285 278.229H131.337C131.795 278.229 132.235 278.412 132.559 278.739C132.883 279.066 133.065 279.509 133.065 279.971V292.002C133.065 292.464 132.883 292.907 132.559 293.234C132.235 293.561 131.795 293.744 131.337 293.744ZM15.4569 290.26H129.608V281.713H15.4569V290.26Z" fill="#C7E3F9" fill-opacity="0.6"/>
<path d="M134.138 281.713H20.4237C20.0693 281.713 19.7234 281.604 19.4329 281.399C19.1424 281.195 18.9213 280.905 18.7995 280.569C18.6778 280.234 18.6613 279.869 18.7523 279.524C18.8433 279.178 19.0374 278.87 19.3082 278.639L77.2409 229.341C77.5529 229.075 77.9481 228.93 78.3564 228.93H132.747C133.206 228.93 133.646 229.113 133.97 229.44C134.294 229.767 134.476 230.21 134.476 230.672C134.476 231.134 134.294 231.577 133.97 231.904C133.646 232.231 133.206 232.414 132.747 232.414H78.9861L25.1504 278.229H134.138C134.596 278.229 135.036 278.412 135.36 278.739C135.684 279.066 135.866 279.509 135.866 279.971C135.866 280.433 135.684 280.876 135.36 281.203C135.036 281.53 134.596 281.713 134.138 281.713Z" fill="#C7E3F9" fill-opacity="0.6"/>
<path d="M81.992 429.771H106.245L106.245 329.414H81.992L81.992 429.771Z" fill="#C7E3F9" fill-opacity="0.6"/>
<path d="M106.245 431.518H81.9921C81.5337 431.518 81.0941 431.334 80.7699 431.008C80.4458 430.681 80.2637 430.238 80.2637 429.776V329.418C80.2637 328.956 80.4458 328.513 80.7699 328.186C81.0941 327.859 81.5337 327.676 81.9921 327.676H106.248C106.707 327.676 107.146 327.859 107.47 328.186C107.795 328.513 107.977 328.956 107.977 329.418V429.776C107.977 430.005 107.932 430.232 107.845 430.443C107.758 430.655 107.63 430.847 107.469 431.009C107.309 431.171 107.118 431.299 106.908 431.386C106.698 431.474 106.472 431.518 106.245 431.518ZM83.7206 428.033H104.52V331.16H83.7206V428.033Z" fill="#C7E3F9" fill-opacity="0.6"/>
<path d="M47.4969 429.771H71.75L71.75 329.414H47.4969L47.4969 429.771Z" fill="#C7E3F9" fill-opacity="0.6"/>
<path d="M71.7502 431.518H47.497C47.0386 431.518 46.599 431.334 46.2748 431.008C45.9507 430.681 45.7686 430.238 45.7686 429.776V329.418C45.7686 328.956 45.9507 328.513 46.2748 328.186C46.599 327.859 47.0386 327.676 47.497 327.676H71.753C72.2114 327.676 72.6511 327.859 72.9752 328.186C73.2994 328.513 73.4815 328.956 73.4815 329.418V429.776C73.4815 430.005 73.4367 430.232 73.3496 430.443C73.2626 430.655 73.135 430.847 72.9742 431.009C72.8134 431.171 72.6225 431.299 72.4125 431.386C72.2024 431.474 71.9774 431.518 71.7502 431.518ZM49.2255 428.033H70.0246V331.16H49.2255V428.033Z" fill="#C7E3F9" fill-opacity="0.6"/>
<path d="M81.992 559.18H106.245L106.245 458.822H81.992L81.992 559.18Z" fill="#C7E3F9" fill-opacity="0.6"/>
<path d="M106.245 560.922H81.9921C81.5337 560.922 81.0941 560.739 80.7699 560.412C80.4458 560.085 80.2637 559.642 80.2637 559.18V458.822C80.2637 458.36 80.4458 457.917 80.7699 457.59C81.0941 457.264 81.5337 457.08 81.9921 457.08H106.248C106.707 457.08 107.146 457.264 107.47 457.59C107.795 457.917 107.977 458.36 107.977 458.822V559.18C107.977 559.409 107.932 559.636 107.845 559.847C107.758 560.059 107.63 560.251 107.469 560.413C107.309 560.575 107.118 560.703 106.908 560.79C106.698 560.878 106.472 560.923 106.245 560.922ZM83.7206 557.438H104.52V460.565H83.7206V557.438Z" fill="#C7E3F9" fill-opacity="0.6"/>
<path d="M47.4969 559.18H71.75L71.75 458.822H47.4969L47.4969 559.18Z" fill="#C7E3F9" fill-opacity="0.6"/>
<path d="M71.7502 560.922H47.497C47.0386 560.922 46.599 560.739 46.2748 560.412C45.9507 560.085 45.7686 559.642 45.7686 559.18V458.822C45.7686 458.36 45.9507 457.917 46.2748 457.59C46.599 457.264 47.0386 457.08 47.497 457.08H71.753C72.2114 457.08 72.6511 457.264 72.9752 457.59C73.2994 457.917 73.4815 458.36 73.4815 458.822V559.18C73.4815 559.409 73.4367 559.636 73.3496 559.847C73.2626 560.059 73.135 560.251 72.9742 560.413C72.8134 560.575 72.6225 560.703 72.4125 560.79C72.2024 560.878 71.9774 560.923 71.7502 560.922ZM49.2255 557.438H70.0246V460.565H49.2255V557.438Z" fill="#C7E3F9" fill-opacity="0.6"/>
<path d="M547.731 736.84H201.021C200.744 736.84 200.471 736.772 200.224 736.643C199.978 736.514 199.766 736.328 199.607 736.099C199.448 735.87 199.345 735.606 199.308 735.328C199.271 735.051 199.301 734.769 199.396 734.506L250.012 593.071C250.132 592.734 250.353 592.442 250.644 592.236C250.935 592.03 251.282 591.92 251.638 591.92H497.115C497.47 591.92 497.817 592.03 498.108 592.236C498.399 592.442 498.62 592.734 498.741 593.071L549.357 734.507C549.452 734.77 549.481 735.052 549.445 735.329C549.408 735.606 549.305 735.871 549.146 736.099C548.986 736.328 548.774 736.515 548.528 736.644C548.282 736.773 548.008 736.84 547.731 736.84ZM203.48 733.355H545.27L495.9 595.405H252.853L203.48 733.355Z" fill="#C7E3F9" fill-opacity="0.6"/>
<path d="M658.098 595.404H545.438C544.98 595.404 544.54 595.22 544.216 594.894C543.892 594.567 543.71 594.124 543.71 593.662V582.729C543.71 582.267 543.892 581.823 544.216 581.497C544.54 581.17 544.98 580.986 545.438 580.986H658.098C658.556 580.986 658.996 581.17 659.32 581.497C659.644 581.823 659.826 582.267 659.826 582.729V593.662C659.826 594.124 659.644 594.567 659.32 594.894C658.996 595.22 658.556 595.404 658.098 595.404ZM547.167 591.919H656.369V584.471H547.167V591.919Z" fill="#C7E3F9" fill-opacity="0.6"/>
<path d="M545.437 582.73H497.113V593.664H545.437V582.73Z" fill="#C7E3F9" fill-opacity="0.6"/>
<path d="M545.437 595.406H497.113C496.655 595.406 496.215 595.222 495.891 594.896C495.567 594.569 495.385 594.126 495.385 593.664V582.731C495.385 582.269 495.567 581.825 495.891 581.499C496.215 581.172 496.655 580.988 497.113 580.988H545.437C545.896 580.988 546.335 581.172 546.66 581.499C546.984 581.825 547.166 582.269 547.166 582.731V593.664C547.166 594.126 546.984 594.569 546.66 594.896C546.335 595.222 545.896 595.406 545.437 595.406ZM498.842 591.921H543.709V584.473H498.842V591.921Z" fill="#C7E3F9" fill-opacity="0.6"/>
<path d="M251.418 595.479H90.4345C89.9761 595.479 89.5365 595.295 89.2123 594.969C88.8882 594.642 88.7061 594.199 88.7061 593.736V582.803C88.7061 582.341 88.8882 581.898 89.2123 581.571C89.5365 581.244 89.9761 581.061 90.4345 581.061H251.418C251.876 581.061 252.316 581.244 252.64 581.571C252.964 581.898 253.146 582.341 253.146 582.803V593.736C253.146 594.199 252.964 594.642 252.64 594.969C252.316 595.295 251.876 595.479 251.418 595.479ZM92.163 591.994H249.689V584.545H92.163V591.994Z" fill="#C7E3F9" fill-opacity="0.6"/>
<path d="M202.512 595.479H90.4345C89.9761 595.479 89.5365 595.295 89.2123 594.969C88.8882 594.642 88.7061 594.199 88.7061 593.736V582.803C88.7061 582.341 88.8882 581.898 89.2123 581.571C89.5365 581.244 89.9761 581.061 90.4345 581.061H202.512C202.97 581.061 203.41 581.244 203.734 581.571C204.058 581.898 204.24 582.341 204.24 582.803V593.736C204.24 594.199 204.058 594.642 203.734 594.969C203.41 595.295 202.97 595.479 202.512 595.479ZM92.163 591.994H200.783V584.545H92.163V591.994Z" fill="#C7E3F9" fill-opacity="0.6"/>
<path d="M497.114 582.801H251.418V593.734H497.114V582.801Z" fill="#C7E3F9" fill-opacity="0.6"/>
<path d="M497.113 595.477H251.418C250.959 595.477 250.52 595.293 250.196 594.967C249.872 594.64 249.689 594.197 249.689 593.735V582.801C249.689 582.339 249.872 581.896 250.196 581.569C250.52 581.242 250.959 581.059 251.418 581.059H497.113C497.572 581.059 498.012 581.242 498.336 581.569C498.66 581.896 498.842 582.339 498.842 582.801V593.735C498.842 594.197 498.66 594.64 498.336 594.967C498.012 595.293 497.572 595.477 497.113 595.477ZM253.146 591.992H495.385V584.543H253.146V591.992Z" fill="#C7E3F9" fill-opacity="0.6"/>
<path d="M497.114 593.737L547.73 735.099V593.664L497.114 593.737Z" fill="#C7E3F9" fill-opacity="0.6"/>
<path d="M548.019 736.759L496.704 593.448L548.019 593.373V736.759ZM497.525 594.028L547.442 733.439V593.955L497.525 594.028Z" fill="#C7E3F9" fill-opacity="0.6"/>
<path d="M542.818 711.901H210.299C209.84 711.901 209.401 711.717 209.077 711.39C208.752 711.064 208.57 710.62 208.57 710.158C208.57 709.696 208.752 709.253 209.077 708.926C209.401 708.6 209.84 708.416 210.299 708.416H542.818C543.277 708.416 543.716 708.6 544.04 708.926C544.365 709.253 544.547 709.696 544.547 710.158C544.547 710.62 544.365 711.064 544.04 711.39C543.716 711.717 543.277 711.901 542.818 711.901Z" fill="#C7E3F9" fill-opacity="0.6"/>
<path d="M542.818 690.477H217.612C217.154 690.477 216.714 690.293 216.39 689.967C216.066 689.64 215.884 689.197 215.884 688.735C215.884 688.272 216.066 687.829 216.39 687.502C216.714 687.176 217.154 686.992 217.612 686.992H542.818C543.276 686.992 543.716 687.176 544.04 687.502C544.364 687.829 544.546 688.272 544.546 688.735C544.546 689.197 544.364 689.64 544.04 689.967C543.716 690.293 543.276 690.477 542.818 690.477Z" fill="#C7E3F9" fill-opacity="0.6"/>
<path d="M542.819 669.053H225.279C224.821 669.053 224.381 668.869 224.057 668.543C223.733 668.216 223.551 667.773 223.551 667.311C223.551 666.849 223.733 666.405 224.057 666.079C224.381 665.752 224.821 665.568 225.279 665.568H542.819C543.277 665.568 543.717 665.752 544.041 666.079C544.365 666.405 544.547 666.849 544.547 667.311C544.547 667.773 544.365 668.216 544.041 668.543C543.717 668.869 543.277 669.053 542.819 669.053Z" fill="#C7E3F9" fill-opacity="0.6"/>
<path d="M542.818 650.377H231.963C231.504 650.377 231.065 650.194 230.741 649.867C230.416 649.54 230.234 649.097 230.234 648.635C230.234 648.173 230.416 647.73 230.741 647.403C231.065 647.076 231.504 646.893 231.963 646.893H542.818C543.276 646.893 543.716 647.076 544.04 647.403C544.364 647.73 544.546 648.173 544.546 648.635C544.546 649.097 544.364 649.54 544.04 649.867C543.716 650.194 543.276 650.377 542.818 650.377Z" fill="#C7E3F9" fill-opacity="0.6"/>
<path d="M542.819 634.444H237.666C237.208 634.444 236.768 634.26 236.444 633.933C236.12 633.607 235.938 633.163 235.938 632.701C235.938 632.239 236.12 631.796 236.444 631.469C236.768 631.143 237.208 630.959 237.666 630.959H542.819C543.277 630.959 543.717 631.143 544.041 631.469C544.365 631.796 544.547 632.239 544.547 632.701C544.547 633.163 544.365 633.607 544.041 633.933C543.717 634.26 543.277 634.444 542.819 634.444Z" fill="#C7E3F9" fill-opacity="0.6"/>
<path d="M542.818 621.256H242.386C241.927 621.256 241.488 621.073 241.163 620.746C240.839 620.419 240.657 619.976 240.657 619.514C240.657 619.052 240.839 618.609 241.163 618.282C241.488 617.955 241.927 617.771 242.386 617.771H542.818C543.276 617.771 543.716 617.955 544.04 618.282C544.364 618.609 544.547 619.052 544.547 619.514C544.547 619.976 544.364 620.419 544.04 620.746C543.716 621.073 543.276 621.256 542.818 621.256Z" fill="#C7E3F9" fill-opacity="0.6"/>
<path d="M542.818 610.809H246.618C246.16 610.809 245.72 610.625 245.396 610.299C245.072 609.972 244.89 609.529 244.89 609.067C244.89 608.604 245.072 608.161 245.396 607.835C245.72 607.508 246.16 607.324 246.618 607.324H542.818C543.276 607.324 543.716 607.508 544.04 607.835C544.364 608.161 544.546 608.604 544.546 609.067C544.546 609.529 544.364 609.972 544.04 610.299C543.716 610.625 543.276 610.809 542.818 610.809Z" fill="#C7E3F9" fill-opacity="0.6"/>
<path d="M542.818 603.106H249.165C248.707 603.106 248.267 602.922 247.943 602.595C247.619 602.269 247.437 601.826 247.437 601.363C247.437 600.901 247.619 600.458 247.943 600.131C248.267 599.805 248.707 599.621 249.165 599.621H542.818C543.277 599.621 543.716 599.805 544.041 600.131C544.365 600.458 544.547 600.901 544.547 601.363C544.547 601.826 544.365 602.269 544.041 602.595C543.716 602.922 543.277 603.106 542.818 603.106Z" fill="#C7E3F9" fill-opacity="0.6"/>
<path d="M542.818 595.405H251.637C251.178 595.405 250.739 595.221 250.414 594.894C250.09 594.568 249.908 594.124 249.908 593.662C249.908 593.2 250.09 592.757 250.414 592.43C250.739 592.103 251.178 591.92 251.637 591.92H542.818C543.277 591.92 543.716 592.103 544.041 592.43C544.365 592.757 544.547 593.2 544.547 593.662C544.547 594.124 544.365 594.568 544.041 594.894C543.716 595.221 543.277 595.405 542.818 595.405Z" fill="#C7E3F9" fill-opacity="0.6"/>
<path d="M542.819 595.405H207.862C207.404 595.405 206.964 595.221 206.64 594.894C206.316 594.568 206.134 594.124 206.134 593.662C206.134 593.2 206.316 592.757 206.64 592.43C206.964 592.103 207.404 591.92 207.862 591.92H542.819C543.278 591.92 543.717 592.103 544.042 592.43C544.366 592.757 544.548 593.2 544.548 593.662C544.548 594.124 544.366 594.568 544.042 594.894C543.717 595.221 543.278 595.405 542.819 595.405Z" fill="#C7E3F9" fill-opacity="0.6"/>
<path d="M617.159 584.545H131.59C131.131 584.545 130.692 584.361 130.368 584.034C130.043 583.708 129.861 583.264 129.861 582.802V269.992C129.861 269.53 130.043 269.087 130.368 268.76C130.692 268.434 131.131 268.25 131.59 268.25H617.159C617.617 268.25 618.057 268.434 618.381 268.76C618.705 269.087 618.887 269.53 618.887 269.992V582.802C618.887 583.264 618.705 583.708 618.381 584.034C618.057 584.361 617.617 584.545 617.159 584.545ZM133.318 581.06H615.43V271.735H133.318V581.06Z" fill="#C7E3F9" fill-opacity="0.6"/>
<path d="M176.112 582.802H151.659L152.969 279.969H174.802L176.112 582.802Z" fill="#C7E3F9" fill-opacity="0.6"/>
<path d="M176.112 584.544H151.659C151.432 584.544 151.206 584.499 150.996 584.411C150.786 584.323 150.595 584.194 150.434 584.031C150.274 583.869 150.147 583.676 150.06 583.464C149.974 583.252 149.93 583.024 149.931 582.795L151.24 279.961C151.242 279.501 151.425 279.059 151.749 278.734C152.073 278.409 152.512 278.227 152.969 278.227H174.802C175.259 278.227 175.698 278.409 176.022 278.734C176.346 279.059 176.528 279.501 176.53 279.961L177.84 582.795C177.841 583.024 177.797 583.252 177.71 583.464C177.624 583.676 177.497 583.869 177.336 584.031C177.176 584.194 176.985 584.323 176.775 584.411C176.565 584.499 176.339 584.544 176.112 584.544ZM153.395 581.06H174.376L173.081 281.711H154.69L153.395 581.06Z" fill="#C7E3F9" fill-opacity="0.6"/>
<path d="M220.088 582.802H195.635L196.944 279.969H218.778L220.088 582.802Z" fill="#C7E3F9" fill-opacity="0.6"/>
<path d="M220.087 584.544H195.634C195.406 584.544 195.181 584.499 194.971 584.411C194.761 584.323 194.57 584.194 194.409 584.031C194.248 583.869 194.121 583.676 194.035 583.464C193.948 583.252 193.904 583.024 193.905 582.795L195.216 279.961C195.218 279.501 195.401 279.059 195.725 278.734C196.049 278.409 196.487 278.227 196.944 278.227H218.777C219.234 278.227 219.673 278.409 219.997 278.734C220.321 279.059 220.504 279.501 220.506 279.961L221.816 582.795C221.817 583.024 221.773 583.252 221.686 583.464C221.6 583.676 221.473 583.869 221.312 584.031C221.151 584.194 220.961 584.323 220.75 584.411C220.54 584.499 220.315 584.544 220.087 584.544ZM197.37 581.06H218.351L217.056 281.711H198.665L197.37 581.06Z" fill="#C7E3F9" fill-opacity="0.6"/>
<path d="M246.179 582.802H239.609L239.961 279.969H245.827L246.179 582.802Z" fill="#C7E3F9" fill-opacity="0.6"/>
<path d="M246.179 584.544H239.611C239.153 584.544 238.713 584.361 238.389 584.034C238.065 583.707 237.883 583.264 237.883 582.802L238.235 279.969C238.235 279.507 238.417 279.064 238.741 278.737C239.065 278.41 239.505 278.227 239.963 278.227H245.829C246.287 278.227 246.727 278.41 247.051 278.737C247.375 279.064 247.557 279.507 247.557 279.969L247.91 582.802C247.91 583.264 247.727 583.707 247.403 584.034C247.079 584.361 246.64 584.544 246.181 584.544H246.179ZM241.34 581.06H244.448L244.102 281.711H241.689L241.34 581.06Z" fill="#C7E3F9" fill-opacity="0.6"/>
<path d="M572.638 582.802H597.091L595.781 279.969H573.947L572.638 582.802Z" fill="#C7E3F9" fill-opacity="0.6"/>
<path d="M597.09 584.544H572.638C572.41 584.544 572.185 584.499 571.975 584.411C571.764 584.323 571.574 584.194 571.413 584.031C571.252 583.869 571.125 583.676 571.039 583.464C570.952 583.252 570.908 583.024 570.909 582.795L572.219 279.961C572.221 279.501 572.404 279.059 572.728 278.734C573.052 278.409 573.49 278.227 573.947 278.227H595.781C596.238 278.227 596.676 278.409 597 278.734C597.324 279.059 597.507 279.501 597.509 279.961L598.819 582.795C598.819 583.024 598.775 583.252 598.689 583.464C598.603 583.676 598.475 583.869 598.315 584.031C598.154 584.194 597.963 584.323 597.753 584.411C597.543 584.499 597.318 584.544 597.09 584.544ZM574.374 581.06H595.355L594.06 281.711H575.67L574.374 581.06Z" fill="#C7E3F9" fill-opacity="0.6"/>
<path d="M528.664 582.802H553.117L551.807 279.969H529.974L528.664 582.802Z" fill="#C7E3F9" fill-opacity="0.6"/>
<path d="M553.117 584.544H528.664C528.436 584.544 528.211 584.499 528.001 584.411C527.791 584.323 527.6 584.194 527.439 584.031C527.279 583.869 527.152 583.676 527.065 583.464C526.979 583.252 526.935 583.024 526.936 582.795L528.245 279.961C528.247 279.501 528.43 279.059 528.754 278.734C529.078 278.409 529.516 278.227 529.974 278.227H551.81C552.267 278.227 552.705 278.409 553.029 278.734C553.353 279.059 553.536 279.501 553.538 279.961L554.848 582.795C554.849 583.024 554.805 583.252 554.718 583.464C554.632 583.676 554.505 583.869 554.344 584.031C554.183 584.194 553.993 584.323 553.782 584.411C553.572 584.499 553.347 584.544 553.119 584.544H553.117ZM530.399 581.06H551.381L550.086 281.711H531.695L530.399 581.06Z" fill="#C7E3F9" fill-opacity="0.6"/>
<path d="M502.572 582.802H509.142L508.79 279.969H502.924L502.572 582.802Z" fill="#C7E3F9" fill-opacity="0.6"/>
<path d="M509.141 584.544H502.573C502.115 584.544 501.675 584.361 501.351 584.034C501.027 583.707 500.845 583.264 500.845 582.802L501.197 279.969C501.197 279.507 501.379 279.064 501.703 278.737C502.027 278.41 502.467 278.227 502.925 278.227H508.79C509.249 278.227 509.688 278.41 510.013 278.737C510.337 279.064 510.519 279.507 510.519 279.969L510.871 582.802C510.871 583.264 510.689 583.707 510.365 584.034C510.041 584.361 509.601 584.544 509.142 584.544H509.141ZM504.302 581.06H507.409L507.064 281.711H504.651L504.302 581.06Z" fill="#C7E3F9" fill-opacity="0.6"/>
<path d="M620.074 253.732H128.657C128.258 253.732 127.872 253.593 127.563 253.339C127.254 253.085 127.042 252.731 126.963 252.338C126.883 251.944 126.941 251.535 127.126 251.179C127.312 250.823 127.613 250.543 127.98 250.386L373.594 145.119C373.808 145.028 374.038 144.98 374.27 144.98C374.502 144.98 374.732 145.028 374.946 145.119L620.751 250.387C621.117 250.544 621.419 250.824 621.604 251.179C621.79 251.535 621.848 251.944 621.768 252.338C621.689 252.731 621.477 253.085 621.168 253.339C620.86 253.594 620.473 253.732 620.075 253.733L620.074 253.732ZM137.139 250.247H611.585L374.268 148.616L137.139 250.247Z" fill="#C7E3F9" fill-opacity="0.6"/>
<path d="M654.858 271.734H93.8915C93.4331 271.734 92.9935 271.551 92.6693 271.224C92.3452 270.897 92.1631 270.454 92.1631 269.992V247.323C92.1632 246.981 92.2629 246.647 92.45 246.362C92.6371 246.077 92.9032 245.854 93.2151 245.72L373.589 125.555C373.803 125.463 374.033 125.416 374.266 125.416C374.498 125.416 374.728 125.463 374.942 125.555L655.534 245.72C655.846 245.853 656.113 246.077 656.3 246.362C656.487 246.647 656.587 246.981 656.587 247.323V269.992C656.587 270.454 656.405 270.897 656.081 271.224C655.756 271.551 655.317 271.734 654.858 271.734ZM95.62 268.25H653.13V248.476L374.266 129.051L95.62 248.476V268.25Z" fill="#C7E3F9" fill-opacity="0.6"/>
<path d="M374.316 173.059L497.113 228.908H251.614L374.316 173.059Z" fill="#C7E3F9" fill-opacity="0.6"/>
<path d="M497.113 230.651H251.615C251.219 230.651 250.836 230.514 250.529 230.264C250.222 230.013 250.009 229.664 249.925 229.275C249.842 228.886 249.894 228.479 250.072 228.124C250.25 227.768 250.544 227.484 250.904 227.321L373.606 171.47C373.829 171.369 374.071 171.316 374.316 171.316C374.561 171.316 374.804 171.369 375.027 171.47L497.824 227.321C498.184 227.484 498.478 227.768 498.656 228.123C498.834 228.479 498.885 228.885 498.802 229.275C498.719 229.664 498.506 230.013 498.199 230.263C497.892 230.514 497.508 230.65 497.113 230.651ZM259.642 227.166H489.079L374.317 174.97L259.642 227.166Z" fill="#C7E3F9" fill-opacity="0.6"/>
<path d="M617.16 292.003L645.052 279.971V269.994H617.16V292.003Z" fill="#C7E3F9" fill-opacity="0.6"/>
<path d="M617.16 293.745C616.702 293.745 616.262 293.561 615.938 293.235C615.614 292.908 615.432 292.465 615.432 292.003V269.994C615.432 269.532 615.614 269.089 615.938 268.762C616.262 268.436 616.702 268.252 617.16 268.252H645.052C645.51 268.252 645.95 268.436 646.274 268.762C646.598 269.089 646.78 269.532 646.78 269.994V279.971C646.78 280.312 646.681 280.646 646.495 280.931C646.308 281.216 646.043 281.439 645.732 281.573L617.841 293.604C617.625 293.697 617.394 293.745 617.16 293.745ZM618.889 271.737V289.362L643.323 278.821V271.736L618.889 271.737Z" fill="#C7E3F9" fill-opacity="0.6"/>
<path d="M131.59 292.003L89.8525 294.203L103.699 279.971V269.994H131.59V292.003Z" fill="#C7E3F9" fill-opacity="0.6"/>
<path d="M89.8526 295.946C89.5123 295.945 89.1796 295.844 88.8963 295.654C88.6129 295.464 88.3915 295.194 88.2597 294.878C88.128 294.561 88.0918 294.213 88.1558 293.876C88.2197 293.539 88.3809 293.229 88.6191 292.984L101.97 279.259V269.994C101.97 269.532 102.152 269.089 102.477 268.762C102.801 268.436 103.24 268.252 103.699 268.252H131.59C132.049 268.252 132.488 268.436 132.812 268.762C133.137 269.089 133.319 269.532 133.319 269.994V292.003C133.319 292.449 133.15 292.879 132.845 293.204C132.54 293.528 132.123 293.722 131.68 293.745L89.9431 295.946C89.916 295.945 89.8826 295.946 89.8526 295.946ZM105.427 271.737V279.971C105.427 280.428 105.249 280.865 104.932 281.191L94.1939 292.23L129.862 290.349V271.737H105.427Z" fill="#C7E3F9" fill-opacity="0.6"/>
<path d="M618.74 314.223L697.033 292H618.434L618.74 314.223Z" fill="#C7E3F9" fill-opacity="0.6"/>
<path d="M618.739 315.965C618.285 315.965 617.849 315.785 617.525 315.463C617.202 315.142 617.017 314.705 617.011 314.247L616.705 292.024C616.702 291.793 616.744 291.564 616.83 291.35C616.915 291.136 617.042 290.941 617.203 290.777C617.364 290.612 617.555 290.482 617.767 290.393C617.978 290.304 618.205 290.258 618.434 290.258H697.033C697.45 290.258 697.853 290.41 698.168 290.687C698.482 290.963 698.687 291.345 698.744 291.761C698.801 292.178 698.707 292.602 698.479 292.954C698.25 293.306 697.903 293.562 697.502 293.677L619.208 315.9C619.055 315.943 618.898 315.965 618.739 315.965ZM620.186 293.742L620.436 311.931L684.517 293.742H620.186Z" fill="#C7E3F9" fill-opacity="0.6"/>
<path d="M246.179 279.969L246.759 322.111L395.235 279.969H246.179Z" fill="#C7E3F9" fill-opacity="0.6"/>
<path d="M246.759 323.853C246.305 323.853 245.869 323.673 245.545 323.352C245.222 323.03 245.037 322.593 245.031 322.135L244.45 279.993C244.447 279.762 244.49 279.533 244.575 279.319C244.661 279.104 244.787 278.91 244.948 278.745C245.109 278.581 245.301 278.45 245.512 278.361C245.723 278.272 245.95 278.227 246.179 278.227H395.234C395.651 278.227 396.054 278.379 396.369 278.656C396.683 278.932 396.888 279.314 396.945 279.731C397.002 280.147 396.908 280.57 396.679 280.922C396.451 281.274 396.104 281.531 395.702 281.646L247.228 323.789C247.075 323.832 246.918 323.853 246.759 323.853ZM247.931 281.711L248.456 319.819L382.717 281.711H247.931Z" fill="#C7E3F9" fill-opacity="0.6"/>
<path d="M270.632 279.969L306.16 269.885H103.699V279.969H270.632Z" fill="#C7E3F9" fill-opacity="0.6"/>
<path d="M270.631 281.712H103.699C103.241 281.712 102.801 281.528 102.477 281.201C102.153 280.875 101.971 280.432 101.971 279.969V269.885C101.971 269.423 102.153 268.98 102.477 268.653C102.801 268.326 103.241 268.143 103.699 268.143H306.159C306.577 268.142 306.98 268.294 307.295 268.571C307.61 268.847 307.815 269.229 307.872 269.646C307.93 270.063 307.835 270.487 307.606 270.839C307.378 271.191 307.03 271.448 306.628 271.562L271.1 281.646C270.947 281.69 270.79 281.712 270.631 281.712ZM105.428 278.227H270.393L293.644 271.627H105.428V278.227Z" fill="#C7E3F9" fill-opacity="0.6"/>
<path d="M20.4238 292L20.8565 375.719L131.591 344.288L131.336 292H20.4238Z" fill="#C7E3F9" fill-opacity="0.6"/>
<path d="M20.8565 377.461C20.3997 377.461 19.9614 377.279 19.6375 376.954C19.3136 376.63 19.1305 376.189 19.128 375.728L18.6953 292.009C18.6942 291.779 18.7381 291.552 18.8244 291.339C18.9108 291.127 19.0379 290.934 19.1985 290.771C19.3591 290.609 19.5501 290.479 19.7603 290.391C19.9706 290.303 20.1961 290.258 20.4238 290.258H131.337C131.794 290.258 132.232 290.44 132.556 290.765C132.88 291.09 133.063 291.531 133.065 291.991L133.319 344.28C133.321 344.661 133.198 345.032 132.971 345.336C132.743 345.641 132.423 345.861 132.059 345.964L21.3226 377.395C21.1709 377.439 21.0141 377.461 20.8565 377.461ZM22.1609 293.742L22.5728 373.424L129.856 342.974L129.616 293.745L22.1609 293.742Z" fill="#C7E3F9" fill-opacity="0.6"/>
<path d="M90.4352 593.735L45.75 710.157H93.6375V593.662L90.4352 593.735Z" fill="#C7E3F9" fill-opacity="0.6"/>
<path d="M93.6375 711.9H45.7501C45.4692 711.9 45.1925 711.832 44.944 711.7C44.6954 711.568 44.4825 711.377 44.3236 711.143C44.1647 710.91 44.0647 710.641 44.0321 710.36C43.9996 710.079 44.0355 709.794 44.1368 709.53L88.8215 593.108C88.9449 592.787 89.1603 592.509 89.4403 592.311C89.7203 592.113 90.0523 592.003 90.3944 591.995L93.5972 591.921C93.8279 591.912 94.0579 591.951 94.2727 592.036C94.4875 592.122 94.6822 592.251 94.8446 592.417C95.009 592.579 95.1396 592.773 95.2286 592.987C95.3177 593.201 95.3634 593.431 95.3631 593.663V710.158C95.3631 710.62 95.1814 711.062 94.8579 711.389C94.5344 711.716 94.0955 711.899 93.6375 711.9ZM48.2719 708.416H91.9091V595.445L91.6302 595.452L48.2719 708.416Z" fill="#C7E3F9" fill-opacity="0.6"/>
<path d="M93.6387 582.802L106.247 429.772V329.414H131.592V582.802H93.6387Z" fill="#C7E3F9" fill-opacity="0.6"/>
<path d="M131.591 584.545H93.6382C93.3992 584.545 93.1628 584.495 92.944 584.398C92.7251 584.301 92.5286 584.16 92.3668 583.982C92.2049 583.805 92.0813 583.596 92.0037 583.368C91.9262 583.14 91.8963 582.899 91.9161 582.658L104.518 429.7V329.414C104.518 328.952 104.7 328.509 105.025 328.182C105.349 327.855 105.788 327.672 106.247 327.672H131.591C132.049 327.672 132.489 327.855 132.813 328.182C133.137 328.509 133.32 328.952 133.32 329.414V582.805C133.319 583.267 133.136 583.709 132.812 584.036C132.488 584.362 132.049 584.545 131.591 584.545ZM95.5165 581.06H129.863V331.154H107.975V429.775C107.975 429.823 107.975 429.871 107.969 429.919L95.5165 581.06Z" fill="#C7E3F9" fill-opacity="0.6"/>
<path d="M447.299 584.473H301.453C300.995 584.473 300.555 584.289 300.231 583.962C299.907 583.636 299.725 583.192 299.725 582.73V375.721C299.725 375.259 299.907 374.816 300.231 374.489C300.555 374.162 300.995 373.979 301.453 373.979H447.299C447.757 373.979 448.197 374.162 448.521 374.489C448.845 374.816 449.027 375.259 449.027 375.721V582.73C449.027 582.959 448.982 583.186 448.895 583.397C448.809 583.609 448.681 583.801 448.521 583.962C448.36 584.124 448.17 584.253 447.96 584.34C447.75 584.428 447.526 584.473 447.299 584.473ZM303.182 580.988H445.57V377.463H303.182V580.988Z" fill="#C7E3F9" fill-opacity="0.6"/>
<path d="M370.518 390.156H315.243V582.728H370.518V390.156Z" fill="#C7E3F9" fill-opacity="0.6"/>
<path d="M370.517 584.471H315.243C314.785 584.471 314.345 584.287 314.021 583.96C313.697 583.634 313.515 583.191 313.515 582.728V390.156C313.515 389.694 313.697 389.251 314.021 388.924C314.345 388.598 314.785 388.414 315.243 388.414H370.517C370.976 388.414 371.416 388.598 371.74 388.924C372.064 389.251 372.246 389.694 372.246 390.156V582.728C372.246 583.191 372.064 583.634 371.74 583.96C371.416 584.287 370.976 584.471 370.517 584.471ZM316.972 580.986H368.789V391.899H316.972V580.986Z" fill="#C7E3F9" fill-opacity="0.6"/>
<path d="M433.507 390.156H378.232V582.728H433.507V390.156Z" fill="#C7E3F9" fill-opacity="0.6"/>
<path d="M433.507 584.471H378.233C377.775 584.471 377.335 584.287 377.011 583.96C376.687 583.634 376.505 583.191 376.505 582.728V390.156C376.505 389.694 376.687 389.251 377.011 388.924C377.335 388.598 377.775 388.414 378.233 388.414H433.507C433.965 388.414 434.405 388.598 434.729 388.924C435.053 389.251 435.236 389.694 435.236 390.156V582.728C435.236 583.191 435.053 583.634 434.729 583.96C434.405 584.287 433.965 584.471 433.507 584.471ZM379.962 580.986H431.779V391.899H379.962V580.986Z" fill="#C7E3F9" fill-opacity="0.6"/>
<path d="M374.363 91.4177C373.905 91.4177 373.465 91.2341 373.141 90.9074C372.817 90.5806 372.635 90.1375 372.635 89.6754V33.776C372.635 33.3412 372.796 32.9221 373.087 32.601C373.378 32.2799 373.777 32.0801 374.207 32.0406C374.342 32.0284 387.899 30.7101 392.182 24.8228C398.142 16.6339 410.677 15.7627 425.718 22.4997C440.784 29.2494 489.594 21.1355 490.085 21.053C490.365 21.006 490.652 21.0291 490.92 21.1203C491.189 21.2114 491.431 21.3677 491.626 21.5755C491.821 21.7832 491.961 22.0361 492.036 22.3117C492.111 22.5873 492.118 22.8773 492.055 23.156C491.675 24.8489 482.69 64.7312 478.112 74.6955C477.999 74.9426 477.83 75.1595 477.618 75.3285C471.511 80.207 432.628 84.1121 420.939 79.8713C419.504 79.3486 418.144 78.83 416.864 78.3398C412.406 76.633 408.197 75.0196 406.802 75.9895C406.138 76.4541 405.787 77.8357 405.787 79.9927C405.787 91.4177 385.346 91.4177 374.363 91.4177ZM376.092 35.3191V87.9331C385.149 87.9023 402.328 87.4289 402.328 79.9933C402.328 77.7928 402.588 74.6862 404.838 73.1222C407.725 71.115 412.072 72.7789 418.089 75.0829C419.352 75.5661 420.692 76.0795 422.108 76.5929C426.723 78.2678 438.004 78.6418 450.852 77.5477C463.784 76.4442 472.661 74.3796 475.159 72.8138C478.991 64.0006 486.058 33.8341 488.111 24.9C477.621 26.5262 438.429 32.0104 424.313 25.6864C410.869 19.6638 399.899 20.111 394.97 26.8851C390.709 32.7439 380.125 34.7546 376.092 35.3208V35.3191Z" fill="#C7E3F9" fill-opacity="0.6"/>
<path d="M374.363 67.5042C380.768 67.5042 397.19 66.4907 398.792 57.8343C400.394 49.1779 410.171 51.6583 422.689 56.6466C435.207 61.6349 477.366 56.3835 481.153 53.3606L485.762 39.8361C483.87 41.3479 437.971 48.1551 423.855 42.1395C409.739 36.1238 400.275 36.2737 397.072 43.9004C393.87 51.5271 377.567 52.4099 374.363 52.4099V67.5042Z" fill="#C7E3F9" fill-opacity="0.6"/>
<path d="M374.363 89.676C383.97 89.676 404.056 89.676 404.056 79.9922C404.056 70.3084 410.606 74.2704 421.523 78.2319C432.44 82.1933 470.866 78.4967 476.542 73.9626L481.151 57.6284C477.367 60.6513 435.205 65.9032 422.688 60.9144C410.17 55.9256 402.164 54.0189 400.563 62.6753C398.962 71.3317 380.768 71.772 374.363 71.772V89.676Z" fill="#C7E3F9" fill-opacity="0.6"/>
<path d="M374.363 128.901C373.905 128.901 373.465 128.718 373.141 128.391C372.817 128.064 372.635 127.621 372.635 127.159V33.7755C372.635 33.3134 372.817 32.8703 373.141 32.5435C373.465 32.2168 373.905 32.0332 374.363 32.0332C374.822 32.0332 375.261 32.2168 375.585 32.5435C375.91 32.8703 376.092 33.3134 376.092 33.7755V127.159C376.092 127.621 375.91 128.064 375.585 128.391C375.261 128.718 374.822 128.901 374.363 128.901Z" fill="#C7E3F9" fill-opacity="0.6"/>
<path d="M645.052 281.712H103.699C103.241 281.712 102.801 281.528 102.477 281.201C102.153 280.875 101.971 280.432 101.971 279.969V269.992C101.971 269.53 102.153 269.087 102.477 268.76C102.801 268.434 103.241 268.25 103.699 268.25H645.052C645.51 268.25 645.95 268.434 646.274 268.76C646.598 269.087 646.78 269.53 646.78 269.992V279.969C646.78 280.432 646.598 280.875 646.274 281.201C645.95 281.528 645.51 281.712 645.052 281.712ZM105.428 278.227H643.323V271.735H105.428V278.227Z" fill="#C7E3F9" fill-opacity="0.6"/>
<path d="M641.164 251.988H122.165V260.308H641.164V251.988Z" fill="#C7E3F9" fill-opacity="0.6"/>
<path d="M641.164 262.051H122.166C121.708 262.051 121.268 261.867 120.944 261.541C120.62 261.214 120.438 260.771 120.438 260.309V251.988C120.438 251.526 120.62 251.083 120.944 250.756C121.268 250.43 121.708 250.246 122.166 250.246H641.164C641.622 250.246 642.062 250.43 642.386 250.756C642.71 251.083 642.893 251.526 642.893 251.988V260.309C642.893 260.771 642.71 261.214 642.386 261.541C642.062 261.867 641.622 262.051 641.164 262.051ZM123.894 258.566H639.436V253.731H123.894V258.566Z" fill="#C7E3F9" fill-opacity="0.6"/>
<path d="M620.074 251.989L374.378 146.666L374.387 137.627L641.165 251.989H620.074Z" fill="#C7E3F9" fill-opacity="0.6"/>
<path d="M641.165 253.731H620.073C619.841 253.731 619.611 253.684 619.397 253.592L373.702 148.269C373.39 148.136 373.123 147.912 372.936 147.626C372.749 147.341 372.649 147.006 372.649 146.664L372.658 137.625C372.658 137.338 372.729 137.054 372.865 136.801C373 136.548 373.195 136.332 373.434 136.173C373.672 136.015 373.945 135.918 374.23 135.892C374.514 135.866 374.8 135.911 375.063 136.024L641.841 250.385C642.208 250.543 642.51 250.823 642.695 251.178C642.88 251.534 642.938 251.943 642.859 252.337C642.779 252.731 642.567 253.084 642.258 253.338C641.95 253.593 641.563 253.731 641.165 253.731ZM620.423 250.247H632.682L376.113 140.26L376.107 145.514L620.423 250.247Z" fill="#C7E3F9" fill-opacity="0.6"/>
<path d="M122.165 251.989L374.377 146.666L374.386 137.627L122.165 251.989Z" fill="#C7E3F9" fill-opacity="0.6"/>
<path d="M122.166 253.732C121.77 253.732 121.386 253.596 121.078 253.345C120.771 253.095 120.557 252.745 120.474 252.355C120.391 251.965 120.443 251.558 120.622 251.202C120.801 250.846 121.095 250.563 121.456 250.4L373.677 136.038C373.94 135.919 374.229 135.868 374.517 135.89C374.805 135.912 375.082 136.006 375.325 136.164C375.567 136.323 375.766 136.539 375.904 136.795C376.042 137.051 376.114 137.337 376.114 137.628L376.105 146.667C376.105 147.011 376.003 147.348 375.814 147.634C375.624 147.92 375.354 148.143 375.039 148.275L122.827 253.599C122.617 253.686 122.393 253.731 122.166 253.732ZM372.655 140.322L228.141 205.847L372.65 145.501L372.655 140.322Z" fill="#C7E3F9" fill-opacity="0.6"/>
</g>
<path d="M440.743 730.733C437.877 733.74 432.641 741.468 431.854 745.716C431.162 749.45 431.992 757.23 432.546 758.756C433.57 761.564 438.962 764.999 455.86 764.999C463.755 764.999 476.079 760.533 477.837 759.45C478.736 758.896 479.915 753.623 480.054 750.017C480.193 746.41 478.392 738.5 472.159 732.811C465.927 727.121 443.652 727.681 440.743 730.733Z" fill="#080F29"/>
<path d="M457.753 749.454C457.753 747.937 446.535 746.272 444.18 748.492C441.826 750.711 447.513 750.516 450.698 750.434C453.884 750.352 457.753 750.277 457.753 749.454Z" fill="#B0D0EF"/>
<path d="M434.725 758.617C435.008 760.176 447.225 762.53 455.412 761.88C460.562 761.469 465.929 760.282 466.899 759.31C467.869 758.339 467.037 758.756 461.774 759.588C456.51 760.42 455.26 760.499 449.032 760.287C442.636 760.073 434.548 757.646 434.725 758.617Z" fill="#132B5D"/>
<path d="M410.709 730.731C411.587 732.963 413.941 738.962 414.033 742.384C414.125 745.806 414.771 754.407 414.587 755.794C414.403 757.18 405.45 758.386 399.352 758.386C396.923 758.386 396.304 757.094 393.719 758.386C391.133 759.679 388.821 762.179 377.745 762.916C366.669 763.652 345.289 764.627 336.655 762.916C331.234 761.841 330.076 760.149 330.076 757.65C330.076 755.15 328.807 750.987 336.655 746.732C344.503 742.476 352.907 742.025 356.6 738.736C360.293 735.448 366.664 728.974 368.881 725.182C371.097 721.39 408.89 726.098 410.709 730.731Z" fill="#080F29"/>
<path d="M355.676 754.129C355.705 755.331 343.303 756.348 339.148 754.129C337.106 753.038 337.978 750.946 341.087 752.372C346.929 755.054 355.662 753.544 355.676 754.129Z" fill="#B0D0EF"/>
<path d="M374.69 759.331C375.081 760.273 366.16 761.575 352.956 761.575C341.318 761.575 334.383 759.774 333.38 758.708C332.856 758.151 333.126 756.794 333.68 757.137C335.434 758.224 343.541 759.49 351.386 759.773C365.418 760.282 374.296 758.387 374.69 759.331Z" fill="#132B5D"/>
<path d="M369.526 741.75C369.412 741.75 369.301 741.709 369.215 741.634C367.817 740.42 363.041 738.538 362.119 738.693C362.057 738.703 361.994 738.7 361.933 738.685C361.873 738.67 361.816 738.644 361.765 738.607C361.715 738.57 361.672 738.524 361.64 738.47C361.607 738.417 361.586 738.357 361.576 738.296C361.566 738.234 361.569 738.171 361.584 738.11C361.598 738.049 361.625 737.992 361.662 737.942C361.699 737.891 361.745 737.848 361.798 737.816C361.852 737.783 361.911 737.762 361.973 737.752C363.394 737.532 368.4 739.669 369.835 740.915C369.908 740.979 369.96 741.063 369.984 741.157C370.008 741.251 370.003 741.35 369.969 741.441C369.935 741.532 369.874 741.61 369.795 741.665C369.715 741.721 369.621 741.75 369.524 741.75H369.526Z" fill="#092B69"/>
<path d="M374.7 738.142C374.63 738.143 374.561 738.128 374.498 738.098C374.435 738.069 374.379 738.026 374.334 737.972C372.963 736.341 367.585 734.452 366.939 734.443C366.813 734.441 366.693 734.389 366.605 734.3C366.517 734.21 366.468 734.089 366.468 733.963C366.468 733.838 366.517 733.718 366.606 733.629C366.694 733.54 366.814 733.49 366.939 733.49C367.764 733.49 373.477 735.474 375.061 737.36C375.119 737.429 375.156 737.514 375.168 737.604C375.179 737.694 375.165 737.785 375.127 737.868C375.089 737.95 375.027 738.019 374.951 738.068C374.875 738.117 374.786 738.143 374.695 738.142H374.7Z" fill="#092B69"/>
<path d="M371.504 752.928C371.545 753.36 370.235 753.838 369.307 753.926C368.378 754.013 367.592 753.735 367.552 753.303C367.513 752.871 368.277 752.835 369.206 752.747C370.134 752.659 371.463 752.496 371.504 752.928Z" fill="#B0D0EF"/>
<path d="M383.682 366.884C382.943 370.997 374.079 431.82 372.231 453.831C370.764 471.33 366.414 509.877 364.753 521.531C363.091 533.184 360.228 543.542 359.858 547.241C359.489 550.94 360.413 555.749 359.858 560.004C359.304 564.258 370.584 687.447 370.03 690.962C369.475 694.476 367.219 704.464 366.85 706.314C366.481 708.163 369.712 713.066 368.973 714.734C368.235 716.402 367.957 722.318 367.403 723.983C366.849 725.647 370.2 731.809 372.113 731.566C375.76 731.104 392.981 726.387 411.171 732.399C412.788 732.933 416.157 714.919 416.896 712.884C417.635 710.85 412.833 693.278 413.202 690.318C413.572 687.359 410.387 612.944 410.697 608.782C411.079 603.657 415.62 592.192 416.48 589.51C417.727 585.625 412.325 574.805 412.49 569.071C412.539 567.367 414.951 565.187 415.937 561.487C416.923 557.788 433.728 477.696 434.651 477.511C435.573 477.326 442.037 556.863 442.222 558.528C442.407 560.193 438.529 568.886 438.713 570.92C438.898 572.955 443.7 587.568 443.515 589.417C443.33 591.267 440.929 591.452 440.56 594.597C440.191 597.741 440.935 694.434 440.012 699.798C439.088 705.161 434.3 713.671 433.931 716.445C433.562 719.219 436.659 730.271 436.289 732.306C435.92 734.341 449.886 740.221 451.548 740.036C453.209 739.851 470.882 736.298 474.355 737.115C477.494 737.855 478.793 732.813 479.394 730.319C479.833 728.512 480.125 717.102 480.125 715.623C480.125 714.143 478.402 703.266 478.59 701.046C478.778 698.826 488.424 587.753 489.163 580.354C489.901 572.954 490.456 548.354 490.271 545.58C490.086 542.806 492.302 543.36 492.487 539.291C492.672 535.221 497.815 451.246 497.446 434.783C497.077 418.32 490.982 375.778 490.059 370.415C489.136 365.051 385.144 358.745 383.682 366.884Z" fill="#092B69"/>
<path d="M384.964 371.29C414.311 382.712 469.254 380.955 492.619 372.76C492.135 368.92 491.456 365.108 490.584 361.338C459.466 370.433 403.233 366.888 386.797 360.012C385.575 363.646 384.956 367.456 384.964 371.29Z" fill="#050F3A"/>
<path d="M416.528 362.398L412.198 362.104L410.908 381.125L415.238 381.419L416.528 362.398Z" fill="#092B69"/>
<path d="M446.522 381.42C447.984 381.328 449.431 381.218 450.862 381.091V364.24C449.421 364.346 447.974 364.436 446.522 364.511V381.42Z" fill="#092B69"/>
<path d="M359.892 559.626C361.158 559.664 362.409 559.881 362.952 560.515C363.783 561.486 369.577 576.468 370.57 578.272C371.562 580.075 370.016 589.37 370.016 591.312C370.016 593.255 372.399 594.247 372.546 592.429C372.754 589.866 378.049 582.85 380.68 580.769C381.626 580.021 381.394 578.549 379.019 576.742C377.065 575.259 364.198 555.101 363.644 553.611C363.09 552.121 360.978 547.977 360.325 544.393C360.095 545.564 359.929 546.527 359.858 547.239C359.5 550.834 360.348 555.467 359.892 559.626Z" fill="#050F3A"/>
<path d="M362.675 579.452C363.3 580.157 367.522 587.567 368.492 590.342C369.272 592.408 370.27 594.384 371.469 596.238C371.885 596.931 368.681 600.128 369.631 604.041C373.128 618.457 380.167 696.461 378.092 705.485C377.214 709.3 378.478 713.809 377.785 717.138C377.092 720.467 375.154 728.653 374.046 728.791C372.937 728.929 376.123 718.525 376.262 716.444C376.401 714.364 375.596 708.937 376.106 704.861C377.797 691.335 368.63 606.573 368.076 603.937C367.522 601.301 367.107 601.44 366.138 599.498C365.168 597.556 361.837 578.507 362.675 579.452Z" fill="#050F3A"/>
<path d="M464.476 608.097C464.198 606.853 460.736 599.635 458.796 595.751C456.857 591.867 459.073 588.953 460.043 587.011C461.014 585.068 463.783 586.178 462.813 584.375C461.843 582.572 457.273 578.826 456.858 576.607C456.443 574.387 444.254 475.336 443.7 469.648C443.146 463.96 437.947 436.862 436.975 436.076C432.959 432.816 407.612 414.158 406.227 415.128C404.841 416.099 425.44 438.75 426.171 439.961C428.61 443.998 424.555 455.357 424.51 458.411C424.464 461.51 427.77 469.028 426.125 480.562C422.823 503.719 417.11 527.915 416.133 530.688C414.472 535.405 411.84 536.237 411.148 538.456C410.455 540.676 405.607 567.867 405.053 569.531C404.5 571.195 406.577 573.558 407.408 575.774C408.239 577.99 409.551 585.068 405.534 595.196C405.145 596.178 408.726 634.63 412.046 652.144C411.31 631.971 410.531 610.937 410.692 608.78C411.075 603.655 415.616 592.19 416.476 589.508C417.723 585.623 412.321 574.803 412.486 569.069C412.535 567.365 414.947 565.185 415.933 561.485C416.918 557.786 433.724 477.694 434.646 477.509C435.569 477.324 442.033 556.861 442.218 558.526C442.403 560.191 438.524 568.884 438.709 570.919C438.894 572.953 443.695 587.566 443.511 589.415C443.326 591.265 440.925 591.45 440.556 594.595C440.187 597.739 440.931 694.432 440.008 699.796C439.084 705.159 434.296 713.669 433.927 716.443C433.558 719.217 436.654 730.269 436.285 732.304C435.916 734.339 449.882 740.219 451.543 740.034C456.625 722.896 458.931 636.12 458.931 633.623C458.931 631.125 464.75 609.346 464.476 608.097Z" fill="#050F3A"/>
<path d="M497.44 434.782C497.07 418.32 490.976 375.777 490.053 370.413C489.88 369.41 486.097 368.373 480.053 367.404L453.83 376.904C455.492 382.806 467.496 437.927 468.419 440.702C469.343 443.477 492.012 438.482 497.298 443.661C497.314 443.676 497.328 443.687 497.344 443.702C497.447 439.885 497.485 436.82 497.44 434.782Z" fill="#050F3A"/>
<path d="M398.472 438.772C398.329 433.698 401.938 391.129 402.937 381.821C403.936 372.513 402.937 370.413 402.937 370.413L398.681 363.363C389.879 363.89 384.02 364.999 383.681 366.886C383.107 370.091 377.598 407.722 374.319 434.6C382.677 438.475 398.589 442.983 398.472 438.772Z" fill="#050F3A"/>
<path d="M436.587 194.654C430.312 194.654 417.377 196.319 411.102 199.648C404.827 202.978 395.963 210.007 388.207 213.522C380.451 217.036 379.896 310.052 380.243 309.22C380.589 308.387 382.32 314.418 382.32 315.046C382.32 315.674 379.55 318.583 379.896 320.873L380.588 325.45C380.108 325.495 379.641 325.639 379.219 325.874C378.797 326.108 378.427 326.428 378.135 326.813C377.842 327.197 377.632 327.638 377.518 328.108C377.404 328.578 377.388 329.067 377.472 329.543C377.888 333.289 383.497 352.017 384.051 353.751C384.605 355.485 393.931 363.531 406.674 367.231C419.417 370.93 457.275 372.04 469.648 367.231C482.02 362.422 493.84 351.693 495.132 350.213C496.425 348.733 502.977 232.093 502.285 229.943C501.593 227.792 484.444 216.206 479.412 213.013C473.838 209.475 465.215 199.648 460.968 198.169C456.72 196.689 442.992 194.654 436.587 194.654Z" fill="#B0D0EF"/>
<path d="M460.365 300.965C460.038 300.475 439.796 266.059 439.796 266.059C439.796 266.059 436.576 243.319 436.599 242.977C436.656 242.145 457.032 229.859 462.54 225.312C476.727 213.598 476.042 202.615 474.789 202.742C473.216 202.901 457.47 202.742 453.772 196.528C448.03 195.518 440.755 194.654 436.584 194.654C430.31 194.654 417.374 196.319 411.099 199.648C404.824 202.978 395.96 210.007 388.204 213.522C380.448 217.036 379.896 310.052 380.243 309.22C380.589 308.387 382.32 314.418 382.32 315.046C382.32 315.674 379.55 318.583 379.896 320.873C380.243 323.162 380.588 325.45 380.588 325.45C380.108 325.495 379.641 325.639 379.219 325.874C378.797 326.108 378.427 326.428 378.135 326.813C377.842 327.197 377.632 327.638 377.518 328.108C377.404 328.578 377.388 329.067 377.472 329.543C377.888 333.289 383.497 352.017 384.051 353.751C384.605 355.485 393.931 363.531 406.674 367.231C419.417 370.93 457.275 372.04 469.648 367.231C482.02 362.422 493.84 351.693 495.132 350.213C496.425 348.733 460.922 301.798 460.365 300.965Z" fill="#85B0DF"/>
<path d="M471.466 197.608C470.423 205.091 470.853 231.563 468.25 241.845C465.646 252.128 460.002 321.768 460.055 340.081C460.108 358.393 463.247 416.843 469.803 436.81C471.488 441.941 495.565 435.525 501.105 434.415C506.645 433.305 511.077 432.472 512.74 432.75C514.402 433.027 511.354 394.184 508.584 381.421C505.813 368.658 502.56 355.895 503.079 353.398C503.598 350.901 514.955 356.223 518.003 357.169C521.05 358.115 537.947 349.559 540.44 347.733C542.933 345.907 547.92 320.659 546.257 315.942C544.595 311.226 535.454 283.083 534.069 279.814C532.683 276.544 522.435 226.75 521.604 224.315C520.773 221.881 498.565 213.005 491.41 210.785C491.548 208.843 489.114 207.686 486.839 206.485C479.223 202.464 471.701 195.922 471.466 197.608Z" fill="#092B69"/>
<path d="M419.329 212.453C416.354 229.547 414.68 249.632 412.464 270.163C410.248 290.695 408.031 307.817 408.585 317.152C409.139 326.486 395.013 431.087 394.735 435.248C394.457 439.41 363.434 425.26 362.045 422.208C360.656 419.155 375.988 357.746 378.619 348.775C373.57 350.07 355.119 355.341 351.241 353.954C347.363 352.567 344.363 351.145 342.931 349.237C340.921 346.559 332.682 332.031 332.959 327.596C333.236 323.16 338.499 299.574 339.884 297.076C341.268 294.579 338.637 291.944 340.3 289.724C341.962 287.504 343.485 287.088 344.317 284.868C345.148 282.648 365.61 221.389 366.719 217.784C367.428 215.473 380.252 211.379 396.532 205.1C405.662 201.58 415.144 196.374 422.848 192.754C427.305 190.661 420.052 208.3 419.329 212.453Z" fill="#092B69"/>
<path d="M521.151 307.551C523.969 309.807 524.561 316.403 519.205 323.247C513.85 330.091 499.579 347.742 495.717 346.013C491.855 344.284 494.447 333.074 498.337 323.987C502.227 314.9 515.426 302.966 521.151 307.551Z" fill="#050F3A"/>
<path d="M508.537 313.26C507.569 307.896 506.461 303.457 513.109 301.422C519.757 299.387 533.423 300.708 533.423 304.382C533.423 305.564 527.883 305.235 526.405 306.843C524.928 308.451 536.008 311.575 539.148 317.151C537.671 317.151 535.454 316.405 531.207 316.405C528.81 314.294 525.311 309.797 521.149 307.552C516.988 305.307 508.537 313.26 508.537 313.26Z" fill="#050F3A"/>
<path d="M369.25 298.091C366.349 301.114 362.97 304.597 364.448 314.291C365.925 323.985 369.25 335.269 374.608 339.338C379.967 343.407 390.121 332.494 391.598 322.321C393.076 312.148 391.245 299.2 384.959 297.35C378.672 295.501 371.698 295.538 369.25 298.091Z" fill="#050F3A"/>
<path d="M382.362 299.46L370.358 265.537L376.36 299.46C376.36 299.46 374.605 301.567 373.867 299.46C373.129 297.353 374.051 292.913 367.219 291.618C360.386 290.322 355.769 288.843 353.738 288.843C351.706 288.843 354.107 290.693 356.138 291.803C358.17 292.913 364.091 296.058 364.091 296.058C364.091 296.058 356.298 295.629 351.866 297.662C346.726 300.021 346.906 304.011 348.383 305.491C349.86 306.971 351.892 302.84 358.909 300.466C365.927 298.092 368.882 298.4 370.729 300.466C372.575 302.531 377.439 305.803 377.439 305.803L382.362 299.46Z" fill="#050F3A"/>
<path d="M387.532 330.278C386.24 325.87 373.497 328.984 373.497 328.984C373.497 328.984 345.243 337.122 344.689 340.215C344.354 342.079 342.745 344.597 340.953 346.141C341.8 347.565 342.508 348.669 342.934 349.238C344.365 351.146 347.366 352.567 351.244 353.954C355.122 355.341 373.573 350.07 378.621 348.776C377.583 352.315 374.569 364.017 371.385 377.077C376.103 365.378 388.58 333.86 387.532 330.278Z" fill="#050F3A"/>
<path d="M371.836 298.091C368.682 299.8 366.11 304.934 366.849 310.669C367.589 316.403 369.681 333.419 377.438 333.605C385.195 333.79 393.073 319.996 390.487 308.303C387.902 296.61 382.863 298.645 380.211 298.091C377.56 297.537 373.532 297.17 371.836 298.091Z" fill="#85B0DF"/>
<path d="M369.434 303.11C368.638 305.272 368.325 307.583 368.517 309.88C368.708 312.176 369.4 314.403 370.542 316.403C373.526 321.349 381.108 323.659 383.192 324.609C383.782 324.877 384.435 324.389 383.793 323.664C383.054 322.831 381.632 321.372 382.362 321.047C384.653 320.027 391.549 314.924 390.487 308.307C389.568 302.577 382.362 289.031 382.362 289.031L375.116 292.434C375.116 292.434 370.885 299.46 369.434 303.11Z" fill="#050F3A"/>
<path d="M391.134 215.506C391.84 216.08 397.69 221.705 398.613 222.86C399.536 224.014 393.627 236.962 392.889 238.442C392.15 239.921 407.57 299.944 407.57 303.736C407.57 307.528 408.308 316.128 406.831 309.377C405.354 302.626 390.21 242.233 389.287 239.366C388.364 236.499 394.181 226.782 393.904 224.751C393.627 222.72 390.672 218.557 390.118 217.078C389.564 215.598 389.859 214.468 391.134 215.506Z" fill="#050F3A"/>
<path d="M488.272 214.672C486.702 215.689 482.559 218.705 481.624 219.782C481.162 220.313 485.498 227.616 486.333 228.73C487.168 229.843 465.834 293.191 465.554 295.133C465.274 297.075 489.604 229.925 490.027 227.652C490.111 227.198 487.562 222.858 486.333 220.982C485.855 220.253 488.272 214.672 488.272 214.672Z" fill="#050F3A"/>
<path d="M504.461 388.673C504.466 389.413 495.411 391.807 489.226 392.65C484.148 393.341 481.287 393.331 480.177 392.927C479.162 392.561 477.614 385.47 477.222 382.847C476.963 381.108 478.315 380.792 478.792 382.847C479.377 385.649 480.18 388.401 481.193 391.078C481.485 391.878 486.186 391.316 490.149 390.892C497.075 390.153 504.459 388.019 504.461 388.673Z" fill="#050F3A"/>
<path d="M371.05 377.955L370.331 381.423C370.331 381.423 380.857 387.229 381.854 385.308C382.85 383.386 371.05 377.955 371.05 377.955Z" fill="#050F3A"/>
<path d="M373.497 368.51C372.575 370.186 369.389 376.429 368.835 377.816C368.281 379.204 381.855 385.304 381.855 385.304L386.98 375.455L373.497 368.51Z" fill="#092B69"/>
<path d="M405.855 298.967L406.498 302.883L402.709 301.724L373.302 267.302C373.028 266.983 372.892 266.568 372.922 266.148C372.952 265.728 373.147 265.337 373.463 265.06C373.779 264.783 374.192 264.641 374.612 264.667C375.031 264.693 375.423 264.883 375.704 265.197L405.855 298.967Z" fill="#2171C5"/>
<path d="M385.224 278.393C382.362 277.168 378.88 281.141 379.846 284.659C378.519 285.138 376.582 285.794 375.843 287.459C375.104 289.124 375.413 289.884 375.136 291.179C374.859 292.473 372.917 292.825 371.965 294.481C371.113 295.966 371.86 297.19 371.315 298.41C370.771 299.63 369.181 299.78 368.65 301.173C367.919 303.1 368.811 307.077 369.25 308.543C369.804 310.393 372.13 313.764 373.271 315.04C374.125 315.999 376.291 318.034 378.625 317.702C380.96 317.371 386.613 312.797 386.336 310.673C388.416 310.219 390.992 309.54 393.97 308.83C394.519 308.733 395.036 308.503 395.476 308.161C395.916 307.818 396.266 307.372 396.494 306.863C396.722 306.354 396.823 305.796 396.786 305.239C396.75 304.682 396.578 304.142 396.286 303.667C397.163 303.645 398.154 303.717 399.033 303.691C399.563 303.604 400.058 303.372 400.466 303.021C400.873 302.67 401.176 302.214 401.341 301.702C401.637 300.487 401.273 298.79 400.279 298.326C399.475 297.95 397.786 297.759 397.763 297.355C397.74 296.952 401.107 297.742 402.322 297.955C404.696 298.373 405.68 294.188 403.926 293.309C402.014 292.352 392.592 289.309 390.992 288.828C393.215 288.615 394.554 285.627 393.354 284.176C391.804 282.304 387.164 279.224 385.224 278.393Z" fill="#DE8864"/>
<path d="M387.855 287.78C388.825 288.057 389.444 288.341 390.988 288.825C393.211 288.612 394.55 285.624 393.349 284.173C391.803 282.304 387.164 279.224 385.224 278.393C382.362 277.168 378.88 281.141 379.846 284.659C378.518 285.138 376.582 285.794 375.843 287.459C375.104 289.124 375.413 289.884 375.136 291.179C374.859 292.473 372.916 292.825 371.965 294.481C371.112 295.966 371.86 297.19 371.315 298.41C370.769 299.63 369.18 299.78 368.65 301.173C368.217 302.311 368.352 304.163 368.625 305.791C370.971 306.402 373.354 306.858 375.759 307.156C379.079 307.414 382.414 307.399 385.732 307.109C388.567 306.886 390.41 304.681 390.597 303.557C388.039 303.358 384.3 303.175 382.362 302.883C380.884 299.553 383.949 297.026 386.534 295.364C388.275 294.243 386.101 288.752 387.855 287.78Z" fill="#EEC6B5"/>
<path d="M395.638 304.225C391.392 304.225 380.378 303.405 377.049 302.407C376.928 302.371 376.827 302.288 376.767 302.177C376.707 302.066 376.694 301.935 376.73 301.814C376.766 301.693 376.849 301.592 376.96 301.532C377.071 301.472 377.201 301.458 377.322 301.495C380.336 302.398 391.119 303.272 395.658 303.274C395.784 303.274 395.905 303.324 395.994 303.413C396.083 303.502 396.134 303.623 396.134 303.749C396.128 303.877 396.073 303.997 395.98 304.086C395.888 304.175 395.765 304.224 395.638 304.225Z" fill="#090E22"/>
<path d="M399.247 298.314C399.197 298.314 399.148 298.306 399.101 298.291L393.653 296.51C393.592 296.493 393.534 296.463 393.485 296.423C393.435 296.383 393.394 296.333 393.364 296.276C393.334 296.22 393.315 296.158 393.309 296.094C393.304 296.031 393.311 295.966 393.331 295.906C393.35 295.845 393.382 295.788 393.424 295.74C393.466 295.692 393.517 295.652 393.574 295.624C393.632 295.596 393.694 295.58 393.758 295.577C393.822 295.573 393.886 295.583 393.946 295.605L399.394 297.386C399.501 297.421 399.593 297.493 399.652 297.59C399.711 297.686 399.734 297.8 399.716 297.912C399.698 298.024 399.641 298.126 399.556 298.2C399.47 298.273 399.36 298.314 399.247 298.314Z" fill="#090E22"/>
<path d="M390.991 289.302C390.936 289.302 390.881 289.292 390.828 289.272L382.203 286.117C382.144 286.096 382.09 286.063 382.044 286.021C381.998 285.979 381.961 285.928 381.935 285.871C381.909 285.815 381.894 285.753 381.891 285.691C381.888 285.629 381.898 285.566 381.919 285.508C381.941 285.449 381.973 285.395 382.016 285.349C382.058 285.303 382.108 285.266 382.165 285.24C382.221 285.213 382.283 285.198 382.345 285.196C382.407 285.193 382.469 285.203 382.528 285.224L391.154 288.379C391.259 288.417 391.347 288.491 391.403 288.588C391.459 288.685 391.479 288.799 391.46 288.909C391.44 289.019 391.383 289.119 391.297 289.191C391.211 289.263 391.103 289.302 390.991 289.302Z" fill="#090E22"/>
<path d="M376.544 311.273C375.205 311.134 375.397 312.537 376.544 313.016C378.929 313.867 381.434 314.334 383.965 314.399C385.388 313.065 386.456 311.624 386.331 310.672C383.092 311.148 379.818 311.349 376.544 311.273Z" fill="#080F29"/>
<path d="M376.78 333.547C379.768 331.026 383.564 326.38 383.926 324.537C383.825 324.62 383.701 324.671 383.572 324.684C383.442 324.697 383.311 324.671 383.195 324.611C381.111 323.659 373.529 321.351 370.545 316.405C370.37 316.112 370.205 315.802 370.047 315.48C369.82 315.681 369.615 315.906 369.437 316.152C367.96 318.211 371.007 322.14 373.408 326.396C374.479 328.3 374.278 330.484 373.983 332.205C374.771 332.905 375.741 333.371 376.78 333.547Z" fill="#B0D0EF"/>
<path d="M377.963 326.874C378.396 325.963 378.248 324.986 377.632 324.692C377.015 324.398 376.164 324.897 375.731 325.808C375.298 326.719 375.446 327.696 376.062 327.99C376.678 328.284 377.529 327.784 377.963 326.874Z" fill="#85B0DF"/>
<path d="M523.147 314.6C520.319 312.003 517.556 309.455 517.313 309.19C516.802 308.636 514.126 308.014 510.478 311.391C507.992 313.689 497.612 328.515 497.612 328.515L503.42 341.391C509.017 336.041 515.857 327.53 519.21 323.248C521.262 320.765 522.621 317.781 523.147 314.6Z" fill="#85B0DF"/>
<path d="M499.723 324.756C498.464 326.963 497.612 328.515 497.612 328.515L503.42 341.391C504.02 340.817 504.634 340.207 505.256 339.57C503.692 334.69 501.314 328.657 499.723 324.756Z" fill="#B0D0EF"/>
<path d="M498.982 321.871C498.617 324.175 496.105 328.478 498.521 329.446C504.061 331.665 516.723 320.382 517.265 313.445C517.735 307.428 514.677 309.711 510.477 311.395C506.277 313.079 498.982 321.871 498.982 321.871Z" fill="#050F3A"/>
<path d="M471.909 275.955C470.955 274.952 471.572 269.281 475.373 269.281C478.341 269.281 481.408 271.381 479.923 278.02L471.909 275.955Z" fill="white"/>
<path d="M493.338 325.707L449.795 322.63L474.237 271.688L514.894 270.996L493.338 325.707Z" fill="white"/>
<path d="M493.338 326.438C493.321 326.438 493.303 326.438 493.287 326.438L449.743 323.362C449.624 323.354 449.509 323.317 449.408 323.253C449.307 323.19 449.222 323.103 449.162 323C449.102 322.896 449.069 322.78 449.064 322.661C449.059 322.541 449.084 322.422 449.136 322.315L473.577 271.372C473.635 271.249 473.727 271.146 473.841 271.072C473.956 270.999 474.088 270.959 474.224 270.957L514.881 270.266H514.893C515.013 270.266 515.13 270.295 515.235 270.351C515.341 270.406 515.431 270.487 515.498 270.586C515.565 270.685 515.607 270.798 515.62 270.917C515.633 271.035 515.617 271.155 515.573 271.267L494.018 325.973C493.965 326.11 493.871 326.227 493.75 326.31C493.628 326.393 493.485 326.438 493.338 326.438ZM450.919 321.971L492.855 324.934L513.812 271.743L474.699 272.408L450.919 321.971Z" fill="white"/>
<path d="M495.055 326.392H453.831L474.996 271.682H516.22L495.055 326.392Z" fill="#2171C5"/>
<path d="M495.054 327.127H453.83C453.712 327.127 453.595 327.098 453.49 327.042C453.384 326.987 453.294 326.906 453.227 326.808C453.16 326.71 453.118 326.597 453.104 326.479C453.091 326.36 453.106 326.241 453.149 326.13L474.314 271.419C474.367 271.281 474.461 271.163 474.582 271.079C474.704 270.996 474.848 270.951 474.996 270.951H516.22C516.339 270.951 516.456 270.98 516.561 271.035C516.666 271.091 516.756 271.171 516.823 271.27C516.891 271.368 516.933 271.481 516.947 271.599C516.96 271.718 516.945 271.837 516.902 271.948L495.736 326.659C495.683 326.797 495.59 326.915 495.468 326.999C495.346 327.082 495.202 327.127 495.054 327.127ZM454.898 325.662H494.554L515.152 272.416H475.496L454.898 325.662Z" fill="#2171C5"/>
<path d="M475.702 269.281C478.472 269.281 481.331 271.266 479.948 277.54C478.541 283.903 474.009 284.096 471.854 288.217C469.699 292.337 461.667 316.15 461.667 316.15H499.533L510.444 288.666C511.428 286.189 517.447 283.545 518.918 277.728C519.842 274.075 519.536 269.301 515.779 269.365L475.702 269.281Z" fill="white"/>
<path d="M469.681 293.736L509.12 291.994L499.53 316.149H461.667L469.681 293.736Z" fill="#D8E8F6"/>
<path d="M504.431 302.485C501.237 302.646 492.658 302.485 491.411 302.485C490.165 302.485 485.317 297.074 483.378 295.964C483.039 295.74 482.656 295.59 482.255 295.524C481.854 295.459 481.444 295.479 481.051 295.584C480.659 295.689 480.293 295.876 479.978 296.133C479.662 296.39 479.405 296.71 479.223 297.074C476.591 293.883 474.237 293.883 473.406 294.646C472.574 295.41 472.851 296.45 474.514 298.575C472.35 298.531 471.466 300.466 473.336 302.415C474.701 303.914 476.192 305.293 477.792 306.537C476.245 306.537 474.098 308.234 476.314 310.67C478.492 313.063 487.139 322.045 488.513 323.571C489.887 325.098 497.645 326.878 498.752 326.337C500.069 326.731 501.415 327.02 502.778 327.203C503.713 327.21 507.625 325.621 510.802 322.741C514.037 319.808 516.53 315.572 516.67 314.101C516.947 311.188 516.065 310.313 515.926 306.538C515.787 302.763 514.126 294.579 512.741 292.497C511.357 290.416 501.399 289.168 498.336 288.891C495.273 288.613 493.621 289.157 494.414 291.974C495.166 294.648 499.74 295.914 502.336 296.798C504.58 297.563 506.241 302.395 504.431 302.485Z" fill="#DE8864"/>
<path d="M485.939 313.455C485.939 313.455 492.518 320.327 493.211 321.047C493.904 321.768 496.793 322.466 497.228 321.047C497.662 319.628 495.985 318.747 494.25 318.107C492.516 317.468 486.425 313.189 485.939 313.455Z" fill="#EEC6B5"/>
<path d="M485.167 305.078C484.656 305.574 489.407 312.196 490.029 313.028C490.65 313.86 497.713 317.222 498.475 317.656C499.237 318.09 502.249 315.258 500.137 314.623C498.025 313.989 493.481 311.182 493.481 311.182L488.437 309.352L485.167 305.078Z" fill="#EEC6B5"/>
<path d="M479.224 297.073L488.988 308.303C488.988 308.303 498.268 307.921 500.207 308.01C502.146 308.099 503.393 309.626 502.908 310.736C502.722 311.075 502.453 311.361 502.125 311.568C501.798 311.774 501.424 311.894 501.038 311.915L502.336 313.156C503.208 312.661 503.913 311.917 504.361 311.018C504.603 310.635 504.755 310.202 504.808 309.751C504.861 309.301 504.813 308.844 504.667 308.415C504.521 307.985 504.281 307.594 503.964 307.269C503.648 306.945 503.263 306.695 502.838 306.539C500.556 305.462 493.057 303.464 491.411 302.487C490.168 302.487 485.317 297.076 483.378 295.966C483.039 295.742 482.657 295.592 482.256 295.526C481.855 295.46 481.445 295.48 481.053 295.585C480.66 295.689 480.294 295.876 479.979 296.133C479.664 296.389 479.406 296.709 479.224 297.073Z" fill="#EEC6B5"/>
<path d="M508.537 300.421C508.462 300.42 508.389 300.403 508.322 300.369L502.12 297.221C502.007 297.164 501.922 297.064 501.883 296.944C501.844 296.824 501.854 296.694 501.911 296.581C501.968 296.469 502.067 296.383 502.187 296.344C502.307 296.305 502.437 296.315 502.55 296.372L508.752 299.52C508.848 299.569 508.924 299.648 508.969 299.746C509.014 299.843 509.025 299.953 508.999 300.058C508.974 300.162 508.914 300.255 508.829 300.321C508.745 300.386 508.64 300.422 508.533 300.421H508.537Z" fill="#090E22"/>
<path d="M479.224 297.074C479.224 297.074 487.88 308.797 488.434 309.352C488.988 309.907 500.207 313.306 501.385 313.444C502.562 313.582 503.116 312.404 501.038 311.918C498.961 311.433 489.473 308.506 488.988 308.304C488.504 308.103 479.224 297.074 479.224 297.074Z" fill="#080F29"/>
<path d="M489.637 322.414C489.04 322.415 488.466 322.64 488.028 323.046C488.232 323.266 488.399 323.445 488.512 323.571C489.018 324.133 490.393 324.729 491.981 325.232C492.047 324.887 492.036 324.532 491.948 324.192C491.861 323.852 491.699 323.536 491.474 323.266C491.25 322.996 490.968 322.78 490.65 322.633C490.332 322.485 489.985 322.411 489.634 322.414H489.637Z" fill="#EEC6B5"/>
<path d="M490.028 288.826C487.874 292.946 494.521 296.798 494.521 296.798L505.194 301.893L510.444 288.668C511.426 286.191 492.183 284.705 490.028 288.826Z" fill="white"/>
<path d="M484.451 293.088L509.121 291.998L505.192 301.895L484.451 293.088Z" fill="#D8E8F6"/>
<path d="M467.569 174.096V209.517C467.569 209.517 458.982 217.781 448.274 217.781C437.566 217.781 428.976 209.517 428.976 209.517V174.096H467.569Z" fill="#EEC6B5"/>
<path d="M428.979 209.516C428.979 209.516 437.041 216.964 447.282 217.741C447.228 214.565 448.65 213.413 449.495 210.256C450.434 206.741 449.203 204.521 447.448 201.747C445.694 198.973 445.14 197.216 447.448 195.273C449.757 193.331 460.375 186.21 462.592 184.73C464.808 183.25 462.898 183.182 461.067 183.339C460.172 183.412 459.572 178.475 459.216 174.098H428.979V209.516Z" fill="#DE8864"/>
<path d="M428.979 204.928C429.886 203.583 430.339 201.982 430.272 200.36C430.272 197.123 430.734 193.147 432.95 190.544C435.165 187.941 439.875 188.707 442.83 189.91C445.784 191.113 446.893 191.112 450.295 189.91C453.52 188.616 456.595 186.972 459.464 185.008C460.769 184.083 459.839 183.993 459.464 183.471C459.187 183.087 456.531 176.972 455.164 174.094H428.979V204.928Z" fill="#080F29"/>
<path d="M454.015 185.543C460.663 185.543 470.126 177.019 471.005 173.288C472.02 170.144 474.148 157.058 474.698 152.156C475.324 146.622 474.514 135.155 475.846 125.968C475.974 115.541 470.85 107.582 449.318 107.582C427.787 107.582 420.831 116.11 420.956 126.538C421.116 139.666 426.588 169.077 429.001 175.185C430.41 178.748 444.174 185.543 450.821 185.543H454.015Z" fill="#EEC6B5"/>
<path d="M457.105 166.798C454.14 166.728 452.408 167.838 452.258 167.399C452.123 167.003 452.022 165.039 451.799 163.755C451.629 162.773 454.362 162.67 454.292 161.744C454.174 160.183 453.045 154.796 452.215 148.218C451.387 141.665 450.805 139.494 446.305 138.157C441.593 136.757 433.871 138.272 433.074 137.498C431.704 136.164 431.194 133.559 431.563 131.062C431.933 128.566 430.503 124.34 430.966 120.051C431.325 116.727 433.226 117.034 434.15 115.647L434.734 109.371C424.508 112.405 420.866 118.968 420.959 126.533C421.119 139.661 426.591 169.072 429.004 175.18C430.413 178.743 444.177 185.538 450.824 185.538H454.015C455.504 185.492 456.972 185.168 458.342 184.582C457.189 183.422 451.745 182.559 451.591 180.752C451.384 178.325 452.577 174.497 452.63 173.816C452.664 173.417 452.557 173.018 452.329 172.689C452.101 172.36 451.765 172.12 451.38 172.013C450.622 171.688 450.436 169.503 451.499 169.503C452.262 169.503 453.23 169.449 454.313 169.35C457.968 169.015 461.215 169.391 461.538 169.067C461.861 168.743 459.112 166.849 457.105 166.798Z" fill="#DE8864"/>
<path d="M431.913 137.259C431.552 136.503 435.445 134.554 440.162 135.151C443.482 135.572 446.281 137.216 446.303 138.161C446.314 138.6 443.504 138.216 439.47 138.022C434.322 137.774 432.112 137.675 431.913 137.259Z" fill="#080F29"/>
<path d="M463.503 110.21C462.734 109.65 465.038 114.846 461.079 117.702C456.053 121.443 449.88 123.307 443.627 122.973C436.329 122.557 435.802 121.401 432.589 122.511C429.19 123.687 429.411 126.172 429.127 130.788C428.865 135.039 427.416 140.498 427.626 147.456C427.696 149.747 426.116 149.791 425.708 147.316C420.86 145.778 427.962 164.923 426.345 165.458C425.512 165.734 424.75 165.483 423.859 162.658C421.601 155.501 416.28 142.481 415.784 137.609C415.483 134.652 417.773 133.435 417.238 132.264C416.476 130.6 413.144 123.6 417.862 114.299C420.607 108.889 429.832 100.967 444.783 100.079C461.145 99.1084 463.014 107.363 464.544 108.06C465.402 108.449 476.865 106.071 478.527 116.8C479.858 125.395 478.065 134.719 474.999 140.904C475.11 138.561 475.067 137.625 475.272 134.488C475.426 132.12 474.18 129.216 469.655 125.887C465.13 122.558 464.319 122.237 464.544 118.534C464.784 114.615 466.169 112.153 463.503 110.21Z" fill="#080F29"/>
<path d="M466.943 135.832C464.88 135.784 458.223 136.518 457.414 138C457.06 138.647 456.007 141.851 457.062 142.739C458.012 143.539 459.126 142.322 461.472 140.085C462.939 138.544 464.886 137.549 466.992 137.264C468.469 137.169 468.192 135.861 466.943 135.832Z" fill="#DE8864"/>
<path d="M472.712 141.715C473.943 140.64 477.507 140.816 476.85 144.667C476.057 149.319 474.304 157.429 473.057 159.51C471.81 161.591 469.871 162.424 468.902 161.314C467.933 160.204 471.457 142.811 472.712 141.715Z" fill="#EEC6B5"/>
<path d="M471.054 137.499C471.389 136.732 467.274 134.817 462.756 135.072C459.415 135.26 457.322 137.435 457.33 138.38C457.33 138.819 460.162 138.147 464.192 137.892C468.94 137.591 470.869 137.922 471.054 137.499Z" fill="#080F29"/>
<path d="M459.161 145.387C460.155 142.13 467.728 140.82 469.658 144.385C469.203 146.937 462.288 147.489 459.161 145.387Z" fill="#DFECF7"/>
<mask id="mask0_1012_32835" style="mask-type:luminance" maskUnits="userSpaceOnUse" x="459" y="142" width="11" height="5">
<path d="M459.161 145.391C460.155 142.134 467.728 140.823 469.658 144.389C469.203 146.941 462.198 147.608 459.161 145.391Z" fill="white"/>
</mask>
<g mask="url(#mask0_1012_32835)">
<path d="M467.281 145.059C467.325 143.815 466.387 142.772 465.187 142.73C463.987 142.688 462.979 143.663 462.936 144.907C462.893 146.151 463.83 147.194 465.03 147.236C466.23 147.278 467.238 146.303 467.281 145.059Z" fill="#102B68"/>
<path d="M466.054 145.387C466.073 144.848 465.667 144.397 465.147 144.378C464.627 144.36 464.191 144.782 464.172 145.321C464.153 145.86 464.559 146.312 465.079 146.33C465.599 146.348 466.036 145.926 466.054 145.387Z" fill="#080F28"/>
</g>
<path d="M459.16 145.937C459.061 145.937 458.964 145.91 458.879 145.86C458.794 145.809 458.725 145.736 458.678 145.649C458.631 145.561 458.609 145.463 458.613 145.364C458.617 145.265 458.648 145.169 458.702 145.087C459.283 144.31 460.017 143.66 460.857 143.178C461.698 142.695 462.629 142.39 463.591 142.282C466.025 141.866 468.595 142.306 469.993 143.374C470.052 143.417 470.101 143.472 470.139 143.534C470.177 143.597 470.202 143.666 470.212 143.739C470.223 143.811 470.218 143.885 470.2 143.956C470.182 144.026 470.15 144.093 470.105 144.151C470.061 144.209 470.006 144.258 469.942 144.294C469.879 144.33 469.809 144.354 469.737 144.363C469.664 144.371 469.591 144.366 469.52 144.346C469.45 144.326 469.385 144.292 469.327 144.247C468.174 143.368 465.892 143.002 463.776 143.365C462.962 143.45 462.173 143.7 461.459 144.099C460.744 144.499 460.118 145.04 459.619 145.69C459.569 145.766 459.501 145.829 459.421 145.872C459.341 145.915 459.251 145.938 459.16 145.937Z" fill="#DE8864"/>
<path d="M434.644 144.611C436.072 141.511 444.011 141.215 445.546 145.009C444.759 147.482 437.59 147.112 434.644 144.611Z" fill="#DFECF7"/>
<mask id="mask1_1012_32835" style="mask-type:luminance" maskUnits="userSpaceOnUse" x="434" y="142" width="12" height="5">
<path d="M434.644 144.615C436.072 141.515 444.011 141.219 445.546 145.013C444.759 147.486 437.484 147.22 434.644 144.615Z" fill="white"/>
</mask>
<g mask="url(#mask1_1012_32835)">
<path d="M443.033 145.284C443.19 144.049 442.318 142.92 441.085 142.762C439.852 142.605 438.725 143.478 438.567 144.713C438.41 145.948 439.282 147.077 440.515 147.235C441.748 147.393 442.875 146.519 443.033 145.284Z" fill="#102B68"/>
<path d="M440.782 146.272C441.32 146.272 441.757 145.834 441.757 145.295C441.757 144.756 441.32 144.318 440.782 144.318C440.243 144.318 439.807 144.756 439.807 145.295C439.807 145.834 440.243 146.272 440.782 146.272Z" fill="#080F28"/>
</g>
<path d="M434.642 145.162C434.537 145.163 434.433 145.132 434.344 145.075C434.256 145.017 434.185 144.935 434.142 144.839C434.099 144.742 434.084 144.635 434.1 144.531C434.116 144.426 434.162 144.328 434.232 144.249C435.359 142.974 437.229 142.218 439.508 142.122C442.074 142.012 444.683 142.785 445.998 144.042C446.103 144.143 446.164 144.281 446.167 144.427C446.171 144.572 446.116 144.713 446.016 144.819C445.915 144.924 445.777 144.985 445.632 144.988C445.486 144.992 445.346 144.937 445.24 144.837C444.144 143.789 441.813 143.121 439.554 143.219C437.58 143.303 435.98 143.927 435.053 144.976C435.002 145.035 434.939 145.082 434.868 145.114C434.797 145.146 434.72 145.162 434.642 145.162Z" fill="#BC694B"/>
<path d="M468.07 141.693C467.952 141.693 467.837 141.655 467.743 141.585C467.085 141.094 464.227 140.8 463.176 141.115C463.107 141.137 463.034 141.144 462.962 141.137C462.89 141.13 462.82 141.109 462.757 141.075C462.693 141.041 462.636 140.994 462.591 140.938C462.545 140.882 462.511 140.817 462.49 140.748C462.469 140.678 462.462 140.606 462.47 140.533C462.477 140.461 462.499 140.392 462.534 140.328C462.568 140.264 462.615 140.208 462.671 140.163C462.728 140.117 462.792 140.083 462.862 140.063C464.154 139.677 467.403 139.959 468.399 140.704C468.492 140.773 468.56 140.869 468.594 140.979C468.629 141.09 468.628 141.208 468.591 141.317C468.555 141.427 468.485 141.522 468.391 141.59C468.298 141.657 468.186 141.693 468.07 141.693Z" fill="#DE8864"/>
<path d="M436.376 141.913C436.25 141.913 436.128 141.87 436.03 141.79C435.932 141.71 435.864 141.598 435.839 141.474C435.814 141.35 435.832 141.221 435.891 141.109C435.95 140.997 436.045 140.909 436.162 140.859C437.766 140.277 439.494 140.125 441.175 140.42C441.318 140.447 441.444 140.53 441.526 140.65C441.608 140.771 441.638 140.919 441.611 141.062C441.584 141.205 441.501 141.331 441.381 141.413C441.261 141.495 441.113 141.526 440.97 141.499C439.503 141.25 437.996 141.378 436.591 141.87C436.523 141.899 436.45 141.914 436.376 141.913Z" fill="#BC694B"/>
<path d="M424.583 143.088C422.009 139.35 419.319 141.471 419.319 145.378C419.319 150.996 421.069 157.825 422.316 159.908C423.564 161.991 425.977 163.832 426.947 162.722C427.917 161.612 425.807 144.868 424.583 143.088Z" fill="#DE8864"/>
<path d="M443.568 214.783L431.67 214.213L429.436 220.348L434.281 229.021L441.069 229.346L446.452 221.163L443.568 214.783Z" fill="#2171C5"/>
<path d="M418.954 213.602C418.954 213.602 424.25 218.323 429.435 220.346C434.62 222.369 442.182 222.237 446.452 221.162C450.722 220.086 460.181 215.578 460.181 215.578L418.954 213.602Z" fill="#2171C5"/>
<path d="M444.298 351.346C444.333 352.632 444.061 353.907 443.503 355.066C440.853 360.54 432.769 376.857 430.609 376.753C428.449 376.65 421.957 359.635 419.841 353.932C419.396 352.725 419.245 351.43 419.402 350.154L434.281 229.021L441.036 229.345L444.298 351.346Z" fill="#2171C5"/>
<path d="M437.332 366.532C437.266 366.532 437.202 366.518 437.142 366.492C437.082 366.466 437.028 366.428 436.983 366.38L419.354 347.361C419.268 347.268 419.222 347.145 419.227 347.019C419.232 346.893 419.286 346.774 419.378 346.688C419.471 346.602 419.594 346.556 419.719 346.561C419.845 346.566 419.964 346.62 420.05 346.713L437.682 365.732C437.745 365.8 437.787 365.885 437.802 365.976C437.817 366.068 437.806 366.161 437.769 366.246C437.732 366.331 437.671 366.403 437.594 366.454C437.516 366.505 437.426 366.532 437.333 366.532H437.332Z" fill="#050F3A"/>
<path d="M439.17 363.091C439.105 363.091 439.04 363.078 438.98 363.052C438.92 363.026 438.866 362.987 438.822 362.939L419.941 342.572C419.856 342.479 419.81 342.356 419.815 342.23C419.819 342.104 419.874 341.985 419.966 341.899C420.059 341.813 420.181 341.767 420.307 341.772C420.433 341.776 420.552 341.831 420.638 341.924L439.518 362.292C439.582 362.36 439.624 362.444 439.639 362.536C439.655 362.627 439.644 362.721 439.607 362.806C439.57 362.891 439.509 362.963 439.431 363.014C439.354 363.065 439.263 363.092 439.17 363.091Z" fill="#050F3A"/>
<path d="M444.177 344.15C444.112 344.15 444.047 344.137 443.988 344.111C443.928 344.085 443.874 344.046 443.829 343.999L422.586 321.082C422.543 321.036 422.509 320.982 422.486 320.923C422.464 320.865 422.453 320.802 422.455 320.739C422.457 320.676 422.472 320.614 422.498 320.556C422.524 320.499 422.561 320.447 422.607 320.404C422.653 320.361 422.707 320.328 422.767 320.306C422.826 320.285 422.889 320.275 422.951 320.278C423.014 320.281 423.076 320.296 423.133 320.323C423.19 320.35 423.241 320.388 423.283 320.435L444.526 343.351C444.589 343.419 444.631 343.504 444.647 343.595C444.662 343.687 444.651 343.781 444.614 343.866C444.577 343.951 444.516 344.023 444.438 344.074C444.361 344.125 444.27 344.151 444.177 344.151V344.15Z" fill="#050F3A"/>
<path d="M444.025 338.561C443.96 338.561 443.895 338.548 443.835 338.522C443.775 338.496 443.721 338.457 443.677 338.409L423.175 316.293C423.132 316.247 423.098 316.193 423.075 316.134C423.053 316.075 423.042 316.013 423.044 315.95C423.046 315.887 423.06 315.825 423.087 315.767C423.113 315.71 423.15 315.658 423.196 315.615C423.242 315.572 423.296 315.539 423.355 315.517C423.415 315.496 423.477 315.486 423.54 315.489C423.603 315.492 423.665 315.507 423.722 315.534C423.779 315.561 423.83 315.599 423.872 315.645L444.374 337.761C444.437 337.829 444.479 337.914 444.494 338.005C444.51 338.097 444.499 338.191 444.462 338.276C444.425 338.361 444.363 338.433 444.286 338.484C444.208 338.535 444.117 338.561 444.025 338.561Z" fill="#050F3A"/>
<path d="M443.349 313.496C443.283 313.495 443.219 313.482 443.159 313.456C443.099 313.43 443.045 313.392 443.001 313.344L425.822 294.81C425.737 294.717 425.691 294.594 425.696 294.468C425.7 294.342 425.755 294.223 425.847 294.137C425.94 294.051 426.062 294.005 426.188 294.01C426.314 294.015 426.433 294.069 426.519 294.162L443.697 312.696C443.761 312.764 443.803 312.849 443.818 312.94C443.834 313.032 443.823 313.126 443.785 313.211C443.748 313.296 443.687 313.368 443.61 313.419C443.532 313.469 443.441 313.496 443.349 313.496Z" fill="#050F3A"/>
<path d="M443.198 307.904C443.133 307.904 443.068 307.89 443.009 307.864C442.949 307.838 442.895 307.8 442.85 307.752L426.41 290.017C426.368 289.971 426.335 289.917 426.313 289.859C426.291 289.8 426.281 289.738 426.284 289.675C426.286 289.613 426.3 289.551 426.326 289.495C426.352 289.438 426.389 289.387 426.435 289.344C426.481 289.301 426.534 289.268 426.593 289.247C426.652 289.225 426.714 289.215 426.776 289.217C426.839 289.219 426.9 289.234 426.957 289.26C427.013 289.286 427.064 289.323 427.107 289.369L443.55 307.104C443.613 307.172 443.655 307.257 443.671 307.348C443.687 307.44 443.675 307.534 443.638 307.619C443.601 307.704 443.54 307.776 443.462 307.827C443.385 307.877 443.294 307.904 443.201 307.904H443.198Z" fill="#050F3A"/>
<path d="M442.522 282.838C442.456 282.838 442.391 282.824 442.331 282.798C442.271 282.772 442.217 282.733 442.173 282.685L429.054 268.533C428.968 268.44 428.922 268.317 428.927 268.191C428.932 268.065 428.986 267.946 429.079 267.86C429.171 267.774 429.294 267.728 429.42 267.733C429.546 267.737 429.665 267.792 429.75 267.885L442.87 282.037C442.932 282.105 442.974 282.19 442.989 282.281C443.005 282.373 442.993 282.466 442.957 282.551C442.92 282.636 442.859 282.708 442.782 282.759C442.704 282.81 442.614 282.837 442.522 282.838Z" fill="#050F3A"/>
<path d="M442.372 277.248C442.306 277.248 442.242 277.235 442.182 277.208C442.122 277.182 442.068 277.144 442.023 277.096L429.644 263.74C429.563 263.647 429.521 263.526 429.528 263.402C429.535 263.279 429.589 263.163 429.68 263.078C429.77 262.994 429.89 262.949 430.013 262.951C430.137 262.954 430.254 263.004 430.341 263.092L442.72 276.446C442.783 276.514 442.824 276.599 442.84 276.69C442.855 276.782 442.844 276.875 442.807 276.96C442.77 277.045 442.709 277.117 442.632 277.168C442.555 277.219 442.464 277.246 442.372 277.247V277.248Z" fill="#050F3A"/>
<path d="M429.319 220.315C429.209 220.315 429.103 220.277 429.017 220.207C428.932 220.137 428.874 220.04 428.853 219.931C428.831 219.823 428.848 219.711 428.9 219.614C428.952 219.517 429.036 219.441 429.138 219.399L439.919 214.943C439.976 214.919 440.038 214.906 440.1 214.906C440.163 214.906 440.225 214.918 440.282 214.942C440.34 214.966 440.392 215.001 440.437 215.045C440.481 215.089 440.516 215.141 440.54 215.199C440.564 215.257 440.576 215.319 440.577 215.381C440.577 215.444 440.565 215.506 440.541 215.563C440.517 215.621 440.482 215.674 440.438 215.718C440.394 215.762 440.342 215.797 440.284 215.821L429.503 220.277C429.445 220.302 429.382 220.315 429.319 220.315Z" fill="#050F3A"/>
<path d="M431.287 223.316C431.177 223.316 431.071 223.277 430.986 223.207C430.901 223.137 430.843 223.04 430.822 222.932C430.8 222.824 430.817 222.712 430.869 222.615C430.92 222.518 431.004 222.442 431.105 222.4L445.579 216.416C445.637 216.391 445.699 216.379 445.761 216.379C445.823 216.379 445.885 216.391 445.943 216.415C446.001 216.439 446.053 216.473 446.097 216.518C446.142 216.562 446.177 216.614 446.201 216.672C446.225 216.729 446.237 216.791 446.237 216.854C446.237 216.916 446.225 216.978 446.201 217.036C446.178 217.094 446.143 217.146 446.099 217.191C446.055 217.235 446.002 217.27 445.945 217.294L431.471 223.278C431.413 223.303 431.35 223.316 431.287 223.316Z" fill="#050F3A"/>
<path d="M434.281 229.495C434.17 229.495 434.064 229.456 433.979 229.386C433.894 229.316 433.837 229.218 433.815 229.11C433.794 229.002 433.811 228.89 433.863 228.793C433.916 228.696 434 228.62 434.101 228.578L443.186 224.872C443.3 224.836 443.424 224.843 443.532 224.894C443.641 224.945 443.726 225.035 443.772 225.146C443.817 225.257 443.819 225.381 443.776 225.493C443.734 225.605 443.651 225.697 443.544 225.751L434.46 229.457C434.403 229.481 434.342 229.494 434.281 229.495Z" fill="#050F3A"/>
<path d="M441.695 252.178C441.629 252.178 441.564 252.165 441.504 252.139C441.444 252.113 441.391 252.075 441.346 252.027L432.288 242.255C432.202 242.163 432.157 242.04 432.161 241.914C432.166 241.787 432.221 241.668 432.313 241.582C432.405 241.496 432.528 241.451 432.654 241.455C432.78 241.46 432.899 241.515 432.985 241.607L442.043 251.379C442.106 251.446 442.148 251.531 442.163 251.623C442.179 251.714 442.168 251.808 442.131 251.893C442.094 251.978 442.033 252.05 441.955 252.101C441.878 252.152 441.787 252.179 441.695 252.178Z" fill="#050F3A"/>
<path d="M441.544 246.592C441.479 246.592 441.414 246.578 441.354 246.552C441.294 246.526 441.24 246.487 441.196 246.439L432.877 237.467C432.834 237.421 432.8 237.367 432.778 237.308C432.755 237.249 432.744 237.187 432.746 237.124C432.748 237.06 432.763 236.998 432.789 236.941C432.815 236.884 432.852 236.832 432.898 236.789C432.944 236.746 432.998 236.713 433.058 236.691C433.117 236.67 433.18 236.66 433.242 236.663C433.305 236.665 433.367 236.681 433.424 236.708C433.481 236.735 433.532 236.772 433.574 236.819L441.892 245.791C441.955 245.859 441.997 245.944 442.012 246.035C442.027 246.127 442.016 246.22 441.979 246.305C441.942 246.39 441.881 246.462 441.804 246.513C441.727 246.564 441.637 246.591 441.544 246.592Z" fill="#050F3A"/>
<path d="M440.735 229.806H440.712L434.258 229.497C434.132 229.491 434.013 229.435 433.928 229.342C433.844 229.248 433.799 229.125 433.805 228.999C433.811 228.872 433.867 228.754 433.96 228.669C434.054 228.584 434.177 228.539 434.303 228.545L440.758 228.854C440.884 228.857 441.003 228.91 441.09 229.002C441.177 229.093 441.225 229.215 441.222 229.342C441.219 229.468 441.166 229.588 441.074 229.675C440.983 229.762 440.861 229.809 440.735 229.806Z" fill="#050F3A"/>
<path d="M470.359 190.718C469.805 189.146 468.887 187.893 467.569 187.613C467.715 190.493 467.569 192.581 467.569 196.36C467.569 206.121 440.382 212.939 438.836 212.939C437.29 212.939 433.792 208.66 431.289 204.593C430.003 202.502 428.954 197.912 428.954 193.103C428.954 188.293 428.954 188.383 428.979 185.541C427.766 186.271 426.666 187.175 425.714 188.223C421.559 193.957 416.619 202.374 414.956 219.298C414.891 219.968 422.864 216.479 427.56 215.382C431.275 214.595 435.045 214.1 438.836 213.902C440.72 213.858 452.677 219.48 460.056 224.385C463.374 220.236 466.356 215.829 468.974 211.206C472.039 205.944 472.06 195.545 470.359 190.718Z" fill="#B0D0EF"/>
<path d="M460.056 224.859C459.957 224.859 459.861 224.828 459.78 224.77C452.164 219.319 440.636 214.373 438.836 214.373C435.079 214.546 431.343 215.036 427.668 215.838C425.082 216.532 422.534 217.362 420.034 218.324C416.273 219.69 415.266 220.013 414.789 219.769C414.655 219.69 414.553 219.568 414.5 219.422C414.466 219.301 414.481 219.171 414.543 219.062C414.604 218.952 414.706 218.871 414.826 218.836C414.892 218.817 414.962 218.812 415.03 218.823C415.097 218.834 415.162 218.859 415.219 218.898C416.748 218.512 418.248 218.023 419.711 217.433C422.245 216.458 424.829 215.618 427.453 214.916C431.199 214.099 435.007 213.599 438.836 213.424C440.995 213.424 452.552 218.425 460.333 223.995C460.415 224.054 460.476 224.137 460.508 224.233C460.54 224.328 460.54 224.432 460.509 224.528C460.478 224.624 460.418 224.708 460.336 224.767C460.255 224.826 460.157 224.859 460.056 224.859Z" fill="#050F3A"/>
<path d="M428.955 193.101C428.955 188.292 428.955 188.381 428.979 185.539C427.767 186.269 426.667 187.173 425.714 188.221C423.411 191.4 420.935 194.616 418.93 200.79C420.734 197.529 424.675 193.226 425.93 192.581C427.058 192.002 428.041 193.689 429.001 195.25C428.972 194.548 428.955 193.826 428.955 193.101Z" fill="#85B0DF"/>
<defs>
<filter id="filter0_f_1012_32835" x="-8" y="-8" width="765" height="771" filterUnits="userSpaceOnUse" color-interpolation-filters="sRGB">
<feFlood flood-opacity="0" result="BackgroundImageFix"/>
<feBlend mode="normal" in="SourceGraphic" in2="BackgroundImageFix" result="shape"/>
<feGaussianBlur stdDeviation="4" result="effect1_foregroundBlur_1012_32835"/>
</filter>
</defs>
</svg>
