<svg width="749" height="799" viewBox="0 0 749 799" fill="none" xmlns="http://www.w3.org/2000/svg">
<g filter="url(#filter0_f_1012_32837)">
<path d="M201.02 736.84H93.6376C93.1792 736.84 92.7396 736.656 92.4154 736.329C92.0913 736.003 91.9092 735.559 91.9092 735.097V593.662C91.9092 593.2 92.0913 592.757 92.4154 592.43C92.7396 592.103 93.1792 591.92 93.6376 591.92H201.02C201.479 591.92 201.918 592.103 202.243 592.43C202.567 592.757 202.749 593.2 202.749 593.662V735.097C202.749 735.559 202.567 736.003 202.243 736.329C201.918 736.656 201.479 736.84 201.02 736.84ZM95.3661 733.355H199.292V595.405H95.3661V733.355Z" fill="#C7E3F9" fill-opacity="0.6"/>
<path d="M655.114 736.84H547.73C547.272 736.84 546.832 736.656 546.508 736.329C546.184 736.003 546.002 735.559 546.002 735.097V593.662C546.002 593.2 546.184 592.757 546.508 592.43C546.832 592.103 547.272 591.92 547.73 591.92H655.114C655.572 591.92 656.012 592.103 656.336 592.43C656.66 592.757 656.842 593.2 656.842 593.662V735.097C656.842 735.559 656.66 736.003 656.336 736.329C656.012 736.656 655.572 736.84 655.114 736.84ZM549.459 733.355H653.385V595.405H549.459V733.355Z" fill="#C7E3F9" fill-opacity="0.6"/>
<path d="M728.036 711.901H655.113C654.654 711.901 654.215 711.717 653.891 711.391C653.566 711.064 653.384 710.621 653.384 710.159C653.384 709.697 653.566 709.253 653.891 708.927C654.215 708.6 654.654 708.416 655.113 708.416H726.307V293.744H618.851V582.804C618.851 583.266 618.669 583.709 618.345 584.036C618.021 584.363 617.581 584.546 617.123 584.546C616.665 584.546 616.225 584.363 615.901 584.036C615.577 583.709 615.395 583.266 615.395 582.804V292.002C615.395 291.54 615.577 291.097 615.901 290.77C616.225 290.443 616.665 290.26 617.123 290.26H728.036C728.494 290.26 728.934 290.443 729.258 290.77C729.582 291.097 729.764 291.54 729.764 292.002V710.159C729.764 710.387 729.719 710.614 729.633 710.825C729.546 711.037 729.418 711.229 729.258 711.391C729.097 711.552 728.907 711.681 728.697 711.768C728.488 711.856 728.263 711.901 728.036 711.901Z" fill="#C7E3F9" fill-opacity="0.6"/>
<path d="M734.731 293.744H617.159C616.701 293.744 616.261 293.561 615.937 293.234C615.613 292.907 615.431 292.464 615.431 292.002V279.971C615.431 279.509 615.613 279.066 615.937 278.739C616.261 278.412 616.701 278.229 617.159 278.229H734.731C735.189 278.229 735.629 278.412 735.953 278.739C736.277 279.066 736.46 279.509 736.46 279.971V292.002C736.46 292.464 736.277 292.907 735.953 293.234C735.629 293.561 735.189 293.744 734.731 293.744ZM618.888 290.26H733.003V281.713H618.888V290.26Z" fill="#C7E3F9" fill-opacity="0.6"/>
<path d="M728.035 281.713C727.627 281.713 727.232 281.568 726.921 281.302L669.473 232.414H615.974C615.515 232.414 615.076 232.231 614.751 231.904C614.427 231.577 614.245 231.134 614.245 230.672C614.245 230.21 614.427 229.767 614.751 229.44C615.076 229.113 615.515 228.93 615.974 228.93H670.105C670.514 228.93 670.908 229.075 671.22 229.341L729.151 278.639C729.422 278.87 729.616 279.178 729.707 279.524C729.798 279.869 729.782 280.234 729.66 280.57C729.538 280.905 729.317 281.195 729.026 281.399C728.736 281.604 728.39 281.714 728.035 281.713Z" fill="#C7E3F9" fill-opacity="0.6"/>
<path d="M669.303 329.414H645.05V429.772H669.303V329.414Z" fill="#C7E3F9" fill-opacity="0.6"/>
<path d="M669.303 431.518H645.047C644.588 431.518 644.149 431.334 643.825 431.008C643.5 430.681 643.318 430.238 643.318 429.776V329.418C643.318 328.956 643.5 328.513 643.825 328.186C644.149 327.859 644.588 327.676 645.047 327.676H669.303C669.761 327.676 670.201 327.859 670.525 328.186C670.849 328.513 671.031 328.956 671.031 329.418V429.776C671.031 430.238 670.849 430.681 670.525 431.008C670.201 431.334 669.761 431.518 669.303 431.518ZM646.775 428.033H667.574V331.16H646.775V428.033Z" fill="#C7E3F9" fill-opacity="0.6"/>
<path d="M703.802 329.414H679.549V429.772H703.802V329.414Z" fill="#C7E3F9" fill-opacity="0.6"/>
<path d="M703.802 431.518H679.546C679.087 431.518 678.648 431.334 678.324 431.008C677.999 430.681 677.817 430.238 677.817 429.776V329.418C677.817 328.956 677.999 328.513 678.324 328.186C678.648 327.859 679.087 327.676 679.546 327.676H703.802C704.26 327.676 704.7 327.859 705.024 328.186C705.348 328.513 705.53 328.956 705.53 329.418V429.776C705.53 430.238 705.348 430.681 705.024 431.008C704.7 431.334 704.26 431.518 703.802 431.518ZM681.274 428.033H702.073V331.16H681.274V428.033Z" fill="#C7E3F9" fill-opacity="0.6"/>
<path d="M669.303 458.822H645.05V559.18H669.303V458.822Z" fill="#C7E3F9" fill-opacity="0.6"/>
<path d="M669.303 560.922H645.047C644.588 560.922 644.149 560.739 643.825 560.412C643.5 560.085 643.318 559.642 643.318 559.18V458.822C643.318 458.36 643.5 457.917 643.825 457.59C644.149 457.264 644.588 457.08 645.047 457.08H669.303C669.761 457.08 670.201 457.264 670.525 457.59C670.849 457.917 671.031 458.36 671.031 458.822V559.18C671.031 559.642 670.849 560.085 670.525 560.412C670.201 560.739 669.761 560.922 669.303 560.922ZM646.775 557.438H667.574V460.565H646.775V557.438Z" fill="#C7E3F9" fill-opacity="0.6"/>
<path d="M703.802 458.822H679.549V559.18H703.802V458.822Z" fill="#C7E3F9" fill-opacity="0.6"/>
<path d="M703.802 560.922H679.546C679.087 560.922 678.648 560.739 678.324 560.412C677.999 560.085 677.817 559.642 677.817 559.18V458.822C677.817 458.36 677.999 457.917 678.324 457.59C678.648 457.264 679.087 457.08 679.546 457.08H703.802C704.26 457.08 704.7 457.264 705.024 457.59C705.348 457.917 705.53 458.36 705.53 458.822V559.18C705.53 559.642 705.348 560.085 705.024 560.412C704.7 560.739 704.26 560.922 703.802 560.922ZM681.274 557.438H702.073V460.565H681.274V557.438Z" fill="#C7E3F9" fill-opacity="0.6"/>
<path d="M93.6377 711.901H20.4238C19.9654 711.901 19.5257 711.717 19.2016 711.391C18.8774 711.064 18.6953 710.621 18.6953 710.159V292.002C18.6953 291.54 18.8774 291.097 19.2016 290.77C19.5257 290.443 19.9654 290.26 20.4238 290.26H131.337C131.795 290.26 132.235 290.443 132.559 290.77C132.883 291.097 133.065 291.54 133.065 292.002V582.804C133.065 583.266 132.883 583.709 132.559 584.036C132.235 584.363 131.795 584.546 131.337 584.546C130.878 584.546 130.438 584.363 130.114 584.036C129.79 583.709 129.608 583.266 129.608 582.804V293.744H22.1522V708.416H93.6377C94.0962 708.416 94.5358 708.6 94.86 708.927C95.1841 709.253 95.3662 709.697 95.3662 710.159C95.3662 710.621 95.1841 711.064 94.86 711.391C94.5358 711.717 94.0962 711.901 93.6377 711.901Z" fill="#C7E3F9" fill-opacity="0.6"/>
<path d="M131.337 293.744H13.7285C13.27 293.744 12.8304 293.561 12.5063 293.234C12.1821 292.907 12 292.464 12 292.002V279.971C12 279.509 12.1821 279.066 12.5063 278.739C12.8304 278.412 13.27 278.229 13.7285 278.229H131.337C131.795 278.229 132.235 278.412 132.559 278.739C132.883 279.066 133.065 279.509 133.065 279.971V292.002C133.065 292.464 132.883 292.907 132.559 293.234C132.235 293.561 131.795 293.744 131.337 293.744ZM15.4569 290.26H129.608V281.713H15.4569V290.26Z" fill="#C7E3F9" fill-opacity="0.6"/>
<path d="M134.138 281.713H20.4237C20.0693 281.713 19.7234 281.604 19.4329 281.399C19.1424 281.195 18.9213 280.905 18.7995 280.569C18.6778 280.234 18.6613 279.869 18.7523 279.524C18.8433 279.178 19.0374 278.87 19.3082 278.639L77.2409 229.341C77.5529 229.075 77.9481 228.93 78.3564 228.93H132.747C133.206 228.93 133.646 229.113 133.97 229.44C134.294 229.767 134.476 230.21 134.476 230.672C134.476 231.134 134.294 231.577 133.97 231.904C133.646 232.231 133.206 232.414 132.747 232.414H78.9861L25.1504 278.229H134.138C134.596 278.229 135.036 278.412 135.36 278.739C135.684 279.066 135.866 279.509 135.866 279.971C135.866 280.433 135.684 280.876 135.36 281.203C135.036 281.53 134.596 281.713 134.138 281.713Z" fill="#C7E3F9" fill-opacity="0.6"/>
<path d="M81.992 429.771H106.245L106.245 329.414H81.992L81.992 429.771Z" fill="#C7E3F9" fill-opacity="0.6"/>
<path d="M106.245 431.518H81.9921C81.5337 431.518 81.0941 431.334 80.7699 431.008C80.4458 430.681 80.2637 430.238 80.2637 429.776V329.418C80.2637 328.956 80.4458 328.513 80.7699 328.186C81.0941 327.859 81.5337 327.676 81.9921 327.676H106.248C106.707 327.676 107.146 327.859 107.47 328.186C107.795 328.513 107.977 328.956 107.977 329.418V429.776C107.977 430.005 107.932 430.232 107.845 430.443C107.758 430.655 107.63 430.847 107.469 431.009C107.309 431.171 107.118 431.299 106.908 431.386C106.698 431.474 106.472 431.518 106.245 431.518ZM83.7206 428.033H104.52V331.16H83.7206V428.033Z" fill="#C7E3F9" fill-opacity="0.6"/>
<path d="M47.4969 429.771H71.75L71.75 329.414H47.4969L47.4969 429.771Z" fill="#C7E3F9" fill-opacity="0.6"/>
<path d="M71.7502 431.518H47.497C47.0386 431.518 46.599 431.334 46.2748 431.008C45.9507 430.681 45.7686 430.238 45.7686 429.776V329.418C45.7686 328.956 45.9507 328.513 46.2748 328.186C46.599 327.859 47.0386 327.676 47.497 327.676H71.753C72.2114 327.676 72.6511 327.859 72.9752 328.186C73.2994 328.513 73.4815 328.956 73.4815 329.418V429.776C73.4815 430.005 73.4367 430.232 73.3496 430.443C73.2626 430.655 73.135 430.847 72.9742 431.009C72.8134 431.171 72.6225 431.299 72.4125 431.386C72.2024 431.474 71.9774 431.518 71.7502 431.518ZM49.2255 428.033H70.0246V331.16H49.2255V428.033Z" fill="#C7E3F9" fill-opacity="0.6"/>
<path d="M81.992 559.18H106.245L106.245 458.822H81.992L81.992 559.18Z" fill="#C7E3F9" fill-opacity="0.6"/>
<path d="M106.245 560.922H81.9921C81.5337 560.922 81.0941 560.739 80.7699 560.412C80.4458 560.085 80.2637 559.642 80.2637 559.18V458.822C80.2637 458.36 80.4458 457.917 80.7699 457.59C81.0941 457.264 81.5337 457.08 81.9921 457.08H106.248C106.707 457.08 107.146 457.264 107.47 457.59C107.795 457.917 107.977 458.36 107.977 458.822V559.18C107.977 559.409 107.932 559.636 107.845 559.847C107.758 560.059 107.63 560.251 107.469 560.413C107.309 560.575 107.118 560.703 106.908 560.79C106.698 560.878 106.472 560.923 106.245 560.922ZM83.7206 557.438H104.52V460.565H83.7206V557.438Z" fill="#C7E3F9" fill-opacity="0.6"/>
<path d="M47.4969 559.18H71.75L71.75 458.822H47.4969L47.4969 559.18Z" fill="#C7E3F9" fill-opacity="0.6"/>
<path d="M71.7502 560.922H47.497C47.0386 560.922 46.599 560.739 46.2748 560.412C45.9507 560.085 45.7686 559.642 45.7686 559.18V458.822C45.7686 458.36 45.9507 457.917 46.2748 457.59C46.599 457.264 47.0386 457.08 47.497 457.08H71.753C72.2114 457.08 72.6511 457.264 72.9752 457.59C73.2994 457.917 73.4815 458.36 73.4815 458.822V559.18C73.4815 559.409 73.4367 559.636 73.3496 559.847C73.2626 560.059 73.135 560.251 72.9742 560.413C72.8134 560.575 72.6225 560.703 72.4125 560.79C72.2024 560.878 71.9774 560.923 71.7502 560.922ZM49.2255 557.438H70.0246V460.565H49.2255V557.438Z" fill="#C7E3F9" fill-opacity="0.6"/>
<path d="M547.731 736.84H201.021C200.744 736.84 200.471 736.772 200.224 736.643C199.978 736.514 199.766 736.328 199.607 736.099C199.448 735.87 199.345 735.606 199.308 735.328C199.271 735.051 199.301 734.769 199.396 734.506L250.012 593.071C250.132 592.734 250.353 592.442 250.644 592.236C250.935 592.03 251.282 591.92 251.638 591.92H497.115C497.47 591.92 497.817 592.03 498.108 592.236C498.399 592.442 498.62 592.734 498.741 593.071L549.357 734.507C549.452 734.77 549.481 735.052 549.445 735.329C549.408 735.606 549.305 735.871 549.146 736.099C548.986 736.328 548.774 736.515 548.528 736.644C548.282 736.773 548.008 736.84 547.731 736.84ZM203.48 733.355H545.27L495.9 595.405H252.853L203.48 733.355Z" fill="#C7E3F9" fill-opacity="0.6"/>
<path d="M658.098 595.404H545.438C544.98 595.404 544.54 595.22 544.216 594.894C543.892 594.567 543.71 594.124 543.71 593.662V582.729C543.71 582.267 543.892 581.823 544.216 581.497C544.54 581.17 544.98 580.986 545.438 580.986H658.098C658.556 580.986 658.996 581.17 659.32 581.497C659.644 581.823 659.826 582.267 659.826 582.729V593.662C659.826 594.124 659.644 594.567 659.32 594.894C658.996 595.22 658.556 595.404 658.098 595.404ZM547.167 591.919H656.369V584.471H547.167V591.919Z" fill="#C7E3F9" fill-opacity="0.6"/>
<path d="M545.437 582.73H497.113V593.664H545.437V582.73Z" fill="#C7E3F9" fill-opacity="0.6"/>
<path d="M545.437 595.406H497.113C496.655 595.406 496.215 595.222 495.891 594.896C495.567 594.569 495.385 594.126 495.385 593.664V582.731C495.385 582.269 495.567 581.825 495.891 581.499C496.215 581.172 496.655 580.988 497.113 580.988H545.437C545.896 580.988 546.335 581.172 546.66 581.499C546.984 581.825 547.166 582.269 547.166 582.731V593.664C547.166 594.126 546.984 594.569 546.66 594.896C546.335 595.222 545.896 595.406 545.437 595.406ZM498.842 591.921H543.709V584.473H498.842V591.921Z" fill="#C7E3F9" fill-opacity="0.6"/>
<path d="M251.418 595.479H90.4345C89.9761 595.479 89.5365 595.295 89.2123 594.969C88.8882 594.642 88.7061 594.199 88.7061 593.736V582.803C88.7061 582.341 88.8882 581.898 89.2123 581.571C89.5365 581.244 89.9761 581.061 90.4345 581.061H251.418C251.876 581.061 252.316 581.244 252.64 581.571C252.964 581.898 253.146 582.341 253.146 582.803V593.736C253.146 594.199 252.964 594.642 252.64 594.969C252.316 595.295 251.876 595.479 251.418 595.479ZM92.163 591.994H249.689V584.545H92.163V591.994Z" fill="#C7E3F9" fill-opacity="0.6"/>
<path d="M202.512 595.479H90.4345C89.9761 595.479 89.5365 595.295 89.2123 594.969C88.8882 594.642 88.7061 594.199 88.7061 593.736V582.803C88.7061 582.341 88.8882 581.898 89.2123 581.571C89.5365 581.244 89.9761 581.061 90.4345 581.061H202.512C202.97 581.061 203.41 581.244 203.734 581.571C204.058 581.898 204.24 582.341 204.24 582.803V593.736C204.24 594.199 204.058 594.642 203.734 594.969C203.41 595.295 202.97 595.479 202.512 595.479ZM92.163 591.994H200.783V584.545H92.163V591.994Z" fill="#C7E3F9" fill-opacity="0.6"/>
<path d="M497.114 582.801H251.418V593.734H497.114V582.801Z" fill="#C7E3F9" fill-opacity="0.6"/>
<path d="M497.113 595.477H251.418C250.959 595.477 250.52 595.293 250.196 594.967C249.872 594.64 249.689 594.197 249.689 593.735V582.801C249.689 582.339 249.872 581.896 250.196 581.569C250.52 581.242 250.959 581.059 251.418 581.059H497.113C497.572 581.059 498.012 581.242 498.336 581.569C498.66 581.896 498.842 582.339 498.842 582.801V593.735C498.842 594.197 498.66 594.64 498.336 594.967C498.012 595.293 497.572 595.477 497.113 595.477ZM253.146 591.992H495.385V584.543H253.146V591.992Z" fill="#C7E3F9" fill-opacity="0.6"/>
<path d="M497.114 593.737L547.73 735.099V593.664L497.114 593.737Z" fill="#C7E3F9" fill-opacity="0.6"/>
<path d="M548.019 736.759L496.704 593.448L548.019 593.373V736.759ZM497.525 594.028L547.442 733.439V593.955L497.525 594.028Z" fill="#C7E3F9" fill-opacity="0.6"/>
<path d="M542.818 711.901H210.299C209.84 711.901 209.401 711.717 209.077 711.39C208.752 711.064 208.57 710.62 208.57 710.158C208.57 709.696 208.752 709.253 209.077 708.926C209.401 708.6 209.84 708.416 210.299 708.416H542.818C543.277 708.416 543.716 708.6 544.04 708.926C544.365 709.253 544.547 709.696 544.547 710.158C544.547 710.62 544.365 711.064 544.04 711.39C543.716 711.717 543.277 711.901 542.818 711.901Z" fill="#C7E3F9" fill-opacity="0.6"/>
<path d="M542.818 690.477H217.612C217.154 690.477 216.714 690.293 216.39 689.967C216.066 689.64 215.884 689.197 215.884 688.735C215.884 688.272 216.066 687.829 216.39 687.502C216.714 687.176 217.154 686.992 217.612 686.992H542.818C543.276 686.992 543.716 687.176 544.04 687.502C544.364 687.829 544.546 688.272 544.546 688.735C544.546 689.197 544.364 689.64 544.04 689.967C543.716 690.293 543.276 690.477 542.818 690.477Z" fill="#C7E3F9" fill-opacity="0.6"/>
<path d="M542.819 669.053H225.279C224.821 669.053 224.381 668.869 224.057 668.543C223.733 668.216 223.551 667.773 223.551 667.311C223.551 666.849 223.733 666.405 224.057 666.079C224.381 665.752 224.821 665.568 225.279 665.568H542.819C543.277 665.568 543.717 665.752 544.041 666.079C544.365 666.405 544.547 666.849 544.547 667.311C544.547 667.773 544.365 668.216 544.041 668.543C543.717 668.869 543.277 669.053 542.819 669.053Z" fill="#C7E3F9" fill-opacity="0.6"/>
<path d="M542.818 650.377H231.963C231.504 650.377 231.065 650.194 230.741 649.867C230.416 649.54 230.234 649.097 230.234 648.635C230.234 648.173 230.416 647.73 230.741 647.403C231.065 647.076 231.504 646.893 231.963 646.893H542.818C543.276 646.893 543.716 647.076 544.04 647.403C544.364 647.73 544.546 648.173 544.546 648.635C544.546 649.097 544.364 649.54 544.04 649.867C543.716 650.194 543.276 650.377 542.818 650.377Z" fill="#C7E3F9" fill-opacity="0.6"/>
<path d="M542.819 634.444H237.666C237.208 634.444 236.768 634.26 236.444 633.933C236.12 633.607 235.938 633.163 235.938 632.701C235.938 632.239 236.12 631.796 236.444 631.469C236.768 631.143 237.208 630.959 237.666 630.959H542.819C543.277 630.959 543.717 631.143 544.041 631.469C544.365 631.796 544.547 632.239 544.547 632.701C544.547 633.163 544.365 633.607 544.041 633.933C543.717 634.26 543.277 634.444 542.819 634.444Z" fill="#C7E3F9" fill-opacity="0.6"/>
<path d="M542.818 621.256H242.386C241.927 621.256 241.488 621.073 241.163 620.746C240.839 620.419 240.657 619.976 240.657 619.514C240.657 619.052 240.839 618.609 241.163 618.282C241.488 617.955 241.927 617.771 242.386 617.771H542.818C543.276 617.771 543.716 617.955 544.04 618.282C544.364 618.609 544.547 619.052 544.547 619.514C544.547 619.976 544.364 620.419 544.04 620.746C543.716 621.073 543.276 621.256 542.818 621.256Z" fill="#C7E3F9" fill-opacity="0.6"/>
<path d="M542.818 610.809H246.618C246.16 610.809 245.72 610.625 245.396 610.299C245.072 609.972 244.89 609.529 244.89 609.067C244.89 608.604 245.072 608.161 245.396 607.835C245.72 607.508 246.16 607.324 246.618 607.324H542.818C543.276 607.324 543.716 607.508 544.04 607.835C544.364 608.161 544.546 608.604 544.546 609.067C544.546 609.529 544.364 609.972 544.04 610.299C543.716 610.625 543.276 610.809 542.818 610.809Z" fill="#C7E3F9" fill-opacity="0.6"/>
<path d="M542.818 603.106H249.165C248.707 603.106 248.267 602.922 247.943 602.595C247.619 602.269 247.437 601.826 247.437 601.363C247.437 600.901 247.619 600.458 247.943 600.131C248.267 599.805 248.707 599.621 249.165 599.621H542.818C543.277 599.621 543.716 599.805 544.041 600.131C544.365 600.458 544.547 600.901 544.547 601.363C544.547 601.826 544.365 602.269 544.041 602.595C543.716 602.922 543.277 603.106 542.818 603.106Z" fill="#C7E3F9" fill-opacity="0.6"/>
<path d="M542.818 595.405H251.637C251.178 595.405 250.739 595.221 250.414 594.894C250.09 594.568 249.908 594.124 249.908 593.662C249.908 593.2 250.09 592.757 250.414 592.43C250.739 592.103 251.178 591.92 251.637 591.92H542.818C543.277 591.92 543.716 592.103 544.041 592.43C544.365 592.757 544.547 593.2 544.547 593.662C544.547 594.124 544.365 594.568 544.041 594.894C543.716 595.221 543.277 595.405 542.818 595.405Z" fill="#C7E3F9" fill-opacity="0.6"/>
<path d="M542.819 595.405H207.862C207.404 595.405 206.964 595.221 206.64 594.894C206.316 594.568 206.134 594.124 206.134 593.662C206.134 593.2 206.316 592.757 206.64 592.43C206.964 592.103 207.404 591.92 207.862 591.92H542.819C543.278 591.92 543.717 592.103 544.042 592.43C544.366 592.757 544.548 593.2 544.548 593.662C544.548 594.124 544.366 594.568 544.042 594.894C543.717 595.221 543.278 595.405 542.819 595.405Z" fill="#C7E3F9" fill-opacity="0.6"/>
<path d="M617.159 584.546H131.59C131.131 584.546 130.692 584.362 130.368 584.035C130.043 583.709 129.861 583.265 129.861 582.803V269.993C129.861 269.531 130.043 269.088 130.368 268.761C130.692 268.435 131.131 268.251 131.59 268.251H617.159C617.617 268.251 618.057 268.435 618.381 268.761C618.705 269.088 618.887 269.531 618.887 269.993V582.803C618.887 583.265 618.705 583.709 618.381 584.035C618.057 584.362 617.617 584.546 617.159 584.546ZM133.318 581.061H615.43V271.736H133.318V581.061Z" fill="#C7E3F9" fill-opacity="0.6"/>
<path d="M176.112 582.802H151.659L152.969 279.969H174.802L176.112 582.802Z" fill="#C7E3F9" fill-opacity="0.6"/>
<path d="M176.112 584.544H151.659C151.432 584.544 151.206 584.499 150.996 584.411C150.786 584.323 150.595 584.194 150.434 584.031C150.274 583.869 150.147 583.676 150.06 583.464C149.974 583.252 149.93 583.024 149.931 582.795L151.24 279.961C151.242 279.501 151.425 279.059 151.749 278.734C152.073 278.409 152.512 278.227 152.969 278.227H174.802C175.259 278.227 175.698 278.409 176.022 278.734C176.346 279.059 176.528 279.501 176.53 279.961L177.84 582.795C177.841 583.024 177.797 583.252 177.71 583.464C177.624 583.676 177.497 583.869 177.336 584.031C177.176 584.194 176.985 584.323 176.775 584.411C176.565 584.499 176.339 584.544 176.112 584.544ZM153.395 581.06H174.376L173.081 281.711H154.69L153.395 581.06Z" fill="#C7E3F9" fill-opacity="0.6"/>
<path d="M220.088 582.802H195.635L196.944 279.969H218.778L220.088 582.802Z" fill="#C7E3F9" fill-opacity="0.6"/>
<path d="M220.087 584.544H195.634C195.406 584.544 195.181 584.499 194.971 584.411C194.761 584.323 194.57 584.194 194.409 584.031C194.248 583.869 194.121 583.676 194.035 583.464C193.948 583.252 193.904 583.024 193.905 582.795L195.216 279.961C195.218 279.501 195.401 279.059 195.725 278.734C196.049 278.409 196.487 278.227 196.944 278.227H218.777C219.234 278.227 219.673 278.409 219.997 278.734C220.321 279.059 220.504 279.501 220.506 279.961L221.816 582.795C221.817 583.024 221.773 583.252 221.686 583.464C221.6 583.676 221.473 583.869 221.312 584.031C221.151 584.194 220.961 584.323 220.75 584.411C220.54 584.499 220.315 584.544 220.087 584.544ZM197.37 581.06H218.351L217.056 281.711H198.665L197.37 581.06Z" fill="#C7E3F9" fill-opacity="0.6"/>
<path d="M246.179 582.802H239.609L239.961 279.969H245.827L246.179 582.802Z" fill="#C7E3F9" fill-opacity="0.6"/>
<path d="M246.179 584.544H239.611C239.153 584.544 238.713 584.361 238.389 584.034C238.065 583.707 237.883 583.264 237.883 582.802L238.235 279.969C238.235 279.507 238.417 279.064 238.741 278.737C239.065 278.41 239.505 278.227 239.963 278.227H245.829C246.287 278.227 246.727 278.41 247.051 278.737C247.375 279.064 247.557 279.507 247.557 279.969L247.91 582.802C247.91 583.264 247.727 583.707 247.403 584.034C247.079 584.361 246.64 584.544 246.181 584.544H246.179ZM241.34 581.06H244.448L244.102 281.711H241.689L241.34 581.06Z" fill="#C7E3F9" fill-opacity="0.6"/>
<path d="M572.638 582.802H597.091L595.781 279.969H573.947L572.638 582.802Z" fill="#C7E3F9" fill-opacity="0.6"/>
<path d="M597.09 584.544H572.638C572.41 584.544 572.185 584.499 571.975 584.411C571.764 584.323 571.574 584.194 571.413 584.031C571.252 583.869 571.125 583.676 571.039 583.464C570.952 583.252 570.908 583.024 570.909 582.795L572.219 279.961C572.221 279.501 572.404 279.059 572.728 278.734C573.052 278.409 573.49 278.227 573.947 278.227H595.781C596.238 278.227 596.676 278.409 597 278.734C597.324 279.059 597.507 279.501 597.509 279.961L598.819 582.795C598.819 583.024 598.775 583.252 598.689 583.464C598.603 583.676 598.475 583.869 598.315 584.031C598.154 584.194 597.963 584.323 597.753 584.411C597.543 584.499 597.318 584.544 597.09 584.544ZM574.374 581.06H595.355L594.06 281.711H575.67L574.374 581.06Z" fill="#C7E3F9" fill-opacity="0.6"/>
<path d="M528.664 582.802H553.117L551.807 279.969H529.974L528.664 582.802Z" fill="#C7E3F9" fill-opacity="0.6"/>
<path d="M553.117 584.544H528.664C528.436 584.544 528.211 584.499 528.001 584.411C527.791 584.323 527.6 584.194 527.439 584.031C527.279 583.869 527.152 583.676 527.065 583.464C526.979 583.252 526.935 583.024 526.936 582.795L528.245 279.961C528.247 279.501 528.43 279.059 528.754 278.734C529.078 278.409 529.516 278.227 529.974 278.227H551.81C552.267 278.227 552.705 278.409 553.029 278.734C553.353 279.059 553.536 279.501 553.538 279.961L554.848 582.795C554.849 583.024 554.805 583.252 554.718 583.464C554.632 583.676 554.505 583.869 554.344 584.031C554.183 584.194 553.993 584.323 553.782 584.411C553.572 584.499 553.347 584.544 553.119 584.544H553.117ZM530.399 581.06H551.381L550.086 281.711H531.695L530.399 581.06Z" fill="#C7E3F9" fill-opacity="0.6"/>
<path d="M502.572 582.802H509.142L508.79 279.969H502.924L502.572 582.802Z" fill="#C7E3F9" fill-opacity="0.6"/>
<path d="M509.141 584.544H502.573C502.115 584.544 501.675 584.361 501.351 584.034C501.027 583.707 500.845 583.264 500.845 582.802L501.197 279.969C501.197 279.507 501.379 279.064 501.703 278.737C502.027 278.41 502.467 278.227 502.925 278.227H508.79C509.249 278.227 509.688 278.41 510.013 278.737C510.337 279.064 510.519 279.507 510.519 279.969L510.871 582.802C510.871 583.264 510.689 583.707 510.365 584.034C510.041 584.361 509.601 584.544 509.142 584.544H509.141ZM504.302 581.06H507.409L507.064 281.711H504.651L504.302 581.06Z" fill="#C7E3F9" fill-opacity="0.6"/>
<path d="M620.074 253.732H128.657C128.258 253.732 127.872 253.593 127.563 253.339C127.254 253.085 127.042 252.731 126.963 252.338C126.883 251.944 126.941 251.535 127.126 251.179C127.312 250.823 127.613 250.543 127.98 250.386L373.594 145.119C373.808 145.028 374.038 144.98 374.27 144.98C374.502 144.98 374.732 145.028 374.946 145.119L620.751 250.387C621.117 250.544 621.419 250.824 621.604 251.179C621.79 251.535 621.848 251.944 621.768 252.338C621.689 252.731 621.477 253.085 621.168 253.339C620.86 253.594 620.473 253.732 620.075 253.733L620.074 253.732ZM137.139 250.247H611.585L374.268 148.616L137.139 250.247Z" fill="#C7E3F9" fill-opacity="0.6"/>
<path d="M654.858 271.733H93.8915C93.4331 271.733 92.9935 271.55 92.6693 271.223C92.3452 270.896 92.1631 270.453 92.1631 269.991V247.322C92.1632 246.98 92.2629 246.646 92.45 246.361C92.6371 246.076 92.9032 245.853 93.2151 245.719L373.589 125.554C373.803 125.462 374.033 125.415 374.266 125.415C374.498 125.415 374.728 125.462 374.942 125.554L655.534 245.719C655.846 245.852 656.113 246.076 656.3 246.361C656.487 246.646 656.587 246.98 656.587 247.322V269.991C656.587 270.453 656.405 270.896 656.081 271.223C655.756 271.55 655.317 271.733 654.858 271.733ZM95.62 268.249H653.13V248.475L374.266 129.05L95.62 248.475V268.249Z" fill="#C7E3F9" fill-opacity="0.6"/>
<path d="M374.316 173.059L497.113 228.908H251.614L374.316 173.059Z" fill="#C7E3F9" fill-opacity="0.6"/>
<path d="M497.113 230.651H251.615C251.219 230.651 250.836 230.514 250.529 230.264C250.222 230.013 250.009 229.664 249.925 229.275C249.842 228.886 249.894 228.479 250.072 228.124C250.25 227.768 250.544 227.484 250.904 227.321L373.606 171.47C373.829 171.369 374.071 171.316 374.316 171.316C374.561 171.316 374.804 171.369 375.027 171.47L497.824 227.321C498.184 227.484 498.478 227.768 498.656 228.123C498.834 228.479 498.885 228.885 498.802 229.275C498.719 229.664 498.506 230.013 498.199 230.263C497.892 230.514 497.508 230.65 497.113 230.651ZM259.642 227.166H489.079L374.317 174.97L259.642 227.166Z" fill="#C7E3F9" fill-opacity="0.6"/>
<path d="M617.16 292.002L645.052 279.97V269.993H617.16V292.002Z" fill="#C7E3F9" fill-opacity="0.6"/>
<path d="M617.16 293.744C616.702 293.744 616.262 293.56 615.938 293.234C615.614 292.907 615.432 292.464 615.432 292.002V269.993C615.432 269.531 615.614 269.088 615.938 268.761C616.262 268.435 616.702 268.251 617.16 268.251H645.052C645.51 268.251 645.95 268.435 646.274 268.761C646.598 269.088 646.78 269.531 646.78 269.993V279.97C646.78 280.311 646.681 280.645 646.495 280.93C646.308 281.215 646.043 281.438 645.732 281.572L617.841 293.603C617.625 293.696 617.394 293.744 617.16 293.744ZM618.889 271.736V289.361L643.323 278.82V271.735L618.889 271.736Z" fill="#C7E3F9" fill-opacity="0.6"/>
<path d="M131.59 292.002L89.8525 294.202L103.699 279.97V269.993H131.59V292.002Z" fill="#C7E3F9" fill-opacity="0.6"/>
<path d="M89.8526 295.945C89.5123 295.944 89.1796 295.843 88.8963 295.653C88.6129 295.463 88.3915 295.193 88.2597 294.877C88.128 294.56 88.0918 294.212 88.1558 293.875C88.2197 293.538 88.3809 293.228 88.6191 292.983L101.97 279.258V269.993C101.97 269.531 102.152 269.088 102.477 268.761C102.801 268.435 103.24 268.251 103.699 268.251H131.59C132.049 268.251 132.488 268.435 132.812 268.761C133.137 269.088 133.319 269.531 133.319 269.993V292.002C133.319 292.448 133.15 292.878 132.845 293.203C132.54 293.527 132.123 293.721 131.68 293.744L89.9431 295.945C89.916 295.944 89.8826 295.945 89.8526 295.945ZM105.427 271.736V279.97C105.427 280.427 105.249 280.864 104.932 281.19L94.1939 292.229L129.862 290.348V271.736H105.427Z" fill="#C7E3F9" fill-opacity="0.6"/>
<path d="M618.74 314.223L697.033 292H618.434L618.74 314.223Z" fill="#C7E3F9" fill-opacity="0.6"/>
<path d="M618.739 315.965C618.285 315.965 617.849 315.785 617.525 315.463C617.202 315.142 617.017 314.705 617.011 314.247L616.705 292.024C616.702 291.793 616.744 291.564 616.83 291.35C616.915 291.136 617.042 290.941 617.203 290.777C617.364 290.612 617.555 290.482 617.767 290.393C617.978 290.304 618.205 290.258 618.434 290.258H697.033C697.45 290.258 697.853 290.41 698.168 290.687C698.482 290.963 698.687 291.345 698.744 291.761C698.801 292.178 698.707 292.602 698.479 292.954C698.25 293.306 697.903 293.562 697.502 293.677L619.208 315.9C619.055 315.943 618.898 315.965 618.739 315.965ZM620.186 293.742L620.436 311.931L684.517 293.742H620.186Z" fill="#C7E3F9" fill-opacity="0.6"/>
<path d="M246.179 279.969L246.759 322.111L395.235 279.969H246.179Z" fill="#C7E3F9" fill-opacity="0.6"/>
<path d="M246.759 323.853C246.305 323.853 245.869 323.673 245.545 323.352C245.222 323.03 245.037 322.593 245.031 322.135L244.45 279.993C244.447 279.762 244.49 279.533 244.575 279.319C244.661 279.104 244.787 278.91 244.948 278.745C245.109 278.581 245.301 278.45 245.512 278.361C245.723 278.272 245.95 278.227 246.179 278.227H395.234C395.651 278.227 396.054 278.379 396.369 278.656C396.683 278.932 396.888 279.314 396.945 279.731C397.002 280.147 396.908 280.57 396.679 280.922C396.451 281.274 396.104 281.531 395.702 281.646L247.228 323.789C247.075 323.832 246.918 323.853 246.759 323.853ZM247.931 281.711L248.456 319.819L382.717 281.711H247.931Z" fill="#C7E3F9" fill-opacity="0.6"/>
<path d="M270.632 279.969L306.16 269.885H103.699V279.969H270.632Z" fill="#C7E3F9" fill-opacity="0.6"/>
<path d="M270.631 281.712H103.699C103.241 281.712 102.801 281.528 102.477 281.201C102.153 280.875 101.971 280.432 101.971 279.969V269.885C101.971 269.423 102.153 268.98 102.477 268.653C102.801 268.326 103.241 268.143 103.699 268.143H306.159C306.577 268.142 306.98 268.294 307.295 268.571C307.61 268.847 307.815 269.229 307.872 269.646C307.93 270.063 307.835 270.487 307.606 270.839C307.378 271.191 307.03 271.448 306.628 271.562L271.1 281.646C270.947 281.69 270.79 281.712 270.631 281.712ZM105.428 278.227H270.393L293.644 271.627H105.428V278.227Z" fill="#C7E3F9" fill-opacity="0.6"/>
<path d="M20.4238 292L20.8565 375.719L131.591 344.288L131.336 292H20.4238Z" fill="#C7E3F9" fill-opacity="0.6"/>
<path d="M20.8565 377.461C20.3997 377.461 19.9614 377.279 19.6375 376.954C19.3136 376.63 19.1305 376.189 19.128 375.728L18.6953 292.009C18.6942 291.779 18.7381 291.552 18.8244 291.339C18.9108 291.127 19.0379 290.934 19.1985 290.771C19.3591 290.609 19.5501 290.479 19.7603 290.391C19.9706 290.303 20.1961 290.258 20.4238 290.258H131.337C131.794 290.258 132.232 290.44 132.556 290.765C132.88 291.09 133.063 291.531 133.065 291.991L133.319 344.28C133.321 344.661 133.198 345.032 132.971 345.336C132.743 345.641 132.423 345.861 132.059 345.964L21.3226 377.395C21.1709 377.439 21.0141 377.461 20.8565 377.461ZM22.1609 293.742L22.5728 373.424L129.856 342.974L129.616 293.745L22.1609 293.742Z" fill="#C7E3F9" fill-opacity="0.6"/>
<path d="M90.4352 593.735L45.75 710.157H93.6375V593.662L90.4352 593.735Z" fill="#C7E3F9" fill-opacity="0.6"/>
<path d="M93.6375 711.9H45.7501C45.4692 711.9 45.1925 711.832 44.944 711.7C44.6954 711.568 44.4825 711.377 44.3236 711.143C44.1647 710.91 44.0647 710.641 44.0321 710.36C43.9996 710.079 44.0355 709.794 44.1368 709.53L88.8215 593.108C88.9449 592.787 89.1603 592.509 89.4403 592.311C89.7203 592.113 90.0523 592.003 90.3944 591.995L93.5972 591.921C93.8279 591.912 94.0579 591.951 94.2727 592.036C94.4875 592.122 94.6822 592.251 94.8446 592.417C95.009 592.579 95.1396 592.773 95.2286 592.987C95.3177 593.201 95.3634 593.431 95.3631 593.663V710.158C95.3631 710.62 95.1814 711.062 94.8579 711.389C94.5344 711.716 94.0955 711.899 93.6375 711.9ZM48.2719 708.416H91.9091V595.445L91.6302 595.452L48.2719 708.416Z" fill="#C7E3F9" fill-opacity="0.6"/>
<path d="M93.6387 582.802L106.247 429.772V329.414H131.592V582.802H93.6387Z" fill="#C7E3F9" fill-opacity="0.6"/>
<path d="M131.591 584.545H93.6382C93.3992 584.545 93.1628 584.495 92.944 584.398C92.7251 584.301 92.5286 584.16 92.3668 583.982C92.2049 583.805 92.0813 583.596 92.0037 583.368C91.9262 583.14 91.8963 582.899 91.9161 582.658L104.518 429.7V329.414C104.518 328.952 104.7 328.509 105.025 328.182C105.349 327.855 105.788 327.672 106.247 327.672H131.591C132.049 327.672 132.489 327.855 132.813 328.182C133.137 328.509 133.32 328.952 133.32 329.414V582.805C133.319 583.267 133.136 583.709 132.812 584.036C132.488 584.362 132.049 584.545 131.591 584.545ZM95.5165 581.06H129.863V331.154H107.975V429.775C107.975 429.823 107.975 429.871 107.969 429.919L95.5165 581.06Z" fill="#C7E3F9" fill-opacity="0.6"/>
<path d="M447.299 584.473H301.453C300.995 584.473 300.555 584.289 300.231 583.962C299.907 583.636 299.725 583.192 299.725 582.73V375.721C299.725 375.259 299.907 374.816 300.231 374.489C300.555 374.162 300.995 373.979 301.453 373.979H447.299C447.757 373.979 448.197 374.162 448.521 374.489C448.845 374.816 449.027 375.259 449.027 375.721V582.73C449.027 582.959 448.982 583.186 448.895 583.397C448.809 583.609 448.681 583.801 448.521 583.962C448.36 584.124 448.17 584.253 447.96 584.34C447.75 584.428 447.526 584.473 447.299 584.473ZM303.182 580.988H445.57V377.463H303.182V580.988Z" fill="#C7E3F9" fill-opacity="0.6"/>
<path d="M370.518 390.156H315.243V582.728H370.518V390.156Z" fill="#C7E3F9" fill-opacity="0.6"/>
<path d="M370.517 584.471H315.243C314.785 584.471 314.345 584.287 314.021 583.96C313.697 583.634 313.515 583.191 313.515 582.728V390.156C313.515 389.694 313.697 389.251 314.021 388.924C314.345 388.598 314.785 388.414 315.243 388.414H370.517C370.976 388.414 371.416 388.598 371.74 388.924C372.064 389.251 372.246 389.694 372.246 390.156V582.728C372.246 583.191 372.064 583.634 371.74 583.96C371.416 584.287 370.976 584.471 370.517 584.471ZM316.972 580.986H368.789V391.899H316.972V580.986Z" fill="#C7E3F9" fill-opacity="0.6"/>
<path d="M433.507 390.156H378.232V582.728H433.507V390.156Z" fill="#C7E3F9" fill-opacity="0.6"/>
<path d="M433.507 584.471H378.233C377.775 584.471 377.335 584.287 377.011 583.96C376.687 583.634 376.505 583.191 376.505 582.728V390.156C376.505 389.694 376.687 389.251 377.011 388.924C377.335 388.598 377.775 388.414 378.233 388.414H433.507C433.965 388.414 434.405 388.598 434.729 388.924C435.053 389.251 435.236 389.694 435.236 390.156V582.728C435.236 583.191 435.053 583.634 434.729 583.96C434.405 584.287 433.965 584.471 433.507 584.471ZM379.962 580.986H431.779V391.899H379.962V580.986Z" fill="#C7E3F9" fill-opacity="0.6"/>
<path d="M374.363 91.4177C373.905 91.4177 373.465 91.2341 373.141 90.9074C372.817 90.5806 372.635 90.1375 372.635 89.6754V33.776C372.635 33.3412 372.796 32.9221 373.087 32.601C373.378 32.2799 373.777 32.0801 374.207 32.0406C374.342 32.0284 387.899 30.7101 392.182 24.8228C398.142 16.6339 410.677 15.7627 425.718 22.4997C440.784 29.2494 489.594 21.1355 490.085 21.053C490.365 21.006 490.652 21.0291 490.92 21.1203C491.189 21.2114 491.431 21.3677 491.626 21.5755C491.821 21.7832 491.961 22.0361 492.036 22.3117C492.111 22.5873 492.118 22.8773 492.055 23.156C491.675 24.8489 482.69 64.7312 478.112 74.6955C477.999 74.9426 477.83 75.1595 477.618 75.3285C471.511 80.207 432.628 84.1121 420.939 79.8713C419.504 79.3486 418.144 78.83 416.864 78.3398C412.406 76.633 408.197 75.0196 406.802 75.9895C406.138 76.4541 405.787 77.8357 405.787 79.9927C405.787 91.4177 385.346 91.4177 374.363 91.4177ZM376.092 35.3191V87.9331C385.149 87.9023 402.328 87.4289 402.328 79.9933C402.328 77.7928 402.588 74.6862 404.838 73.1222C407.725 71.115 412.072 72.7789 418.089 75.0829C419.352 75.5661 420.692 76.0795 422.108 76.5929C426.723 78.2678 438.004 78.6418 450.852 77.5477C463.784 76.4442 472.661 74.3796 475.159 72.8138C478.991 64.0006 486.058 33.8341 488.111 24.9C477.621 26.5262 438.429 32.0104 424.313 25.6864C410.869 19.6638 399.899 20.111 394.97 26.8851C390.709 32.7439 380.125 34.7546 376.092 35.3208V35.3191Z" fill="#C7E3F9" fill-opacity="0.6"/>
<path d="M374.363 67.5042C380.768 67.5042 397.19 66.4907 398.792 57.8343C400.394 49.1779 410.171 51.6583 422.689 56.6466C435.207 61.6349 477.366 56.3835 481.153 53.3606L485.762 39.8361C483.87 41.3479 437.971 48.1551 423.855 42.1395C409.739 36.1238 400.275 36.2737 397.072 43.9004C393.87 51.5271 377.567 52.4099 374.363 52.4099V67.5042Z" fill="#C7E3F9" fill-opacity="0.6"/>
<path d="M374.363 89.675C383.97 89.675 404.056 89.675 404.056 79.9912C404.056 70.3074 410.606 74.2695 421.523 78.2309C432.44 82.1924 470.866 78.4957 476.542 73.9617L481.151 57.6274C477.367 60.6503 435.205 65.9023 422.688 60.9134C410.17 55.9246 402.164 54.0179 400.563 62.6743C398.962 71.3307 380.768 71.771 374.363 71.771V89.675Z" fill="#C7E3F9" fill-opacity="0.6"/>
<path d="M374.363 128.901C373.905 128.901 373.465 128.718 373.141 128.391C372.817 128.064 372.635 127.621 372.635 127.159V33.7755C372.635 33.3134 372.817 32.8703 373.141 32.5435C373.465 32.2168 373.905 32.0332 374.363 32.0332C374.822 32.0332 375.261 32.2168 375.585 32.5435C375.91 32.8703 376.092 33.3134 376.092 33.7755V127.159C376.092 127.621 375.91 128.064 375.585 128.391C375.261 128.718 374.822 128.901 374.363 128.901Z" fill="#C7E3F9" fill-opacity="0.6"/>
<path d="M645.052 281.713H103.699C103.241 281.713 102.801 281.529 102.477 281.202C102.153 280.876 101.971 280.432 101.971 279.97V269.993C101.971 269.531 102.153 269.088 102.477 268.761C102.801 268.435 103.241 268.251 103.699 268.251H645.052C645.51 268.251 645.95 268.435 646.274 268.761C646.598 269.088 646.78 269.531 646.78 269.993V279.97C646.78 280.432 646.598 280.876 646.274 281.202C645.95 281.529 645.51 281.713 645.052 281.713ZM105.428 278.228H643.323V271.736H105.428V278.228Z" fill="#C7E3F9" fill-opacity="0.6"/>
<path d="M641.164 251.988H122.165V260.308H641.164V251.988Z" fill="#C7E3F9" fill-opacity="0.6"/>
<path d="M641.164 262.051H122.166C121.708 262.051 121.268 261.867 120.944 261.541C120.62 261.214 120.438 260.771 120.438 260.309V251.988C120.438 251.526 120.62 251.083 120.944 250.756C121.268 250.43 121.708 250.246 122.166 250.246H641.164C641.622 250.246 642.062 250.43 642.386 250.756C642.71 251.083 642.893 251.526 642.893 251.988V260.309C642.893 260.771 642.71 261.214 642.386 261.541C642.062 261.867 641.622 262.051 641.164 262.051ZM123.894 258.566H639.436V253.731H123.894V258.566Z" fill="#C7E3F9" fill-opacity="0.6"/>
<path d="M620.074 251.99L374.378 146.667L374.387 137.628L641.165 251.99H620.074Z" fill="#C7E3F9" fill-opacity="0.6"/>
<path d="M641.165 253.732H620.073C619.841 253.732 619.611 253.685 619.397 253.593L373.702 148.27C373.39 148.136 373.123 147.913 372.936 147.627C372.749 147.342 372.649 147.007 372.649 146.665L372.658 137.626C372.658 137.339 372.729 137.055 372.865 136.802C373 136.549 373.195 136.333 373.434 136.174C373.672 136.016 373.945 135.919 374.23 135.893C374.514 135.867 374.8 135.912 375.063 136.025L641.841 250.386C642.208 250.544 642.51 250.824 642.695 251.179C642.88 251.535 642.938 251.944 642.859 252.338C642.779 252.731 642.567 253.085 642.258 253.339C641.95 253.594 641.563 253.732 641.165 253.732ZM620.423 250.248H632.682L376.113 140.261L376.107 145.515L620.423 250.248Z" fill="#C7E3F9" fill-opacity="0.6"/>
<path d="M122.165 251.99L374.377 146.667L374.386 137.628L122.165 251.99Z" fill="#C7E3F9" fill-opacity="0.6"/>
<path d="M122.166 253.733C121.77 253.733 121.386 253.597 121.078 253.346C120.771 253.096 120.557 252.746 120.474 252.356C120.391 251.966 120.443 251.559 120.622 251.203C120.801 250.847 121.095 250.564 121.456 250.401L373.677 136.039C373.94 135.92 374.229 135.869 374.517 135.891C374.805 135.913 375.082 136.007 375.325 136.165C375.567 136.324 375.766 136.54 375.904 136.796C376.042 137.052 376.114 137.338 376.114 137.629L376.105 146.668C376.105 147.012 376.003 147.349 375.814 147.635C375.624 147.921 375.354 148.144 375.039 148.276L122.827 253.6C122.617 253.687 122.393 253.732 122.166 253.733ZM372.655 140.323L228.141 205.848L372.65 145.502L372.655 140.323Z" fill="#C7E3F9" fill-opacity="0.6"/>
</g>
<path d="M395.553 729.865C395.962 731.445 398.23 741.027 398.186 747.92C398.16 751.969 396.662 755.559 396.246 756.809C392.23 757.801 383.058 758.55 381 758.133C378.789 759.448 361.854 764.363 355.79 764.864C347.339 765.559 324.082 763.455 322.499 761.712C321.973 761.133 322.089 757.954 321.938 756.854C321.665 754.848 321.93 749.354 326.649 747.039C330.886 744.961 341.104 742.087 344.706 738.892C348.308 735.698 351.984 730.197 354.303 725.03C356.621 719.864 394.719 726.64 395.553 729.865Z" fill="#080F29"/>
<path d="M445.638 732.503C444.872 734.437 442.036 742.294 442.036 746.391C442.036 750.557 443.846 753.671 444.835 756.02C445.297 757.119 448.132 758.335 449.171 758.543C450.21 758.751 451.968 761.241 455.752 761.807C460.393 762.501 478.474 763.335 483.461 762.641C488.032 762.004 492.282 758.551 492.19 757.224C492.044 755.077 494.203 748.868 490.666 743.683C487.063 738.406 482.215 732.225 479.097 730.35C475.98 728.475 446.48 730.371 445.638 732.503Z" fill="#080F29"/>
<path d="M324.537 334.15C333.092 337.669 336.749 342.636 329.543 343.885L324.537 334.15Z" fill="#DE8864"/>
<path d="M392.598 363.243C391.859 367.36 382.992 428.252 381.145 450.288C379.676 467.807 375.326 506.398 373.663 518.064C372 529.73 369.137 540.1 368.768 543.803C368.399 547.506 369.321 552.321 368.768 556.581C368.214 560.84 361.194 684.168 360.64 687.687C360.085 691.205 356.576 696.76 356.206 698.608C355.837 700.456 359.346 710.275 358.608 711.941C357.869 713.608 354.728 721.941 354.174 723.608C353.62 725.275 357.988 733.48 359.9 733.236C363.549 732.774 394.248 730.968 395.91 731.338C397.572 731.708 404.977 713.423 405.714 711.386C406.45 709.349 403.127 693.612 403.498 690.649C403.869 687.687 416.245 592.876 417.172 588.802C418.099 584.728 419.573 583.431 420.682 580.839C421.79 578.247 422.899 577.691 423.826 575.284C424.753 572.877 421.047 567.321 421.413 565.655C421.779 563.988 423.874 561.77 424.86 558.062C425.846 554.355 442.656 474.177 443.579 473.988C444.502 473.798 450.973 553.433 451.157 555.099C451.341 556.766 447.463 565.469 447.647 567.506C447.831 569.543 452.635 584.172 452.45 586.024C452.266 587.875 449.864 588.061 449.495 591.209C449.126 594.357 445.985 693.983 445.061 699.353C444.136 704.723 442.844 718.426 442.475 721.203C442.106 723.981 445.061 732.314 444.691 734.351C444.322 736.388 472.032 741.203 473.694 741.021C475.356 740.84 483.669 737.133 484.593 736.577C485.518 736.022 488.288 730.281 488.473 728.429C488.658 726.578 486.071 720.467 486.255 718.8C486.44 717.133 487.733 714.726 487.733 713.245C487.733 711.763 485.886 708.06 486.071 705.841C486.256 703.623 498.448 584.365 499.186 576.957C499.925 569.55 500.48 544.925 500.295 542.144C500.11 539.363 502.327 539.922 502.512 535.848C502.697 531.774 506.76 447.704 506.391 431.222C506.022 414.741 499.926 372.151 499.002 366.781C498.079 361.411 394.059 355.095 392.598 363.243Z" fill="#092B69"/>
<path d="M506.391 431.215C506.057 416.336 501.053 380.158 499.407 369.33C488.887 372.871 472.385 375.168 454.708 375.655C456.593 379.377 457.858 383.382 458.453 387.513C461.917 411.957 466.073 435.012 473.139 445.15C474.108 446.543 506.342 439.883 506.226 445.15C506.385 438.982 506.454 434.078 506.391 431.215Z" fill="#050F3A"/>
<path d="M392.597 363.244C391.979 366.689 385.674 409.862 382.547 436.783C383.608 437.515 384.62 438.315 385.577 439.178C388.154 441.068 390.76 445.066 396.107 446.609C398.046 447.169 398.844 446.577 399.342 442.965C399.984 438.313 413.978 407.341 416.057 390.153C416.923 382.988 418.104 370.639 417.446 367.376C417.121 365.782 407.389 362.923 400.152 360.406C395.617 361.033 392.827 361.958 392.597 363.244Z" fill="#050F3A"/>
<path d="M391.688 367.653C421.045 379.088 476.003 377.329 499.375 369.124C498.891 365.28 498.212 361.463 497.339 357.689C466.212 366.795 409.962 363.246 393.521 356.361C392.298 360 391.679 363.814 391.688 367.653Z" fill="#050F3A"/>
<path d="M427.198 358.748L422.867 358.453L421.576 377.496L425.908 377.791L427.198 358.748Z" fill="#092B69"/>
<path d="M459.07 375.482C460.533 375.413 461.98 375.331 463.412 375.238V362.766C461.971 362.845 460.523 362.912 459.07 362.966V375.482Z" fill="#092B69"/>
<path d="M473.416 604.728C473.139 603.479 469.675 596.256 467.736 592.368C465.797 588.479 468.013 585.563 468.979 583.618C469.945 581.673 472.72 582.785 471.75 580.979C470.781 579.174 466.208 575.424 465.792 573.202C465.376 570.98 453.185 471.817 452.63 466.123C452.076 460.428 450.691 449.457 449.86 447.79C449.028 446.124 454.57 434.735 454.016 433.244C453.462 431.753 450.275 435.985 450.275 434.735C450.275 433.484 458.865 421.125 457.064 421.68C455.263 422.236 436.975 428.485 435.589 429.457C434.204 430.429 437.252 434.041 438.638 434.319C440.023 434.596 441.23 434.176 441.27 437.235C441.547 458.623 426.723 522.51 425.06 527.232C423.398 531.954 420.765 532.787 420.073 535.009C419.38 537.23 414.531 564.452 413.976 566.118C413.422 567.785 415.5 570.15 416.332 572.369C417.163 574.588 415.916 575.563 416.332 578.48C416.507 579.705 416.534 586.037 416.508 592.964C416.836 590.702 417.065 589.236 417.166 588.803C418.09 584.729 419.567 583.433 420.676 580.841C421.784 578.249 422.892 577.692 423.82 575.285C424.748 572.878 421.047 567.323 421.412 565.656C421.778 563.989 423.874 561.771 424.86 558.064C425.846 554.356 442.656 474.178 443.579 473.989C444.502 473.8 450.972 553.434 451.156 555.101C451.34 556.768 447.462 565.471 447.646 567.508C447.831 569.545 452.634 584.174 452.45 586.025C452.265 587.877 449.863 588.062 449.494 591.21C449.125 594.359 445.984 693.984 445.06 699.354C444.136 704.725 442.844 718.428 442.474 721.205C442.105 723.982 445.06 732.316 444.691 734.353C444.321 736.39 472.031 741.205 473.693 741.023C473.726 741.019 473.766 741.012 473.804 741.005C472.721 732.905 470.007 712.354 469.675 707.367C469.26 701.117 467.874 632.787 467.874 630.286C467.874 627.786 473.695 605.978 473.416 604.728Z" fill="#050F3A"/>
<path d="M368.801 556.2C370.067 556.238 371.319 556.455 371.861 557.09C372.693 558.062 378.488 573.061 379.481 574.866C380.474 576.672 378.927 585.977 378.927 587.922C378.927 589.866 381.311 590.86 381.458 589.04C381.666 586.474 386.963 579.45 389.596 577.367C390.542 576.618 390.309 575.144 387.933 573.335C385.98 571.851 373.108 551.669 372.554 550.178C371.999 548.686 369.887 544.538 369.233 540.949C369.004 542.122 368.838 543.086 368.767 543.799C368.408 547.398 369.257 552.039 368.801 556.2Z" fill="#050F3A"/>
<path d="M371.584 576.048C372.21 576.754 376.434 584.172 377.403 586.95C378.183 589.018 379.182 590.997 380.382 592.852C380.798 593.546 378.457 597.228 378.276 601.255C378.096 605.282 378.373 639.59 376.988 656.808C375.603 674.026 369.091 700.14 368.397 702.779C367.704 705.418 369.091 710.556 368.397 713.889C367.704 717.222 365.765 725.417 364.657 725.555C363.548 725.694 366.735 715.278 366.874 713.195C367.012 711.112 366.181 705.834 367.013 701.806C367.844 697.778 371.885 681.252 372.424 675.696C372.963 670.141 377.542 603.203 376.984 600.564C376.426 597.925 376.014 598.064 375.044 596.12C374.075 594.176 370.746 575.102 371.584 576.048Z" fill="#050F3A"/>
<path d="M342.996 753.333C339.025 753.055 331.636 751.666 329.511 750.648C327.386 749.63 325.986 751.806 328.957 752.774C332.56 753.954 341.519 754.536 342.996 753.333Z" fill="#B0D0EF"/>
<path d="M350.755 753.055C351.499 753.013 356.851 752.87 357.775 752.592C358.698 752.314 357.96 754.073 355.004 754.537C352.047 755 349.561 753.124 350.755 753.055Z" fill="#B0D0EF"/>
<path d="M353.434 762.087C345.172 762.591 332.276 761.618 326.141 760.044C325.256 759.817 325.725 759.303 331.082 760.044C336.44 760.785 347.476 761.627 351.725 761.618C353.297 761.615 354.401 762.028 353.434 762.087Z" fill="#132B5D"/>
<path d="M360.592 743.856C360.508 743.855 360.425 743.832 360.352 743.79C358.26 742.557 352.432 741.281 349.201 742.036C349.079 742.066 348.949 742.045 348.842 741.978C348.735 741.912 348.658 741.806 348.629 741.683C348.6 741.56 348.621 741.43 348.687 741.323C348.753 741.215 348.859 741.138 348.982 741.109C352.532 740.282 358.616 741.665 360.828 742.968C360.917 743.021 360.987 743.103 361.026 743.199C361.065 743.296 361.072 743.403 361.044 743.504C361.017 743.605 360.957 743.694 360.874 743.757C360.792 743.821 360.691 743.855 360.586 743.856H360.592Z" fill="#092B69"/>
<path d="M365.627 739.46C365.534 739.459 365.444 739.432 365.366 739.381C362.598 737.561 356.889 736.386 354.903 736.631C354.84 736.641 354.776 736.639 354.714 736.623C354.652 736.608 354.593 736.581 354.542 736.542C354.491 736.504 354.448 736.456 354.416 736.4C354.384 736.345 354.363 736.284 354.355 736.22C354.347 736.157 354.352 736.092 354.37 736.03C354.387 735.969 354.417 735.911 354.457 735.862C354.497 735.812 354.547 735.771 354.603 735.74C354.659 735.71 354.721 735.692 354.785 735.686C357 735.402 362.857 736.593 365.888 738.584C365.975 738.639 366.042 738.722 366.078 738.819C366.114 738.916 366.118 739.023 366.088 739.122C366.059 739.222 365.998 739.309 365.914 739.37C365.831 739.432 365.73 739.464 365.627 739.463V739.46Z" fill="#092B69"/>
<path d="M457.2 758.02C457.581 758.714 465.842 759.412 472.029 759.461C479.235 759.516 485.574 759.339 487.271 757.849C487.401 757.735 480.311 758.547 472.793 758.509C464.757 758.464 456.935 757.537 457.2 758.02Z" fill="#132B5D"/>
<path d="M469.053 751.666C471.339 749.027 478.371 747.544 480.972 747.916C482.426 748.125 483.119 750 480.972 750C476.956 750.187 472.966 750.745 469.053 751.666Z" fill="#B0D0EF"/>
<path d="M443.326 190.813C437.049 190.813 424.109 192.48 417.833 195.813C411.557 199.146 402.689 206.184 394.93 209.702C387.171 213.22 386.618 306.342 386.964 305.505C387.31 304.667 389.042 310.712 389.042 311.338C389.042 311.963 386.271 314.879 386.618 317.171L387.31 321.754C386.829 321.798 386.363 321.943 385.94 322.177C385.518 322.412 385.148 322.732 384.855 323.117C384.562 323.502 384.352 323.944 384.238 324.414C384.124 324.885 384.109 325.374 384.193 325.851C384.608 329.601 390.22 348.35 390.774 350.086C391.328 351.822 400.657 359.877 413.403 363.581C426.149 367.285 464.019 368.396 476.396 363.581C488.774 358.767 500.596 348.026 501.889 346.544C503.183 345.062 509.737 228.291 509.043 226.138C508.35 223.985 491.197 212.386 486.163 209.189C480.587 205.647 471.962 195.81 467.714 194.328C463.466 192.847 449.732 190.813 443.326 190.813Z" fill="#B0D0EF"/>
<path d="M509.647 331.549C508.123 330.162 497.179 302.382 496.901 302.8C496.624 303.218 497.733 318.632 496.901 319.327C496.07 320.022 476.673 334.882 469.746 339.604C462.819 344.326 455.195 350.715 452.289 350.437C449.382 350.159 450.073 346.271 449.102 344.604C448.132 342.937 422.363 346.132 422.224 345.298C422.085 344.465 431.322 333.262 430.491 332.29C429.66 331.318 423.471 333.632 416.821 336.132C410.17 338.632 394.93 345.576 395.346 343.909C395.761 342.242 408.092 334.049 419.314 329.882C430.536 325.716 486.51 304.189 486.233 303.495C485.956 302.801 467.668 298.078 467.114 297.244C466.787 296.753 446.539 262.299 446.539 262.299C446.539 262.299 443.317 239.533 443.34 239.191C443.398 238.358 473.435 224.96 473.81 224.053C474.595 222.155 470.392 210.489 469.138 210.615C467.566 210.774 464.218 198.909 460.519 192.689C454.775 191.678 447.498 190.813 443.326 190.813C437.049 190.813 424.109 192.48 417.833 195.813C411.557 199.146 402.689 206.184 394.93 209.702C387.171 213.22 386.618 306.342 386.964 305.505C387.31 304.667 389.042 310.712 389.042 311.338C389.042 311.963 386.271 314.879 386.618 317.171C386.964 319.463 387.31 321.754 387.31 321.754C386.829 321.798 386.363 321.943 385.94 322.177C385.518 322.412 385.148 322.732 384.855 323.117C384.562 323.502 384.352 323.944 384.238 324.414C384.124 324.885 384.109 325.374 384.193 325.851C384.608 329.601 390.22 348.35 390.774 350.086C391.328 351.822 400.657 359.877 413.403 363.581C426.149 367.285 464.019 368.396 476.396 363.581C488.774 358.767 500.596 348.026 501.889 346.544C503.183 345.062 511.171 332.938 509.647 331.549Z" fill="#85B0DF"/>
<path d="M462.626 172.666V208.128C462.626 208.128 454.037 221.461 443.326 221.461C432.615 221.461 424.021 208.128 424.021 208.128V172.666H462.626Z" fill="#EEC6B5"/>
<path d="M424.024 208.127C424.024 208.127 432.088 220.643 442.333 221.422C442.279 218.242 443.702 212.028 444.546 208.868C445.486 205.349 444.254 203.127 442.499 200.35C440.744 197.572 440.19 195.812 442.499 193.868C444.808 191.924 455.43 184.795 457.646 183.313C459.862 181.832 457.953 181.763 456.122 181.921C455.226 181.994 454.626 177.051 454.27 172.668H424.024V208.127Z" fill="#DE8864"/>
<path d="M424.024 203.534C424.932 202.188 425.386 200.585 425.318 198.961C425.318 195.72 425.78 191.739 427.996 189.134C430.213 186.529 434.924 187.295 437.88 188.498C440.835 189.702 441.944 189.703 445.347 188.498C448.573 187.203 451.649 185.558 454.519 183.592C455.825 182.665 454.894 182.575 454.519 182.052C454.241 181.668 451.585 175.546 450.218 172.664H424.024V203.534Z" fill="#080F29"/>
<path d="M418.341 140.722C417.34 139.835 413.89 140.755 414.546 144.611C415.34 149.268 417.094 157.388 418.341 159.471C419.587 161.554 421.527 162.387 422.497 161.277C423.466 160.166 419.59 141.828 418.341 140.722Z" fill="#DE8864"/>
<path d="M445.967 185.258C452.617 185.258 465.532 176.965 466.412 173.231C467.776 167.44 470.747 137.621 470.907 124.478C471.035 114.038 465.909 106.071 444.371 106.071C422.833 106.071 417.708 114.038 417.835 124.478C417.995 137.621 420.966 167.438 422.331 173.231C423.208 176.965 436.125 185.258 442.776 185.258H445.967Z" fill="#EEC6B5"/>
<path d="M447.81 166.279C444.843 166.209 443.111 167.32 442.961 166.881C442.826 166.484 443.022 164.856 442.799 163.57C442.629 162.587 439.801 161.651 439.728 160.723C439.61 159.161 441.022 149.705 441.117 144.242C441.213 138.779 438.229 137.34 433.732 136.002C429.018 134.6 424.831 137.682 424.034 136.905C422.664 135.568 423.941 131.928 424.31 129.428C424.68 126.929 425.558 122.855 426.021 118.56C426.38 115.233 428.282 115.54 429.206 114.151L429.562 107.938C420.316 110.885 417.745 117.055 417.835 124.479C417.995 137.622 420.966 167.439 422.331 173.232C423.109 176.536 433.299 183.402 440.246 184.944C438.062 184.07 438.052 180.569 438.569 178.176C438.985 176.243 441.207 175.55 441.479 175.133C441.676 174.709 441.778 174.246 441.778 173.778C441.778 173.311 441.676 172.848 441.479 172.424C440.943 171.936 440.302 171.58 439.605 171.383C438.399 170.889 438.663 168.791 439.724 168.871C441.383 168.995 443.049 168.99 444.707 168.857C448.363 168.521 451.916 168.871 452.239 168.547C452.561 168.223 449.816 166.326 447.81 166.279Z" fill="#DE8864"/>
<path d="M424.025 136.904C423.664 136.148 427.558 134.196 432.276 134.794C435.598 135.215 438.397 136.861 438.419 137.806C438.43 138.246 435.619 137.862 431.584 137.668C426.435 137.42 424.223 137.32 424.025 136.904Z" fill="#080F29"/>
<path d="M462.449 110.354C462.077 109.474 458.522 111.019 454.875 113.131C450.718 115.539 445.638 119.983 438.715 119.983C431.403 119.983 430.586 117.205 427.077 118.131C423.597 119.049 420.888 124.427 420.149 128.686C419.41 132.945 419.759 147.846 420.061 151.37C420.362 154.894 419.133 154.796 418.579 151.37C418.025 147.944 416.639 135.075 416.27 133.412C415.901 131.749 412.653 129.026 413.222 122.949C413.499 119.986 414.851 117.715 415.161 116.468C415.346 115.727 410.937 113.896 414.053 107.857C415.439 105.172 423.932 100.801 438.895 100.06C456.423 99.1919 463.61 108.049 464.487 108.69C465.249 109.247 475.663 109.431 477.326 120.171C478.658 128.776 475.286 142.045 475.009 143.156C474.301 141.485 470.914 140.167 470.366 142.43C469.792 144.791 469.639 145.137 469.173 145.155C468.364 145.186 468.089 142.856 469.013 139.8C469.732 137.423 470.309 137.208 470.513 134.066C470.668 131.697 469.383 129.155 464.857 125.819C460.33 122.484 456.448 121.282 456.728 117.579C457.183 111.409 462.936 111.51 462.449 110.354Z" fill="#080F29"/>
<path d="M459.169 135.583C457.107 135.464 450.428 135.972 449.569 137.427C449.193 138.062 448.033 141.233 449.057 142.157C449.98 142.99 451.135 141.81 453.556 139.651C455.075 138.16 457.055 137.232 459.171 137.018C460.647 136.972 460.415 135.654 459.169 135.583Z" fill="#DE8864"/>
<path d="M457.681 146.077C455.533 146.077 452.769 145.901 451.904 145.806C451.763 145.785 451.636 145.711 451.548 145.598C451.461 145.485 451.421 145.342 451.437 145.2C451.453 145.058 451.523 144.928 451.633 144.837C451.743 144.746 451.884 144.701 452.026 144.712C454.531 144.953 457.05 145.015 459.564 144.898C460.368 144.839 461.147 144.591 461.839 144.174C461.954 144.09 462.098 144.055 462.239 144.075C462.38 144.095 462.508 144.17 462.595 144.283C462.682 144.396 462.722 144.539 462.706 144.681C462.689 144.823 462.619 144.953 462.508 145.044C461.667 145.593 460.7 145.919 459.699 145.99C459.029 146.057 458.355 146.086 457.681 146.077Z" fill="#DE8864"/>
<path d="M470.78 141.657C472.012 140.581 475.577 140.757 474.92 144.612C474.126 149.269 472.373 157.389 471.126 159.472C469.878 161.556 467.939 162.389 466.969 161.279C466 160.168 469.527 142.754 470.78 141.657Z" fill="#EEC6B5"/>
<path d="M463.848 137.389C464.209 136.633 459.492 134.696 454.967 134.797C451.62 134.87 449.496 136.86 449.472 137.802C449.46 138.242 452.269 137.781 456.306 137.663C461.063 137.531 463.649 137.806 463.848 137.389Z" fill="#080F29"/>
<path d="M456.583 148.526C460.585 148.207 463.713 146.478 463.569 144.664C463.425 142.85 460.065 141.638 456.063 141.957C452.061 142.275 448.933 144.004 449.077 145.818C449.22 147.632 452.581 148.844 456.583 148.526Z" fill="#EEC6B5"/>
<path d="M450.839 144.472C451.863 141.213 459.804 139.765 461.807 143.338C461.337 145.89 453.905 147.57 450.839 144.472Z" fill="#DFECF7"/>
<mask id="mask0_1012_32837" style="mask-type:luminance" maskUnits="userSpaceOnUse" x="450" y="141" width="12" height="6">
<path d="M450.839 144.474C451.863 141.215 459.804 139.767 461.807 143.34C461.337 145.892 453.905 147.572 450.839 144.474Z" fill="white"/>
</mask>
<g mask="url(#mask0_1012_32837)">
<path d="M456.178 145.517C457.422 145.517 458.43 144.506 458.43 143.26C458.43 142.013 457.422 141.003 456.178 141.003C454.935 141.003 453.927 142.013 453.927 143.26C453.927 144.506 454.935 145.517 456.178 145.517Z" fill="#102B68"/>
<path d="M456.179 144.237C456.717 144.237 457.154 143.799 457.154 143.259C457.154 142.719 456.717 142.281 456.179 142.281C455.64 142.281 455.203 142.719 455.203 143.259C455.203 143.799 455.64 144.237 456.179 144.237Z" fill="#080F28"/>
</g>
<path d="M450.838 145.022C450.773 145.022 450.708 145.01 450.647 144.988C450.511 144.937 450.4 144.834 450.34 144.701C450.279 144.569 450.274 144.418 450.324 144.281C450.955 142.583 452.737 141.321 455.099 140.904C457.93 140.404 460.73 141.219 462.224 142.982C462.271 143.037 462.306 143.101 462.329 143.169C462.351 143.238 462.359 143.31 462.354 143.382C462.348 143.454 462.328 143.525 462.295 143.589C462.262 143.653 462.217 143.71 462.163 143.757C462.108 143.804 462.044 143.84 461.976 143.862C461.907 143.884 461.835 143.892 461.763 143.887C461.691 143.881 461.621 143.861 461.557 143.828C461.493 143.795 461.436 143.75 461.389 143.695C460.159 142.246 457.707 141.557 455.29 141.987C453.316 142.335 451.845 143.336 451.353 144.664C451.314 144.769 451.243 144.86 451.151 144.924C451.06 144.988 450.95 145.022 450.838 145.022Z" fill="#DE8864"/>
<path d="M437.034 144.472C436.01 141.213 428.069 139.765 426.065 143.338C426.531 145.89 433.968 147.57 437.034 144.472Z" fill="#B0D0EF"/>
<mask id="mask1_1012_32837" style="mask-type:luminance" maskUnits="userSpaceOnUse" x="426" y="141" width="12" height="6">
<path d="M437.034 144.474C436.01 141.215 428.069 139.767 426.065 143.34C426.531 145.892 433.968 147.572 437.034 144.474Z" fill="white"/>
</mask>
<g mask="url(#mask1_1012_32837)">
<path d="M431.694 145.517C432.937 145.517 433.945 144.506 433.945 143.26C433.945 142.013 432.937 141.003 431.694 141.003C430.45 141.003 429.442 142.013 429.442 143.26C429.442 144.506 430.45 145.517 431.694 145.517Z" fill="#102B68"/>
<path d="M431.694 144.237C432.233 144.237 432.67 143.799 432.67 143.259C432.67 142.719 432.233 142.281 431.694 142.281C431.155 142.281 430.719 142.719 430.719 143.259C430.719 143.799 431.155 144.237 431.694 144.237Z" fill="#080F28"/>
</g>
<path d="M437.034 145.022C436.922 145.022 436.814 144.987 436.722 144.923C436.631 144.859 436.561 144.769 436.522 144.664C436.029 143.336 434.557 142.335 432.584 141.987C430.171 141.559 427.717 142.245 426.485 143.694C426.439 143.751 426.382 143.798 426.318 143.833C426.253 143.867 426.183 143.888 426.11 143.895C426.037 143.901 425.964 143.893 425.894 143.871C425.825 143.849 425.76 143.813 425.705 143.766C425.649 143.718 425.603 143.66 425.571 143.595C425.538 143.53 425.518 143.458 425.513 143.385C425.508 143.312 425.517 143.239 425.541 143.17C425.565 143.101 425.602 143.037 425.65 142.982C427.148 141.219 429.943 140.404 432.775 140.904C435.134 141.321 436.92 142.583 437.55 144.281C437.601 144.418 437.595 144.569 437.535 144.701C437.474 144.834 437.364 144.937 437.228 144.988C437.166 145.011 437.1 145.022 437.034 145.022Z" fill="#BC694B"/>
<path d="M448.674 215.202H436.759L434.819 221.444L440.075 229.886H446.873L451.86 221.444L448.674 215.202Z" fill="#2171C5"/>
<path d="M424.025 215.202C424.025 215.202 429.542 219.67 434.82 221.444C440.097 223.219 447.646 222.725 451.857 221.444C456.068 220.164 465.312 215.202 465.312 215.202H424.025Z" fill="#2171C5"/>
<path d="M455.927 351.729C456.023 353.013 455.812 354.302 455.309 355.487C452.923 361.088 445.625 377.792 443.464 377.792C441.302 377.792 434.002 361.088 431.618 355.487C431.116 354.302 430.904 353.013 431.001 351.729L440.076 229.889H446.84L455.927 351.729Z" fill="#2171C5"/>
<path d="M449.664 367.25C449.54 367.251 449.42 367.202 449.331 367.114L430.807 348.94C430.723 348.851 430.676 348.731 430.677 348.608C430.678 348.484 430.727 348.366 430.813 348.278C430.899 348.19 431.016 348.138 431.139 348.135C431.263 348.131 431.382 348.176 431.473 348.259L449.998 366.433C450.065 366.5 450.111 366.585 450.13 366.677C450.149 366.77 450.14 366.866 450.104 366.954C450.068 367.042 450.008 367.117 449.929 367.169C449.851 367.222 449.759 367.25 449.664 367.25Z" fill="#050F3A"/>
<path d="M451.338 363.718C451.214 363.718 451.094 363.67 451.005 363.582L431.169 344.12C431.125 344.076 431.089 344.024 431.064 343.966C431.04 343.909 431.027 343.847 431.026 343.784C431.026 343.722 431.037 343.66 431.061 343.602C431.084 343.543 431.118 343.491 431.162 343.446C431.206 343.401 431.258 343.365 431.315 343.341C431.373 343.316 431.434 343.303 431.497 343.303C431.559 343.302 431.621 343.314 431.679 343.337C431.737 343.361 431.79 343.395 431.835 343.439L451.671 362.901C451.738 362.968 451.785 363.052 451.804 363.145C451.823 363.238 451.814 363.334 451.778 363.422C451.743 363.509 451.682 363.584 451.603 363.637C451.525 363.69 451.433 363.718 451.338 363.718Z" fill="#050F3A"/>
<path d="M455.435 344.542C455.311 344.543 455.191 344.494 455.102 344.407L432.784 322.509C432.739 322.465 432.704 322.413 432.679 322.355C432.655 322.298 432.642 322.236 432.642 322.173C432.64 322.047 432.689 321.925 432.778 321.835C432.866 321.745 432.987 321.694 433.113 321.692C433.239 321.691 433.36 321.74 433.45 321.829L455.768 343.723C455.835 343.789 455.881 343.874 455.9 343.966C455.919 344.059 455.911 344.155 455.875 344.243C455.839 344.331 455.778 344.406 455.7 344.458C455.622 344.511 455.529 344.539 455.435 344.539V344.542Z" fill="#050F3A"/>
<path d="M455.018 338.958C454.893 338.958 454.774 338.909 454.685 338.821L433.145 317.688C433.099 317.644 433.062 317.592 433.036 317.534C433.01 317.476 432.996 317.414 432.995 317.35C432.994 317.287 433.005 317.224 433.029 317.165C433.052 317.106 433.087 317.052 433.131 317.007C433.175 316.962 433.228 316.926 433.286 316.901C433.345 316.877 433.407 316.864 433.471 316.864C433.534 316.864 433.596 316.877 433.655 316.902C433.713 316.926 433.766 316.962 433.81 317.007L455.35 338.141C455.418 338.207 455.464 338.292 455.483 338.385C455.502 338.478 455.493 338.574 455.458 338.661C455.422 338.749 455.361 338.824 455.283 338.877C455.204 338.93 455.112 338.958 455.018 338.958Z" fill="#050F3A"/>
<path d="M453.148 313.924C453.023 313.924 452.904 313.875 452.815 313.788L434.762 296.077C434.717 296.033 434.682 295.981 434.657 295.923C434.633 295.866 434.62 295.804 434.619 295.741C434.619 295.679 434.63 295.617 434.653 295.559C434.677 295.5 434.711 295.448 434.755 295.403C434.799 295.358 434.851 295.323 434.908 295.298C434.966 295.273 435.027 295.26 435.09 295.26C435.152 295.259 435.214 295.271 435.272 295.294C435.33 295.318 435.383 295.352 435.427 295.396L453.478 313.107C453.546 313.173 453.592 313.258 453.611 313.35C453.63 313.443 453.621 313.539 453.585 313.627C453.55 313.714 453.489 313.789 453.41 313.842C453.332 313.895 453.24 313.923 453.146 313.923L453.148 313.924Z" fill="#050F3A"/>
<path d="M452.728 308.344C452.603 308.344 452.484 308.295 452.395 308.207L435.122 291.26C435.078 291.217 435.042 291.164 435.018 291.107C434.993 291.049 434.98 290.987 434.98 290.925C434.979 290.862 434.991 290.8 435.014 290.742C435.037 290.684 435.072 290.631 435.115 290.586C435.159 290.542 435.211 290.506 435.268 290.482C435.326 290.457 435.388 290.444 435.45 290.443C435.512 290.443 435.574 290.454 435.632 290.478C435.69 290.501 435.743 290.536 435.788 290.58L453.061 307.527C453.128 307.593 453.174 307.678 453.193 307.771C453.212 307.864 453.203 307.96 453.168 308.047C453.132 308.135 453.071 308.21 452.993 308.263C452.914 308.315 452.822 308.344 452.728 308.344Z" fill="#050F3A"/>
<path d="M450.856 283.308C450.731 283.308 450.612 283.259 450.523 283.172L436.739 269.648C436.693 269.604 436.656 269.552 436.631 269.494C436.605 269.436 436.591 269.374 436.59 269.31C436.589 269.247 436.6 269.184 436.623 269.125C436.647 269.066 436.681 269.012 436.726 268.967C436.77 268.922 436.823 268.886 436.881 268.861C436.94 268.837 437.002 268.824 437.065 268.824C437.129 268.824 437.191 268.837 437.249 268.862C437.308 268.886 437.361 268.922 437.405 268.967L451.188 282.491C451.256 282.557 451.302 282.642 451.321 282.735C451.34 282.828 451.331 282.924 451.296 283.011C451.26 283.099 451.199 283.174 451.121 283.227C451.042 283.28 450.95 283.308 450.856 283.308Z" fill="#050F3A"/>
<path d="M450.438 277.725C450.313 277.725 450.194 277.676 450.105 277.589L437.099 264.829C437.054 264.785 437.019 264.733 436.994 264.675C436.97 264.618 436.957 264.556 436.956 264.493C436.955 264.431 436.967 264.369 436.99 264.31C437.014 264.252 437.048 264.2 437.092 264.155C437.136 264.11 437.188 264.074 437.245 264.05C437.302 264.025 437.364 264.012 437.427 264.012C437.489 264.011 437.551 264.023 437.609 264.046C437.667 264.069 437.72 264.104 437.764 264.148L450.77 276.909C450.838 276.975 450.884 277.06 450.903 277.152C450.922 277.245 450.913 277.341 450.878 277.429C450.842 277.516 450.781 277.591 450.703 277.644C450.624 277.697 450.532 277.725 450.438 277.725Z" fill="#050F3A"/>
<path d="M434.68 221.419C434.572 221.419 434.467 221.382 434.382 221.315C434.298 221.247 434.239 221.152 434.215 221.046C434.192 220.94 434.205 220.829 434.253 220.732C434.301 220.635 434.38 220.557 434.478 220.511L445.036 215.537C445.151 215.484 445.281 215.478 445.4 215.52C445.519 215.563 445.615 215.652 445.669 215.766C445.723 215.881 445.729 216.012 445.686 216.131C445.643 216.249 445.555 216.346 445.441 216.4L434.883 221.374C434.819 221.403 434.75 221.419 434.68 221.419Z" fill="#050F3A"/>
<path d="M436.79 224.324C436.681 224.325 436.576 224.288 436.492 224.22C436.407 224.152 436.348 224.057 436.325 223.952C436.301 223.846 436.315 223.735 436.362 223.638C436.41 223.54 436.49 223.462 436.588 223.416L450.765 216.739C450.821 216.711 450.883 216.694 450.947 216.69C451.01 216.685 451.073 216.694 451.133 216.715C451.194 216.735 451.249 216.768 451.296 216.81C451.343 216.853 451.381 216.905 451.409 216.962C451.436 217.02 451.451 217.082 451.453 217.146C451.456 217.209 451.446 217.273 451.423 217.332C451.401 217.392 451.367 217.447 451.323 217.493C451.28 217.539 451.227 217.576 451.169 217.601L436.991 224.279C436.928 224.309 436.859 224.324 436.79 224.324Z" fill="#050F3A"/>
<path d="M440.075 230.362C439.967 230.362 439.862 230.325 439.777 230.257C439.693 230.189 439.634 230.094 439.611 229.988C439.587 229.882 439.601 229.771 439.649 229.674C439.697 229.576 439.777 229.499 439.875 229.453L448.776 225.312C448.833 225.284 448.894 225.268 448.958 225.264C449.021 225.261 449.084 225.27 449.144 225.291C449.203 225.312 449.258 225.345 449.305 225.388C449.352 225.43 449.389 225.482 449.416 225.54C449.443 225.597 449.458 225.659 449.46 225.723C449.462 225.786 449.452 225.849 449.43 225.909C449.407 225.968 449.373 226.022 449.33 226.068C449.286 226.114 449.234 226.151 449.176 226.176L440.278 230.317C440.215 230.347 440.145 230.363 440.075 230.362Z" fill="#050F3A"/>
<path d="M448.566 252.69C448.442 252.69 448.322 252.641 448.233 252.553L438.716 243.216C438.626 243.128 438.575 243.007 438.573 242.881C438.572 242.755 438.621 242.633 438.709 242.543C438.797 242.452 438.918 242.401 439.044 242.399C439.17 242.398 439.291 242.447 439.381 242.536L448.899 251.873C448.966 251.939 449.013 252.024 449.032 252.117C449.051 252.21 449.042 252.306 449.006 252.393C448.97 252.481 448.91 252.556 448.831 252.609C448.753 252.662 448.661 252.69 448.566 252.69Z" fill="#050F3A"/>
<path d="M448.147 247.109C448.022 247.109 447.903 247.06 447.814 246.972L439.075 238.396C438.985 238.308 438.934 238.187 438.933 238.061C438.931 237.934 438.98 237.813 439.068 237.722C439.157 237.632 439.277 237.58 439.403 237.579C439.529 237.578 439.651 237.627 439.741 237.715L448.48 246.291C448.547 246.358 448.593 246.442 448.612 246.535C448.631 246.628 448.622 246.724 448.587 246.812C448.551 246.899 448.49 246.974 448.412 247.027C448.334 247.08 448.241 247.108 448.147 247.108V247.109Z" fill="#050F3A"/>
<path d="M446.539 230.362H440.075C439.949 230.362 439.828 230.312 439.739 230.223C439.65 230.133 439.6 230.012 439.6 229.886C439.6 229.759 439.65 229.638 439.739 229.549C439.828 229.459 439.949 229.409 440.075 229.409H446.539C446.665 229.409 446.786 229.459 446.875 229.549C446.964 229.638 447.014 229.759 447.014 229.886C447.014 230.012 446.964 230.133 446.875 230.223C446.786 230.312 446.665 230.362 446.539 230.362Z" fill="#050F3A"/>
<path d="M465.312 192.244C462.137 192.078 469.537 232.242 468.429 244.464C467.32 256.685 462.918 293.703 461.808 303.836C460.697 313.97 461.206 376.623 463.534 395.289C466.305 417.51 473.416 438.62 474.248 440.009C475.079 441.397 500.019 439.178 503.62 436.96C507.222 434.742 516.089 426.96 515.535 425.012C514.981 423.064 509.094 360.709 501.68 337.238C505.117 342.82 522.601 353.511 528.559 355.293C531.745 356.246 541.88 355.384 544.353 352.237C547.955 347.654 556.822 333.117 553.774 320.572C552.209 314.128 547.955 304.726 540.474 304.593C532.993 304.459 538.811 298.004 536.871 297.516C534.931 297.029 532.438 283.422 528.836 282.831C528.282 278.799 524.668 270.125 523.571 265.851C522.462 261.546 522.74 230.575 521.631 225.744C521.185 223.801 502.042 216.315 496.277 214.326C487.826 211.41 467.969 192.383 465.312 192.244Z" fill="#092B69"/>
<path d="M421.575 193.818C417.836 199.003 413.472 236.409 414.396 263.63C415.321 290.852 418.143 347.079 417.938 353.512C417.167 377.792 398.509 437.633 396.477 440.446C394.445 443.258 391.489 440.848 389.642 439.181C387.795 437.514 383.382 432.349 378.558 429.367C367.475 422.516 364.442 418.653 365.812 412.701C366.92 407.887 373.94 377.151 374.864 370.11C375.787 363.07 379.482 344.64 379.298 338.487C379.113 332.335 344.199 340.667 342.905 340.667C341.612 340.667 322.586 346.222 321.108 341.593C319.63 336.964 316.72 333.913 319.297 330.482C323.324 325.112 333.299 320.483 338.103 321.223C340.135 318.465 342.81 314.725 344.753 314.372C347.684 313.84 344.938 309.08 344.938 304.597C344.938 300.113 348.632 290.484 349.74 287.891C350.848 285.298 356.577 282.935 356.76 279.744C358.608 247.549 365.073 227.59 364.15 223.853C363.226 220.116 383.915 214.005 392.598 209.193C401.28 204.381 419.125 193.072 421.575 193.818Z" fill="#092B69"/>
<path d="M397.585 380.291C397.313 381.04 392.966 383.439 391.766 383.624C390.565 383.81 379.481 378.625 378.188 377.791C376.895 376.958 377.366 376.173 379.666 376.865C380.59 377.143 390.288 381.032 391.673 381.402C393.059 381.772 397.954 379.272 397.585 380.291Z" fill="#050F3A"/>
<path d="M503.895 382.424C503.895 383.164 494.842 385.561 488.654 386.404C483.575 387.098 480.713 387.087 479.603 386.682C478.587 386.316 477.039 379.217 476.647 376.59C476.387 374.85 477.744 374.534 478.218 376.59C478.803 379.396 479.605 382.151 480.619 384.831C480.911 385.632 485.613 385.07 489.579 384.645C496.51 383.901 503.895 381.764 503.895 382.424Z" fill="#050F3A"/>
<path d="M543.718 352.866C544.867 351.497 539.504 349.876 537.011 351.125C534.517 352.375 533.547 352.544 532.577 351.765C531.607 350.987 536.179 333.302 536.317 333.116C536.456 332.931 546.432 334.181 548.925 329.877C551.418 325.572 551.696 317.516 550.172 314.738C548.649 311.96 520.523 310.432 518.861 314.738C517.199 319.044 516.783 319.738 517.057 322.172C517.331 324.606 516.087 320.853 514.701 321.13C513.315 321.408 511.376 332.102 510.822 334.185C510.268 336.268 512.346 342.411 513.039 343.784C513.732 345.157 507.681 339.07 505.557 334.741C503.433 330.412 494.199 303.349 493.365 301.128C492.532 298.906 495.893 315.348 495.859 317.757C495.824 320.167 503.11 344.999 504.582 348.599C505.485 350.81 515.948 360.898 519.966 361.175C523.983 361.453 542.224 354.644 543.718 352.866Z" fill="#050F3A"/>
<path d="M518.583 307.1C515.321 307.808 506.349 313.323 504.499 314.723C502.65 316.123 503.716 325.155 504.499 327.098C505.283 329.042 507.78 322.932 509.094 319.182C510.408 315.432 516.227 310.154 518.583 309.183C520.938 308.211 519.791 306.838 518.583 307.1Z" fill="#050F3A"/>
<path d="M472.305 291.827C473.402 285.467 486.02 234.33 488.099 229.889C489.292 227.339 483.111 222.486 483.804 221.46C484.497 220.434 489.069 216.224 489.9 215.969C490.731 215.714 491.701 217.086 490.593 218.901C489.484 220.716 488.099 222.013 488.099 222.545C488.099 223.076 491.847 228.536 491.09 230.437C480.801 256.315 473.97 290.435 472.305 291.827Z" fill="#050F3A"/>
<path d="M393.613 217.173C395.182 219.294 399.709 225.221 400.54 225.749C401.372 226.277 395.954 238.063 394.444 241.412C393.755 242.941 401.649 264.903 404.281 276.073C406.913 287.244 410.654 312.534 410.1 316.346C406.913 295.743 392.228 243.079 391.119 240.579C390.011 238.079 396.661 228.778 395.969 226.552C395.276 224.325 392.643 219.674 392.089 218.46C391.534 217.246 392.01 215.01 393.613 217.173Z" fill="#050F3A"/>
<path d="M372.275 267.381C372.154 265.69 380.448 290.991 381.415 291.824C382.381 292.658 380.306 279.876 381.415 279.602C382.523 279.328 385.774 306.3 386.264 310.99C386.753 315.679 388.619 336.544 387.788 339.322C386.957 342.1 374.347 373.345 373.863 375.78C373.379 378.215 376.374 360.654 376.65 359.011C376.927 357.369 374.487 359.877 372.271 360.293C370.055 360.71 330.092 354.953 326.827 354.183C317.406 351.961 316.949 335.881 318.265 332.517C319.623 329.045 326.204 326.822 331.26 328.486C335.422 329.857 337.218 333.485 337.357 334.874C337.495 336.263 345.116 333.287 347.332 331.511C349.548 329.736 359.251 329.735 363.68 329.18C368.11 328.624 355.091 321.427 351.488 321.692C347.885 321.958 347.886 319.736 356.753 319.736C365.62 319.736 373.379 320.316 376.569 321.692C379.759 323.069 380.31 321.263 379.063 314.598C377.816 307.932 372.416 269.325 372.275 267.381Z" fill="#050F3A"/>
<path d="M329.544 343.884C322.34 345.13 295.6 336.662 295.6 336.662C301.834 333.467 315.982 330.633 324.538 334.149L329.544 343.884Z" fill="#DE8864"/>
<path d="M353.006 294.466C354.103 291.688 357.452 287.244 358.699 286.966C359.946 286.688 361.609 288.911 361.47 286.966C361.331 285.022 359.392 268.634 360.362 260.301C360.667 257.68 358.903 257.356 358.315 262.021C357.676 267.427 357.124 273.339 356.757 279.745C356.62 282.124 353.403 284.043 351.315 285.94C351.02 290.444 352.145 296.645 353.006 294.466Z" fill="#050F3A"/>
<path d="M335.354 341.057C334.365 342.773 330.805 347.423 322.215 346.034C313.625 344.645 311.685 343.071 310.3 342.882C308.915 342.693 295.799 340.845 293.582 340.105C291.365 339.364 279.45 322.879 277.511 320.753C275.572 318.628 279.542 317.235 281.944 319.272C284.346 321.309 287.763 325.058 288.964 326.077C288.871 321.262 288.859 317.188 288.865 315.197C288.871 312.929 293.49 313.072 294.486 318.478C294.69 314.643 298.708 315.985 299.355 318.253C299.737 319.593 300.34 323.4 300.847 326.536C301.11 328.159 301.295 328.621 303.927 330.047C303.742 327.223 303.605 324.704 303.419 321.649C303.273 319.246 306.911 319.329 307.483 321.649C308.253 324.77 311.505 334.27 311.685 335.288C311.866 336.306 319.656 332.375 327.203 334.732C332.837 336.497 336.038 339.871 335.354 341.057Z" fill="#DE8864"/>
<path d="M288.865 315.201C288.859 317.192 288.871 321.265 288.964 326.081C287.764 325.062 284.346 321.312 281.945 319.275C279.543 317.238 275.571 318.627 277.511 320.757C279.102 322.504 287.4 333.899 291.557 338.349C293.395 338.358 296.502 338.385 297.877 338.349C299.494 338.302 304.158 339.691 303.65 339.135C303.142 338.58 296.584 333.491 296.399 332.376C296.214 331.261 294.598 320.34 294.486 318.481C293.49 313.071 288.871 312.936 288.865 315.201Z" fill="#EEC6B5"/>
<path d="M338.997 342.568C335.446 339.269 335.446 331.226 338.997 328.079C338.997 328.079 382.487 318.247 384.159 317.806C381.004 320.762 381.374 329.094 384.159 332.294L338.997 342.568Z" fill="white"/>
<path d="M384.945 317.615L338.996 328.077L265.878 302.452L309.244 292.578L384.945 317.615Z" fill="#2171C5"/>
<path d="M338.997 328.812C338.915 328.812 338.833 328.798 338.756 328.771L265.633 303.145C265.484 303.093 265.355 302.993 265.267 302.861C265.179 302.728 265.136 302.571 265.145 302.412C265.154 302.253 265.214 302.102 265.316 301.98C265.419 301.859 265.558 301.774 265.712 301.739L309.081 291.864C309.211 291.834 309.346 291.841 309.472 291.883L385.174 316.92C385.325 316.97 385.457 317.069 385.547 317.201C385.638 317.333 385.683 317.491 385.675 317.651C385.667 317.811 385.608 317.964 385.505 318.087C385.402 318.21 385.262 318.295 385.106 318.331L339.159 328.794C339.105 328.805 339.051 328.812 338.997 328.812ZM268.52 302.602L339.039 327.316L382.219 317.486L309.207 293.339L268.52 302.602Z" fill="#2171C5"/>
<path d="M265.882 316.941C261.812 315.571 262.274 303.813 265.882 302.452C269.007 303.552 336.755 327.065 339.004 328.077C335.453 331.224 335.453 339.266 339.004 342.566C336.142 341.566 268.896 317.957 265.882 316.941Z" fill="#050F3A"/>
<path d="M607.253 428.1H576.357L572.34 422.961H611.272L607.253 428.1Z" fill="#CC9F3B"/>
<path d="M607.254 428.834H576.359C576.248 428.834 576.139 428.808 576.039 428.76C575.939 428.711 575.852 428.64 575.784 428.553L571.762 423.414C571.677 423.306 571.624 423.176 571.61 423.04C571.595 422.903 571.619 422.765 571.679 422.641C571.739 422.517 571.833 422.413 571.949 422.34C572.066 422.267 572.2 422.228 572.337 422.229H611.269C611.406 422.228 611.541 422.267 611.657 422.34C611.774 422.413 611.867 422.517 611.927 422.641C611.987 422.765 612.011 422.903 611.997 423.04C611.982 423.176 611.929 423.306 611.844 423.414L607.827 428.553C607.759 428.64 607.672 428.711 607.573 428.759C607.473 428.808 607.364 428.833 607.254 428.834ZM576.714 427.368H606.898L609.77 423.695H573.842L576.714 427.368Z" fill="#CC9F3B"/>
<path d="M575.57 424.666C575.005 424.712 574.439 424.586 573.946 424.304C573.453 424.023 573.056 423.599 572.808 423.087C572.559 422.576 572.47 422.002 572.552 421.439C572.635 420.877 572.884 420.352 573.269 419.934C573.653 419.516 574.155 419.224 574.708 419.096C575.26 418.968 575.839 419.01 576.367 419.217C576.895 419.424 577.349 419.786 577.669 420.256C577.989 420.725 578.16 421.281 578.16 421.849C578.187 422.566 577.93 423.265 577.444 423.793C576.959 424.32 576.285 424.634 575.57 424.666ZM575.57 420.498C575.294 420.449 575.008 420.486 574.753 420.604C574.498 420.723 574.286 420.917 574.145 421.161C574.004 421.404 573.941 421.686 573.965 421.966C573.989 422.247 574.099 422.514 574.279 422.73C574.459 422.946 574.702 423.101 574.973 423.174C575.245 423.247 575.532 423.235 575.796 423.139C576.06 423.043 576.288 422.867 576.45 422.637C576.611 422.406 576.698 422.131 576.698 421.849C576.724 421.521 576.62 421.195 576.409 420.943C576.199 420.69 575.897 420.531 575.57 420.498Z" fill="#CC9F3B"/>
<path d="M583.793 424.666C583.227 424.712 582.661 424.586 582.168 424.304C581.675 424.023 581.279 423.599 581.03 423.087C580.782 422.576 580.693 422.002 580.775 421.439C580.857 420.877 581.107 420.352 581.491 419.934C581.876 419.516 582.377 419.224 582.93 419.096C583.483 418.968 584.061 419.01 584.59 419.217C585.118 419.424 585.572 419.786 585.892 420.256C586.212 420.725 586.383 421.281 586.383 421.849C586.41 422.566 586.152 423.265 585.667 423.793C585.182 424.32 584.508 424.634 583.793 424.666ZM583.793 420.498C583.516 420.449 583.231 420.486 582.976 420.604C582.721 420.723 582.509 420.917 582.367 421.161C582.226 421.404 582.164 421.686 582.188 421.966C582.212 422.247 582.321 422.514 582.502 422.73C582.682 422.946 582.924 423.101 583.196 423.174C583.467 423.247 583.754 423.235 584.019 423.139C584.283 423.043 584.511 422.867 584.672 422.637C584.834 422.406 584.92 422.131 584.92 421.849C584.946 421.521 584.843 421.196 584.632 420.943C584.421 420.69 584.12 420.531 583.793 420.498Z" fill="#CC9F3B"/>
<path d="M608.04 424.666C607.475 424.712 606.909 424.586 606.416 424.304C605.923 424.022 605.527 423.598 605.278 423.087C605.03 422.576 604.941 422.001 605.023 421.439C605.105 420.876 605.355 420.352 605.74 419.934C606.124 419.516 606.626 419.224 607.179 419.096C607.731 418.968 608.31 419.01 608.838 419.217C609.366 419.424 609.82 419.786 610.14 420.256C610.46 420.725 610.631 421.281 610.631 421.849C610.658 422.567 610.4 423.266 609.915 423.793C609.43 424.321 608.756 424.635 608.04 424.666ZM608.04 420.498C607.764 420.449 607.478 420.486 607.223 420.605C606.969 420.723 606.756 420.918 606.615 421.161C606.474 421.405 606.412 421.686 606.436 421.967C606.46 422.248 606.57 422.514 606.75 422.73C606.93 422.946 607.173 423.101 607.444 423.174C607.716 423.248 608.003 423.235 608.267 423.139C608.531 423.043 608.759 422.867 608.921 422.637C609.082 422.406 609.168 422.131 609.168 421.849C609.195 421.521 609.091 421.195 608.88 420.943C608.669 420.69 608.367 420.531 608.04 420.498Z" fill="#CC9F3B"/>
<path d="M575.57 420.498C575.486 420.499 575.403 420.484 575.325 420.456C575.142 420.391 574.993 420.256 574.91 420.08C574.826 419.904 574.816 419.703 574.881 419.52L591.114 373.781C591.165 373.638 591.258 373.515 591.381 373.427C591.505 373.34 591.652 373.293 591.803 373.293C591.954 373.293 592.102 373.34 592.225 373.427C592.349 373.515 592.442 373.638 592.493 373.781L608.726 419.52C608.791 419.703 608.78 419.905 608.697 420.08C608.614 420.256 608.464 420.391 608.281 420.456C608.099 420.521 607.898 420.511 607.722 420.428C607.547 420.344 607.412 420.194 607.347 420.011L591.801 376.213L576.255 420.011C576.205 420.153 576.112 420.276 575.989 420.363C575.867 420.45 575.72 420.498 575.57 420.498Z" fill="#CC9F3B"/>
<path d="M583.794 420.498C583.751 420.498 583.708 420.495 583.666 420.487C583.572 420.471 583.481 420.435 583.4 420.384C583.319 420.332 583.249 420.265 583.194 420.186C583.139 420.107 583.1 420.018 583.079 419.924C583.058 419.83 583.056 419.733 583.073 419.638L591.085 373.9C591.118 373.708 591.226 373.538 591.385 373.426C591.544 373.314 591.741 373.27 591.932 373.304C592.123 373.338 592.293 373.446 592.404 373.605C592.516 373.765 592.559 373.962 592.526 374.153L584.513 419.892C584.483 420.062 584.395 420.216 584.263 420.326C584.132 420.437 583.965 420.498 583.794 420.498Z" fill="#CC9F3B"/>
<path d="M503.661 414.547H472.765L468.747 409.408H507.679L503.661 414.547Z" fill="#CC9F3B"/>
<path d="M503.662 415.281H472.766C472.655 415.281 472.545 415.256 472.446 415.207C472.346 415.158 472.259 415.088 472.19 415L468.168 409.861C468.084 409.753 468.031 409.623 468.017 409.486C468.002 409.35 468.026 409.212 468.086 409.088C468.146 408.964 468.24 408.86 468.356 408.787C468.472 408.714 468.607 408.676 468.744 408.676H507.676C507.813 408.676 507.947 408.714 508.063 408.787C508.18 408.86 508.273 408.964 508.333 409.088C508.393 409.212 508.417 409.35 508.403 409.486C508.388 409.623 508.336 409.753 508.251 409.861L504.234 415C504.166 415.087 504.079 415.157 503.98 415.206C503.881 415.255 503.772 415.28 503.662 415.281ZM473.122 413.815H503.309L506.18 410.142H470.25L473.122 413.815Z" fill="#CC9F3B"/>
<path d="M471.979 411.113C471.413 411.158 470.847 411.032 470.355 410.75C469.862 410.468 469.466 410.043 469.218 409.532C468.97 409.02 468.882 408.446 468.965 407.883C469.048 407.321 469.298 406.796 469.683 406.379C470.068 405.961 470.57 405.67 471.122 405.542C471.675 405.415 472.254 405.458 472.782 405.665C473.31 405.873 473.763 406.235 474.083 406.705C474.402 407.175 474.573 407.73 474.572 408.299C474.6 409.017 474.342 409.716 473.856 410.244C473.37 410.771 472.695 411.084 471.979 411.113ZM471.979 406.947C471.702 406.898 471.418 406.936 471.163 407.055C470.909 407.174 470.697 407.368 470.557 407.612C470.417 407.855 470.354 408.136 470.379 408.417C470.403 408.697 470.513 408.963 470.693 409.179C470.874 409.394 471.116 409.549 471.387 409.622C471.658 409.695 471.945 409.683 472.209 409.587C472.472 409.491 472.7 409.315 472.862 409.085C473.023 408.855 473.11 408.58 473.11 408.299C473.136 407.97 473.033 407.643 472.821 407.39C472.609 407.137 472.307 406.978 471.979 406.947Z" fill="#CC9F3B"/>
<path d="M480.203 411.113C479.638 411.159 479.072 411.033 478.579 410.751C478.086 410.469 477.69 410.045 477.441 409.534C477.193 409.023 477.104 408.448 477.186 407.886C477.269 407.323 477.518 406.799 477.903 406.381C478.288 405.963 478.789 405.671 479.342 405.543C479.895 405.415 480.473 405.458 481.002 405.665C481.53 405.872 481.984 406.234 482.303 406.704C482.623 407.173 482.794 407.729 482.794 408.297C482.822 409.015 482.565 409.714 482.079 410.242C481.594 410.77 480.919 411.083 480.203 411.113ZM480.203 406.946C479.927 406.897 479.642 406.934 479.387 407.053C479.132 407.171 478.92 407.366 478.78 407.609C478.639 407.853 478.576 408.134 478.6 408.415C478.624 408.695 478.734 408.961 478.914 409.177C479.095 409.393 479.337 409.548 479.608 409.621C479.879 409.694 480.166 409.682 480.43 409.586C480.694 409.49 480.922 409.315 481.084 409.084C481.245 408.854 481.331 408.579 481.332 408.297C481.358 407.969 481.254 407.643 481.043 407.391C480.832 407.138 480.53 406.978 480.203 406.946Z" fill="#CC9F3B"/>
<path d="M504.45 411.113C503.884 411.159 503.318 411.033 502.825 410.752C502.332 410.47 501.935 410.046 501.686 409.535C501.438 409.023 501.349 408.449 501.431 407.886C501.514 407.323 501.763 406.799 502.148 406.381C502.533 405.962 503.035 405.671 503.587 405.543C504.14 405.415 504.719 405.458 505.247 405.665C505.776 405.872 506.229 406.234 506.549 406.704C506.869 407.174 507.04 407.73 507.039 408.299C507.065 409.015 506.808 409.713 506.323 410.241C505.838 410.768 505.165 411.081 504.45 411.113ZM504.45 406.946C504.173 406.897 503.888 406.934 503.634 407.052C503.379 407.17 503.166 407.364 503.025 407.608C502.884 407.851 502.822 408.132 502.845 408.413C502.869 408.693 502.978 408.959 503.158 409.175C503.339 409.392 503.581 409.547 503.852 409.62C504.123 409.694 504.41 409.682 504.674 409.586C504.938 409.49 505.166 409.315 505.328 409.085C505.489 408.855 505.576 408.58 505.577 408.299C505.603 407.97 505.5 407.645 505.289 407.392C505.078 407.139 504.777 406.979 504.45 406.946Z" fill="#CC9F3B"/>
<path d="M504.449 406.946C504.298 406.946 504.151 406.9 504.027 406.812C503.904 406.725 503.811 406.602 503.76 406.459L488.214 362.66L472.671 406.459C472.605 406.641 472.469 406.788 472.295 406.871C472.12 406.953 471.92 406.962 471.739 406.898C471.557 406.833 471.408 406.699 471.325 406.524C471.242 406.35 471.23 406.15 471.293 405.967L487.526 360.228C487.577 360.086 487.67 359.962 487.794 359.875C487.917 359.787 488.064 359.74 488.215 359.74C488.367 359.74 488.514 359.787 488.637 359.875C488.761 359.962 488.854 360.086 488.905 360.228L505.138 405.967C505.17 406.058 505.184 406.154 505.179 406.25C505.174 406.346 505.15 406.441 505.109 406.527C505.068 406.614 505.01 406.692 504.938 406.757C504.867 406.821 504.784 406.871 504.693 406.903C504.615 406.932 504.532 406.946 504.449 406.946Z" fill="#CC9F3B"/>
<path d="M480.203 406.946C480.16 406.946 480.118 406.942 480.075 406.935C479.981 406.918 479.891 406.883 479.809 406.831C479.728 406.78 479.658 406.713 479.603 406.634C479.548 406.555 479.509 406.466 479.488 406.372C479.467 406.278 479.465 406.181 479.482 406.086L487.494 360.347C487.511 360.252 487.546 360.162 487.598 360.08C487.649 359.999 487.716 359.929 487.795 359.873C487.873 359.818 487.962 359.779 488.056 359.758C488.15 359.737 488.247 359.735 488.341 359.751C488.436 359.768 488.526 359.803 488.607 359.855C488.688 359.906 488.759 359.973 488.814 360.052C488.869 360.131 488.908 360.22 488.929 360.314C488.95 360.408 488.952 360.505 488.936 360.6L480.923 406.339C480.893 406.509 480.805 406.663 480.673 406.774C480.541 406.885 480.375 406.946 480.203 406.946Z" fill="#CC9F3B"/>
<path d="M540.179 329.044H540.178C539.174 329.044 538.36 329.86 538.36 330.866V371.387C538.36 372.393 539.174 373.209 540.178 373.209H540.179C541.183 373.209 541.997 372.393 541.997 371.387V330.866C541.997 329.86 541.183 329.044 540.179 329.044Z" fill="#CC9F3B"/>
<path d="M540.057 374.991C541.565 374.991 542.634 372.051 544.079 370.384C544.916 369.415 546.572 369.875 546.572 367.228C545.714 366.368 540.061 359.465 540.061 359.465C540.061 359.465 534.408 366.368 533.553 367.228C533.553 369.875 535.209 369.415 536.046 370.384C537.48 372.051 538.549 374.991 540.057 374.991Z" fill="#CC9F3B"/>
<path d="M587.708 374.954C587.644 374.955 587.579 374.95 587.516 374.942L492.134 362.408C491.942 362.384 491.757 362.323 491.589 362.228C491.421 362.132 491.273 362.004 491.155 361.851C491.036 361.698 490.949 361.523 490.899 361.336C490.848 361.149 490.835 360.954 490.86 360.762C490.885 360.57 490.948 360.385 491.045 360.217C491.142 360.05 491.271 359.903 491.425 359.786C491.578 359.668 491.754 359.583 491.941 359.534C492.128 359.485 492.322 359.474 492.514 359.501L587.895 372.035C588.263 372.083 588.599 372.27 588.835 372.557C589.07 372.845 589.188 373.211 589.164 373.582C589.14 373.954 588.977 374.302 588.706 374.557C588.436 374.811 588.079 374.954 587.708 374.954Z" fill="#CC9F3B"/>
<path d="M591.806 374.76C591.774 374.76 591.742 374.758 591.71 374.754C591.615 374.742 591.523 374.71 591.44 374.662C591.357 374.614 591.284 374.55 591.226 374.474C591.167 374.397 591.124 374.31 591.1 374.217C591.075 374.124 591.068 374.027 591.081 373.932C591.115 373.674 591.045 373.413 590.887 373.207C590.729 373.001 590.496 372.866 590.239 372.832C589.981 372.798 589.721 372.868 589.516 373.027C589.31 373.185 589.175 373.419 589.142 373.677C589.132 373.775 589.103 373.87 589.057 373.956C589.01 374.042 588.946 374.119 588.869 374.18C588.793 374.241 588.704 374.286 588.61 374.313C588.515 374.339 588.416 374.346 588.319 374.333C588.222 374.32 588.128 374.288 588.043 374.238C587.959 374.189 587.885 374.122 587.827 374.043C587.768 373.964 587.726 373.874 587.703 373.779C587.68 373.683 587.676 373.584 587.692 373.487C587.777 372.844 588.112 372.26 588.625 371.865C589.138 371.47 589.787 371.296 590.429 371.38C591.07 371.465 591.652 371.801 592.046 372.315C592.44 372.83 592.614 373.48 592.53 374.123C592.507 374.299 592.421 374.461 592.288 374.578C592.154 374.695 591.983 374.76 591.806 374.76Z" fill="#CC9F3B"/>
<path d="M491.602 361.595C491.57 361.595 491.538 361.592 491.506 361.588C491.411 361.576 491.319 361.544 491.236 361.496C491.153 361.448 491.08 361.384 491.021 361.308C490.963 361.231 490.92 361.144 490.895 361.051C490.87 360.958 490.864 360.861 490.876 360.766C490.893 360.638 490.884 360.508 490.851 360.384C490.818 360.26 490.76 360.143 490.682 360.041C490.604 359.939 490.506 359.854 490.395 359.789C490.283 359.725 490.161 359.684 490.033 359.667C489.776 359.633 489.516 359.703 489.311 359.862C489.105 360.02 488.971 360.254 488.937 360.512C488.927 360.61 488.898 360.704 488.851 360.79C488.804 360.876 488.74 360.952 488.663 361.013C488.587 361.074 488.499 361.119 488.404 361.145C488.31 361.171 488.211 361.178 488.114 361.165C488.017 361.152 487.924 361.12 487.839 361.07C487.755 361.02 487.681 360.954 487.623 360.876C487.565 360.797 487.523 360.707 487.499 360.612C487.476 360.517 487.472 360.418 487.488 360.321C487.53 360.002 487.633 359.695 487.794 359.417C487.954 359.139 488.167 358.895 488.421 358.699C488.675 358.504 488.965 358.36 489.274 358.277C489.584 358.194 489.907 358.172 490.224 358.214C490.542 358.256 490.848 358.36 491.126 358.52C491.403 358.681 491.646 358.895 491.842 359.149C492.037 359.404 492.18 359.695 492.263 360.005C492.346 360.315 492.367 360.639 492.326 360.957C492.303 361.133 492.217 361.295 492.083 361.412C491.95 361.53 491.779 361.594 491.602 361.595Z" fill="#CC9F3B"/>
<path d="M539.884 334.033C527.484 334.033 517.396 324.871 517.396 313.61C517.396 302.349 527.487 293.187 539.884 293.187C552.282 293.187 562.372 302.349 562.372 313.61C562.372 324.871 552.284 334.033 539.884 334.033ZM539.884 296.119C529.097 296.119 520.321 303.965 520.321 313.61C520.321 323.255 529.096 331.101 539.884 331.101C550.673 331.101 559.447 323.258 559.447 313.61C559.447 303.962 550.671 296.119 539.884 296.119Z" fill="#CC9F3B"/>
<path d="M523.431 313.906C520.591 313.906 516.781 312.795 516.781 308.629C516.781 304.462 518.657 296.009 520.735 293.371C522.813 290.732 525.371 291.476 526.479 292.31C527.723 290.921 531.379 290.408 533.044 292.006C535.537 290.062 539.225 291.268 540.888 293.074C541.742 292.453 542.766 292.113 543.821 292.1C544.875 292.087 545.908 292.401 546.777 293C548.479 294.382 549.755 298.351 550.448 299.391C551.141 300.43 551.106 292.654 552.526 290.362C553.976 288.016 556.683 288.418 557.237 289.876C558.149 292.277 559.815 298.396 560.285 300.292C561.162 303.833 562.779 307.236 560.978 309.455C558.962 311.66 556.539 313.452 553.843 314.732C552.349 315.362 550.794 317.832 547.885 318.251C545.876 318.569 543.818 318.253 541.997 317.345C539.572 318.565 534.377 318.565 532.437 317.265C529.597 317.446 524.678 317.271 523.431 313.906Z" fill="#DE8864"/>
<path d="M557.446 290.427C557.171 290.28 556.866 290.201 556.555 290.195C556.243 290.189 555.935 290.257 555.655 290.393C555.375 290.529 555.131 290.729 554.943 290.978C554.755 291.227 554.629 291.516 554.574 291.824C554.306 294.413 554.649 297.03 555.575 299.462C556.808 302.538 556.955 305.943 555.991 309.114C555.479 310.58 555.259 312.258 555.938 313.61C557.818 312.491 559.518 311.092 560.978 309.462C562.779 307.239 560.868 302.212 560.285 300.299C559.759 298.555 558.461 293.106 557.446 290.427Z" fill="#EEC6B5"/>
<path d="M526.041 301.593C526.019 304.047 532.299 304.255 532.714 302.241C533.891 302.935 541.258 307.426 542.828 308.421C544.399 309.417 550.579 312.746 550.653 309.393C550.754 305.154 550.514 302.658 550.445 299.395C549.752 298.354 548.476 294.387 546.773 293.005C545.905 292.406 544.872 292.091 543.818 292.104C542.763 292.117 541.739 292.458 540.885 293.078C539.222 291.273 535.534 290.066 533.04 292.01C531.378 290.413 527.723 290.925 526.476 292.314C526.305 293.799 526.077 297.517 526.041 301.593Z" fill="#EEC6B5"/>
<path d="M310.3 342.888C308.911 342.702 295.799 340.851 293.582 340.11C291.365 339.37 279.45 322.885 277.511 320.759C275.572 318.634 279.542 317.241 281.944 319.278C284.346 321.315 287.763 325.064 288.964 326.083C288.871 321.268 288.859 317.194 288.865 315.203C288.871 312.935 293.49 313.078 294.486 318.483C294.69 314.648 298.708 315.991 299.355 318.259C299.737 319.599 300.34 323.405 300.847 326.542C301.11 328.165 301.295 328.627 303.927 330.053C303.742 327.229 303.605 324.709 303.419 321.655C303.273 319.252 306.911 319.335 307.483 321.655C308.253 324.776 311.505 334.276 311.685 335.294L310.3 342.888Z" fill="#DE8864"/>
<path d="M288.865 315.203C288.859 317.193 288.872 321.267 288.965 326.082C287.764 325.064 284.346 321.314 281.945 319.277C279.543 317.24 275.571 318.629 277.511 320.759C279.102 322.505 287.4 333.901 291.557 338.351C293.395 338.36 296.503 338.387 297.877 338.351C299.494 338.304 304.159 339.693 303.65 339.137C303.142 338.582 296.585 333.493 296.4 332.378C296.215 331.263 294.599 320.342 294.486 318.483C293.49 313.073 288.872 312.938 288.865 315.203Z" fill="#EEC6B5"/>
<path d="M464.873 187.295C464.271 186.47 463.508 185.776 462.631 185.255C462.655 188.1 462.655 189.749 462.655 194.564C462.655 199.379 459.269 202.471 452.957 207.85C449.37 210.908 444.887 214.398 443.34 214.398C441.794 214.398 437.311 210.908 433.724 207.85C427.412 202.471 424.025 199.378 424.025 194.564C424.025 189.75 424 188.101 424.025 185.255C423.155 185.776 422.4 186.47 421.808 187.295C417.652 193.036 415.734 221.95 415.919 222.598C416.104 223.246 428.113 218.567 432.811 217.467C436.525 216.599 441.381 215.36 443.34 215.36C445.299 215.36 450.154 216.599 453.87 217.467C458.569 218.567 469.953 223.331 470.138 222.68C470.323 222.029 469.029 193.036 464.873 187.295Z" fill="#B0D0EF"/>
<path d="M469.981 223.212C469.307 223.212 467.736 222.693 463.067 221.008C459.744 219.809 455.978 218.45 453.761 217.929L452.006 217.514C448.698 216.727 444.948 215.834 443.343 215.834C441.738 215.834 437.991 216.727 434.684 217.513L432.922 217.929C430.802 218.426 427.079 219.692 423.794 220.809C417.426 222.975 416.222 223.313 415.737 223.057C415.61 222.983 415.513 222.866 415.466 222.728C415.432 222.606 415.447 222.477 415.509 222.367C415.57 222.257 415.672 222.176 415.793 222.141C415.854 222.123 415.917 222.118 415.98 222.125C416.043 222.132 416.104 222.153 416.158 222.184C416.917 222.146 420.55 220.91 423.49 219.912C426.958 218.733 430.543 217.513 432.709 217.007L434.464 216.591C437.822 215.792 441.63 214.887 443.343 214.887C445.056 214.887 448.867 215.793 452.226 216.592L453.981 217.007C456.248 217.538 460.046 218.907 463.393 220.115C466.126 221.102 469.211 222.215 469.912 222.267C469.966 222.236 470.026 222.217 470.087 222.21C470.149 222.203 470.211 222.208 470.271 222.225C470.392 222.26 470.494 222.341 470.556 222.451C470.617 222.561 470.632 222.691 470.599 222.812C470.55 222.953 470.452 223.071 470.323 223.145C470.216 223.194 470.099 223.218 469.981 223.212Z" fill="#050F3A"/>
<path d="M425.31 199.257H425.314C424.466 197.84 424.02 196.218 424.025 194.566C424.025 189.752 424 188.103 424.025 185.257C423.154 185.778 422.4 186.472 421.807 187.297C419.955 189.856 418.319 196.972 417.566 204.266C419.369 201 421.065 197.589 422.319 196.943C423.652 196.257 424.348 197.571 425.31 199.257Z" fill="#85B0DF"/>
<defs>
<filter id="filter0_f_1012_32837" x="-8" y="-8" width="765" height="771" filterUnits="userSpaceOnUse" color-interpolation-filters="sRGB">
<feFlood flood-opacity="0" result="BackgroundImageFix"/>
<feBlend mode="normal" in="SourceGraphic" in2="BackgroundImageFix" result="shape"/>
<feGaussianBlur stdDeviation="4" result="effect1_foregroundBlur_1012_32837"/>
</filter>
</defs>
</svg>
