<svg width="457" height="500" viewBox="0 0 457 500" fill="none" xmlns="http://www.w3.org/2000/svg">
<path d="M107.164 447.59C100.974 455.9 99.0635 461.45 100.784 471.06C101.924 477.41 108.173 488.68 126.743 489.44C145.313 490.2 161.034 484.7 166.344 482.05C171.654 479.4 194.004 482.62 201.584 478.26C209.164 473.9 221.523 456.23 208.803 449.25C196.083 442.27 185.383 440.78 169.553 443.34C150.423 446.43 114.954 437.12 107.164 447.59Z" fill="#080F29"/>
<path d="M111.583 476.55C108.573 477.22 106.273 468.56 106.843 465.83C107.313 463.57 110.074 464.12 110.104 466.89C110.164 473.38 112.433 476.36 111.583 476.55Z" fill="#B0D0EF"/>
<path d="M150.423 462.34C151.943 464.14 153.313 470.72 152.983 473" stroke="#092B69" stroke-width="1.3" stroke-miterlimit="10" stroke-linecap="round" stroke-linejoin="round"/>
<path d="M159.854 465.47C160.384 466.65 160.914 468.98 160.844 471.44" stroke="#092B69" stroke-width="1.3" stroke-miterlimit="10" stroke-linecap="round" stroke-linejoin="round"/>
<path d="M225.704 141.689C217.124 141.689 199.424 143.959 190.844 148.509C182.264 153.059 170.134 162.659 159.524 167.459C148.914 172.259 123.654 182.869 119.864 185.399C116.074 187.929 112.534 214.199 110.774 228.599C109.014 242.999 106.294 267.569 105.914 269.269C105.534 270.979 99.4738 273.249 98.2438 277.609C97.0138 281.969 92.5638 304.799 92.5638 304.799C92.5638 304.799 83.5639 308.869 76.6439 313.419C69.7239 317.969 63.4739 325.169 60.7239 328.199C57.9739 331.229 56.0839 341.559 60.7239 346.769C65.3639 351.979 77.2039 355.109 85.2639 355.679C93.3139 356.249 117.664 359.659 120.984 354.539C124.304 349.419 126.664 341.279 126.954 340.229C127.234 339.189 137.474 340.699 138.414 337.669C139.364 334.639 140.974 317.589 140.874 315.219C140.774 312.849 148.164 299.299 148.644 298.169C149.124 297.039 151.484 305.279 151.484 306.129C151.484 306.979 147.694 310.959 148.164 314.089C148.634 317.219 149.114 320.339 149.114 320.339C149.114 320.339 144.284 320.809 144.854 325.929C145.424 331.049 153.094 356.619 153.854 358.989C154.614 361.359 167.374 372.349 184.804 377.399C202.234 382.449 254.024 383.969 270.954 377.399C287.884 370.829 304.044 356.179 305.814 354.159C307.584 352.139 330.824 355.169 345.224 355.419C359.624 355.669 384.634 351.629 387.414 349.099C390.194 346.569 395.534 323.549 391.644 320.709C387.754 317.869 370.614 312.559 369.094 312.089C367.574 311.619 363.784 302.709 361.984 302.049C360.184 301.389 353.934 302.049 353.364 301.579C352.794 301.109 347.114 275.339 345.594 272.499C344.074 269.659 338.674 267.009 338.304 265.299C337.934 263.589 333.184 193.209 332.244 190.269C331.294 187.329 291.194 171.139 284.304 166.779C276.674 161.949 264.884 148.529 259.074 146.509C253.264 144.489 234.464 141.689 225.704 141.689Z" fill="#B0D0EF"/>
<path d="M359.794 345.44C354.114 345.25 318.484 335.59 316.404 333.69C314.324 331.8 299.354 293.9 298.974 294.47C298.594 295.04 300.114 316.07 298.974 317.02C297.834 317.97 271.314 338.24 261.834 344.68C252.364 351.12 241.944 359.84 237.964 359.46C233.984 359.08 234.934 353.78 233.604 351.5C232.274 349.23 197.034 353.58 196.844 352.45C196.654 351.32 209.284 336.03 208.154 334.7C207.014 333.37 198.554 336.53 189.464 339.94C180.374 343.35 159.524 352.82 160.094 350.55C160.664 348.28 177.524 337.1 192.874 331.41C208.224 325.73 284.764 296.36 284.394 295.41C284.014 294.46 259.004 288.02 258.244 286.88C257.794 286.21 230.104 239.2 230.104 239.2C230.104 239.2 225.694 208.14 225.734 207.68C225.814 206.54 266.894 188.27 267.404 187.03C268.474 184.44 262.734 168.52 261.014 168.7C258.864 168.92 254.284 152.73 249.224 144.24C241.374 142.86 231.414 141.68 225.714 141.68C217.134 141.68 199.434 143.95 190.854 148.5C182.274 153.05 170.144 162.65 159.534 167.45C148.924 172.25 123.664 182.86 119.874 185.39C116.084 187.92 112.544 214.19 110.784 228.59C109.014 242.99 106.304 267.56 105.924 269.26C105.544 270.97 99.4837 273.24 98.2537 277.6C97.0237 281.96 92.5737 304.79 92.5737 304.79C92.5737 304.79 83.5737 308.86 76.6537 313.41C69.7337 317.96 64.0136 324.59 60.7336 328.19C57.9836 331.21 56.0936 341.55 60.7336 346.76C65.3736 351.97 77.2137 355.1 85.2737 355.67C93.3237 356.24 117.674 359.65 120.994 354.53C124.314 349.41 126.674 341.27 126.964 340.22C127.244 339.18 137.484 340.69 138.424 337.66C139.374 334.63 140.984 317.58 140.884 315.21C140.794 312.84 148.174 299.29 148.654 298.16C149.134 297.03 151.494 305.27 151.494 306.12C151.494 306.97 147.704 310.95 148.174 314.08C148.644 317.21 149.124 320.33 149.124 320.33C149.124 320.33 144.294 320.8 144.864 325.92C145.434 331.04 153.104 356.61 153.864 358.98C154.624 361.35 167.384 372.34 184.814 377.39C202.244 382.44 254.034 383.96 270.964 377.39C287.894 370.82 304.054 356.17 305.824 354.15C307.594 352.13 330.834 355.16 345.234 355.41C352.734 355.54 363.104 354.51 371.724 353.13C369.404 349.24 363.094 345.55 359.794 345.44Z" fill="#85B0DF"/>
<path d="M28.6939 302.71C27.1939 300.88 24.4039 300.69 22.7539 303.85C22.7539 303.85 26.6539 318.49 27.4139 317.21C28.1739 315.93 28.8839 313.39 29.6439 310.86C30.3939 308.33 30.0439 304.37 28.6939 302.71Z" fill="#DE8864"/>
<path d="M69.5935 354.3C74.6235 354.43 78.0835 352.36 78.3335 347.93C78.5835 343.51 77.2334 333.06 67.1734 328.19C64.2134 326.76 37.0535 324.73 37.0535 324.73C37.0535 324.73 34.2235 321.95 29.8935 321.82C28.5035 319.1 24.2735 305.36 22.7535 302.07C21.2335 298.79 16.0935 298.06 16.5335 301.54C17.0635 305.69 24.6535 338.96 25.4135 340.85C26.1635 342.75 61.9935 354.1 69.5935 354.3Z" fill="#EEC6B5"/>
<path d="M18.7937 313.25C17.4237 316.17 16.5037 319.01 15.4837 321.41C13.4937 319.34 9.61366 313.58 6.57366 312.25C2.65366 310.54 -1.25634 312.31 0.383657 315.6C2.02366 318.88 18.9537 343.26 21.1037 344.15C23.2537 345.04 63.1137 354.31 69.5837 354.31C76.0537 354.31 77.4737 351.58 77.8537 350.18C78.2337 348.78 77.1837 347.06 73.9037 348.32C70.6237 349.58 66.3237 351.6 61.0237 350.09C55.7137 348.57 42.5837 342.89 41.5737 342.26C40.5637 341.63 34.0536 328.05 31.3436 325.97C28.7336 323.96 26.2937 324.37 27.4237 326.63C28.5637 328.88 36.0837 342.61 35.9837 343.07C35.8837 343.53 24.6137 338.05 24.2937 336.77C23.9737 335.49 19.4937 316.36 18.7937 313.25Z" fill="#DE8864"/>
<path d="M29.7737 310.48C30.6137 312.64 34.5137 322.559 34.6037 323.079C40.7637 326.679 40.9937 330 43.7937 334.5C47.5437 334.27 53.4237 332.64 58.3637 332.94C62.7937 333.2 67.2737 336.07 71.7537 340.24C71.9737 337.84 70.2037 329.75 64.6837 325.969C57.8637 321.299 50.6637 319.019 44.5337 318.139C41.6537 312.599 37.5837 305.9 34.8737 302.93C32.7037 300.55 29.6337 301.09 28.6837 302.73C27.7437 304.35 28.6937 307.68 29.7737 310.48Z" fill="#DE8864"/>
<path d="M65.5735 353.81C65.1936 351.85 24.7135 343.58 23.0635 343.05C21.4235 342.52 16.6636 330.02 15.7336 328.23C15.0936 326.99 4.20354 318.7 0.373535 315.56C0.383535 315.57 0.383545 315.58 0.383545 315.6C2.02354 318.88 18.9535 343.26 21.1035 344.15C22.9735 344.92 53.4635 352.05 65.5635 353.88C65.5735 353.85 65.5735 353.83 65.5735 353.81Z" fill="#090E22"/>
<path d="M27.1937 325.27C27.1137 323.81 28.4837 321.72 31.1537 321.98C34.7737 322.32 38.1438 325.16 40.0538 328.28C41.9638 331.4 42.8738 332.95 43.8038 334.5C48.5238 333.13 52.6937 332.4 57.8737 332.9C65.2437 333.61 68.5438 336.95 71.7638 340.23" stroke="#090E22" stroke-width="1.3" stroke-miterlimit="10" stroke-linecap="round" stroke-linejoin="round"/>
<path d="M75.3936 318.53C92.6336 323.27 93.0136 338.69 94.1536 346.76" stroke="#050F3A" stroke-width="1.3" stroke-miterlimit="10" stroke-linecap="round" stroke-linejoin="round"/>
<path d="M127.314 336.91C127.314 336.91 127.944 330.4 126.744 318.53C130.724 326.17 134.704 335.2 134.704 335.2" stroke="#050F3A" stroke-width="1.3" stroke-miterlimit="10" stroke-linecap="round" stroke-linejoin="round"/>
<path d="M140.443 241.61C144.863 284.56 148.623 298.17 148.623 298.17C148.623 298.17 142.803 287.65 138.473 275.96C135.333 267.48 132.723 254 132.733 246.92" stroke="#050F3A" stroke-width="1.3" stroke-miterlimit="10" stroke-linecap="round" stroke-linejoin="round"/>
<path d="M116.574 255.88C114.164 259.6 111.394 264.34 105.554 269.89C103.804 271.55 100.234 274.19 99.4336 275.27" stroke="#050F3A" stroke-width="1.3" stroke-miterlimit="10" stroke-linecap="round" stroke-linejoin="round"/>
<path d="M158.003 324.6C160.083 323.46 203.853 307.36 206.513 306.98" stroke="#050F3A" stroke-width="1.3" stroke-miterlimit="10" stroke-linecap="round" stroke-linejoin="round"/>
<path d="M167.474 327.72C168.994 327.06 191.534 318.53 203.854 315.78" stroke="#050F3A" stroke-width="1.3" stroke-miterlimit="10" stroke-linecap="round" stroke-linejoin="round"/>
<path d="M242.134 342.601C244.214 340.891 274.154 323.461 277.944 321.761" stroke="#050F3A" stroke-width="1.3" stroke-miterlimit="10" stroke-linecap="round" stroke-linejoin="round"/>
<path d="M291.014 249C292.534 250.71 298.214 261.69 297.454 263.02C296.694 264.35 293.354 263.78 294.264 267C295.174 270.22 299.024 292.77 298.964 294.47" stroke="#050F3A" stroke-width="1.3" stroke-miterlimit="10" stroke-linecap="round" stroke-linejoin="round"/>
<path d="M334.023 304.321C334.973 303.371 343.113 299.391 344.633 299.391" stroke="#050F3A" stroke-width="1.3" stroke-miterlimit="10" stroke-linecap="round" stroke-linejoin="round"/>
<path d="M330.423 327.72C331.183 324.97 342.453 305.27 354.483 302.99" stroke="#050F3A" stroke-width="1.3" stroke-miterlimit="10" stroke-linecap="round" stroke-linejoin="round"/>
<path d="M356.194 339.94C355.244 329.52 360.934 316.4 370.784 314.36" stroke="#050F3A" stroke-width="1.3" stroke-miterlimit="10" stroke-linecap="round" stroke-linejoin="round"/>
<path d="M332.893 347.9C328.153 347.14 311.294 345.06 310.154 344.87C309.014 344.68 302.003 324.79 301.433 323.84C300.863 322.89 299.544 322.89 299.724 324.6C299.904 326.31 299.683 337.48 299.703 338.62C299.723 339.76 281.344 347.71 276.604 349.61C271.864 351.5 262.964 360.03 258.414 361.55C253.864 363.07 243.063 366.48 236.813 365.53C230.563 364.58 221.324 357.93 217.104 358.14C212.884 358.35 189.064 360.22 186.594 359.28C184.134 358.33 189.243 351.7 190.763 350.19C192.283 348.67 192.653 345.83 188.873 346.78C185.083 347.73 162.453 360 156.313 358.76C155.273 358.55 154.423 358.53 153.583 358.23C153.733 358.71 153.763 358.81 153.823 359C154.583 361.37 167.343 372.36 184.773 377.41C202.203 382.46 253.993 383.98 270.923 377.41C287.853 370.84 322.803 354.22 336.313 355.04L335.844 350.74C338.214 349.85 337.623 348.66 332.893 347.9Z" fill="#050F3A"/>
<path d="M427.604 293.25C429.104 291.42 431.894 291.23 433.544 294.39C433.544 294.39 429.644 309.03 428.884 307.75C428.124 306.47 427.414 303.93 426.654 301.4C425.894 298.87 426.244 294.9 427.604 293.25Z" fill="#DE8864"/>
<path d="M386.694 344.83C381.664 344.96 378.204 342.89 377.954 338.46C377.704 334.04 379.054 323.59 389.114 318.72C392.074 317.29 419.234 315.26 419.234 315.26C419.234 315.26 422.064 312.48 426.394 312.35C427.784 309.63 432.014 295.89 433.534 292.6C435.054 289.31 440.194 288.59 439.754 292.07C439.224 296.22 431.634 329.49 430.874 331.38C430.124 333.29 394.294 344.63 386.694 344.83Z" fill="#EEC6B5"/>
<path d="M437.494 303.78C438.864 306.7 439.784 309.54 440.804 311.94C442.794 309.87 446.674 304.11 449.714 302.78C453.634 301.07 457.544 302.84 455.904 306.13C454.264 309.41 437.334 333.79 435.184 334.68C433.034 335.56 393.174 344.84 386.704 344.84C380.234 344.84 378.814 342.11 378.434 340.71C378.054 339.31 379.104 337.59 382.384 338.85C385.664 340.11 389.964 342.13 395.264 340.62C400.564 339.11 413.704 333.42 414.714 332.79C415.724 332.16 422.234 318.58 424.944 316.5C427.554 314.49 429.994 314.9 428.864 317.16C427.724 319.41 420.204 333.14 420.304 333.6C420.404 334.06 431.674 328.58 431.994 327.3C432.314 326.02 436.804 306.89 437.494 303.78Z" fill="#DE8864"/>
<path d="M426.514 301.02C425.674 303.18 421.774 313.1 421.684 313.62C415.524 317.22 415.294 320.54 412.494 325.04C408.744 324.81 402.864 323.18 397.924 323.48C393.494 323.74 389.014 326.61 384.534 330.78C384.314 328.38 386.084 320.29 391.604 316.51C398.424 311.84 405.624 309.56 411.754 308.68C414.634 303.14 418.704 296.44 421.414 293.47C423.584 291.09 426.654 291.63 427.604 293.27C428.544 294.89 427.604 298.22 426.514 301.02Z" fill="#DE8864"/>
<path d="M390.004 344.3C390.384 342.34 431.574 334.11 433.224 333.58C434.864 333.05 439.624 320.55 440.554 318.76C441.194 317.52 452.084 309.23 455.914 306.09C455.904 306.1 455.904 306.11 455.904 306.13C454.264 309.41 437.334 333.79 435.184 334.68C433.314 335.45 402.114 342.69 390.014 344.51C390.004 344.49 390.004 344.32 390.004 344.3Z" fill="#090E22"/>
<path d="M429.094 315.799C429.174 314.339 427.804 312.249 425.134 312.509C421.514 312.849 418.144 315.689 416.234 318.809C414.324 321.929 413.414 323.479 412.484 325.029C407.764 323.659 403.594 322.929 398.414 323.429C391.044 324.139 387.744 327.479 384.524 330.759" stroke="#090E22" stroke-width="1.3" stroke-miterlimit="10" stroke-linecap="round" stroke-linejoin="round"/>
<path d="M252.104 116.93C252.104 117.31 252.104 165.31 252.104 165.31C252.104 165.31 240.354 183.5 225.704 183.5C211.054 183.5 199.304 165.31 199.304 165.31C199.304 165.31 199.304 117.31 199.304 116.93H252.104Z" fill="#EEC6B5"/>
<path d="M199.313 165.309C199.313 165.309 210.344 182.389 224.354 183.449C224.284 179.109 226.223 170.639 227.383 166.319C228.673 161.519 226.983 158.489 224.583 154.699C222.183 150.909 221.423 148.509 224.583 145.859C227.743 143.209 242.263 133.479 245.303 131.459C248.333 129.439 245.724 129.349 243.224 129.559C242.004 129.659 241.173 122.919 240.693 116.939H199.333C199.313 117.309 199.313 165.309 199.313 165.309Z" fill="#DE8864"/>
<path d="M199.313 159.04C200.413 157.74 201.083 155.27 201.083 152.8C201.083 148.38 201.713 142.95 204.743 139.39C207.773 135.84 214.213 136.88 218.263 138.52C222.303 140.16 223.824 140.16 228.474 138.52C233.124 136.88 239.233 133.09 241.013 131.83C242.803 130.57 241.523 130.44 241.013 129.73C240.633 129.21 237.003 120.85 235.133 116.92H199.313C199.313 117.23 199.313 146.03 199.313 159.04Z" fill="#080F29"/>
<path d="M233.024 174.96H216.724L214.074 183.48L221.264 195H230.554L237.374 183.48L233.024 174.96Z" fill="#2171C5"/>
<path d="M199.313 174.96C199.313 174.96 206.863 181.05 214.073 183.48C221.293 185.9 231.613 185.23 237.383 183.48C243.153 181.73 255.784 174.96 255.784 174.96H199.313Z" fill="#2171C5"/>
<path d="M255.174 136.89C254.334 135.74 253.304 134.82 252.104 134.11C252.134 137.99 252.134 140.24 252.134 146.81C252.134 153.38 247.504 157.6 238.874 164.94C233.964 169.11 227.834 173.87 225.724 173.87C223.614 173.87 217.474 169.11 212.574 164.94C203.944 157.6 199.314 153.38 199.314 146.81C199.314 140.24 199.314 137.99 199.344 134.11C198.154 134.83 197.114 135.74 196.274 136.89C190.594 144.72 188.824 184.28 189.074 185.16C189.324 186.04 204.894 179.55 211.324 178.05C216.404 176.87 223.044 175.17 225.724 175.17C228.404 175.17 235.044 176.86 240.124 178.05C246.554 179.55 262.124 186.05 262.374 185.16C262.624 184.28 260.854 144.72 255.174 136.89Z" fill="#B0D0EF"/>
<path d="M225.884 377.399C201.884 377.399 176.164 364.599 158.004 359.209C142.844 355.289 114.104 354.159 109.504 353.899C84.4739 350.049 71.3039 351.67 57.3039 355.26C50.2539 357.06 34.1839 371.209 34.2139 391.039C34.2339 408.989 43.2339 424.24 51.1639 427.01C60.2939 430.19 71.6139 432.99 75.4039 434.75C79.1939 436.52 98.9639 450.79 112.164 453.26C125.414 455.73 152.714 460.269 152.714 460.269C152.714 460.269 229.004 499.359 231.034 499.359C233.064 499.359 249.474 485.28 249.984 483.76C250.494 482.24 254.274 446.619 254.274 446.619C254.274 446.619 266.904 456.469 270.944 456.979C274.984 457.489 320.714 439.799 330.434 436.519C340.164 433.239 390.184 418.329 394.984 416.31C399.784 414.29 403.574 407.22 404.584 405.45C405.594 403.68 412.164 403.929 413.424 402.169C414.554 400.589 415.504 391.22 417.274 389.7C419.044 388.18 421.264 385.739 421.264 385.739C421.264 385.739 420.754 362.249 414.194 355.419C407.634 348.589 395.504 342.159 377.054 342.599C358.614 343.039 339.164 349.359 336.884 350.369C334.614 351.379 304.044 359.719 286.864 367.039C269.664 374.359 249.884 377.399 225.884 377.399Z" fill="#092B69"/>
<path d="M254.004 443.33L383.604 381.77" stroke="#050F3A" stroke-width="3" stroke-miterlimit="10" stroke-linecap="round" stroke-linejoin="round"/>
<path d="M295.054 389.14C298.214 386.99 334.214 371.71 336.234 370.7C338.254 369.69 337.514 366.78 333.654 367.29C329.794 367.8 312.994 369.44 311.734 369.44C310.474 369.44 327.824 353.18 329.814 352.58C319.264 355.75 299.454 361.67 286.844 367.04C269.664 374.37 249.884 377.4 225.884 377.4C201.884 377.4 176.164 364.6 158.004 359.21C149.284 356.63 131.904 355.15 125.894 354.88C133.264 359.71 153.684 374.76 154.344 376.39C155.104 378.28 137.794 374.24 131.484 372.98C125.174 371.72 115.824 370.96 115.444 371.97C115.064 372.98 136.034 380.81 151.314 389.53C166.594 398.25 188.454 413.28 189.464 414.41C190.474 415.55 182.774 413.73 174.684 412.56C166.604 411.38 164.074 411.51 162.054 411.76C160.034 412.01 173.804 414.03 190.474 417.44C207.144 420.85 232.414 428.68 234.434 429.31C236.224 429.87 250.664 445.61 253.984 449.24C254.164 447.6 254.264 446.61 254.264 446.61C254.264 446.61 254.744 446.98 255.534 447.58C255.884 446.11 255.944 444.32 254.674 443.33C252.244 441.44 238.224 427.92 237.724 427.29C237.224 426.66 291.904 391.29 295.054 389.14Z" fill="#050F3A"/>
<path d="M191.543 73.3501C190.173 72.1401 185.453 73.4001 186.353 78.6601C187.443 85.0101 189.833 96.0901 191.543 98.9301C193.253 101.77 195.903 102.91 197.223 101.39C198.553 99.8801 193.243 74.8601 191.543 73.3501Z" fill="#DE8864"/>
<path d="M229.314 134.11C238.404 134.11 256.074 122.8 257.274 117.7C259.144 109.8 263.204 69.1201 263.424 51.1901C263.594 36.9501 256.594 26.0801 227.134 26.0801C197.674 26.0801 190.674 36.9501 190.844 51.1901C191.064 69.1201 195.124 109.8 196.994 117.7C198.194 122.8 215.864 134.11 224.954 134.11H229.314Z" fill="#EEC6B5"/>
<path d="M231.834 108.22C227.774 108.13 225.404 109.64 225.204 109.04C225.014 108.5 225.284 106.28 224.984 104.52C224.754 103.18 220.884 101.9 220.784 100.64C220.624 98.5099 222.554 85.6099 222.674 78.1599C222.804 70.7099 218.724 68.7399 212.564 66.9199C206.114 65.0099 200.394 69.2099 199.304 68.1499C197.434 66.3299 199.174 61.3599 199.684 57.9499C200.194 54.5399 201.394 48.9799 202.024 43.1199C202.514 38.5799 205.114 38.9999 206.384 37.1099L206.874 28.6299C194.244 32.6499 190.724 41.0699 190.844 51.1999C191.064 69.1299 195.124 109.81 196.994 117.71C198.054 122.22 212.004 131.58 221.494 133.69C218.504 132.5 218.494 127.72 219.204 124.46C219.774 121.82 222.814 120.88 223.184 120.31C223.804 119.36 223.654 117.42 223.184 116.62C222.894 116.13 221.764 115.67 220.624 115.2C218.974 114.53 219.334 111.66 220.784 111.77C223.514 111.98 226.114 111.89 227.594 111.75C232.594 111.29 237.454 111.77 237.894 111.33C238.344 110.87 234.584 108.28 231.834 108.22Z" fill="#DE8864"/>
<path d="M199.314 68.1396C198.824 67.1096 204.144 64.4496 210.594 65.2596C215.134 65.8296 218.964 68.0796 218.994 69.3696C219.014 69.9696 215.164 69.4496 209.644 69.1796C202.604 68.8496 199.584 68.7096 199.314 68.1396Z" fill="#080F29"/>
<path d="M251.854 31.9199C251.344 30.7199 246.484 32.8299 241.494 35.7099C235.814 38.9899 228.864 45.0599 219.384 45.0599C209.384 45.0599 208.264 41.2699 203.464 42.5299C198.704 43.7799 195.004 51.1199 193.994 56.9299C192.984 62.7399 193.464 83.0699 193.874 87.8799C194.284 92.6899 192.604 92.5499 191.844 87.8799C191.084 83.2099 189.194 65.6499 188.684 63.3799C188.174 61.1099 183.734 57.3999 184.514 49.1099C184.894 45.0699 186.744 41.9699 187.164 40.2699C187.414 39.2599 181.384 36.7599 185.644 28.5199C187.534 24.8599 199.154 18.8899 219.614 17.8799C243.584 16.6999 253.414 28.7799 254.614 29.6499C255.654 30.4099 269.894 30.6599 272.174 45.3099C273.994 57.0499 269.384 75.1499 269.004 76.6699C268.034 74.3899 263.404 72.5899 262.654 75.6799C261.874 78.8999 261.664 79.3699 261.024 79.3999C259.914 79.4399 259.544 76.2599 260.804 72.0899C261.784 68.8499 262.574 68.5499 262.854 64.2699C263.064 61.0399 261.304 57.5699 255.114 53.0199C248.924 48.4699 243.624 46.8299 243.994 41.7799C244.654 33.3599 252.524 33.4999 251.854 31.9199Z" fill="#080F29"/>
<path d="M247.373 66.3396C244.553 66.1796 235.423 66.8696 234.243 68.8596C233.733 69.7296 232.143 74.0496 233.543 75.3096C234.803 76.4496 236.383 74.8396 239.693 71.8896C242.523 69.3796 245.353 68.3596 247.373 68.2996C249.393 68.2396 249.073 66.4396 247.373 66.3396Z" fill="#DE8864"/>
<path d="M237.523 79.5394C239.233 79.7294 245.603 80.0894 248.003 79.7894C250.403 79.4894 251.473 78.6494 251.473 78.6494" stroke="#DE8864" stroke-width="1.5" stroke-miterlimit="10" stroke-linecap="round" stroke-linejoin="round"/>
<path d="M263.254 74.6303C264.934 73.1603 269.814 73.4003 268.914 78.6603C267.824 85.0103 265.434 96.0903 263.724 98.9303C262.014 101.77 259.364 102.91 258.044 101.39C256.714 99.8803 261.534 76.1203 263.254 74.6303Z" fill="#EEC6B5"/>
<path d="M253.774 68.8103C254.264 67.7803 247.814 65.1403 241.624 65.2703C237.044 65.3703 234.144 68.0802 234.104 69.3802C234.084 69.9802 237.934 69.3502 243.454 69.1902C249.964 69.0002 253.504 69.3703 253.774 68.8103Z" fill="#080F29"/>
<path d="M190.844 160.06C189.424 172.32 188.944 184.67 189.084 185.16C189.334 186.04 204.904 179.55 211.334 178.05C216.414 176.87 223.054 175.17 225.734 175.17C228.414 175.17 235.054 176.86 240.134 178.05C246.564 179.55 262.134 186.05 262.384 185.16" stroke="#050F3A" stroke-width="1.3" stroke-miterlimit="10" stroke-linecap="round" stroke-linejoin="round"/>
<path d="M201.063 153.21C199.913 151.21 199.303 149.16 199.303 146.8C199.303 140.23 199.303 137.98 199.333 134.1C198.143 134.82 197.103 135.73 196.263 136.88C193.733 140.37 191.853 150.08 190.833 160.03C193.293 155.57 195.254 150.92 196.974 150.04C198.804 149.12 199.753 150.91 201.063 153.21Z" fill="#85B0DF"/>
<path d="M394.974 416.3C399.774 414.28 403.564 407.21 404.574 405.44C404.704 405.21 404.934 405.02 405.224 404.85C401.334 405.47 388.233 407.23 374.253 408.73C360.103 410.25 344.633 400.59 344.633 400.59L255.073 442.83C254.173 443.25 254.024 444.94 254.214 446.99C254.244 446.76 254.253 446.62 254.253 446.62C254.253 446.62 274.664 456.48 278.704 456.99C282.744 457.5 320.674 443.29 330.574 438.83C339.944 434.61 390.174 418.32 394.974 416.3Z" fill="#050F3A"/>
<path d="M264.364 479.84C265.434 481.63 267.274 485.78 272.074 486.79C276.874 487.8 305.424 486.92 309.334 486.79C313.244 486.66 327.184 489.32 337.334 488.68C347.484 488.05 359.734 483.63 364.034 479.84C368.324 476.05 372.624 471.88 373.124 467.71C373.634 463.54 372.994 456.76 368.954 451.04C364.844 445.23 356.484 437.52 342.424 437.52C329.414 437.52 323.544 441.65 315.644 442.7C306.174 443.96 298.974 444.34 289.874 444.59C280.774 444.84 272.324 445.36 268.024 449.24C258.174 458.11 261.944 475.81 264.364 479.84Z" fill="#080F29"/>
<path d="M369.524 471.31C369.844 467.27 369.654 459.63 365.984 454.19C361.164 447.04 355.594 443.18 346.094 441.16C337.334 439.29 330.014 440.99 324.874 442.07C323.674 442.32 327.594 440.55 331.754 439.92C335.924 439.29 343.514 438.32 350.574 440.21C358.024 442.2 365.034 446.93 368.764 453.25C373.964 462.06 369.964 470.87 369.524 471.31Z" fill="#132B5D"/>
<path d="M281.034 456.899C283.564 463.149 283.564 471.899 281.034 477.059" stroke="#092B69" stroke-width="1.3" stroke-miterlimit="10" stroke-linecap="round" stroke-linejoin="round"/>
<path d="M288.994 457.539C291.524 463.389 291.524 471.579 288.994 476.409" stroke="#092B69" stroke-width="1.3" stroke-miterlimit="10" stroke-linecap="round" stroke-linejoin="round"/>
<path d="M296.954 458.81C299.484 463.88 299.484 470.97 296.954 475.16" stroke="#092B69" stroke-width="1.3" stroke-miterlimit="10" stroke-linecap="round" stroke-linejoin="round"/>
<path d="M83.4036 409.29C94.1536 416.04 109.504 432.97 108.234 435.24C106.974 437.51 74.8936 431.7 74.1836 434.23C74.6336 434.4 75.0536 434.57 75.3936 434.73C79.1836 436.5 98.9536 450.77 112.154 453.24C125.404 455.71 152.704 460.25 152.704 460.25C152.704 460.25 228.994 499.34 231.024 499.34C233.054 499.34 249.464 485.26 249.974 483.74C249.974 483.74 116.834 427.66 77.6836 401.13C74.2936 398.86 74.8436 403.92 83.4036 409.29Z" fill="#050F3A"/>
<path d="M250.384 481.039C253.664 481.549 264.364 483.119 267.264 482.989C270.174 482.859 277.824 475.819 277.874 467.329C277.914 460.389 274.714 451.919 271.934 450.149C269.154 448.379 254.254 446.609 254.254 446.609L250.384 481.039Z" fill="#050F3A"/>
<path d="M364.294 461.15C363.504 461.98 363.454 458.8 360.624 454.57C359.344 452.66 361.624 451.66 363.204 453.43C364.784 455.21 365.374 460.02 364.294 461.15Z" fill="#B0D0EF"/>
<path d="M417.264 389.69C419.034 388.17 421.254 385.729 421.254 385.729C418.984 386.989 384.244 398.99 384.244 398.99C384.644 400.75 406.854 393.15 417.264 389.69Z" fill="#050F3A"/>
<path d="M242.933 346.92C243.063 348.53 242.774 350.14 242.094 351.6C238.834 358.58 228.854 379.41 225.894 379.41C222.934 379.41 212.954 358.58 209.694 351.6C209.014 350.14 208.724 348.52 208.854 346.92L221.274 195H230.524L242.933 346.92Z" fill="#2171C5"/>
<path d="M234.373 367.19L209.043 344.45" stroke="#050F3A" stroke-width="1.3" stroke-miterlimit="10" stroke-linecap="round" stroke-linejoin="round"/>
<path d="M209.534 338.42L236.664 362.77" stroke="#050F3A" stroke-width="1.3" stroke-miterlimit="10" stroke-linecap="round" stroke-linejoin="round"/>
<path d="M211.744 311.38L242.264 338.78" stroke="#050F3A" stroke-width="1.3" stroke-miterlimit="10" stroke-linecap="round" stroke-linejoin="round"/>
<path d="M212.233 305.35L241.693 331.8" stroke="#050F3A" stroke-width="1.3" stroke-miterlimit="10" stroke-linecap="round" stroke-linejoin="round"/>
<path d="M214.443 278.31L239.133 300.47" stroke="#050F3A" stroke-width="1.3" stroke-miterlimit="10" stroke-linecap="round" stroke-linejoin="round"/>
<path d="M214.943 272.279L238.563 293.489" stroke="#050F3A" stroke-width="1.3" stroke-miterlimit="10" stroke-linecap="round" stroke-linejoin="round"/>
<path d="M217.153 245.24L236.003 262.16" stroke="#050F3A" stroke-width="1.3" stroke-miterlimit="10" stroke-linecap="round" stroke-linejoin="round"/>
<path d="M217.644 239.21L235.434 255.18" stroke="#050F3A" stroke-width="1.3" stroke-miterlimit="10" stroke-linecap="round" stroke-linejoin="round"/>
<path d="M228.323 176.01L213.883 182.79" stroke="#050F3A" stroke-width="1.3" stroke-miterlimit="10" stroke-linecap="round" stroke-linejoin="round"/>
<path d="M216.764 186.759L236.154 177.649" stroke="#050F3A" stroke-width="1.3" stroke-miterlimit="10" stroke-linecap="round" stroke-linejoin="round"/>
<path d="M233.434 189.35L221.264 195" stroke="#050F3A" stroke-width="1.3" stroke-miterlimit="10" stroke-linecap="round" stroke-linejoin="round"/>
<path d="M219.854 212.17L232.873 223.86" stroke="#050F3A" stroke-width="1.3" stroke-miterlimit="10" stroke-linecap="round" stroke-linejoin="round"/>
<path d="M220.344 206.14L232.304 216.87" stroke="#050F3A" stroke-width="1.3" stroke-miterlimit="10" stroke-linecap="round" stroke-linejoin="round"/>
<path d="M221.264 195H230.104" stroke="#050F3A" stroke-width="1.3" stroke-miterlimit="10" stroke-linecap="round" stroke-linejoin="round"/>
<path d="M303.694 27.08L230.294 0.339996C229.674 0.109996 229.024 0 228.374 0C227.724 0 227.074 0.109996 226.454 0.339996L153.054 27.08C152.284 27.36 152.284 28.45 153.054 28.74L184.404 40.16C183.864 46.55 184.564 56.29 184.974 56.01C192.654 50.67 204.374 45.91 228.374 45.91C252.374 45.91 264.734 51.12 272.424 56.46C272.834 56.74 272.884 46.55 272.344 40.17L303.694 28.75C304.474 28.46 304.474 27.36 303.694 27.08Z" fill="#092B69"/>
<path d="M262.654 28.37C264.784 27.79 266.414 25.61 262.824 23.78C255.154 19.87 242.504 17.76 228.384 17.76C223.414 17.72 229.094 10.66 230.764 7.49001C232.434 4.32001 232.644 1.19999 230.334 0.349991L230.304 0.339996C229.684 0.109996 229.034 0 228.384 0C227.734 0 227.084 0.109996 226.464 0.339996L153.064 27.08C152.294 27.36 152.294 28.45 153.064 28.74L184.414 40.16C183.874 46.55 184.574 56.29 184.984 56.01C192.614 50.71 204.234 45.97 227.914 45.91C239.444 30.25 259.984 29.11 262.654 28.37Z" fill="#050F3A"/>
<path d="M303.713 28.0098C303.713 30.0898 305.423 72.7298 305.793 74.8098" stroke="#CC9F3B" stroke-width="1.3" stroke-miterlimit="10" stroke-linecap="round" stroke-linejoin="round"/>
<path d="M308.453 75.3098C308.453 73.5298 307.263 72.0898 305.803 72.0898C304.343 72.0898 303.154 73.5298 303.154 75.3098C303.154 76.3098 303.533 77.1898 304.123 77.7798C303.903 81.3698 303.234 92.2298 303.154 93.0198C303.064 93.9698 304.953 93.5898 305.233 94.5398C305.513 95.4898 305.233 96.6198 305.233 97.1898C305.233 97.7598 308.643 97.5698 308.453 95.8598C308.303 94.4698 307.643 82.7398 307.303 77.9498C307.993 77.3798 308.453 76.4098 308.453 75.3098Z" fill="#CC9F3B"/>
<path d="M244.428 81.5981C249.897 81.1636 254.17 78.8052 253.974 76.3304C253.778 73.8556 249.186 72.2016 243.718 72.6361C238.249 73.0706 233.976 75.4291 234.172 77.9039C234.368 80.3787 238.96 82.0326 244.428 81.5981Z" fill="#EEC6B5"/>
<path d="M236.581 76.071C237.979 71.6249 248.83 69.6489 251.567 74.524C250.929 78.0061 240.77 80.2961 236.581 76.071Z" fill="#DFECF7"/>
<mask id="mask0_966_56136" style="mask-type:luminance" maskUnits="userSpaceOnUse" x="236" y="71" width="16" height="8">
<path d="M236.582 76.07C237.981 71.6239 248.831 69.6479 251.569 74.523C250.93 78.0051 240.771 80.2951 236.582 76.07Z" fill="white"/>
</mask>
<g mask="url(#mask0_966_56136)">
<path d="M243.878 77.4912C245.577 77.4912 246.954 76.1126 246.954 74.4121C246.954 72.7116 245.577 71.333 243.878 71.333C242.179 71.333 240.801 72.7116 240.801 74.4121C240.801 76.1126 242.179 77.4912 243.878 77.4912Z" fill="#102B68"/>
<path d="M243.878 75.7481C244.614 75.7481 245.211 75.1509 245.211 74.4141C245.211 73.6773 244.614 73.0801 243.878 73.0801C243.142 73.0801 242.545 73.6773 242.545 74.4141C242.545 75.1509 243.142 75.7481 243.878 75.7481Z" fill="#080F28"/>
</g>
<path d="M236.581 76.8166C236.46 76.8161 236.342 76.7865 236.235 76.7302C236.128 76.6739 236.036 76.5926 235.968 76.4932C235.899 76.3938 235.855 76.2793 235.84 76.1594C235.825 76.0395 235.84 75.9178 235.882 75.8045C236.742 73.4895 239.179 71.7674 242.404 71.1984C246.274 70.5154 250.097 71.6284 252.141 74.0325C252.27 74.1839 252.334 74.3804 252.318 74.5788C252.302 74.7771 252.208 74.961 252.057 75.09C251.906 75.2191 251.709 75.2826 251.511 75.2668C251.313 75.251 251.129 75.157 251 75.0055C249.318 73.0285 245.974 72.0925 242.664 72.6755C239.966 73.1505 237.96 74.5165 237.286 76.3286C237.233 76.4724 237.137 76.5963 237.01 76.6835C236.884 76.7708 236.734 76.8172 236.581 76.8166Z" fill="#DE8864"/>
<path d="M217.717 76.0664C216.319 71.6193 205.467 69.6443 202.73 74.5194C203.371 78.0015 213.528 80.2915 217.717 76.0664Z" fill="#B0D0EF"/>
<mask id="mask1_966_56136" style="mask-type:luminance" maskUnits="userSpaceOnUse" x="202" y="71" width="16" height="8">
<path d="M217.718 76.0703C216.32 71.6232 205.468 69.6482 202.731 74.5233C203.372 78.0054 213.529 80.2954 217.718 76.0703Z" fill="white"/>
</mask>
<g mask="url(#mask1_966_56136)">
<path d="M210.423 77.4912C212.122 77.4912 213.499 76.1126 213.499 74.4121C213.499 72.7116 212.122 71.333 210.423 71.333C208.724 71.333 207.347 72.7116 207.347 74.4121C207.347 76.1126 208.724 77.4912 210.423 77.4912Z" fill="#102B68"/>
<path d="M210.424 75.7481C211.16 75.7481 211.756 75.1509 211.756 74.4141C211.756 73.6773 211.16 73.0801 210.424 73.0801C209.688 73.0801 209.091 73.6773 209.091 74.4141C209.091 75.1509 209.688 75.7481 210.424 75.7481Z" fill="#080F28"/>
</g>
<path d="M217.716 76.8158C217.564 76.815 217.416 76.7679 217.291 76.6807C217.166 76.5936 217.071 76.4705 217.017 76.3278C216.344 74.5158 214.333 73.1497 211.639 72.6747C208.336 72.0927 204.986 73.0277 203.304 75.0048C203.173 75.1484 202.991 75.2354 202.797 75.2476C202.603 75.2597 202.412 75.196 202.264 75.0699C202.116 74.9438 202.023 74.7651 202.004 74.5714C201.985 74.3778 202.041 74.1843 202.162 74.0318C204.209 71.6317 208.036 70.5157 211.899 71.1977C215.123 71.7667 217.562 73.4887 218.422 75.8038C218.464 75.917 218.478 76.0388 218.463 76.1587C218.448 76.2786 218.405 76.3931 218.336 76.4925C218.267 76.5919 218.176 76.6732 218.069 76.7295C217.962 76.7857 217.843 76.8154 217.722 76.8158H217.716Z" fill="#BC694B"/>
</svg>
