<svg width="457" height="500" viewBox="0 0 457 500" fill="none" xmlns="http://www.w3.org/2000/svg">
<path d="M107.164 447.874C100.974 456.184 99.0635 461.734 100.784 471.344C101.924 477.694 108.173 488.964 126.743 489.724C145.313 490.484 161.034 484.984 166.344 482.334C171.654 479.684 194.004 482.904 201.584 478.544C209.164 474.184 221.523 456.514 208.803 449.534C196.083 442.554 185.383 441.064 169.553 443.624C150.423 446.714 114.954 437.404 107.164 447.874Z" fill="#080F29"/>
<path d="M111.583 476.834C108.573 477.504 106.273 468.844 106.843 466.114C107.313 463.854 110.073 464.404 110.103 467.174C110.163 473.664 112.433 476.644 111.583 476.834Z" fill="#B0D0EF"/>
<path d="M150.424 462.624C151.944 464.424 153.314 471.004 152.984 473.284" stroke="#092B69" stroke-width="1.3" stroke-miterlimit="10" stroke-linecap="round" stroke-linejoin="round"/>
<path d="M159.854 465.754C160.384 466.934 160.914 469.264 160.844 471.724" stroke="#092B69" stroke-width="1.3" stroke-miterlimit="10" stroke-linecap="round" stroke-linejoin="round"/>
<path d="M225.703 141.974C217.123 141.974 199.423 144.244 190.843 148.794C182.263 153.344 170.133 162.944 159.523 167.744C148.913 172.544 123.653 183.154 119.863 185.684C116.073 188.214 112.533 214.484 110.773 228.884C109.013 243.284 106.293 267.854 105.913 269.554C105.533 271.264 99.4733 273.534 98.2433 277.894C97.0133 282.254 92.5634 305.084 92.5634 305.084C92.5634 305.084 83.5634 309.154 76.6434 313.704C69.7234 318.254 63.4734 325.454 60.7234 328.484C57.9734 331.514 56.0834 341.844 60.7234 347.054C65.3634 352.264 77.2034 355.394 85.2634 355.964C93.3134 356.534 117.663 359.944 120.983 354.824C124.303 349.704 126.663 341.564 126.953 340.514C127.233 339.474 137.473 340.984 138.413 337.954C139.363 334.924 140.973 317.874 140.873 315.504C140.773 313.134 148.163 299.584 148.643 298.454C149.123 297.324 151.483 305.564 151.483 306.414C151.483 307.264 147.693 311.244 148.163 314.374C148.633 317.504 149.113 320.624 149.113 320.624C149.113 320.624 144.283 321.094 144.853 326.214C145.423 331.334 153.093 356.904 153.853 359.274C154.613 361.644 167.373 372.634 184.803 377.684C202.233 382.734 254.023 384.254 270.953 377.684C287.883 371.114 304.043 356.464 305.813 354.444C307.583 352.424 330.823 355.454 345.223 355.704C359.623 355.954 384.633 351.914 387.413 349.384C390.193 346.854 395.533 323.834 391.643 320.994C387.753 318.154 370.613 312.844 369.093 312.374C367.573 311.904 363.783 302.994 361.983 302.334C360.183 301.674 353.933 302.334 353.363 301.864C352.793 301.394 347.113 275.624 345.593 272.784C344.073 269.944 338.673 267.294 338.303 265.584C337.933 263.874 333.183 193.494 332.243 190.554C331.293 187.614 291.193 171.424 284.303 167.064C276.673 162.234 264.883 148.814 259.073 146.794C253.263 144.774 234.463 141.974 225.703 141.974Z" fill="#B0D0EF"/>
<path d="M359.793 345.724C354.113 345.534 318.483 335.874 316.403 333.974C314.323 332.084 299.353 294.184 298.973 294.754C298.593 295.324 300.113 316.354 298.973 317.304C297.833 318.254 271.313 338.524 261.833 344.964C252.363 351.404 241.943 360.124 237.963 359.744C233.983 359.364 234.933 354.064 233.603 351.784C232.273 349.514 197.033 353.864 196.843 352.734C196.653 351.604 209.283 336.314 208.153 334.984C207.013 333.654 198.553 336.814 189.463 340.224C180.373 343.634 159.523 353.104 160.093 350.834C160.663 348.564 177.523 337.384 192.873 331.694C208.223 326.014 284.763 296.644 284.393 295.694C284.013 294.744 259.003 288.304 258.243 287.164C257.793 286.494 230.103 239.484 230.103 239.484C230.103 239.484 225.693 208.424 225.733 207.964C225.813 206.824 266.893 188.554 267.403 187.314C268.473 184.724 262.733 168.804 261.013 168.984C258.863 169.204 254.283 153.014 249.223 144.524C241.373 143.144 231.413 141.964 225.713 141.964C217.133 141.964 199.433 144.234 190.853 148.784C182.273 153.334 170.143 162.934 159.533 167.734C148.923 172.534 123.663 183.144 119.873 185.674C116.083 188.204 112.543 214.474 110.783 228.874C109.013 243.274 106.303 267.844 105.923 269.544C105.543 271.254 99.4832 273.524 98.2532 277.884C97.0232 282.244 92.5732 305.074 92.5732 305.074C92.5732 305.074 83.5732 309.144 76.6532 313.694C69.7332 318.244 64.0132 324.874 60.7332 328.474C57.9832 331.494 56.0932 341.834 60.7332 347.044C65.3732 352.254 77.2132 355.384 85.2732 355.954C93.3232 356.524 117.673 359.934 120.993 354.814C124.313 349.694 126.673 341.554 126.963 340.504C127.243 339.464 137.483 340.974 138.423 337.944C139.373 334.914 140.983 317.864 140.883 315.494C140.793 313.124 148.173 299.574 148.653 298.444C149.133 297.314 151.493 305.554 151.493 306.404C151.493 307.254 147.703 311.234 148.173 314.364C148.643 317.494 149.123 320.614 149.123 320.614C149.123 320.614 144.293 321.084 144.863 326.204C145.433 331.324 153.103 356.894 153.863 359.264C154.623 361.634 167.383 372.624 184.813 377.674C202.243 382.724 254.033 384.244 270.963 377.674C287.893 371.104 304.053 356.454 305.823 354.434C307.593 352.414 330.833 355.444 345.233 355.694C352.733 355.824 363.103 354.794 371.723 353.414C369.403 349.524 363.093 345.834 359.793 345.724Z" fill="#85B0DF"/>
<path d="M28.6939 302.994C27.1939 301.164 24.4039 300.974 22.7539 304.134C22.7539 304.134 26.6539 318.774 27.4139 317.494C28.1739 316.214 28.8839 313.674 29.6439 311.144C30.3939 308.614 30.0439 304.654 28.6939 302.994Z" fill="#DE8864"/>
<path d="M69.5935 354.584C74.6235 354.714 78.0835 352.644 78.3335 348.214C78.5835 343.794 77.2334 333.344 67.1734 328.474C64.2134 327.044 37.0535 325.014 37.0535 325.014C37.0535 325.014 34.2235 322.234 29.8935 322.104C28.5035 319.384 24.2735 305.644 22.7535 302.354C21.2335 299.074 16.0935 298.344 16.5335 301.824C17.0635 305.974 24.6535 339.244 25.4135 341.134C26.1635 343.034 61.9935 354.384 69.5935 354.584Z" fill="#EEC6B5"/>
<path d="M18.7937 313.534C17.4237 316.454 16.5037 319.294 15.4837 321.694C13.4937 319.624 9.61366 313.864 6.57366 312.534C2.65366 310.824 -1.25634 312.594 0.383657 315.884C2.02366 319.164 18.9537 343.544 21.1037 344.434C23.2537 345.324 63.1137 354.594 69.5837 354.594C76.0537 354.594 77.4737 351.864 77.8537 350.464C78.2337 349.064 77.1837 347.344 73.9037 348.604C70.6237 349.864 66.3237 351.884 61.0237 350.374C55.7137 348.854 42.5837 343.174 41.5737 342.544C40.5637 341.914 34.0536 328.334 31.3436 326.254C28.7336 324.244 26.2937 324.654 27.4237 326.914C28.5637 329.164 36.0837 342.894 35.9837 343.354C35.8837 343.814 24.6137 338.334 24.2937 337.054C23.9737 335.774 19.4937 316.644 18.7937 313.534Z" fill="#DE8864"/>
<path d="M29.7737 310.764C30.6137 312.924 34.5137 322.844 34.6037 323.364C40.7637 326.964 40.9937 330.284 43.7937 334.784C47.5437 334.554 53.4237 332.924 58.3637 333.224C62.7937 333.484 67.2737 336.354 71.7537 340.524C71.9737 338.124 70.2037 330.034 64.6837 326.254C57.8637 321.584 50.6637 319.304 44.5337 318.424C41.6537 312.884 37.5837 306.184 34.8737 303.214C32.7037 300.834 29.6337 301.374 28.6837 303.014C27.7437 304.634 28.6937 307.964 29.7737 310.764Z" fill="#DE8864"/>
<path d="M65.574 354.094C65.194 352.134 24.714 343.864 23.064 343.334C21.424 342.804 16.664 330.304 15.734 328.514C15.094 327.274 4.20402 318.984 0.374023 315.844C0.384023 315.854 0.384033 315.864 0.384033 315.884C2.02403 319.164 18.954 343.544 21.104 344.434C22.974 345.204 53.464 352.334 65.564 354.164C65.574 354.134 65.574 354.114 65.574 354.094Z" fill="#090E22"/>
<path d="M27.1937 325.554C27.1137 324.094 28.4837 322.004 31.1537 322.264C34.7737 322.604 38.1438 325.444 40.0538 328.564C41.9638 331.684 42.8738 333.234 43.8038 334.784C48.5238 333.414 52.6937 332.684 57.8737 333.184C65.2437 333.894 68.5438 337.234 71.7638 340.514" stroke="#090E22" stroke-width="1.3" stroke-miterlimit="10" stroke-linecap="round" stroke-linejoin="round"/>
<path d="M75.3936 318.814C92.6336 323.554 93.0136 338.974 94.1536 347.044" stroke="#050F3A" stroke-width="1.3" stroke-miterlimit="10" stroke-linecap="round" stroke-linejoin="round"/>
<path d="M127.313 337.194C127.313 337.194 127.943 330.684 126.743 318.814C130.723 326.454 134.703 335.484 134.703 335.484" stroke="#050F3A" stroke-width="1.3" stroke-miterlimit="10" stroke-linecap="round" stroke-linejoin="round"/>
<path d="M140.443 241.895C144.863 284.845 148.623 298.455 148.623 298.455C148.623 298.455 142.803 287.935 138.473 276.245C135.333 267.765 132.723 254.285 132.733 247.205" stroke="#050F3A" stroke-width="1.3" stroke-miterlimit="10" stroke-linecap="round" stroke-linejoin="round"/>
<path d="M116.574 256.164C114.164 259.884 111.394 264.624 105.554 270.174C103.804 271.834 100.234 274.474 99.4336 275.554" stroke="#050F3A" stroke-width="1.3" stroke-miterlimit="10" stroke-linecap="round" stroke-linejoin="round"/>
<path d="M158.004 324.885C160.084 323.745 203.854 307.645 206.514 307.265" stroke="#050F3A" stroke-width="1.3" stroke-miterlimit="10" stroke-linecap="round" stroke-linejoin="round"/>
<path d="M167.474 328.004C168.994 327.344 191.534 318.814 203.854 316.064" stroke="#050F3A" stroke-width="1.3" stroke-miterlimit="10" stroke-linecap="round" stroke-linejoin="round"/>
<path d="M242.134 342.885C244.214 341.175 274.154 323.745 277.944 322.045" stroke="#050F3A" stroke-width="1.3" stroke-miterlimit="10" stroke-linecap="round" stroke-linejoin="round"/>
<path d="M291.014 249.284C292.534 250.994 298.214 261.974 297.454 263.304C296.694 264.634 293.354 264.064 294.264 267.284C295.174 270.504 299.024 293.054 298.964 294.754" stroke="#050F3A" stroke-width="1.3" stroke-miterlimit="10" stroke-linecap="round" stroke-linejoin="round"/>
<path d="M334.023 304.605C334.973 303.655 343.113 299.675 344.633 299.675" stroke="#050F3A" stroke-width="1.3" stroke-miterlimit="10" stroke-linecap="round" stroke-linejoin="round"/>
<path d="M330.424 328.004C331.184 325.254 342.454 305.554 354.484 303.274" stroke="#050F3A" stroke-width="1.3" stroke-miterlimit="10" stroke-linecap="round" stroke-linejoin="round"/>
<path d="M356.194 340.225C355.244 329.805 360.934 316.685 370.784 314.645" stroke="#050F3A" stroke-width="1.3" stroke-miterlimit="10" stroke-linecap="round" stroke-linejoin="round"/>
<path d="M332.894 348.184C328.154 347.424 311.294 345.344 310.154 345.154C309.014 344.964 302.004 325.074 301.434 324.124C300.864 323.174 299.544 323.174 299.724 324.884C299.904 326.594 299.684 337.764 299.704 338.904C299.724 340.044 281.344 347.994 276.604 349.894C271.864 351.784 262.964 360.314 258.414 361.834C253.864 363.354 243.064 366.764 236.814 365.814C230.564 364.864 221.324 358.214 217.104 358.424C212.884 358.634 189.064 360.504 186.594 359.564C184.134 358.614 189.244 351.985 190.764 350.475C192.284 348.955 192.654 346.114 188.874 347.064C185.084 348.014 162.454 360.285 156.314 359.045C155.274 358.835 154.424 358.814 153.584 358.514C153.734 358.994 153.764 359.095 153.824 359.285C154.584 361.654 167.344 372.644 184.774 377.694C202.204 382.744 253.994 384.264 270.924 377.694C287.854 371.124 322.804 354.504 336.314 355.324L335.844 351.024C338.214 350.134 337.624 348.944 332.894 348.184Z" fill="#050F3A"/>
<path d="M427.603 293.534C429.103 291.704 431.893 291.514 433.543 294.674C433.543 294.674 429.643 309.314 428.883 308.034C428.123 306.754 427.413 304.214 426.653 301.684C425.893 299.154 426.243 295.184 427.603 293.534Z" fill="#DE8864"/>
<path d="M386.693 345.114C381.663 345.244 378.203 343.174 377.953 338.744C377.703 334.324 379.053 323.874 389.113 319.004C392.073 317.574 419.233 315.544 419.233 315.544C419.233 315.544 422.063 312.764 426.393 312.634C427.783 309.914 432.013 296.174 433.533 292.884C435.053 289.594 440.193 288.874 439.753 292.354C439.223 296.504 431.633 329.774 430.873 331.664C430.123 333.574 394.293 344.914 386.693 345.114Z" fill="#EEC6B5"/>
<path d="M437.493 304.064C438.863 306.984 439.783 309.824 440.803 312.224C442.793 310.154 446.673 304.394 449.713 303.064C453.633 301.354 457.543 303.124 455.903 306.414C454.263 309.694 437.333 334.074 435.183 334.964C433.033 335.844 393.173 345.124 386.703 345.124C380.233 345.124 378.813 342.394 378.433 340.994C378.053 339.594 379.103 337.874 382.383 339.134C385.663 340.394 389.963 342.414 395.263 340.904C400.563 339.394 413.703 333.704 414.713 333.074C415.723 332.444 422.233 318.864 424.943 316.784C427.553 314.774 429.993 315.184 428.863 317.444C427.723 319.694 420.203 333.424 420.303 333.884C420.403 334.344 431.673 328.864 431.993 327.584C432.313 326.304 436.803 307.174 437.493 304.064Z" fill="#DE8864"/>
<path d="M426.514 301.304C425.674 303.464 421.774 313.384 421.684 313.904C415.524 317.504 415.294 320.824 412.494 325.324C408.744 325.094 402.864 323.464 397.924 323.764C393.494 324.024 389.014 326.894 384.534 331.064C384.314 328.664 386.084 320.574 391.604 316.794C398.424 312.124 405.624 309.844 411.754 308.964C414.634 303.424 418.704 296.724 421.414 293.754C423.584 291.374 426.654 291.914 427.604 293.554C428.544 295.174 427.604 298.504 426.514 301.304Z" fill="#DE8864"/>
<path d="M390.003 344.584C390.383 342.624 431.573 334.394 433.223 333.864C434.863 333.334 439.623 320.834 440.553 319.044C441.193 317.804 452.083 309.514 455.913 306.374C455.903 306.384 455.903 306.394 455.903 306.414C454.263 309.694 437.333 334.074 435.183 334.964C433.313 335.734 402.113 342.974 390.013 344.794C390.003 344.774 390.003 344.604 390.003 344.584Z" fill="#090E22"/>
<path d="M429.093 316.084C429.173 314.624 427.803 312.534 425.133 312.794C421.513 313.134 418.143 315.974 416.233 319.094C414.323 322.214 413.413 323.764 412.483 325.314C407.763 323.944 403.593 323.214 398.413 323.714C391.043 324.424 387.743 327.764 384.523 331.044" stroke="#090E22" stroke-width="1.3" stroke-miterlimit="10" stroke-linecap="round" stroke-linejoin="round"/>
<path d="M252.104 117.214C252.104 117.594 252.104 165.594 252.104 165.594C252.104 165.594 240.354 183.784 225.704 183.784C211.054 183.784 199.304 165.594 199.304 165.594C199.304 165.594 199.304 117.594 199.304 117.214H252.104Z" fill="#EEC6B5"/>
<path d="M199.313 165.594C199.313 165.594 210.344 182.674 224.354 183.734C224.284 179.394 226.223 170.924 227.383 166.604C228.673 161.804 226.983 158.774 224.583 154.984C222.183 151.194 221.423 148.794 224.583 146.144C227.743 143.494 242.263 133.764 245.303 131.744C248.333 129.724 245.724 129.634 243.224 129.844C242.004 129.944 241.173 123.204 240.693 117.224H199.333C199.313 117.594 199.313 165.594 199.313 165.594Z" fill="#DE8864"/>
<path d="M199.313 159.324C200.413 158.024 201.083 155.554 201.083 153.084C201.083 148.664 201.713 143.234 204.743 139.674C207.773 136.124 214.213 137.164 218.263 138.804C222.303 140.444 223.824 140.444 228.474 138.804C233.124 137.164 239.233 133.374 241.013 132.114C242.803 130.854 241.523 130.724 241.013 130.014C240.633 129.494 237.003 121.134 235.133 117.204H199.313C199.313 117.514 199.313 146.314 199.313 159.324Z" fill="#080F29"/>
<path d="M233.023 175.244H216.723L214.073 183.764L221.263 195.284H230.553L237.373 183.764L233.023 175.244Z" fill="#2171C5"/>
<path d="M199.313 175.244C199.313 175.244 206.863 181.334 214.073 183.764C221.293 186.184 231.613 185.514 237.383 183.764C243.153 182.014 255.784 175.244 255.784 175.244H199.313Z" fill="#2171C5"/>
<path d="M255.174 137.175C254.334 136.025 253.304 135.105 252.104 134.395C252.134 138.275 252.134 140.525 252.134 147.095C252.134 153.665 247.504 157.885 238.874 165.225C233.964 169.395 227.834 174.155 225.724 174.155C223.614 174.155 217.474 169.395 212.574 165.225C203.944 157.885 199.314 153.665 199.314 147.095C199.314 140.525 199.314 138.275 199.344 134.395C198.154 135.115 197.114 136.025 196.274 137.175C190.594 145.005 188.824 184.565 189.074 185.445C189.324 186.325 204.894 179.835 211.324 178.335C216.404 177.155 223.044 175.455 225.724 175.455C228.404 175.455 235.044 177.145 240.124 178.335C246.554 179.835 262.124 186.335 262.374 185.445C262.624 184.565 260.854 145.005 255.174 137.175Z" fill="#B0D0EF"/>
<path d="M225.884 377.684C201.884 377.684 176.164 364.884 158.004 359.494C142.844 355.574 114.104 354.444 109.504 354.184C84.4739 350.334 71.3039 351.954 57.3039 355.544C50.2539 357.344 34.1839 371.494 34.2139 391.324C34.2339 409.274 43.2339 424.524 51.1639 427.294C60.2939 430.474 71.6139 433.274 75.4039 435.034C79.1939 436.804 98.9639 451.074 112.164 453.544C125.414 456.014 152.714 460.554 152.714 460.554C152.714 460.554 229.004 499.644 231.034 499.644C233.064 499.644 249.474 485.564 249.984 484.044C250.494 482.524 254.274 446.904 254.274 446.904C254.274 446.904 266.904 456.754 270.944 457.264C274.984 457.774 320.714 440.084 330.434 436.804C340.164 433.524 390.184 418.614 394.984 416.594C399.784 414.574 403.574 407.504 404.584 405.734C405.594 403.964 412.164 404.214 413.424 402.454C414.554 400.874 415.504 391.504 417.274 389.984C419.044 388.464 421.264 386.024 421.264 386.024C421.264 386.024 420.754 362.534 414.194 355.704C407.634 348.874 395.504 342.444 377.054 342.884C358.614 343.324 339.164 349.644 336.884 350.654C334.614 351.664 304.044 360.004 286.864 367.324C269.664 374.644 249.884 377.684 225.884 377.684Z" fill="#092B69"/>
<path d="M254.004 443.614L383.604 382.054" stroke="#050F3A" stroke-width="3" stroke-miterlimit="10" stroke-linecap="round" stroke-linejoin="round"/>
<path d="M295.054 389.424C298.214 387.274 334.214 371.994 336.234 370.984C338.254 369.974 337.514 367.064 333.654 367.574C329.794 368.084 312.994 369.724 311.734 369.724C310.474 369.724 327.824 353.464 329.814 352.864C319.264 356.034 299.454 361.954 286.844 367.324C269.664 374.654 249.884 377.684 225.884 377.684C201.884 377.684 176.164 364.884 158.004 359.494C149.284 356.914 131.904 355.434 125.894 355.164C133.264 359.994 153.684 375.044 154.344 376.674C155.104 378.564 137.794 374.524 131.484 373.264C125.174 372.004 115.824 371.244 115.444 372.254C115.064 373.264 136.034 381.094 151.314 389.814C166.594 398.534 188.454 413.564 189.464 414.694C190.474 415.834 182.774 414.014 174.684 412.844C166.604 411.664 164.074 411.794 162.054 412.044C160.034 412.294 173.804 414.314 190.474 417.724C207.144 421.134 232.414 428.964 234.434 429.594C236.224 430.154 250.664 445.894 253.984 449.524C254.164 447.884 254.264 446.894 254.264 446.894C254.264 446.894 254.744 447.264 255.534 447.864C255.884 446.394 255.944 444.604 254.674 443.614C252.244 441.724 238.224 428.204 237.724 427.574C237.224 426.944 291.904 391.574 295.054 389.424Z" fill="#050F3A"/>
<path d="M191.543 73.6343C190.173 72.4243 185.453 73.6843 186.353 78.9443C187.443 85.2943 189.833 96.3743 191.543 99.2143C193.253 102.054 195.903 103.194 197.223 101.674C198.553 100.164 193.243 75.1443 191.543 73.6343Z" fill="#DE8864"/>
<path d="M229.314 134.394C238.404 134.394 256.074 123.084 257.274 117.984C259.144 110.084 263.204 69.4043 263.424 51.4743C263.594 37.2343 256.594 26.3643 227.134 26.3643C197.674 26.3643 190.674 37.2343 190.844 51.4743C191.064 69.4043 195.124 110.084 196.994 117.984C198.194 123.084 215.864 134.394 224.954 134.394H229.314Z" fill="#EEC6B5"/>
<path d="M231.834 108.504C227.774 108.414 225.404 109.924 225.204 109.324C225.014 108.784 225.284 106.564 224.984 104.804C224.754 103.464 220.884 102.184 220.784 100.924C220.624 98.7941 222.554 85.894 222.674 78.444C222.804 70.994 218.724 69.0241 212.564 67.2041C206.114 65.2941 200.394 69.4941 199.304 68.4341C197.434 66.6141 199.174 61.6441 199.684 58.2341C200.194 54.8241 201.394 49.2641 202.024 43.4041C202.514 38.8641 205.114 39.2841 206.384 37.3941L206.874 28.9141C194.244 32.9341 190.724 41.3541 190.844 51.4841C191.064 69.4141 195.124 110.094 196.994 117.994C198.054 122.504 212.004 131.864 221.494 133.974C218.504 132.784 218.494 128.004 219.204 124.744C219.774 122.104 222.814 121.164 223.184 120.594C223.804 119.644 223.654 117.704 223.184 116.904C222.894 116.414 221.764 115.954 220.624 115.484C218.974 114.814 219.334 111.944 220.784 112.054C223.514 112.264 226.114 112.174 227.594 112.034C232.594 111.574 237.454 112.054 237.894 111.614C238.344 111.154 234.584 108.564 231.834 108.504Z" fill="#DE8864"/>
<path d="M199.314 68.4238C198.824 67.3938 204.144 64.7338 210.594 65.5438C215.134 66.1138 218.964 68.3638 218.994 69.6538C219.014 70.2538 215.164 69.7338 209.644 69.4638C202.604 69.1338 199.584 68.9938 199.314 68.4238Z" fill="#080F29"/>
<path d="M251.854 32.2041C251.344 31.0041 246.484 33.1141 241.494 35.9941C235.814 39.2741 228.864 45.3441 219.384 45.3441C209.384 45.3441 208.264 41.5541 203.464 42.8141C198.704 44.0641 195.004 51.4041 193.994 57.2141C192.984 63.0241 193.464 83.354 193.874 88.164C194.284 92.974 192.604 92.834 191.844 88.164C191.084 83.494 189.194 65.934 188.684 63.664C188.174 61.394 183.734 57.6841 184.514 49.3941C184.894 45.3541 186.744 42.2541 187.164 40.5541C187.414 39.5441 181.384 37.0441 185.644 28.8041C187.534 25.1441 199.154 19.1741 219.614 18.1641C243.584 16.9841 253.414 29.0641 254.614 29.9341C255.654 30.6941 269.894 30.9441 272.174 45.5941C273.994 57.3341 269.384 75.4341 269.004 76.9541C268.034 74.6741 263.404 72.8741 262.654 75.9641C261.874 79.1841 261.664 79.6541 261.024 79.6841C259.914 79.7241 259.544 76.5441 260.804 72.3741C261.784 69.1341 262.574 68.8341 262.854 64.5541C263.064 61.3241 261.304 57.8541 255.114 53.3041C248.924 48.7541 243.624 47.1141 243.994 42.0641C244.654 33.6441 252.524 33.7841 251.854 32.2041Z" fill="#080F29"/>
<path d="M247.373 66.6238C244.553 66.4638 235.423 67.1538 234.243 69.1438C233.733 70.0138 232.143 74.3338 233.543 75.5938C234.803 76.7338 236.383 75.1238 239.693 72.1738C242.523 69.6638 245.353 68.6438 247.373 68.5838C249.393 68.5238 249.073 66.7238 247.373 66.6238Z" fill="#DE8864"/>
<path d="M237.523 79.8236C239.233 80.0136 245.603 80.3736 248.003 80.0736C250.403 79.7736 251.473 78.9336 251.473 78.9336" stroke="#DE8864" stroke-width="1.5" stroke-miterlimit="10" stroke-linecap="round" stroke-linejoin="round"/>
<path d="M263.254 74.9145C264.934 73.4445 269.814 73.6845 268.914 78.9445C267.824 85.2945 265.434 96.3745 263.724 99.2145C262.014 102.055 259.364 103.195 258.044 101.675C256.714 100.165 261.534 76.4045 263.254 74.9145Z" fill="#EEC6B5"/>
<path d="M253.774 69.0944C254.264 68.0644 247.814 65.4244 241.624 65.5544C237.044 65.6544 234.144 68.3644 234.104 69.6644C234.084 70.2644 237.934 69.6344 243.454 69.4744C249.964 69.2844 253.504 69.6544 253.774 69.0944Z" fill="#080F29"/>
<path d="M190.844 160.344C189.424 172.604 188.944 184.954 189.084 185.444C189.334 186.324 204.904 179.834 211.334 178.334C216.414 177.154 223.054 175.454 225.734 175.454C228.414 175.454 235.054 177.144 240.134 178.334C246.564 179.834 262.134 186.334 262.384 185.444" stroke="#050F3A" stroke-width="1.3" stroke-miterlimit="10" stroke-linecap="round" stroke-linejoin="round"/>
<path d="M201.064 153.494C199.914 151.494 199.304 149.444 199.304 147.084C199.304 140.514 199.304 138.264 199.334 134.384C198.144 135.104 197.104 136.014 196.264 137.164C193.734 140.654 191.854 150.364 190.834 160.314C193.294 155.854 195.254 151.204 196.974 150.324C198.804 149.404 199.754 151.194 201.064 153.494Z" fill="#85B0DF"/>
<path d="M394.974 416.584C399.774 414.564 403.564 407.494 404.574 405.724C404.704 405.494 404.934 405.304 405.224 405.134C401.334 405.754 388.234 407.514 374.254 409.014C360.104 410.534 344.634 400.874 344.634 400.874L255.074 443.114C254.174 443.534 254.024 445.224 254.214 447.274C254.244 447.044 254.254 446.904 254.254 446.904C254.254 446.904 274.664 456.764 278.704 457.274C282.744 457.784 320.674 443.574 330.574 439.114C339.944 434.894 390.174 418.604 394.974 416.584Z" fill="#050F3A"/>
<path d="M264.364 480.124C265.434 481.914 267.274 486.064 272.074 487.074C276.874 488.084 305.424 487.204 309.334 487.074C313.244 486.944 327.184 489.604 337.334 488.964C347.484 488.334 359.734 483.914 364.034 480.124C368.324 476.334 372.624 472.164 373.124 467.994C373.634 463.824 372.994 457.044 368.954 451.324C364.844 445.514 356.484 437.804 342.424 437.804C329.414 437.804 323.544 441.934 315.644 442.984C306.174 444.244 298.974 444.624 289.874 444.874C280.774 445.124 272.324 445.644 268.024 449.524C258.174 458.394 261.944 476.094 264.364 480.124Z" fill="#080F29"/>
<path d="M369.524 471.594C369.844 467.554 369.654 459.914 365.984 454.474C361.164 447.324 355.594 443.464 346.094 441.444C337.334 439.574 330.014 441.274 324.874 442.354C323.674 442.604 327.594 440.834 331.754 440.204C335.924 439.574 343.514 438.604 350.574 440.494C358.024 442.484 365.034 447.214 368.764 453.534C373.964 462.344 369.964 471.154 369.524 471.594Z" fill="#132B5D"/>
<path d="M281.034 457.184C283.564 463.434 283.564 472.184 281.034 477.344" stroke="#092B69" stroke-width="1.3" stroke-miterlimit="10" stroke-linecap="round" stroke-linejoin="round"/>
<path d="M288.994 457.824C291.524 463.674 291.524 471.864 288.994 476.694" stroke="#092B69" stroke-width="1.3" stroke-miterlimit="10" stroke-linecap="round" stroke-linejoin="round"/>
<path d="M296.954 459.094C299.484 464.164 299.484 471.254 296.954 475.444" stroke="#092B69" stroke-width="1.3" stroke-miterlimit="10" stroke-linecap="round" stroke-linejoin="round"/>
<path d="M83.4036 409.574C94.1536 416.324 109.504 433.254 108.234 435.524C106.974 437.794 74.8936 431.984 74.1836 434.514C74.6336 434.684 75.0536 434.854 75.3936 435.014C79.1836 436.784 98.9536 451.054 112.154 453.524C125.404 455.994 152.704 460.534 152.704 460.534C152.704 460.534 228.994 499.624 231.024 499.624C233.054 499.624 249.464 485.544 249.974 484.024C249.974 484.024 116.834 427.944 77.6836 401.414C74.2936 399.144 74.8436 404.204 83.4036 409.574Z" fill="#050F3A"/>
<path d="M250.384 481.325C253.664 481.835 264.364 483.405 267.264 483.275C270.174 483.145 277.824 476.105 277.874 467.615C277.914 460.675 274.714 452.205 271.934 450.435C269.154 448.665 254.254 446.895 254.254 446.895L250.384 481.325Z" fill="#050F3A"/>
<path d="M364.294 461.434C363.504 462.264 363.454 459.084 360.624 454.854C359.344 452.944 361.624 451.944 363.204 453.714C364.784 455.494 365.374 460.304 364.294 461.434Z" fill="#B0D0EF"/>
<path d="M417.264 389.974C419.034 388.454 421.254 386.014 421.254 386.014C418.984 387.274 384.244 399.274 384.244 399.274C384.644 401.034 406.854 393.434 417.264 389.974Z" fill="#050F3A"/>
<path d="M242.933 347.204C243.063 348.814 242.774 350.424 242.094 351.884C238.834 358.864 228.854 379.694 225.894 379.694C222.934 379.694 212.954 358.864 209.694 351.884C209.014 350.424 208.724 348.804 208.854 347.204L221.274 195.284H230.524L242.933 347.204Z" fill="#2171C5"/>
<path d="M234.374 367.474L209.044 344.734" stroke="#050F3A" stroke-width="1.3" stroke-miterlimit="10" stroke-linecap="round" stroke-linejoin="round"/>
<path d="M209.534 338.704L236.664 363.054" stroke="#050F3A" stroke-width="1.3" stroke-miterlimit="10" stroke-linecap="round" stroke-linejoin="round"/>
<path d="M211.744 311.664L242.264 339.064" stroke="#050F3A" stroke-width="1.3" stroke-miterlimit="10" stroke-linecap="round" stroke-linejoin="round"/>
<path d="M212.234 305.634L241.694 332.084" stroke="#050F3A" stroke-width="1.3" stroke-miterlimit="10" stroke-linecap="round" stroke-linejoin="round"/>
<path d="M214.444 278.594L239.134 300.754" stroke="#050F3A" stroke-width="1.3" stroke-miterlimit="10" stroke-linecap="round" stroke-linejoin="round"/>
<path d="M214.944 272.563L238.564 293.773" stroke="#050F3A" stroke-width="1.3" stroke-miterlimit="10" stroke-linecap="round" stroke-linejoin="round"/>
<path d="M217.154 245.524L236.004 262.444" stroke="#050F3A" stroke-width="1.3" stroke-miterlimit="10" stroke-linecap="round" stroke-linejoin="round"/>
<path d="M217.644 239.494L235.434 255.464" stroke="#050F3A" stroke-width="1.3" stroke-miterlimit="10" stroke-linecap="round" stroke-linejoin="round"/>
<path d="M228.324 176.294L213.884 183.074" stroke="#050F3A" stroke-width="1.3" stroke-miterlimit="10" stroke-linecap="round" stroke-linejoin="round"/>
<path d="M216.764 187.044L236.154 177.934" stroke="#050F3A" stroke-width="1.3" stroke-miterlimit="10" stroke-linecap="round" stroke-linejoin="round"/>
<path d="M233.434 189.634L221.264 195.284" stroke="#050F3A" stroke-width="1.3" stroke-miterlimit="10" stroke-linecap="round" stroke-linejoin="round"/>
<path d="M219.854 212.454L232.873 224.144" stroke="#050F3A" stroke-width="1.3" stroke-miterlimit="10" stroke-linecap="round" stroke-linejoin="round"/>
<path d="M220.344 206.424L232.304 217.154" stroke="#050F3A" stroke-width="1.3" stroke-miterlimit="10" stroke-linecap="round" stroke-linejoin="round"/>
<path d="M221.264 195.284H230.104" stroke="#050F3A" stroke-width="1.3" stroke-miterlimit="10" stroke-linecap="round" stroke-linejoin="round"/>
<path d="M303.694 27.3642L230.294 0.624176C229.674 0.394176 229.024 0.28418 228.374 0.28418C227.724 0.28418 227.074 0.394176 226.454 0.624176L153.054 27.3642C152.284 27.6442 152.284 28.7342 153.054 29.0242L184.404 40.4442C183.864 46.8342 184.564 56.5742 184.974 56.2942C192.654 50.9542 204.374 46.1942 228.374 46.1942C252.374 46.1942 264.734 51.4042 272.424 56.7442C272.834 57.0242 272.884 46.8342 272.344 40.4542L303.694 29.0342C304.474 28.7442 304.474 27.6442 303.694 27.3642Z" fill="#092B69"/>
<path d="M262.654 28.6542C264.784 28.0742 266.414 25.8942 262.824 24.0642C255.154 20.1542 242.504 18.0442 228.384 18.0442C223.414 18.0042 229.094 10.9442 230.764 7.77419C232.434 4.60419 232.644 1.48417 230.334 0.634171L230.304 0.624176C229.684 0.394176 229.034 0.28418 228.384 0.28418C227.734 0.28418 227.084 0.394176 226.464 0.624176L153.064 27.3642C152.294 27.6442 152.294 28.7342 153.064 29.0242L184.414 40.4442C183.874 46.8342 184.574 56.5742 184.984 56.2942C192.614 50.9942 204.234 46.2542 227.914 46.1942C239.444 30.5342 259.984 29.3942 262.654 28.6542Z" fill="#050F3A"/>
<path d="M303.715 28.2939C303.715 30.3739 305.425 73.014 305.795 75.094" stroke="#CC9F3B" stroke-width="1.3" stroke-miterlimit="10" stroke-linecap="round" stroke-linejoin="round"/>
<path d="M308.454 75.594C308.454 73.814 307.264 72.374 305.804 72.374C304.344 72.374 303.154 73.814 303.154 75.594C303.154 76.594 303.534 77.474 304.124 78.064C303.904 81.654 303.234 92.514 303.154 93.304C303.064 94.254 304.954 93.874 305.234 94.824C305.514 95.774 305.234 96.904 305.234 97.474C305.234 98.044 308.644 97.854 308.454 96.144C308.304 94.754 307.644 83.024 307.304 78.234C307.994 77.664 308.454 76.694 308.454 75.594Z" fill="#CC9F3B"/>
</svg>
